<?xml version="1.0" standalone="no"?>
<!DOCTYPE svg PUBLIC "-//W3C//DTD SVG 1.1//EN" "http://www.w3.org/Graphics/SVG/1.1/DTD/svg11.dtd" >
<svg xmlns="http://www.w3.org/2000/svg" xmlns:xlink="http://www.w3.org/1999/xlink" version="1.1">
<metadata>
Created by FontForge 20170731 at Wed Jun  8 02:40:47 2016
 By Aleksey,,,
Copyright (c) Milos Mitrovic, 2016. All rights reserved.
</metadata>
<defs>
<font id="NoirPro-Medium" horiz-adv-x="624" >
  <font-face 
    font-family="Noir Pro Medium"
    font-weight="500"
    font-stretch="normal"
    units-per-em="1000"
    panose-1="0 0 6 0 0 0 0 0 0 0"
    ascent="800"
    descent="-200"
    x-height="496"
    cap-height="672"
    bbox="-168 -304 1136 1120"
    underline-thickness="50"
    underline-position="-200"
    unicode-range="U+0020-25CA"
  />
<missing-glyph horiz-adv-x="528" 
d="M433 800v-1056h-335v1056h335zM352 729h-175v-35h69v-39h-70v-35h176v35h-70v39h70v35zM282 593h-106v-110h176v36h-70v74zM246 557v-38h-35v38h35zM352 455h-176v-35h70v-39h-70v-35h106v74h70v35zM352 391h-35v-69h-141v-36h176v105zM352 262h-106v-59h36v25h35v-50
h-106v84h-35v-119h176v119zM352 80h-176v-120h176v120zM317 45v-50h-106v50h106zM352 -64h-176v-35h74l-74 -49v-35h176v35h-108l74 49h34v35z" />
    <glyph glyph-name=".notdef" horiz-adv-x="528" 
d="M433 800v-1056h-335v1056h335zM352 729h-175v-35h69v-39h-70v-35h176v35h-70v39h70v35zM282 593h-106v-110h176v36h-70v74zM246 557v-38h-35v38h35zM352 455h-176v-35h70v-39h-70v-35h106v74h70v35zM352 391h-35v-69h-141v-36h176v105zM352 262h-106v-59h36v25h35v-50
h-106v84h-35v-119h176v119zM352 80h-176v-120h176v120zM317 45v-50h-106v50h106zM352 -64h-176v-35h74l-74 -49v-35h176v35h-108l74 49h34v35z" />
    <glyph glyph-name=".null" horiz-adv-x="0" 
 />
    <glyph glyph-name="nonmarkingreturn" horiz-adv-x="333" 
 />
    <glyph glyph-name="space" unicode=" " horiz-adv-x="304" 
 />
    <glyph glyph-name="exclam" unicode="!" horiz-adv-x="288" 
d="M104 192l-32 480h144l-32 -480h-80zM144 -16q-34 0 -57 23t-23 57t23 57t57 23t57 -23t23 -57t-23 -57t-57 -23z" />
    <glyph glyph-name="quotedbl" unicode="&#x22;" horiz-adv-x="416" 
d="M152 448h-88l-16 224h120zM352 448h-88l-16 224h120z" />
    <glyph glyph-name="numbersign" unicode="#" horiz-adv-x="704" 
d="M656 416h-123l-29 -176h104v-80h-117l-27 -160h-96l27 160h-144l-27 -160h-96l27 160h-107v80h120l29 176h-101v80h115l29 176h96l-29 -176h144l29 176h96l-29 -176h109v-80zM264 240h144l29 176h-144z" />
    <glyph glyph-name="dollar" unicode="$" horiz-adv-x="608" 
d="M576 200q0 -88 -62.5 -148t-177.5 -67v-65h-48v64q-151 7 -256 112l64 112q41 -47 100 -71.5t112 -24.5q66 0 103 22t37 58q0 64 -136 84q-138 21 -197 71.5t-59 130.5q0 83 62 142.5t170 66.5v65h48v-65q115 -5 208 -81l-54 -110q-74 64 -178 64q-56 0 -92 -17.5
t-36 -55.5q0 -33 30 -50t106 -29q61 -10 103 -23t79 -35.5t55.5 -60t18.5 -89.5z" />
    <glyph glyph-name="percent" unicode="%" horiz-adv-x="800" 
d="M201 384q-64 0 -108.5 44t-44.5 108q0 63 44.5 107.5t108.5 44.5q63 0 107 -44.5t44 -107.5q0 -64 -44 -108t-107 -44zM206 0h-80l468 672h80zM200 464q29 0 50.5 21.5t21.5 50.5t-21.5 50.5t-50.5 21.5t-50.5 -21.5t-21.5 -50.5t21.5 -50.5t50.5 -21.5zM601 -16
q-64 0 -108.5 44t-44.5 108q0 63 44.5 107.5t108.5 44.5q63 0 107 -44.5t44 -107.5q0 -64 -44 -108t-107 -44zM600 64q29 0 50.5 21.5t21.5 50.5t-21.5 50.5t-50.5 21.5t-50.5 -21.5t-21.5 -50.5t21.5 -50.5t50.5 -21.5z" />
    <glyph glyph-name="ampersand" unicode="&#x26;" horiz-adv-x="800" 
d="M752 320l-178 -160l177 -160h-198l-73 68q-39 -36 -94.5 -60t-112.5 -24q-101 0 -163 56.5t-62 148.5q0 63 36 109t85 71q-39 41 -58 73t-19 68q0 81 66 129.5t168 48.5q92 0 155.5 -52.5t63.5 -133.5q0 -30 -10.5 -55.5t-21.5 -40.5t-37 -33t-35.5 -22.5t-38.5 -18.5
q-7 -3 -10 -5l90 -82l89 75h181zM301 410q115 40 115 90q0 29 -29.5 48.5t-65.5 19.5q-43 0 -70 -18t-27 -43q0 -34 77 -97zM278 112q55 0 110 46l-134 130q-31 -12 -54.5 -36.5t-23.5 -53.5q0 -37 28 -61.5t74 -24.5z" />
    <glyph glyph-name="quotesingle" unicode="'" horiz-adv-x="216" 
d="M152 448h-88l-16 224h120z" />
    <glyph glyph-name="parenleft" unicode="(" horiz-adv-x="336" 
d="M304 720q-128 -194 -128 -416t128 -416l-128 -48q-128 232 -128 464t128 464z" />
    <glyph glyph-name="parenright" unicode=")" horiz-adv-x="336" 
d="M32 720l128 48q128 -232 128 -464t-128 -464l-128 48q128 194 128 416t-128 416z" />
    <glyph glyph-name="asterisk" unicode="*" horiz-adv-x="432" 
d="M252 591l101 45l31 -77l-108 -35l73 -92l-66 -48l-67 96l-64 -96l-68 48l72 92l-108 35l31 77l102 -45l-5 113h82z" />
    <glyph glyph-name="plus" unicode="+" horiz-adv-x="496" 
d="M448 344v-80h-160v-160h-80v160h-160v80h160v160h80v-160h160z" />
    <glyph glyph-name="comma" unicode="," horiz-adv-x="280" 
d="M32 -112l56 240h144l-120 -240h-80z" />
    <glyph glyph-name="hyphen" unicode="-" horiz-adv-x="384" 
d="M336 216h-288v96h288v-96z" />
    <glyph glyph-name="period" unicode="." horiz-adv-x="256" 
d="M128 -16q-34 0 -57 23t-23 57t23 57t57 23t57 -23t23 -57t-23 -57t-57 -23z" />
    <glyph glyph-name="slash" unicode="/" horiz-adv-x="512" 
d="M144 -80h-96l320 832h96z" />
    <glyph glyph-name="zero" unicode="0" 
d="M312 688q116 0 190 -102t74 -250t-74 -250t-190 -102q-117 0 -190.5 101.5t-73.5 250.5q0 148 74 250t190 102zM312 112q56 0 96 65.5t40 158.5t-40 158.5t-96 65.5t-96 -65.5t-40 -158.5t40 -158.5t96 -65.5z" />
    <glyph glyph-name="one" unicode="1" horiz-adv-x="400" 
d="M64 624l256 64v-688h-128v532l-128 -28v120z" />
    <glyph glyph-name="two" unicode="2" 
d="M64 448q6 103 70 171.5t170 68.5q105 0 172.5 -60t67.5 -164q0 -76 -48 -147.5t-160 -188.5h240v-128h-528l272 288q96 105 96 168q0 49 -29.5 76.5t-82.5 27.5q-51 0 -79.5 -35.5t-32.5 -92.5z" />
    <glyph glyph-name="three" unicode="3" horiz-adv-x="608" 
d="M466 355q37 -13 65.5 -56t28.5 -91q0 -40 -13.5 -77.5t-42 -71.5t-80.5 -54.5t-120 -20.5q-115 0 -181.5 60t-74.5 164l128 16q8 -53 38.5 -82.5t95.5 -29.5q45 0 83.5 23t38.5 65q0 92 -176 92v104q19 1 39 3.5t51 10.5t50.5 27t19.5 47q0 33 -29 54.5t-77 21.5
q-107 0 -118 -104l-128 16q8 96 74.5 156t165.5 60q116 0 178 -60t62 -132q0 -93 -78 -141z" />
    <glyph glyph-name="four" unicode="4" horiz-adv-x="640" 
d="M512 256h80v-128h-80v-128h-128v128h-336v112l304 432h160v-416zM384 256v264l-179 -264h179z" />
    <glyph glyph-name="five" unicode="5" horiz-adv-x="608" 
d="M335 448q91 0 158 -58.5t67 -154.5q0 -117 -71.5 -184t-184.5 -67q-118 0 -184 59.5t-72 156.5l128 10q5 -43 37 -70.5t91 -27.5q55 0 91.5 31t36.5 81q0 43 -31.5 73.5t-88.5 30.5q-88 0 -136 -56h-112l64 400h368v-128h-264l-18 -128q43 32 121 32z" />
    <glyph glyph-name="six" unicode="6" 
d="M336 468q107 0 173.5 -67t66.5 -161q0 -113 -74.5 -184.5t-189.5 -71.5q-117 0 -190.5 72t-73.5 191q0 15 1.5 31t7 54t22 76.5t41 84t69 92.5t101.5 87h206q-7 -3 -19 -8t-46.5 -24.5t-65.5 -43t-67.5 -63.5t-61.5 -85q35 20 100 20zM312 112q59 0 97.5 33.5t38.5 82.5
t-37.5 82.5t-98.5 33.5q-59 0 -97.5 -33.5t-38.5 -82.5t38.5 -82.5t97.5 -33.5z" />
    <glyph glyph-name="seven" unicode="7" horiz-adv-x="560" 
d="M48 672h512l-288 -672h-144l240 544h-320v128z" />
    <glyph glyph-name="eight" unicode="8" 
d="M488 377q88 -64 88 -169q0 -98 -76.5 -161t-187.5 -63t-187.5 63t-76.5 161q0 103 87 169q-55 47 -55 119q0 82 67.5 137t164.5 55q96 0 163.5 -55t67.5 -137q0 -70 -55 -119zM312 560q-43 0 -73.5 -21t-30.5 -51t30.5 -51t73.5 -21t73.5 21t30.5 51t-30.5 51t-73.5 21z
M312 112q56 0 96 30.5t40 73.5t-40 73.5t-96 30.5t-96 -30.5t-40 -73.5t40 -73.5t96 -30.5z" />
    <glyph glyph-name="nine" unicode="9" 
d="M288 204q-107 0 -173.5 67t-66.5 161q0 113 74.5 184.5t189.5 71.5q117 0 190.5 -72t73.5 -191q0 -15 -1.5 -31t-7 -54t-22 -76.5t-41 -84t-69 -92.5t-101.5 -87h-206q7 3 19 9t46.5 26.5t65.5 44.5t67.5 63t61.5 81q-35 -20 -100 -20zM312 560q-59 0 -97.5 -33.5
t-38.5 -82.5t37.5 -82.5t98.5 -33.5q59 0 97.5 33.5t38.5 82.5t-38.5 82.5t-97.5 33.5z" />
    <glyph glyph-name="colon" unicode=":" horiz-adv-x="256" 
d="M128 352q-34 0 -57 23t-23 57t23 57t57 23t57 -23t23 -57t-23 -57t-57 -23zM128 -16q-34 0 -57 23t-23 57t23 57t57 23t57 -23t23 -57t-23 -57t-57 -23z" />
    <glyph glyph-name="semicolon" unicode=";" horiz-adv-x="288" 
d="M160 352q-34 0 -57 23t-23 57t23 57t57 23t57 -23t23 -57t-23 -57t-57 -23zM32 -112l56 240h144l-120 -240h-80z" />
    <glyph glyph-name="less" unicode="&#x3c;" horiz-adv-x="528" 
d="M480 64l-432 208v64l432 208v-96l-312 -144l312 -144v-96z" />
    <glyph glyph-name="equal" unicode="=" horiz-adv-x="512" 
d="M48 416h416v-80h-416v80zM48 272h416v-80h-416v80z" />
    <glyph glyph-name="greater" unicode="&#x3e;" horiz-adv-x="528" 
d="M48 64v96l312 144l-312 144v96l432 -208v-64z" />
    <glyph glyph-name="question" unicode="?" horiz-adv-x="528" 
d="M256 688q110 0 167 -58.5t57 -133.5q0 -56 -21.5 -98.5t-74.5 -83.5q-71 -55 -72 -122h-112q-6 102 48 157q12 12 35 31.5t35.5 31.5t23 31t10.5 39q0 42 -27.5 60t-67.5 18q-89 0 -145 -72l-64 104q91 96 208 96zM256 144q34 0 57 -23t23 -57t-23 -57t-57 -23t-57 23
t-23 57t23 57t57 23z" />
    <glyph glyph-name="at" unicode="@" horiz-adv-x="1074" 
d="M1026 330q0 -111 -62.5 -188.5t-168.5 -77.5q-103 0 -149 89q-22 -32 -64 -52.5t-87 -20.5q-93 0 -143.5 64t-43.5 154q7 92 65 153t147 61q40 0 74.5 -19t49.5 -43l4 46h108l-23 -236q-4 -40 11.5 -69t58.5 -29q41 0 78 39t37 127q0 145 -111 246.5t-263 101.5
q-161 0 -274.5 -113t-113.5 -275q0 -160 113.5 -273t274.5 -115q78 -1 152 29l29 -103q-83 -34 -181 -34q-135 0 -249 66.5t-180.5 180.5t-66.5 249t66.5 249t180.5 180.5t249 66.5q126 0 237 -61t178 -166.5t67 -226.5zM631 297q2 30 -5.5 57.5t-32.5 49.5t-65 22
q-48 0 -81 -36.5t-38 -90.5q-5 -51 20 -91t81 -40q53 0 84.5 36.5t36.5 92.5z" />
    <glyph glyph-name="A" unicode="A" horiz-adv-x="672" 
d="M528 0l-50 128h-284l-50 -128h-144l278 672h116l278 -672h-144zM243 256h186l-93 240z" />
    <glyph glyph-name="B" unicode="B" 
d="M479 361q58 -15 85.5 -58t27.5 -101q0 -89 -62 -145.5t-168 -56.5h-298v672h240q121 0 188.5 -43t67.5 -133q0 -48 -22.5 -83.5t-58.5 -51.5zM192 544v-128h120q120 0 120 64q0 37 -29 50.5t-91 13.5h-120zM328 128q136 0 136 88q0 44 -36 66t-100 22h-136v-176h136z" />
    <glyph glyph-name="C" unicode="C" horiz-adv-x="640" 
d="M392 112q100 0 167 69l49 -116q-42 -38 -101 -59.5t-117 -21.5q-148 0 -253 103.5t-105 248.5t105 248.5t253 103.5q58 0 117 -21t101 -59l-49 -116q-70 68 -167 68q-96 0 -164 -65.5t-68 -158.5t68 -158.5t164 -65.5z" />
    <glyph glyph-name="D" unicode="D" horiz-adv-x="672" 
d="M287 672q167 0 260 -95t93 -241q0 -145 -94.5 -240.5t-258.5 -95.5h-223v672h223zM310 128q89 0 145.5 60t56.5 148t-56.5 148t-145.5 60h-118v-416h118z" />
    <glyph glyph-name="E" unicode="E" horiz-adv-x="528" 
d="M480 544h-288v-144h240v-128h-240v-144h288v-128h-416v672h416v-128z" />
    <glyph glyph-name="F" unicode="F" horiz-adv-x="512" 
d="M192 0h-128v672h416v-128h-288v-144h240v-128h-240v-272z" />
    <glyph glyph-name="G" unicode="G" horiz-adv-x="752" 
d="M715 392q5 -32 5 -56q0 -147 -96 -249.5t-240 -102.5q-146 0 -249 103t-103 249t103 249t249 103q101 0 180 -52t124 -140l-129 -36q-27 46 -72.5 73t-102.5 27q-93 0 -158.5 -65.5t-65.5 -158.5t65.5 -158.5t158.5 -65.5q72 0 125 42t73 110h-246v128h379z" />
    <glyph glyph-name="H" unicode="H" horiz-adv-x="672" 
d="M480 672h128v-672h-128v272h-288v-272h-128v672h128v-272h288v272z" />
    <glyph glyph-name="I" unicode="I" horiz-adv-x="256" 
d="M192 0h-128v672h128v-672z" />
    <glyph glyph-name="J" unicode="J" horiz-adv-x="464" 
d="M288 672h128v-416q0 -139 -62 -205.5t-170 -66.5q-40 0 -85 18t-67 44l70 106q32 -40 82 -40q49 0 76.5 34.5t27.5 85.5v440z" />
    <glyph glyph-name="K" unicode="K" 
d="M304 351l304 -351h-162l-254 294v-294h-128v672h128v-278l238 278h162z" />
    <glyph glyph-name="L" unicode="L" horiz-adv-x="496" 
d="M192 128h272v-128h-400v672h128v-544z" />
    <glyph glyph-name="M" unicode="M" horiz-adv-x="864" 
d="M736 672l96 -672h-136l-56 440l-176 -440h-64l-176 440l-56 -440h-136l96 672h128l176 -432l176 432h128z" />
    <glyph glyph-name="N" unicode="N" horiz-adv-x="720" 
d="M528 672h128v-672h-128l-336 464v-464h-128v672h128l336 -464v464z" />
    <glyph glyph-name="O" unicode="O" horiz-adv-x="768" 
d="M384 688q146 0 249 -103t103 -249t-103 -249t-249 -103t-249 103t-103 249t103 249t249 103zM384 112q93 0 158.5 65.5t65.5 158.5t-65.5 158.5t-158.5 65.5t-158.5 -65.5t-65.5 -158.5t65.5 -158.5t158.5 -65.5z" />
    <glyph glyph-name="P" unicode="P" horiz-adv-x="592" 
d="M304 672q127 0 191.5 -61t64.5 -163q0 -91 -61 -157.5t-163 -66.5h-144v-224h-128v672h240zM320 352q47 0 79.5 27t32.5 69q0 46 -31.5 71t-80.5 25h-128v-192h128z" />
    <glyph glyph-name="Q" unicode="Q" horiz-adv-x="768" 
d="M752 0h-168l-25 31q-81 -47 -175 -47q-146 0 -249 103t-103 249t103 249t249 103t249 -103t103 -249q0 -130 -85 -229zM384 112q48 0 92 19l-116 141h136l67 -71q45 59 45 135q0 93 -65.5 158.5t-158.5 65.5t-158.5 -65.5t-65.5 -158.5t65.5 -158.5t158.5 -65.5z" />
    <glyph glyph-name="R" unicode="R" horiz-adv-x="608" 
d="M576 0h-156l-151 224h-77v-224h-128v672h240q127 0 191.5 -61t64.5 -163q0 -73 -41 -132.5t-113 -81.5zM192 544v-192h128q47 0 79.5 27t32.5 69q0 46 -31.5 71t-80.5 25h-128z" />
    <glyph glyph-name="S" unicode="S" horiz-adv-x="608" 
d="M320 408q61 -10 103 -23t79 -35.5t55.5 -60t18.5 -89.5q0 -94 -70.5 -155t-199.5 -61q-162 0 -274 112l64 112q41 -47 100 -71.5t112 -24.5q66 0 103 22t37 58q0 64 -136 84q-138 21 -197 71.5t-59 130.5q0 88 69 149t189 61q130 0 230 -82l-54 -110q-74 64 -178 64
q-56 0 -92 -17.5t-36 -55.5q0 -33 30 -50t106 -29z" />
    <glyph glyph-name="T" unicode="T" horiz-adv-x="544" 
d="M32 672h480v-128h-176v-544h-128v544h-176v128z" />
    <glyph glyph-name="U" unicode="U" horiz-adv-x="640" 
d="M464 672h128v-384q0 -136 -72.5 -220t-199.5 -84q-129 0 -200.5 84t-71.5 220v384h128v-400q0 -71 41.5 -115.5t102.5 -44.5t102.5 44.5t41.5 115.5v400z" />
    <glyph glyph-name="V" unicode="V" horiz-adv-x="640" 
d="M272 0l-272 672h144l176 -448l176 448h144l-272 -672h-96z" />
    <glyph glyph-name="W" unicode="W" horiz-adv-x="992" 
d="M552 672l128 -448l160 448h144l-240 -672h-128l-120 416l-120 -416h-128l-240 672h144l160 -448l128 448h112z" />
    <glyph glyph-name="X" unicode="X" horiz-adv-x="688" 
d="M434 352l238 -352h-160l-168 256l-168 -256h-160l238 352l-223 320h161l152 -236l152 236h161z" />
    <glyph glyph-name="Y" unicode="Y" horiz-adv-x="608" 
d="M456 672h152l-240 -400v-272h-128v272l-240 400h152l152 -272z" />
    <glyph glyph-name="Z" unicode="Z" horiz-adv-x="608" 
d="M560 0h-528l320 544h-304v128h528l-320 -544h304v-128z" />
    <glyph glyph-name="bracketleft" unicode="[" horiz-adv-x="336" 
d="M192 704v-784h80v-128h-208v1040h208v-128h-80z" />
    <glyph glyph-name="backslash" unicode="\" horiz-adv-x="512" 
d="M368 -80l-320 832h96l320 -832h-96z" />
    <glyph glyph-name="bracketright" unicode="]" horiz-adv-x="336" 
d="M144 704h-80v128h208v-1040h-208v128h80v784z" />
    <glyph glyph-name="asciicircum" unicode="^" horiz-adv-x="528" 
d="M48 448l170 256h92l170 -256h-96l-120 184l-120 -184h-96z" />
    <glyph glyph-name="underscore" unicode="_" horiz-adv-x="560" 
d="M528 -128h-496v96h496v-96z" />
    <glyph glyph-name="grave" unicode="`" horiz-adv-x="800" 
d="M488 736h-80l-144 144h144z" />
    <glyph glyph-name="a" unicode="a" 
d="M432 496h128v-496h-128v53q-60 -69 -152 -69q-103 0 -175.5 77.5t-72.5 186.5t72.5 186.5t175.5 77.5q92 0 152 -69v53zM296 112q56 0 96 40t40 96t-40 96t-96 40t-96 -40t-40 -96t40 -96t96 -40z" />
    <glyph glyph-name="b" unicode="b" 
d="M344 512q103 0 175.5 -77.5t72.5 -186.5t-72.5 -186.5t-175.5 -77.5q-92 0 -152 69v-53h-128v704h128v-261q60 69 152 69zM328 112q56 0 96 40t40 96t-40 96t-96 40t-96 -40t-40 -96t40 -96t96 -40z" />
    <glyph glyph-name="c" unicode="c" horiz-adv-x="512" 
d="M312 112q70 0 115 45l53 -114q-61 -59 -172 -59q-127 0 -201.5 75.5t-74.5 188.5t75 188.5t201 75.5q106 0 172 -59l-53 -115q-46 46 -115 46t-110.5 -39t-41.5 -97t41.5 -97t110.5 -39z" />
    <glyph glyph-name="d" unicode="d" 
d="M280 512q92 0 152 -69v261h128v-704h-128v53q-60 -69 -152 -69q-103 0 -175.5 77.5t-72.5 186.5t72.5 186.5t175.5 77.5zM296 112q56 0 96 40t40 96t-40 96t-96 40t-96 -40t-40 -96t40 -96t96 -40z" />
    <glyph glyph-name="e" unicode="e" horiz-adv-x="560" 
d="M528 248q0 -14 -2 -40h-361q14 -51 51.5 -81.5t95.5 -30.5q83 0 148 46l37 -111q-8 -5 -22.5 -13t-63 -21t-101.5 -13q-138 0 -208 74t-70 190t66 190t190 74q116 0 178 -69.5t62 -194.5zM168 304h224q0 36 -29.5 66t-82.5 30q-45 0 -78.5 -31.5t-33.5 -64.5z" />
    <glyph glyph-name="f" unicode="f" horiz-adv-x="384" 
d="M32 496h64q2 224 160 224q42 0 80 -16v-112q-24 5 -41.5 5.5t-29.5 -1.5t-20 -10t-12 -14.5t-6 -21.5t-2.5 -24.5t-0.5 -29.5h112v-112h-112v-384h-128v384h-64v112z" />
    <glyph glyph-name="g" unicode="g" 
d="M432 496h128v-448q0 -156 -70.5 -238t-201.5 -82q-47 0 -92 10.5t-77 27t-47 26t-24 16.5l60 113q28 -24 76 -44.5t104 -20.5q65 0 104.5 43.5t39.5 110.5v43q-60 -69 -152 -69q-103 0 -175.5 77.5t-72.5 186.5t72.5 186.5t175.5 77.5q92 0 152 -69v53zM296 112
q56 0 96 40t40 96t-40 96t-96 40t-96 -40t-40 -96t40 -96t96 -40z" />
    <glyph glyph-name="h" unicode="h" horiz-adv-x="576" 
d="M342 512q87 0 136.5 -57t49.5 -167v-288h-128v272q0 58 -23 85t-73 27q-48 0 -80 -32t-32 -96v-256h-128v704h128v-256q54 64 150 64z" />
    <glyph glyph-name="i" unicode="i" horiz-adv-x="256" 
d="M128 560q-37 0 -62.5 25.5t-25.5 62.5t25.5 62.5t62.5 25.5t62.5 -25.5t25.5 -62.5t-25.5 -62.5t-62.5 -25.5zM64 0v496h128v-496h-128z" />
    <glyph glyph-name="j" unicode="j" horiz-adv-x="256" 
d="M128 560q-37 0 -62.5 25.5t-25.5 62.5t25.5 62.5t62.5 25.5t62.5 -25.5t25.5 -62.5t-25.5 -62.5t-62.5 -25.5zM64 -16v512h128v-496q0 -80 -19.5 -136.5t-52 -84.5t-65.5 -39.5t-71 -11.5l-32 112q51 0 81.5 37.5t30.5 106.5z" />
    <glyph glyph-name="k" unicode="k" horiz-adv-x="560" 
d="M304 256l256 -256h-160l-208 196v-196h-128v704h128v-396l192 188h160z" />
    <glyph glyph-name="l" unicode="l" horiz-adv-x="256" 
d="M64 704h128v-704h-128v704z" />
    <glyph glyph-name="m" unicode="m" horiz-adv-x="848" 
d="M608 512q88 0 140 -57.5t52 -166.5v-288h-128v272q0 59 -17.5 85.5t-62.5 26.5q-96 0 -96 -128v-256h-128v272q0 58 -19 85t-61 27q-96 0 -96 -128v-256h-128v496h128v-48q51 64 128 64q94 0 139 -67q60 67 149 67z" />
    <glyph glyph-name="n" unicode="n" horiz-adv-x="576" 
d="M342 512q87 0 136.5 -57t49.5 -167v-288h-128v272q0 58 -23 85t-73 27q-48 0 -80 -32t-32 -96v-256h-128v496h128v-48q54 64 150 64z" />
    <glyph glyph-name="o" unicode="o" horiz-adv-x="592" 
d="M296 512q110 0 187 -77t77 -187t-77 -187t-187 -77t-187 77t-77 187t77 187t187 77zM296 112q56 0 96 40t40 96t-40 96t-96 40t-96 -40t-40 -96t40 -96t96 -40z" />
    <glyph glyph-name="p" unicode="p" 
d="M344 512q103 0 175.5 -77.5t72.5 -186.5t-72.5 -186.5t-175.5 -77.5q-92 0 -152 69v-309h-128v752h128v-53q60 69 152 69zM328 112q56 0 96 40t40 96t-40 96t-96 40t-96 -40t-40 -96t40 -96t96 -40z" />
    <glyph glyph-name="q" unicode="q" 
d="M280 512q92 0 152 -69v53h128v-752h-128v309q-60 -69 -152 -69q-103 0 -175.5 77.5t-72.5 186.5t72.5 186.5t175.5 77.5zM296 112q56 0 96 40t40 96t-40 96t-96 40t-96 -40t-40 -96t40 -96t96 -40z" />
    <glyph glyph-name="r" unicode="r" horiz-adv-x="432" 
d="M192 391q24 55 80 85.5t128 35.5v-151q-50 13 -96 0t-79 -52.5t-33 -100.5v-208h-128v496h128v-105z" />
    <glyph glyph-name="s" unicode="s" horiz-adv-x="512" 
d="M281 316q115 -18 157 -59t42 -97q0 -78 -58.5 -127t-159.5 -49q-78 0 -140.5 24t-89.5 48l42 120q32 -30 81.5 -49.5t94.5 -20.5q102 -2 102 43q0 16 -18.5 24t-69.5 17q-67 11 -111.5 27.5t-66.5 39t-30 46.5t-8 57q0 62 61 107t156 45q100 0 193 -48l-36 -116
q-21 15 -66 28t-91 14q-89 2 -89 -30q0 -27 89 -41q5 -1 8.5 -1.5t7.5 -1.5z" />
    <glyph glyph-name="t" unicode="t" horiz-adv-x="368" 
d="M96 141v243h-64v112h64v176h128v-176h96v-112h-96v-208q0 -53 24.5 -66t71.5 2v-112q-40 -16 -94 -16q-66 0 -98 42.5t-32 114.5z" />
    <glyph glyph-name="u" unicode="u" horiz-adv-x="576" 
d="M234 -16q-87 0 -136.5 57t-49.5 167v288h128v-272q0 -58 23.5 -85t72.5 -27q48 0 80 32t32 96v256h128v-496h-128v48q-54 -64 -150 -64z" />
    <glyph glyph-name="v" unicode="v" horiz-adv-x="512" 
d="M208 0l-208 496h144l112 -304l112 304h144l-208 -496h-96z" />
    <glyph glyph-name="w" unicode="w" horiz-adv-x="768" 
d="M616 496h144l-168 -496h-116l-92 272l-92 -272h-116l-168 496h144l88 -320l96 320h96l96 -320z" />
    <glyph glyph-name="x" unicode="x" horiz-adv-x="560" 
d="M360 264l184 -264h-160l-104 160l-104 -160h-160l184 264l-168 232h160l88 -140l88 140h160z" />
    <glyph glyph-name="y" unicode="y" horiz-adv-x="528" 
d="M384 496h144l-320 -752h-144l128 292l-192 460h144l120 -292z" />
    <glyph glyph-name="z" unicode="z" horiz-adv-x="496" 
d="M448 0h-416l216 368h-200v128h416l-216 -368h200v-128z" />
    <glyph glyph-name="braceleft" unicode="{" horiz-adv-x="400" 
d="M272 -22q0 -39 20 -68t60 -38l-64 -96q-144 48 -144 182v234q0 40 -31.5 71.5t-64.5 40.5q33 9 64.5 40.5t31.5 71.5v234q0 134 144 182l64 -96q-40 -9 -60 -38t-20 -68v-180q0 -114 -75 -146q75 -32 75 -146v-180z" />
    <glyph glyph-name="bar" unicode="|" horiz-adv-x="208" 
d="M144 -256h-80v1024h80v-1024z" />
    <glyph glyph-name="braceright" unicode="}" horiz-adv-x="400" 
d="M128 -22v180q0 114 75 146q-75 32 -75 146v180q0 39 -20 68t-60 38l64 96q144 -48 144 -182v-234q0 -40 31.5 -71.5t64.5 -40.5q-33 -9 -64.5 -40.5t-31.5 -71.5v-234q0 -134 -144 -182l-64 96q40 9 60 38t20 68z" />
    <glyph glyph-name="asciitilde" unicode="~" horiz-adv-x="560" 
d="M441 349l71 -34q-28 -51 -61.5 -68.5t-78.5 -17.5q-29 0 -131 37q-44 18 -73.5 10t-48.5 -47l-71 34q28 51 61.5 68.5t78.5 17.5q26 0 131 -38q44 -18 73.5 -9.5t48.5 47.5z" />
    <glyph glyph-name="exclamdown" unicode="&#xa1;" horiz-adv-x="288" 
d="M144 512q34 0 57 -23t23 -57t-23 -57t-57 -23t-57 23t-23 57t23 57t57 23zM104 304h80l32 -480h-144z" />
    <glyph glyph-name="cent" unicode="&#xa2;" horiz-adv-x="512" 
d="M427 157l53 -114q-54 -53 -152 -58v-65h-48v65q-115 9 -181.5 82.5t-66.5 180.5q0 106 67 180t181 83v65h48v-65q93 -5 152 -58l-53 -115q-46 46 -115 46t-110.5 -39t-41.5 -97t41.5 -97t110.5 -39q70 0 115 45z" />
    <glyph glyph-name="sterling" unicode="&#xa3;" horiz-adv-x="608" 
d="M488 176l88 -78q-31 -60 -80.5 -87t-98.5 -27q-9 0 -17 0.5t-14 1t-13.5 2t-11 2.5t-11.5 4t-10 3.5t-12 4.5t-12 5q-117 47 -154 -7l-110 112q12 30 49 56q45 31 43 128h-92v80h72q-24 72 -24 120q0 77 66 134.5t176 57.5q129 0 222 -80l-69 -112q-57 64 -135 64
q-130 0 -130 -87q0 -11 4 -27.5t10.5 -40t8.5 -29.5h167v-80h-149q4 -42 -7 -84.5t-35 -66.5q37 5 80 -7t70 -22t62 2t67 58z" />
    <glyph glyph-name="currency" unicode="&#xa4;" horiz-adv-x="526" 
d="M415 320q0 -46 -23 -81l86 -85l-47 -49l-87 85q-36 -22 -80 -22q-45 0 -83 24l-86 -87l-47 48l85 87q-22 36 -22 80q0 45 23 80l-86 88l49 47l85 -87q38 24 82 24t82 -24l83 87l49 -47l-86 -87q23 -35 23 -81zM263 248q29 0 50.5 21.5t21.5 50.5t-21.5 50.5t-50.5 21.5
t-50.5 -21.5t-21.5 -50.5t21.5 -50.5t50.5 -21.5z" />
    <glyph glyph-name="yen" unicode="&#xa5;" horiz-adv-x="672" 
d="M640 672l-240 -400h112v-48h-112v-64h112v-48h-112v-112h-128v112h-112v48h112v64h-112v48h112l-240 400h152l152 -272l152 272h152z" />
    <glyph glyph-name="brokenbar" unicode="&#xa6;" horiz-adv-x="208" 
d="M144 416h-80v352h80v-352zM144 -256h-80v352h80v-352z" />
    <glyph glyph-name="section" unicode="&#xa7;" horiz-adv-x="640" 
d="M592 296q0 -76 -45 -130q45 -48 45 -126q0 -94 -70.5 -155t-199.5 -61q-162 0 -274 112l64 112q41 -47 100 -71.5t112 -24.5q66 0 103 22t37 58q0 64 -136 84q-138 21 -197 71.5t-59 130.5q0 76 51 132q-51 48 -51 124q0 88 69 149t189 61q130 0 230 -82l-54 -110
q-74 64 -178 64q-56 0 -92 -17.5t-36 -55.5q0 -33 30 -50t106 -29q61 -10 103 -23t79 -35.5t55.5 -60t18.5 -89.5zM200 327q0 -33 30 -50t106 -29q53 -8 89 -19q39 21 39 59q0 64 -136 84q-37 5 -79 16q-49 -19 -49 -61z" />
    <glyph glyph-name="dieresis" unicode="&#xa8;" horiz-adv-x="800" 
d="M304 736q-27 0 -45.5 18.5t-18.5 45.5t18.5 45.5t45.5 18.5t45.5 -18.5t18.5 -45.5t-18.5 -45.5t-45.5 -18.5zM496 736q-27 0 -45.5 18.5t-18.5 45.5t18.5 45.5t45.5 18.5t45.5 -18.5t18.5 -45.5t-18.5 -45.5t-45.5 -18.5z" />
    <glyph glyph-name="copyright" unicode="&#xa9;" horiz-adv-x="704" 
d="M352 136q-128 0 -216 88.5t-88 215.5q0 129 87.5 216.5t216.5 87.5t216.5 -87.5t87.5 -216.5t-87.5 -216.5t-216.5 -87.5zM352 192q104 0 176 72t72 176t-72 176t-176 72t-176 -72t-72 -176t72 -176t176 -72zM369 341q44 0 74 30l22 -51q-41 -36 -97 -36q-65 0 -112 46
t-47 110t47 110t112 46q57 0 97 -35l-22 -52q-30 30 -74 30q-43 0 -73 -29t-30 -70t30 -70t73 -29z" />
    <glyph glyph-name="ordfeminine" unicode="&#xaa;" horiz-adv-x="360" 
d="M248 672h64v-248h-64v27q-30 -35 -76 -35q-51 0 -87.5 38.5t-36.5 93.5t36.5 93.5t87.5 38.5q46 0 76 -34v26zM180 480q28 0 48 20t20 48t-20 48t-48 20t-48 -20t-20 -48t20 -48t48 -20z" />
    <glyph glyph-name="guillemotleft" unicode="&#xab;" horiz-adv-x="640" 
d="M320 496l-160 -224l160 -224h-112l-160 224l160 224h112zM560 496l-160 -224l160 -224h-112l-160 224l160 224h112z" />
    <glyph glyph-name="logicalnot" unicode="&#xac;" 
d="M576 344v-232h-80v152h-448v80h528z" />
    <glyph glyph-name="registered" unicode="&#xae;" horiz-adv-x="704" 
d="M352 136q-128 0 -216 88.5t-88 215.5q0 129 87.5 216.5t216.5 87.5t216.5 -87.5t87.5 -216.5t-87.5 -216.5t-216.5 -87.5zM352 192q104 0 176 72t72 176t-72 176t-176 72t-176 -72t-72 -176t72 -176t176 -72zM476 290h-69l-68 100h-34v-100h-57v300h107q56 0 85 -27.5
t29 -72.5q0 -33 -18 -59.5t-51 -36.5zM305 533v-86h57q21 0 35.5 12t14.5 31q0 20 -14 31.5t-36 11.5h-57z" />
    <glyph glyph-name="macron" unicode="&#xaf;" horiz-adv-x="800" 
d="M544 752h-288v64h288v-64z" />
    <glyph glyph-name="degree" unicode="&#xb0;" horiz-adv-x="400" 
d="M201 384q-64 0 -108.5 44t-44.5 108q0 63 44.5 107.5t108.5 44.5q63 0 107 -44.5t44 -107.5q0 -64 -44 -108t-107 -44zM200 464q29 0 50.5 21.5t21.5 50.5t-21.5 50.5t-50.5 21.5t-50.5 -21.5t-21.5 -50.5t21.5 -50.5t50.5 -21.5z" />
    <glyph glyph-name="plusminus" unicode="&#xb1;" horiz-adv-x="496" 
d="M448 464v-80h-160v-160h-80v160h-160v80h160v160h80v-160h160zM48 120h400v-80h-400v80z" />
    <glyph glyph-name="uni00B2" unicode="&#xb2;" horiz-adv-x="360" 
d="M56 640q3 52 35 86t85 34t86.5 -29.5t33.5 -82.5q0 -38 -24 -74t-80 -94h120v-64h-264l136 144q48 52 48 84q0 24 -14.5 38t-41.5 14q-51 0 -56 -64z" />
    <glyph glyph-name="uni00B3" unicode="&#xb3;" horiz-adv-x="352" 
d="M257 594q19 -7 33 -28.5t14 -45.5q0 -44 -31 -78t-97 -34q-57 0 -90.5 30t-37.5 82l64 8q9 -56 67 -56q22 0 41.5 11.5t19.5 32.5q0 46 -88 46v52q80 5 80 44q0 17 -14.5 27.5t-38.5 10.5q-53 0 -59 -52l-64 8q5 48 38 78t82 30q58 0 89 -30t31 -66q0 -47 -39 -70z" />
    <glyph glyph-name="acute" unicode="&#xb4;" horiz-adv-x="800" 
d="M312 736l80 144h144l-144 -144h-80z" />
    <glyph glyph-name="paragraph" unicode="&#xb6;" horiz-adv-x="704" 
d="M656 576h-96v-804h-96v804h-160v-804h-96v566q-69 0 -114.5 48.5t-45.5 119.5q0 69 45.5 117.5t114.5 48.5h448v-96z" />
    <glyph glyph-name="periodcentered" unicode="&#xb7;" horiz-adv-x="256" 
d="M128 256q-34 0 -57 23t-23 57t23 57t57 23t57 -23t23 -57t-23 -57t-57 -23z" />
    <glyph glyph-name="cedilla" unicode="&#xb8;" horiz-adv-x="800" 
d="M372 0h84l-47 -48q55 6 97 -25.5t42 -86.5q0 -62 -45.5 -103t-114.5 -41q-84 0 -128 63l54 61q21 -52 73 -52q44 0 68.5 21.5t24.5 51.5q0 29 -22 46t-54 17q-38 0 -62 -16l-34 48z" />
    <glyph glyph-name="uni00B9" unicode="&#xb9;" horiz-adv-x="336" 
d="M96 736l128 32v-344h-64v266l-64 -14v60z" />
    <glyph glyph-name="ordmasculine" unicode="&#xba;" horiz-adv-x="360" 
d="M180 680q55 0 93.5 -38.5t38.5 -93.5t-38.5 -93.5t-93.5 -38.5t-93.5 38.5t-38.5 93.5t38.5 93.5t93.5 38.5zM180 480q28 0 48 20t20 48t-20 48t-48 20t-48 -20t-20 -48t20 -48t48 -20z" />
    <glyph glyph-name="guillemotright" unicode="&#xbb;" horiz-adv-x="640" 
d="M80 496h112l160 -224l-160 -224h-112l160 224zM320 496h112l160 -224l-160 -224h-112l160 224z" />
    <glyph glyph-name="onequarter" unicode="&#xbc;" horiz-adv-x="900" 
d="M96 648l128 32v-344h-64v266l-64 -14v60zM248 0h-80l468 672h80zM812 128h40v-64h-40v-64h-64v64h-168v56l152 216h80v-208zM748 128v132l-89 -132h89z" />
    <glyph glyph-name="onehalf" unicode="&#xbd;" horiz-adv-x="908" 
d="M96 648l128 32v-344h-64v266l-64 -14v60zM248 0h-80l468 672h80zM604 224q3 52 35 86t85 34t86.5 -29.5t33.5 -82.5q0 -38 -24 -74t-80 -94h120v-64h-264l136 144q48 52 48 84q0 24 -14.5 38t-41.5 14q-51 0 -56 -64z" />
    <glyph glyph-name="threequarters" unicode="&#xbe;" horiz-adv-x="916" 
d="M257 514q19 -7 33 -28.5t14 -45.5q0 -44 -31 -78t-97 -34q-57 0 -90.5 30t-37.5 82l64 8q9 -56 67 -56q22 0 41.5 11.5t19.5 32.5q0 46 -88 46v52q80 5 80 44q0 17 -14.5 27.5t-38.5 10.5q-53 0 -59 -52l-64 8q5 48 38 78t82 30q58 0 89 -30t31 -66q0 -47 -39 -70zM264 0
h-80l468 672h80zM828 128h40v-64h-40v-64h-64v64h-168v56l152 216h80v-208zM764 128v132l-89 -132h89z" />
    <glyph glyph-name="questiondown" unicode="&#xbf;" horiz-adv-x="528" 
d="M272 352q-34 0 -57 23t-23 57t23 57t57 23t57 -23t23 -57t-23 -57t-57 -23zM272 -192q-110 0 -167 58.5t-57 133.5q0 56 21.5 98.5t74.5 83.5q71 55 72 122h112q6 -102 -48 -157q-12 -12 -35 -31.5t-35.5 -31.5t-23 -31t-10.5 -39q0 -42 27.5 -60t67.5 -18q89 0 145 72
l64 -104q-91 -96 -208 -96z" />
    <glyph glyph-name="Agrave" unicode="&#xc0;" horiz-adv-x="672" 
d="M400 736h-80l-144 144h144zM528 0l-50 128h-284l-50 -128h-144l278 672h116l278 -672h-144zM243 256h186l-93 240z" />
    <glyph glyph-name="Aacute" unicode="&#xc1;" horiz-adv-x="672" 
d="M272 736l80 144h144l-144 -144h-80zM528 0l-50 128h-284l-50 -128h-144l278 672h116l278 -672h-144zM243 256h186l-93 240z" />
    <glyph glyph-name="Acircumflex" unicode="&#xc2;" horiz-adv-x="672" 
d="M392 736l-56 73l-56 -73h-112l139 144h57l140 -144h-112zM528 0l-50 128h-284l-50 -128h-144l278 672h116l278 -672h-144zM243 256h186l-93 240z" />
    <glyph glyph-name="Atilde" unicode="&#xc3;" horiz-adv-x="672" 
d="M460 841l68 -25q-39 -80 -118 -80q-30 0 -78 19q-42 19 -72 16.5t-48 -35.5l-68 25q41 79 120 79q29 0 74 -18q42 -20 73 -17t49 36zM528 0l-50 128h-284l-50 -128h-144l278 672h116l278 -672h-144zM243 256h186l-93 240z" />
    <glyph glyph-name="Adieresis" unicode="&#xc4;" horiz-adv-x="672" 
d="M240 736q-27 0 -45.5 18.5t-18.5 45.5t18.5 45.5t45.5 18.5t45.5 -18.5t18.5 -45.5t-18.5 -45.5t-45.5 -18.5zM432 736q-27 0 -45.5 18.5t-18.5 45.5t18.5 45.5t45.5 18.5t45.5 -18.5t18.5 -45.5t-18.5 -45.5t-45.5 -18.5zM528 0l-50 128h-284l-50 -128h-144l278 672h116
l278 -672h-144zM243 256h186l-93 240z" />
    <glyph glyph-name="Aring" unicode="&#xc5;" horiz-adv-x="672" 
d="M336 944q50 0 85 -35t35 -85t-35 -85t-85 -35t-85 35t-35 85t35 85t85 35zM336 768q23 0 39.5 16.5t16.5 39.5t-16.5 39.5t-39.5 16.5t-39.5 -16.5t-16.5 -39.5t16.5 -39.5t39.5 -16.5zM528 0l-50 128h-284l-50 -128h-144l278 672h116l278 -672h-144zM243 256h186
l-93 240z" />
    <glyph glyph-name="AE" unicode="&#xc6;" horiz-adv-x="832" 
d="M784 544h-288v-144h240v-128h-240v-144h288v-128h-416v128h-166l-58 -128h-144l312 672h472v-128zM261 256h107v236z" />
    <glyph glyph-name="Ccedilla" unicode="&#xc7;" horiz-adv-x="640" 
d="M608 65q-71 -65 -177 -78l-34 -35q55 6 97 -25.5t42 -86.5q0 -62 -45.5 -103t-114.5 -41q-84 0 -128 63l54 61q21 -52 73 -52q44 0 68.5 21.5t24.5 51.5q0 29 -22 46t-54 17q-38 0 -62 -16l-34 48l51 51q-134 16 -224.5 115.5t-90.5 233.5q0 145 105 248.5t253 103.5
q58 0 117 -21t101 -59l-49 -116q-70 68 -167 68q-96 0 -164 -65.5t-68 -158.5t68 -158.5t164 -65.5q100 0 167 69z" />
    <glyph glyph-name="Egrave" unicode="&#xc8;" horiz-adv-x="528" 
d="M360 736h-80l-144 144h144zM480 544h-288v-144h240v-128h-240v-144h288v-128h-416v672h416v-128z" />
    <glyph glyph-name="Eacute" unicode="&#xc9;" horiz-adv-x="528" 
d="M184 736l80 144h144l-144 -144h-80zM480 544h-288v-144h240v-128h-240v-144h288v-128h-416v672h416v-128z" />
    <glyph glyph-name="Ecircumflex" unicode="&#xca;" horiz-adv-x="528" 
d="M320 736l-56 73l-56 -73h-112l139 144h57l140 -144h-112zM480 544h-288v-144h240v-128h-240v-144h288v-128h-416v672h416v-128z" />
    <glyph glyph-name="Edieresis" unicode="&#xcb;" horiz-adv-x="528" 
d="M168 736q-27 0 -45.5 18.5t-18.5 45.5t18.5 45.5t45.5 18.5t45.5 -18.5t18.5 -45.5t-18.5 -45.5t-45.5 -18.5zM360 736q-27 0 -45.5 18.5t-18.5 45.5t18.5 45.5t45.5 18.5t45.5 -18.5t18.5 -45.5t-18.5 -45.5t-45.5 -18.5zM480 544h-288v-144h240v-128h-240v-144h288
v-128h-416v672h416v-128z" />
    <glyph glyph-name="Igrave" unicode="&#xcc;" horiz-adv-x="256" 
d="M192 736h-80l-144 144h144zM64 0v672h128v-672h-128z" />
    <glyph glyph-name="Iacute" unicode="&#xcd;" horiz-adv-x="256" 
d="M64 736l80 144h144l-144 -144h-80zM192 0h-128v672h128v-672z" />
    <glyph glyph-name="Icircumflex" unicode="&#xce;" horiz-adv-x="256" 
d="M184 736l-56 73l-56 -73h-112l139 144h57l140 -144h-112zM192 0h-128v672h128v-672z" />
    <glyph glyph-name="Idieresis" unicode="&#xcf;" horiz-adv-x="256" 
d="M32 736q-27 0 -45.5 18.5t-18.5 45.5t18.5 45.5t45.5 18.5t45.5 -18.5t18.5 -45.5t-18.5 -45.5t-45.5 -18.5zM224 736q-27 0 -45.5 18.5t-18.5 45.5t18.5 45.5t45.5 18.5t45.5 -18.5t18.5 -45.5t-18.5 -45.5t-45.5 -18.5zM192 0h-128v672h128v-672z" />
    <glyph glyph-name="Eth" unicode="&#xd0;" horiz-adv-x="688" 
d="M303 672q167 0 260 -95t93 -241q0 -145 -94.5 -240.5t-258.5 -95.5h-223v296h-64v80h64v296h223zM326 128q89 0 145.5 60t56.5 148t-56.5 148t-145.5 60h-118v-168h64v-80h-64v-168h118z" />
    <glyph glyph-name="Ntilde" unicode="&#xd1;" horiz-adv-x="720" 
d="M484 841l68 -25q-39 -80 -118 -80q-30 0 -78 19q-42 19 -72 16.5t-48 -35.5l-68 25q41 79 120 79q29 0 74 -18q42 -20 73 -17t49 36zM528 672h128v-672h-128l-336 464v-464h-128v672h128l336 -464v464z" />
    <glyph glyph-name="Ograve" unicode="&#xd2;" horiz-adv-x="768" 
d="M448 736h-80l-144 144h144zM384 688q146 0 249 -103t103 -249t-103 -249t-249 -103t-249 103t-103 249t103 249t249 103zM384 112q93 0 158.5 65.5t65.5 158.5t-65.5 158.5t-158.5 65.5t-158.5 -65.5t-65.5 -158.5t65.5 -158.5t158.5 -65.5z" />
    <glyph glyph-name="Oacute" unicode="&#xd3;" horiz-adv-x="768" 
d="M320 736l80 144h144l-144 -144h-80zM384 688q146 0 249 -103t103 -249t-103 -249t-249 -103t-249 103t-103 249t103 249t249 103zM384 112q93 0 158.5 65.5t65.5 158.5t-65.5 158.5t-158.5 65.5t-158.5 -65.5t-65.5 -158.5t65.5 -158.5t158.5 -65.5z" />
    <glyph glyph-name="Ocircumflex" unicode="&#xd4;" horiz-adv-x="768" 
d="M440 736l-56 73l-56 -73h-112l139 144h57l140 -144h-112zM384 688q146 0 249 -103t103 -249t-103 -249t-249 -103t-249 103t-103 249t103 249t249 103zM384 112q93 0 158.5 65.5t65.5 158.5t-65.5 158.5t-158.5 65.5t-158.5 -65.5t-65.5 -158.5t65.5 -158.5t158.5 -65.5z
" />
    <glyph glyph-name="Otilde" unicode="&#xd5;" horiz-adv-x="768" 
d="M508 841l68 -25q-39 -80 -118 -80q-30 0 -78 19q-42 19 -72 16.5t-48 -35.5l-68 25q41 79 120 79q29 0 74 -18q42 -20 73 -17t49 36zM384 688q146 0 249 -103t103 -249t-103 -249t-249 -103t-249 103t-103 249t103 249t249 103zM384 112q93 0 158.5 65.5t65.5 158.5
t-65.5 158.5t-158.5 65.5t-158.5 -65.5t-65.5 -158.5t65.5 -158.5t158.5 -65.5z" />
    <glyph glyph-name="Odieresis" unicode="&#xd6;" horiz-adv-x="768" 
d="M288 736q-27 0 -45.5 18.5t-18.5 45.5t18.5 45.5t45.5 18.5t45.5 -18.5t18.5 -45.5t-18.5 -45.5t-45.5 -18.5zM480 736q-27 0 -45.5 18.5t-18.5 45.5t18.5 45.5t45.5 18.5t45.5 -18.5t18.5 -45.5t-18.5 -45.5t-45.5 -18.5zM384 688q146 0 249 -103t103 -249t-103 -249
t-249 -103t-249 103t-103 249t103 249t249 103zM384 112q93 0 158.5 65.5t65.5 158.5t-65.5 158.5t-158.5 65.5t-158.5 -65.5t-65.5 -158.5t65.5 -158.5t158.5 -65.5z" />
    <glyph glyph-name="multiply" unicode="&#xd7;" horiz-adv-x="456" 
d="M351 484l57 -57l-123 -123l123 -123l-57 -57l-123 123l-123 -123l-57 57l123 123l-123 123l57 57l123 -123z" />
    <glyph glyph-name="Oslash" unicode="&#xd8;" horiz-adv-x="768" 
d="M631 587q105 -103 105 -251q0 -146 -103 -249t-249 -103q-116 0 -210 70l-46 -54h-64l73 85q-105 103 -105 251q0 146 103 249t249 103q116 0 210 -70l46 54h64zM160 336q0 -89 61 -153l290 338q-56 39 -127 39q-93 0 -158.5 -65.5t-65.5 -158.5zM384 112
q93 0 158.5 65.5t65.5 158.5q0 89 -61 153l-290 -338q56 -39 127 -39z" />
    <glyph glyph-name="Ugrave" unicode="&#xd9;" horiz-adv-x="640" 
d="M392 736h-80l-144 144h144zM464 672h128v-384q0 -136 -72.5 -220t-199.5 -84q-129 0 -200.5 84t-71.5 220v384h128v-400q0 -71 41.5 -115.5t102.5 -44.5t102.5 44.5t41.5 115.5v400z" />
    <glyph glyph-name="Uacute" unicode="&#xda;" horiz-adv-x="640" 
d="M248 736l80 144h144l-144 -144h-80zM464 672h128v-384q0 -136 -72.5 -220t-199.5 -84q-129 0 -200.5 84t-71.5 220v384h128v-400q0 -71 41.5 -115.5t102.5 -44.5t102.5 44.5t41.5 115.5v400z" />
    <glyph glyph-name="Ucircumflex" unicode="&#xdb;" horiz-adv-x="640" 
d="M376 736l-56 73l-56 -73h-112l139 144h57l140 -144h-112zM464 672h128v-384q0 -136 -72.5 -220t-199.5 -84q-129 0 -200.5 84t-71.5 220v384h128v-400q0 -71 41.5 -115.5t102.5 -44.5t102.5 44.5t41.5 115.5v400z" />
    <glyph glyph-name="Udieresis" unicode="&#xdc;" horiz-adv-x="640" 
d="M224 736q-27 0 -45.5 18.5t-18.5 45.5t18.5 45.5t45.5 18.5t45.5 -18.5t18.5 -45.5t-18.5 -45.5t-45.5 -18.5zM416 736q-27 0 -45.5 18.5t-18.5 45.5t18.5 45.5t45.5 18.5t45.5 -18.5t18.5 -45.5t-18.5 -45.5t-45.5 -18.5zM464 672h128v-384q0 -136 -72.5 -220
t-199.5 -84q-129 0 -200.5 84t-71.5 220v384h128v-400q0 -71 41.5 -115.5t102.5 -44.5t102.5 44.5t41.5 115.5v400z" />
    <glyph glyph-name="Yacute" unicode="&#xdd;" horiz-adv-x="608" 
d="M240 736l80 144h144l-144 -144h-80zM456 672h152l-240 -400v-272h-128v272l-240 400h152l152 -272z" />
    <glyph glyph-name="Thorn" unicode="&#xde;" horiz-adv-x="592" 
d="M304 576q127 0 191.5 -61t64.5 -163q0 -91 -61 -157.5t-163 -66.5h-144v-128h-128v704h128v-128h112zM320 256q47 0 79.5 27t32.5 69q0 46 -31.5 71t-80.5 25h-128v-192h128z" />
    <glyph glyph-name="germandbls" unicode="&#xdf;" horiz-adv-x="576" 
d="M176 0v512q0 40 25.5 68t70.5 28q44 0 70 -21t26 -59q0 -47 -41.5 -79.5t-118.5 -32.5v-96q208 0 208 -116q0 -43 -25 -68.5t-61 -30.5t-68 -2t-54 11v-114q39 -16 96 -16q114 0 177 65.5t63 158.5q0 64 -42 116.5t-102 59.5q37 15 66.5 53t29.5 91q0 79 -53.5 135.5
t-169.5 56.5q-16 0 -33.5 -1.5t-55 -14t-65 -33.5t-49.5 -67t-22 -108v-496h128z" />
    <glyph glyph-name="agrave" unicode="&#xe0;" 
d="M448 560h-80l-144 144h144zM432 496h128v-496h-128v53q-60 -69 -152 -69q-103 0 -175.5 77.5t-72.5 186.5t72.5 186.5t175.5 77.5q92 0 152 -69v53zM296 112q56 0 96 40t40 96t-40 96t-96 40t-96 -40t-40 -96t40 -96t96 -40z" />
    <glyph glyph-name="aacute" unicode="&#xe1;" 
d="M272 560l80 144h144l-144 -144h-80zM432 496h128v-496h-128v53q-60 -69 -152 -69q-103 0 -175.5 77.5t-72.5 186.5t72.5 186.5t175.5 77.5q92 0 152 -69v53zM296 112q56 0 96 40t40 96t-40 96t-96 40t-96 -40t-40 -96t40 -96t96 -40z" />
    <glyph glyph-name="acircumflex" unicode="&#xe2;" 
d="M384 560l-56 73l-56 -73h-112l139 144h57l140 -144h-112zM432 496h128v-496h-128v53q-60 -69 -152 -69q-103 0 -175.5 77.5t-72.5 186.5t72.5 186.5t175.5 77.5q92 0 152 -69v53zM296 112q56 0 96 40t40 96t-40 96t-96 40t-96 -40t-40 -96t40 -96t96 -40z" />
    <glyph glyph-name="atilde" unicode="&#xe3;" 
d="M452 665l68 -25q-39 -80 -118 -80q-31 0 -78 19q-42 19 -72 16.5t-48 -35.5l-68 25q41 79 120 79q29 0 74 -18q42 -20 73 -17t49 36zM432 496h128v-496h-128v53q-60 -69 -152 -69q-103 0 -175.5 77.5t-72.5 186.5t72.5 186.5t175.5 77.5q92 0 152 -69v53zM296 112
q56 0 96 40t40 96t-40 96t-96 40t-96 -40t-40 -96t40 -96t96 -40z" />
    <glyph glyph-name="adieresis" unicode="&#xe4;" 
d="M232 560q-27 0 -45.5 18.5t-18.5 45.5t18.5 45.5t45.5 18.5t45.5 -18.5t18.5 -45.5t-18.5 -45.5t-45.5 -18.5zM424 560q-27 0 -45.5 18.5t-18.5 45.5t18.5 45.5t45.5 18.5t45.5 -18.5t18.5 -45.5t-18.5 -45.5t-45.5 -18.5zM432 496h128v-496h-128v53q-60 -69 -152 -69
q-103 0 -175.5 77.5t-72.5 186.5t72.5 186.5t175.5 77.5q92 0 152 -69v53zM296 112q56 0 96 40t40 96t-40 96t-96 40t-96 -40t-40 -96t40 -96t96 -40z" />
    <glyph glyph-name="aring" unicode="&#xe5;" 
d="M336 768q50 0 85 -35t35 -85t-35 -85t-85 -35t-85 35t-35 85t35 85t85 35zM336 592q23 0 39.5 16.5t16.5 39.5t-16.5 39.5t-39.5 16.5t-39.5 -16.5t-16.5 -39.5t16.5 -39.5t39.5 -16.5zM432 496h128v-496h-128v53q-60 -69 -152 -69q-103 0 -175.5 77.5t-72.5 186.5
t72.5 186.5t175.5 77.5q92 0 152 -69v53zM296 112q56 0 96 40t40 96t-40 96t-96 40t-96 -40t-40 -96t40 -96t96 -40z" />
    <glyph glyph-name="ae" unicode="&#xe6;" horiz-adv-x="896" 
d="M864 248q0 -14 -2 -40h-361q14 -51 51.5 -81.5t95.5 -30.5q83 0 148 46l37 -111q-8 -5 -22.5 -13t-63 -21t-101.5 -13q-86 0 -150 32v-16h-128v32q-58 -48 -154 -48q-82 0 -132 49.5t-50 121.5q0 95 87 140q77 40 247 15q0 45 -29.5 69t-79.5 24q-37 0 -75 -11.5
t-58 -23.5l-19 -11l-44 93q10 7 27.5 17.5t71 27.5t104.5 17q128 0 183 -61q67 61 177 61q116 0 178 -69.5t62 -194.5zM504 304h224q0 36 -29.5 66t-82.5 30q-45 0 -78.5 -31.5t-33.5 -64.5zM368 161v63l-40 4q-93 9 -132.5 -11t-39.5 -57q0 -29 25.5 -46.5t67.5 -17.5
q41 0 80 20t39 45z" />
    <glyph glyph-name="ccedilla" unicode="&#xe7;" horiz-adv-x="512" 
d="M480 43q-51 -49 -147 -58l-32 -33q55 6 97 -25.5t42 -86.5q0 -62 -45.5 -103t-114.5 -41q-84 0 -128 63l54 61q21 -52 73 -52q44 0 68.5 21.5t24.5 51.5q0 29 -22 46t-54 17q-38 0 -62 -16l-34 48l52 52q-103 17 -161.5 88.5t-58.5 171.5q0 113 75 188.5t201 75.5
q106 0 172 -59l-53 -115q-46 46 -115 46t-110.5 -39t-41.5 -97t41.5 -97t110.5 -39q70 0 115 45z" />
    <glyph glyph-name="egrave" unicode="&#xe8;" horiz-adv-x="560" 
d="M368 560h-80l-144 144h144zM528 248q0 -14 -2 -40h-361q14 -51 51.5 -81.5t95.5 -30.5q83 0 148 46l37 -111q-8 -5 -22.5 -13t-63 -21t-101.5 -13q-138 0 -208 74t-70 190t66 190t190 74q116 0 178 -69.5t62 -194.5zM168 304h224q0 36 -29.5 66t-82.5 30
q-45 0 -78.5 -31.5t-33.5 -64.5z" />
    <glyph glyph-name="eacute" unicode="&#xe9;" horiz-adv-x="560" 
d="M224 560l80 144h144l-144 -144h-80zM528 248q0 -14 -2 -40h-361q14 -51 51.5 -81.5t95.5 -30.5q83 0 148 46l37 -111q-8 -5 -22.5 -13t-63 -21t-101.5 -13q-138 0 -208 74t-70 190t66 190t190 74q116 0 178 -69.5t62 -194.5zM168 304h224q0 36 -29.5 66t-82.5 30
q-45 0 -78.5 -31.5t-33.5 -64.5z" />
    <glyph glyph-name="ecircumflex" unicode="&#xea;" horiz-adv-x="560" 
d="M336 560l-56 73l-56 -73h-112l139 144h57l140 -144h-112zM528 248q0 -14 -2 -40h-361q14 -51 51.5 -81.5t95.5 -30.5q83 0 148 46l37 -111q-8 -5 -22.5 -13t-63 -21t-101.5 -13q-138 0 -208 74t-70 190t66 190t190 74q116 0 178 -69.5t62 -194.5zM168 304h224
q0 36 -29.5 66t-82.5 30q-45 0 -78.5 -31.5t-33.5 -64.5z" />
    <glyph glyph-name="edieresis" unicode="&#xeb;" horiz-adv-x="560" 
d="M184 560q-27 0 -45.5 18.5t-18.5 45.5t18.5 45.5t45.5 18.5t45.5 -18.5t18.5 -45.5t-18.5 -45.5t-45.5 -18.5zM376 560q-27 0 -45.5 18.5t-18.5 45.5t18.5 45.5t45.5 18.5t45.5 -18.5t18.5 -45.5t-18.5 -45.5t-45.5 -18.5zM528 248q0 -14 -2 -40h-361q14 -51 51.5 -81.5
t95.5 -30.5q83 0 148 46l37 -111q-8 -5 -22.5 -13t-63 -21t-101.5 -13q-138 0 -208 74t-70 190t66 190t190 74q116 0 178 -69.5t62 -194.5zM168 304h224q0 36 -29.5 66t-82.5 30q-45 0 -78.5 -31.5t-33.5 -64.5z" />
    <glyph glyph-name="igrave" unicode="&#xec;" horiz-adv-x="256" 
d="M192 560h-80l-144 144h144zM64 0v496h128v-496h-128z" />
    <glyph glyph-name="iacute" unicode="&#xed;" horiz-adv-x="256" 
d="M64 560l80 144h144l-144 -144h-80zM64 0v496h128v-496h-128z" />
    <glyph glyph-name="icircumflex" unicode="&#xee;" horiz-adv-x="256" 
d="M184 560l-56 73l-56 -73h-112l139 144h57l140 -144h-112zM64 0v496h128v-496h-128z" />
    <glyph glyph-name="idieresis" unicode="&#xef;" horiz-adv-x="256" 
d="M32 560q-27 0 -45.5 18.5t-18.5 45.5t18.5 45.5t45.5 18.5t45.5 -18.5t18.5 -45.5t-18.5 -45.5t-45.5 -18.5zM224 560q-27 0 -45.5 18.5t-18.5 45.5t18.5 45.5t45.5 18.5t45.5 -18.5t18.5 -45.5t-18.5 -45.5t-45.5 -18.5zM64 0v496h128v-496h-128z" />
    <glyph glyph-name="eth" unicode="&#xf0;" horiz-adv-x="592" 
d="M545 337q15 -42 15 -89q0 -110 -77 -187t-187 -77t-187 77t-77 187q0 96 61 169t154 90l-58 49l-141 -52v79l77 26l-67 55l102 56l84 -66l172 59v-80l-102 -34q189 -143 231 -262zM296 112q56 0 96 40t40 96t-40 96t-96 40t-96 -40t-40 -96t40 -96t96 -40z" />
    <glyph glyph-name="ntilde" unicode="&#xf1;" horiz-adv-x="576" 
d="M412 665l68 -25q-39 -80 -118 -80q-30 0 -78 19q-42 19 -72 16.5t-48 -35.5l-68 25q41 79 120 79q29 0 74 -18q42 -20 73 -17t49 36zM342 512q87 0 136.5 -57t49.5 -167v-288h-128v272q0 58 -23 85t-73 27q-48 0 -80 -32t-32 -96v-256h-128v496h128v-48q54 64 150 64z
" />
    <glyph glyph-name="ograve" unicode="&#xf2;" horiz-adv-x="592" 
d="M360 560h-80l-144 144h144zM296 512q110 0 187 -77t77 -187t-77 -187t-187 -77t-187 77t-77 187t77 187t187 77zM296 112q56 0 96 40t40 96t-40 96t-96 40t-96 -40t-40 -96t40 -96t96 -40z" />
    <glyph glyph-name="oacute" unicode="&#xf3;" horiz-adv-x="592" 
d="M232 560l80 144h144l-144 -144h-80zM296 512q110 0 187 -77t77 -187t-77 -187t-187 -77t-187 77t-77 187t77 187t187 77zM296 112q56 0 96 40t40 96t-40 96t-96 40t-96 -40t-40 -96t40 -96t96 -40z" />
    <glyph glyph-name="ocircumflex" unicode="&#xf4;" horiz-adv-x="592" 
d="M352 560l-56 73l-56 -73h-112l139 144h57l140 -144h-112zM296 512q110 0 187 -77t77 -187t-77 -187t-187 -77t-187 77t-77 187t77 187t187 77zM296 112q56 0 96 40t40 96t-40 96t-96 40t-96 -40t-40 -96t40 -96t96 -40z" />
    <glyph glyph-name="otilde" unicode="&#xf5;" horiz-adv-x="592" 
d="M420 665l68 -25q-39 -80 -118 -80q-30 0 -78 19q-42 19 -72 16.5t-48 -35.5l-68 25q41 79 120 79q29 0 74 -18q42 -20 73 -17t49 36zM296 512q110 0 187 -77t77 -187t-77 -187t-187 -77t-187 77t-77 187t77 187t187 77zM296 112q56 0 96 40t40 96t-40 96t-96 40t-96 -40
t-40 -96t40 -96t96 -40z" />
    <glyph glyph-name="odieresis" unicode="&#xf6;" horiz-adv-x="592" 
d="M200 560q-27 0 -45.5 18.5t-18.5 45.5t18.5 45.5t45.5 18.5t45.5 -18.5t18.5 -45.5t-18.5 -45.5t-45.5 -18.5zM392 560q-27 0 -45.5 18.5t-18.5 45.5t18.5 45.5t45.5 18.5t45.5 -18.5t18.5 -45.5t-18.5 -45.5t-45.5 -18.5zM296 512q110 0 187 -77t77 -187t-77 -187
t-187 -77t-187 77t-77 187t77 187t187 77zM296 112q56 0 96 40t40 96t-40 96t-96 40t-96 -40t-40 -96t40 -96t96 -40z" />
    <glyph glyph-name="divide" unicode="&#xf7;" horiz-adv-x="496" 
d="M248 416q-34 0 -57 23t-23 57t23 57t57 23t57 -23t23 -57t-23 -57t-57 -23zM48 344h400v-80h-400v80zM248 32q-34 0 -57 23t-23 57t23 57t57 23t57 -23t23 -57t-23 -57t-57 -23z" />
    <glyph glyph-name="oslash" unicode="&#xf8;" horiz-adv-x="592" 
d="M487 430q73 -76 73 -182q0 -110 -77 -187t-187 -77q-86 0 -155 50l-30 -34h-64l58 66q-73 76 -73 182q0 110 77 187t187 77q86 0 155 -50l30 34h64zM160 248q0 -49 30 -85l176 202q-32 19 -70 19q-56 0 -96 -40t-40 -96zM296 112q56 0 96 40t40 96q0 49 -30 85l-176 -202
q32 -19 70 -19z" />
    <glyph glyph-name="ugrave" unicode="&#xf9;" horiz-adv-x="576" 
d="M344 560h-80l-144 144h144zM234 -16q-87 0 -136.5 57t-49.5 167v288h128v-272q0 -58 23.5 -85t72.5 -27q48 0 80 32t32 96v256h128v-496h-128v48q-54 -64 -150 -64z" />
    <glyph glyph-name="uacute" unicode="&#xfa;" horiz-adv-x="576" 
d="M216 560l80 144h144l-144 -144h-80zM234 -16q-87 0 -136.5 57t-49.5 167v288h128v-272q0 -58 23.5 -85t72.5 -27q48 0 80 32t32 96v256h128v-496h-128v48q-54 -64 -150 -64z" />
    <glyph glyph-name="ucircumflex" unicode="&#xfb;" horiz-adv-x="576" 
d="M336 560l-56 73l-56 -73h-112l139 144h57l140 -144h-112zM234 -16q-87 0 -136.5 57t-49.5 167v288h128v-272q0 -58 23.5 -85t72.5 -27q48 0 80 32t32 96v256h128v-496h-128v48q-54 -64 -150 -64z" />
    <glyph glyph-name="udieresis" unicode="&#xfc;" horiz-adv-x="576" 
d="M184 560q-27 0 -45.5 18.5t-18.5 45.5t18.5 45.5t45.5 18.5t45.5 -18.5t18.5 -45.5t-18.5 -45.5t-45.5 -18.5zM376 560q-27 0 -45.5 18.5t-18.5 45.5t18.5 45.5t45.5 18.5t45.5 -18.5t18.5 -45.5t-18.5 -45.5t-45.5 -18.5zM234 -16q-87 0 -136.5 57t-49.5 167v288h128
v-272q0 -58 23.5 -85t72.5 -27q48 0 80 32t32 96v256h128v-496h-128v48q-54 -64 -150 -64z" />
    <glyph glyph-name="yacute" unicode="&#xfd;" horiz-adv-x="528" 
d="M192 560l80 144h144l-144 -144h-80zM384 496h144l-320 -752h-144l128 292l-192 460h144l120 -292z" />
    <glyph glyph-name="thorn" unicode="&#xfe;" 
d="M344 512q103 0 175.5 -77.5t72.5 -186.5t-72.5 -186.5t-175.5 -77.5q-92 0 -152 69v-309h-128v960h128v-261q60 69 152 69zM328 112q56 0 96 40t40 96t-40 96t-96 40t-96 -40t-40 -96t40 -96t96 -40z" />
    <glyph glyph-name="ydieresis" unicode="&#xff;" horiz-adv-x="528" 
d="M168 560q-27 0 -45.5 18.5t-18.5 45.5t18.5 45.5t45.5 18.5t45.5 -18.5t18.5 -45.5t-18.5 -45.5t-45.5 -18.5zM360 560q-27 0 -45.5 18.5t-18.5 45.5t18.5 45.5t45.5 18.5t45.5 -18.5t18.5 -45.5t-18.5 -45.5t-45.5 -18.5zM384 496h144l-320 -752h-144l128 292l-192 460
h144l120 -292z" />
    <glyph glyph-name="Amacron" unicode="&#x100;" horiz-adv-x="672" 
d="M480 752h-288v64h288v-64zM528 0l-50 128h-284l-50 -128h-144l278 672h116l278 -672h-144zM243 256h186l-93 240z" />
    <glyph glyph-name="amacron" unicode="&#x101;" 
d="M472 576h-288v64h288v-64zM432 496h128v-496h-128v53q-60 -69 -152 -69q-103 0 -175.5 77.5t-72.5 186.5t72.5 186.5t175.5 77.5q92 0 152 -69v53zM296 112q56 0 96 40t40 96t-40 96t-96 40t-96 -40t-40 -96t40 -96t96 -40z" />
    <glyph glyph-name="Abreve" unicode="&#x102;" horiz-adv-x="672" 
d="M412 880h68q0 -60 -42 -102t-102 -42t-102 42t-42 102h68q0 -32 22 -54t54 -22t54 22t22 54zM528 0l-50 128h-284l-50 -128h-144l278 672h116l278 -672h-144zM243 256h186l-93 240z" />
    <glyph glyph-name="abreve" unicode="&#x103;" 
d="M404 704h68q0 -60 -42 -102t-102 -42t-102 42t-42 102h68q0 -32 22 -54t54 -22t54 22t22 54zM432 496h128v-496h-128v53q-60 -69 -152 -69q-103 0 -175.5 77.5t-72.5 186.5t72.5 186.5t175.5 77.5q92 0 152 -69v53zM296 112q56 0 96 40t40 96t-40 96t-96 40t-96 -40
t-40 -96t40 -96t96 -40z" />
    <glyph glyph-name="Aogonek" unicode="&#x104;" horiz-adv-x="672" 
d="M560 -80q0 -41 30.5 -57.5t65.5 3.5l16 -58q-24 -16 -58 -16q-56 0 -87 34.5t-31 89.5q0 22 9.5 47.5t22.5 36.5l-50 128h-284l-50 -128h-144l278 672h116l278 -672h-16q-36 0 -66 -23t-30 -57zM243 256h186l-93 240z" />
    <glyph glyph-name="aogonek" unicode="&#x105;" 
d="M560 -134l16 -58q-24 -16 -58 -16q-56 0 -87 34.5t-31 89.5q0 22 9.5 47.5t22.5 36.5v53q-60 -69 -152 -69q-103 0 -175.5 77.5t-72.5 186.5t72.5 186.5t175.5 77.5q92 0 152 -69v53h128v-496q-36 0 -66 -23t-30 -57q0 -41 30.5 -57.5t65.5 3.5zM296 112q56 0 96 40
t40 96t-40 96t-96 40t-96 -40t-40 -96t40 -96t96 -40z" />
    <glyph glyph-name="Cacute" unicode="&#x106;" horiz-adv-x="640" 
d="M320 736l80 144h144l-144 -144h-80zM392 112q100 0 167 69l49 -116q-42 -38 -101 -59.5t-117 -21.5q-148 0 -253 103.5t-105 248.5t105 248.5t253 103.5q58 0 117 -21t101 -59l-49 -116q-70 68 -167 68q-96 0 -164 -65.5t-68 -158.5t68 -158.5t164 -65.5z" />
    <glyph glyph-name="cacute" unicode="&#x107;" horiz-adv-x="512" 
d="M240 560l80 144h144l-144 -144h-80zM312 112q70 0 115 45l53 -114q-61 -59 -172 -59q-127 0 -201.5 75.5t-74.5 188.5t75 188.5t201 75.5q106 0 172 -59l-53 -115q-46 46 -115 46t-110.5 -39t-41.5 -97t41.5 -97t110.5 -39z" />
    <glyph glyph-name="Cdotaccent" unicode="&#x10a;" horiz-adv-x="640" 
d="M384 720q-33 0 -56.5 23.5t-23.5 56.5t23.5 56.5t56.5 23.5t56.5 -23.5t23.5 -56.5t-23.5 -56.5t-56.5 -23.5zM392 112q100 0 167 69l49 -116q-42 -38 -101 -59.5t-117 -21.5q-148 0 -253 103.5t-105 248.5t105 248.5t253 103.5q58 0 117 -21t101 -59l-49 -116
q-70 68 -167 68q-96 0 -164 -65.5t-68 -158.5t68 -158.5t164 -65.5z" />
    <glyph glyph-name="cdotaccent" unicode="&#x10b;" horiz-adv-x="512" 
d="M304 544q-33 0 -56.5 23.5t-23.5 56.5t23.5 56.5t56.5 23.5t56.5 -23.5t23.5 -56.5t-23.5 -56.5t-56.5 -23.5zM312 112q70 0 115 45l53 -114q-61 -59 -172 -59q-127 0 -201.5 75.5t-74.5 188.5t75 188.5t201 75.5q106 0 172 -59l-53 -115q-46 46 -115 46t-110.5 -39
t-41.5 -97t41.5 -97t110.5 -39z" />
    <glyph glyph-name="Ccaron" unicode="&#x10c;" horiz-adv-x="640" 
d="M432 880h112l-140 -144h-57l-139 144h112l56 -73zM392 112q100 0 167 69l49 -116q-42 -38 -101 -59.5t-117 -21.5q-148 0 -253 103.5t-105 248.5t105 248.5t253 103.5q58 0 117 -21t101 -59l-49 -116q-70 68 -167 68q-96 0 -164 -65.5t-68 -158.5t68 -158.5t164 -65.5z
" />
    <glyph glyph-name="ccaron" unicode="&#x10d;" horiz-adv-x="512" 
d="M352 704h112l-140 -144h-57l-139 144h112l56 -73zM312 112q70 0 115 45l53 -114q-61 -59 -172 -59q-127 0 -201.5 75.5t-74.5 188.5t75 188.5t201 75.5q106 0 172 -59l-53 -115q-46 46 -115 46t-110.5 -39t-41.5 -97t41.5 -97t110.5 -39z" />
    <glyph glyph-name="Dcaron" unicode="&#x10e;" horiz-adv-x="672" 
d="M360 880h112l-140 -144h-57l-139 144h112l56 -73zM287 672q167 0 260 -95t93 -241q0 -145 -94.5 -240.5t-258.5 -95.5h-223v672h223zM310 128q89 0 145.5 60t56.5 148t-56.5 148t-145.5 60h-118v-416h118z" />
    <glyph glyph-name="dcaron" unicode="&#x10f;" horiz-adv-x="768" 
d="M280 512q92 0 152 -69v261h128v-704h-128v53q-60 -69 -152 -69q-103 0 -175.5 77.5t-72.5 186.5t72.5 186.5t175.5 77.5zM592 544l32 128h112l-80 -128h-64zM296 112q56 0 96 40t40 96t-40 96t-96 40t-96 -40t-40 -96t40 -96t96 -40z" />
    <glyph glyph-name="Dcroat" unicode="&#x110;" horiz-adv-x="688" 
d="M303 672q167 0 260 -95t93 -241q0 -145 -94.5 -240.5t-258.5 -95.5h-223v296h-64v80h64v296h223zM326 128q89 0 145.5 60t56.5 148t-56.5 148t-145.5 60h-118v-168h64v-80h-64v-168h118z" />
    <glyph glyph-name="dcroat" unicode="&#x111;" horiz-adv-x="640" 
d="M624 616v-64h-64v-552h-128v53q-60 -69 -152 -69q-103 0 -175.5 77.5t-72.5 186.5t72.5 186.5t175.5 77.5q92 0 152 -69v109h-64v64h64v88h128v-88h64zM296 112q56 0 96 40t40 96t-40 96t-96 40t-96 -40t-40 -96t40 -96t96 -40z" />
    <glyph glyph-name="Emacron" unicode="&#x112;" horiz-adv-x="528" 
d="M408 752h-288v64h288v-64zM480 544h-288v-144h240v-128h-240v-144h288v-128h-416v672h416v-128z" />
    <glyph glyph-name="emacron" unicode="&#x113;" horiz-adv-x="560" 
d="M424 576h-288v64h288v-64zM528 248q0 -14 -2 -40h-361q14 -51 51.5 -81.5t95.5 -30.5q83 0 148 46l37 -111q-8 -5 -22.5 -13t-63 -21t-101.5 -13q-138 0 -208 74t-70 190t66 190t190 74q116 0 178 -69.5t62 -194.5zM168 304h224q0 36 -29.5 66t-82.5 30
q-45 0 -78.5 -31.5t-33.5 -64.5z" />
    <glyph glyph-name="Edotaccent" unicode="&#x116;" horiz-adv-x="528" 
d="M264 720q-33 0 -56.5 23.5t-23.5 56.5t23.5 56.5t56.5 23.5t56.5 -23.5t23.5 -56.5t-23.5 -56.5t-56.5 -23.5zM480 544h-288v-144h240v-128h-240v-144h288v-128h-416v672h416v-128z" />
    <glyph glyph-name="edotaccent" unicode="&#x117;" horiz-adv-x="560" 
d="M288 544q-33 0 -56.5 23.5t-23.5 56.5t23.5 56.5t56.5 23.5t56.5 -23.5t23.5 -56.5t-23.5 -56.5t-56.5 -23.5zM528 248q0 -14 -2 -40h-361q14 -51 51.5 -81.5t95.5 -30.5q83 0 148 46l37 -111q-8 -5 -22.5 -13t-63 -21t-101.5 -13q-138 0 -208 74t-70 190t66 190t190 74
q116 0 178 -69.5t62 -194.5zM168 304h224q0 36 -29.5 66t-82.5 30q-45 0 -78.5 -31.5t-33.5 -64.5z" />
    <glyph glyph-name="Eogonek" unicode="&#x118;" horiz-adv-x="528" 
d="M480 -134l16 -58q-24 -16 -58 -16q-56 0 -87 34.5t-31 89.5q0 22 9.5 47.5t22.5 36.5h-288v672h416v-128h-288v-144h240v-128h-240v-144h288v-128q-36 0 -66 -23t-30 -57q0 -41 30.5 -57.5t65.5 3.5z" />
    <glyph glyph-name="eogonek" unicode="&#x119;" horiz-adv-x="560" 
d="M528 248q0 -14 -2 -40h-361q14 -51 51.5 -81.5t95.5 -30.5q83 0 148 46l37 -111q-46 -32 -128 -43q-22 -5 -34.5 -24.5t-12.5 -43.5q0 -41 30.5 -57.5t65.5 3.5l16 -58q-24 -16 -58 -16q-56 0 -87 34.5t-31 89.5q0 37 20 69q-122 9 -184 82t-62 181q0 116 66 190t190 74
q116 0 178 -69.5t62 -194.5zM168 304h224q0 36 -29.5 66t-82.5 30q-45 0 -78.5 -31.5t-33.5 -64.5z" />
    <glyph glyph-name="Ecaron" unicode="&#x11a;" horiz-adv-x="528" 
d="M320 880h112l-140 -144h-57l-139 144h112l56 -73zM480 544h-288v-144h240v-128h-240v-144h288v-128h-416v672h416v-128z" />
    <glyph glyph-name="ecaron" unicode="&#x11b;" horiz-adv-x="560" 
d="M336 704h112l-140 -144h-57l-139 144h112l56 -73zM528 248q0 -14 -2 -40h-361q14 -51 51.5 -81.5t95.5 -30.5q83 0 148 46l37 -111q-8 -5 -22.5 -13t-63 -21t-101.5 -13q-138 0 -208 74t-70 190t66 190t190 74q116 0 178 -69.5t62 -194.5zM168 304h224q0 36 -29.5 66
t-82.5 30q-45 0 -78.5 -31.5t-33.5 -64.5z" />
    <glyph glyph-name="Gbreve" unicode="&#x11e;" horiz-adv-x="752" 
d="M452 880h68q0 -60 -42 -102t-102 -42t-102 42t-42 102h68q0 -32 22 -54t54 -22t54 22t22 54zM715 392q5 -32 5 -56q0 -147 -96 -249.5t-240 -102.5q-146 0 -249 103t-103 249t103 249t249 103q101 0 180 -52t124 -140l-129 -36q-27 46 -72.5 73t-102.5 27
q-93 0 -158.5 -65.5t-65.5 -158.5t65.5 -158.5t158.5 -65.5q72 0 125 42t73 110h-246v128h379z" />
    <glyph glyph-name="gbreve" unicode="&#x11f;" 
d="M404 704h68q0 -60 -42 -102t-102 -42t-102 42t-42 102h68q0 -32 22 -54t54 -22t54 22t22 54zM432 496h128v-448q0 -156 -70.5 -238t-201.5 -82q-47 0 -92 10.5t-77 27t-47 26t-24 16.5l60 113q28 -24 76 -44.5t104 -20.5q65 0 104.5 43.5t39.5 110.5v43q-60 -69 -152 -69
q-103 0 -175.5 77.5t-72.5 186.5t72.5 186.5t175.5 77.5q92 0 152 -69v53zM296 112q56 0 96 40t40 96t-40 96t-96 40t-96 -40t-40 -96t40 -96t96 -40z" />
    <glyph glyph-name="Gdotaccent" unicode="&#x120;" horiz-adv-x="752" 
d="M376 720q-33 0 -56.5 23.5t-23.5 56.5t23.5 56.5t56.5 23.5t56.5 -23.5t23.5 -56.5t-23.5 -56.5t-56.5 -23.5zM715 392q5 -32 5 -56q0 -147 -96 -249.5t-240 -102.5q-146 0 -249 103t-103 249t103 249t249 103q101 0 180 -52t124 -140l-129 -36q-27 46 -72.5 73
t-102.5 27q-93 0 -158.5 -65.5t-65.5 -158.5t65.5 -158.5t158.5 -65.5q72 0 125 42t73 110h-246v128h379z" />
    <glyph glyph-name="gdotaccent" unicode="&#x121;" 
d="M312 544q-33 0 -56.5 23.5t-23.5 56.5t23.5 56.5t56.5 23.5t56.5 -23.5t23.5 -56.5t-23.5 -56.5t-56.5 -23.5zM432 496h128v-448q0 -156 -70.5 -238t-201.5 -82q-47 0 -92 10.5t-77 27t-47 26t-24 16.5l60 113q28 -24 76 -44.5t104 -20.5q65 0 104.5 43.5t39.5 110.5v43
q-60 -69 -152 -69q-103 0 -175.5 77.5t-72.5 186.5t72.5 186.5t175.5 77.5q92 0 152 -69v53zM296 112q56 0 96 40t40 96t-40 96t-96 40t-96 -40t-40 -96t40 -96t96 -40z" />
    <glyph glyph-name="Gcommaaccent" unicode="&#x122;" horiz-adv-x="752" 
d="M715 392q5 -32 5 -56q0 -147 -96 -249.5t-240 -102.5q-146 0 -249 103t-103 249t103 249t249 103q101 0 180 -52t124 -140l-129 -36q-27 46 -72.5 73t-102.5 27q-93 0 -158.5 -65.5t-65.5 -158.5t65.5 -158.5t158.5 -65.5q72 0 125 42t73 110h-246v128h379zM296 -192
l32 128h112l-80 -128h-64z" />
    <glyph glyph-name="gcommaaccent" unicode="&#x123;" 
d="M416 688l-32 -128h-112l80 128h64zM432 496h128v-448q0 -156 -70.5 -238t-201.5 -82q-47 0 -92 10.5t-77 27t-47 26t-24 16.5l60 113q28 -24 76 -44.5t104 -20.5q65 0 104.5 43.5t39.5 110.5v43q-60 -69 -152 -69q-103 0 -175.5 77.5t-72.5 186.5t72.5 186.5t175.5 77.5
q92 0 152 -69v53zM296 112q56 0 96 40t40 96t-40 96t-96 40t-96 -40t-40 -96t40 -96t96 -40z" />
    <glyph glyph-name="Hbar" unicode="&#x126;" horiz-adv-x="672" 
d="M656 584v-64h-48v-520h-128v272h-288v-272h-128v520h-48v64h48v88h128v-88h288v88h128v-88h48zM480 400v120h-288v-120h288z" />
    <glyph glyph-name="hbar" unicode="&#x127;" horiz-adv-x="592" 
d="M358 512q87 0 136.5 -57t49.5 -167v-288h-128v272q0 58 -23 85t-73 27q-48 0 -80 -32t-32 -96v-256h-128v552h-64v64h64v88h128v-88h64v-64h-64v-104q54 64 150 64z" />
    <glyph glyph-name="Imacron" unicode="&#x12a;" horiz-adv-x="256" 
d="M272 752h-288v64h288v-64zM192 0h-128v672h128v-672z" />
    <glyph glyph-name="imacron" unicode="&#x12b;" horiz-adv-x="256" 
d="M272 576h-288v64h288v-64zM64 0v496h128v-496h-128z" />
    <glyph glyph-name="Iogonek" unicode="&#x12e;" horiz-adv-x="256" 
d="M192 -134l16 -58q-24 -16 -58 -16q-56 0 -87 34.5t-31 89.5q0 22 9.5 47.5t22.5 36.5v672h128v-672q-36 0 -66 -23t-30 -57q0 -41 30.5 -57.5t65.5 3.5z" />
    <glyph glyph-name="iogonek" unicode="&#x12f;" horiz-adv-x="256" 
d="M128 560q-37 0 -62.5 25.5t-25.5 62.5t25.5 62.5t62.5 25.5t62.5 -25.5t25.5 -62.5t-25.5 -62.5t-62.5 -25.5zM96 -80q0 -41 30.5 -57.5t65.5 3.5l16 -58q-24 -16 -58 -16q-56 0 -87 34.5t-31 89.5q0 22 9.5 47.5t22.5 36.5v496h128v-496q-36 0 -66 -23t-30 -57z" />
    <glyph glyph-name="Idotaccent" unicode="&#x130;" horiz-adv-x="256" 
d="M128 720q-33 0 -56.5 23.5t-23.5 56.5t23.5 56.5t56.5 23.5t56.5 -23.5t23.5 -56.5t-23.5 -56.5t-56.5 -23.5zM192 0h-128v672h128v-672z" />
    <glyph glyph-name="dotlessi" unicode="&#x131;" horiz-adv-x="256" 
d="M64 0v496h128v-496h-128z" />
    <glyph glyph-name="IJ" unicode="&#x132;" horiz-adv-x="720" 
d="M192 0h-128v672h128v-672zM544 672h128v-416q0 -139 -62 -205.5t-170 -66.5q-40 0 -85 18t-67 44l70 106q32 -40 82 -40q49 0 76.5 34.5t27.5 85.5v440z" />
    <glyph glyph-name="ij" unicode="&#x133;" horiz-adv-x="512" 
d="M128 560q-37 0 -62.5 25.5t-25.5 62.5t25.5 62.5t62.5 25.5t62.5 -25.5t25.5 -62.5t-25.5 -62.5t-62.5 -25.5zM384 560q-37 0 -62.5 25.5t-25.5 62.5t25.5 62.5t62.5 25.5t62.5 -25.5t25.5 -62.5t-25.5 -62.5t-62.5 -25.5zM64 0v496h128v-496h-128zM320 -16v512h128v-496
q0 -80 -19.5 -136.5t-52 -84.5t-65.5 -39.5t-71 -11.5l-32 112q51 0 81.5 37.5t30.5 106.5z" />
    <glyph glyph-name="Kcommaaccent" unicode="&#x136;" 
d="M304 351l304 -351h-162l-254 294v-294h-128v672h128v-278l238 278h162zM210 -192l32 128h112l-80 -128h-64z" />
    <glyph glyph-name="kcommaaccent" unicode="&#x137;" horiz-adv-x="560" 
d="M304 256l256 -256h-160l-208 196v-196h-128v704h128v-396l192 188h160zM186 -192l32 128h112l-80 -128h-64z" />
    <glyph glyph-name="Lacute" unicode="&#x139;" horiz-adv-x="496" 
d="M64 736l80 144h144l-144 -144h-80zM192 128h272v-128h-400v672h128v-544z" />
    <glyph glyph-name="lacute" unicode="&#x13a;" horiz-adv-x="256" 
d="M64 768l80 144h144l-144 -144h-80zM64 704h128v-704h-128v704z" />
    <glyph glyph-name="Lcommaaccent" unicode="&#x13b;" horiz-adv-x="496" 
d="M192 128h272v-128h-400v672h128v-544zM168 -192l32 128h112l-80 -128h-64z" />
    <glyph glyph-name="lcommaaccent" unicode="&#x13c;" horiz-adv-x="256" 
d="M64 704h128v-704h-128v704zM40 -192l32 128h112l-80 -128h-64z" />
    <glyph glyph-name="Lcaron" unicode="&#x13d;" horiz-adv-x="512" 
d="M192 128h272v-128h-400v672h128v-544zM320 544l32 128h112l-80 -128h-64z" />
    <glyph glyph-name="lcaron" unicode="&#x13e;" horiz-adv-x="384" 
d="M64 704h128v-704h-128v704zM224 544l32 128h112l-80 -128h-64z" />
    <glyph glyph-name="Ldot" unicode="&#x13f;" horiz-adv-x="512" 
d="M192 128h272v-128h-400v672h128v-544zM400 296q-34 0 -57 23t-23 57t23 57t57 23t57 -23t23 -57t-23 -57t-57 -23z" />
    <glyph glyph-name="ldot" unicode="&#x140;" horiz-adv-x="416" 
d="M64 704h128v-704h-128v704zM320 296q-34 0 -57 23t-23 57t23 57t57 23t57 -23t23 -57t-23 -57t-57 -23z" />
    <glyph glyph-name="Lslash" unicode="&#x141;" horiz-adv-x="512" 
d="M208 128h272v-128h-400v298l-64 -18v64l64 18v310h128v-275l64 18v-64l-64 -18v-205z" />
    <glyph glyph-name="lslash" unicode="&#x142;" horiz-adv-x="288" 
d="M272 415v-64l-64 -18v-333h-128v298l-64 -18v64l64 18v342h128v-307z" />
    <glyph glyph-name="Nacute" unicode="&#x143;" horiz-adv-x="720" 
d="M288 736l80 144h144l-144 -144h-80zM528 672h128v-672h-128l-336 464v-464h-128v672h128l336 -464v464z" />
    <glyph glyph-name="nacute" unicode="&#x144;" horiz-adv-x="576" 
d="M208 560l80 144h144l-144 -144h-80zM342 512q87 0 136.5 -57t49.5 -167v-288h-128v272q0 58 -23 85t-73 27q-48 0 -80 -32t-32 -96v-256h-128v496h128v-48q54 64 150 64z" />
    <glyph glyph-name="Ncommaaccent" unicode="&#x145;" horiz-adv-x="720" 
d="M528 672h128v-672h-128l-336 464v-464h-128v672h128l336 -464v464zM272 -192l32 128h112l-80 -128h-64z" />
    <glyph glyph-name="ncommaaccent" unicode="&#x146;" horiz-adv-x="576" 
d="M342 512q87 0 136.5 -57t49.5 -167v-288h-128v272q0 58 -23 85t-73 27q-48 0 -80 -32t-32 -96v-256h-128v496h128v-48q54 64 150 64zM202 -192l32 128h112l-80 -128h-64z" />
    <glyph glyph-name="Ncaron" unicode="&#x147;" horiz-adv-x="720" 
d="M416 880h112l-140 -144h-57l-139 144h112l56 -73zM528 672h128v-672h-128l-336 464v-464h-128v672h128l336 -464v464z" />
    <glyph glyph-name="ncaron" unicode="&#x148;" horiz-adv-x="576" 
d="M328 704h112l-140 -144h-57l-139 144h112l56 -73zM342 512q87 0 136.5 -57t49.5 -167v-288h-128v272q0 58 -23 85t-73 27q-48 0 -80 -32t-32 -96v-256h-128v496h128v-48q54 64 150 64z" />
    <glyph glyph-name="Eng" unicode="&#x14a;" horiz-adv-x="720" 
d="M528 672h128v-672q0 -80 -19.5 -136.5t-52 -84.5t-65.5 -39.5t-71 -11.5l-32 112q51 0 81.5 37.5t30.5 106.5v16l-336 464v-464h-128v672h128l336 -464v464z" />
    <glyph glyph-name="eng" unicode="&#x14b;" horiz-adv-x="576" 
d="M342 512q87 0 136.5 -57t49.5 -167v-288q0 -80 -19.5 -136.5t-52 -84.5t-65.5 -39.5t-71 -11.5l-32 112q51 0 81.5 37.5t30.5 106.5v288q0 58 -23 85t-73 27q-48 0 -80 -32t-32 -96v-256h-128v496h128v-48q54 64 150 64z" />
    <glyph glyph-name="Omacron" unicode="&#x14c;" horiz-adv-x="768" 
d="M528 752h-288v64h288v-64zM384 688q146 0 249 -103t103 -249t-103 -249t-249 -103t-249 103t-103 249t103 249t249 103zM384 112q93 0 158.5 65.5t65.5 158.5t-65.5 158.5t-158.5 65.5t-158.5 -65.5t-65.5 -158.5t65.5 -158.5t158.5 -65.5z" />
    <glyph glyph-name="omacron" unicode="&#x14d;" horiz-adv-x="592" 
d="M440 576h-288v64h288v-64zM296 512q110 0 187 -77t77 -187t-77 -187t-187 -77t-187 77t-77 187t77 187t187 77zM296 112q56 0 96 40t40 96t-40 96t-96 40t-96 -40t-40 -96t40 -96t96 -40z" />
    <glyph glyph-name="Ohungarumlaut" unicode="&#x150;" horiz-adv-x="768" 
d="M232 736l32 128h120l-80 -128h-72zM456 736l32 128h120l-80 -128h-72zM384 688q146 0 249 -103t103 -249t-103 -249t-249 -103t-249 103t-103 249t103 249t249 103zM384 112q93 0 158.5 65.5t65.5 158.5t-65.5 158.5t-158.5 65.5t-158.5 -65.5t-65.5 -158.5t65.5 -158.5
t158.5 -65.5z" />
    <glyph glyph-name="ohungarumlaut" unicode="&#x151;" horiz-adv-x="592" 
d="M144 560l32 128h120l-80 -128h-72zM368 560l32 128h120l-80 -128h-72zM296 512q110 0 187 -77t77 -187t-77 -187t-187 -77t-187 77t-77 187t77 187t187 77zM296 112q56 0 96 40t40 96t-40 96t-96 40t-96 -40t-40 -96t40 -96t96 -40z" />
    <glyph glyph-name="OE" unicode="&#x152;" horiz-adv-x="1072" 
d="M1024 544h-288v-144h240v-128h-240v-144h288v-128h-416v65q-97 -81 -224 -81q-146 0 -249 103t-103 249t103 249t249 103q127 0 224 -81v65h416v-128zM384 112q93 0 158.5 65.5t65.5 158.5t-65.5 158.5t-158.5 65.5t-158.5 -65.5t-65.5 -158.5t65.5 -158.5t158.5 -65.5z
" />
    <glyph glyph-name="oe" unicode="&#x153;" horiz-adv-x="960" 
d="M928 248q0 -14 -2 -40h-361q14 -51 51.5 -81.5t95.5 -30.5q83 0 148 46l37 -111q-8 -5 -22.5 -13t-63 -21t-101.5 -13q-146 0 -219 86q-78 -86 -195 -86q-110 0 -187 77t-77 187t77 187t187 77q115 0 193 -84q69 84 199 84q116 0 178 -69.5t62 -194.5zM568 304h224
q0 36 -29.5 66t-82.5 30q-45 0 -78.5 -31.5t-33.5 -64.5zM296 112q56 0 96 40t40 96t-40 96t-96 40t-96 -40t-40 -96t40 -96t96 -40z" />
    <glyph glyph-name="Racute" unicode="&#x154;" horiz-adv-x="608" 
d="M200 736l80 144h144l-144 -144h-80zM576 0h-156l-151 224h-77v-224h-128v672h240q127 0 191.5 -61t64.5 -163q0 -73 -41 -132.5t-113 -81.5zM192 544v-192h128q47 0 79.5 27t32.5 69q0 46 -31.5 71t-80.5 25h-128z" />
    <glyph glyph-name="racute" unicode="&#x155;" horiz-adv-x="432" 
d="M120 560l80 144h144l-144 -144h-80zM192 391q24 55 80 85.5t128 35.5v-151q-50 13 -96 0t-79 -52.5t-33 -100.5v-208h-128v496h128v-105z" />
    <glyph glyph-name="Rcommaaccent" unicode="&#x156;" horiz-adv-x="608" 
d="M576 0h-156l-151 224h-77v-224h-128v672h240q127 0 191.5 -61t64.5 -163q0 -73 -41 -132.5t-113 -81.5zM192 544v-192h128q47 0 79.5 27t32.5 69q0 46 -31.5 71t-80.5 25h-128zM200 -192l32 128h112l-80 -128h-64z" />
    <glyph glyph-name="rcommaaccent" unicode="&#x157;" horiz-adv-x="432" 
d="M192 391q24 55 80 85.5t128 35.5v-151q-50 13 -96 0t-79 -52.5t-33 -100.5v-208h-128v496h128v-105zM48 -192l32 128h112l-80 -128h-64z" />
    <glyph glyph-name="Rcaron" unicode="&#x158;" horiz-adv-x="608" 
d="M328 880h112l-140 -144h-57l-139 144h112l56 -73zM576 0h-156l-151 224h-77v-224h-128v672h240q127 0 191.5 -61t64.5 -163q0 -73 -41 -132.5t-113 -81.5zM192 544v-192h128q47 0 79.5 27t32.5 69q0 46 -31.5 71t-80.5 25h-128z" />
    <glyph glyph-name="rcaron" unicode="&#x159;" horiz-adv-x="432" 
d="M272 704h112l-140 -144h-57l-139 144h112l56 -73zM192 391q24 55 80 85.5t128 35.5v-151q-50 13 -96 0t-79 -52.5t-33 -100.5v-208h-128v496h128v-105z" />
    <glyph glyph-name="Sacute" unicode="&#x15a;" horiz-adv-x="608" 
d="M240 736l80 144h144l-144 -144h-80zM320 408q61 -10 103 -23t79 -35.5t55.5 -60t18.5 -89.5q0 -94 -70.5 -155t-199.5 -61q-162 0 -274 112l64 112q41 -47 100 -71.5t112 -24.5q66 0 103 22t37 58q0 64 -136 84q-138 21 -197 71.5t-59 130.5q0 88 69 149t189 61
q130 0 230 -82l-54 -110q-74 64 -178 64q-56 0 -92 -17.5t-36 -55.5q0 -33 30 -50t106 -29z" />
    <glyph glyph-name="sacute" unicode="&#x15b;" horiz-adv-x="512" 
d="M192 560l80 144h144l-144 -144h-80zM281 316q115 -18 157 -59t42 -97q0 -78 -58.5 -127t-159.5 -49q-78 0 -140.5 24t-89.5 48l42 120q32 -30 81.5 -49.5t94.5 -20.5q102 -2 102 43q0 16 -18.5 24t-69.5 17q-67 11 -111.5 27.5t-66.5 39t-30 46.5t-8 57q0 62 61 107
t156 45q100 0 193 -48l-36 -116q-21 15 -66 28t-91 14q-89 2 -89 -30q0 -27 89 -41q5 -1 8.5 -1.5t7.5 -1.5z" />
    <glyph glyph-name="Scedilla" unicode="&#x15e;" horiz-adv-x="608" 
d="M576 200q0 -87 -60.5 -146.5t-173.5 -68.5l-33 -33q55 6 97 -25.5t42 -86.5q0 -62 -45.5 -103t-114.5 -41q-84 0 -128 63l54 61q21 -52 73 -52q44 0 68.5 21.5t24.5 51.5q0 29 -22 46t-54 17q-38 0 -62 -16l-34 48l51 51q-132 14 -227 109l64 112q41 -47 100 -71.5
t112 -24.5q66 0 103 22t37 58q0 64 -136 84q-138 21 -197 71.5t-59 130.5q0 88 69 149t189 61q130 0 230 -82l-54 -110q-74 64 -178 64q-56 0 -92 -17.5t-36 -55.5q0 -33 30 -50t106 -29q61 -10 103 -23t79 -35.5t55.5 -60t18.5 -89.5z" />
    <glyph glyph-name="scedilla" unicode="&#x15f;" horiz-adv-x="512" 
d="M480 160q0 -69 -47 -116.5t-130 -57.5l-34 -34q55 6 97 -25.5t42 -86.5q0 -62 -45.5 -103t-114.5 -41q-84 0 -128 63l54 61q21 -52 73 -52q44 0 68.5 21.5t24.5 51.5q0 29 -22 46t-54 17q-38 0 -62 -16l-34 48l50 50q-63 7 -113 28.5t-73 41.5l42 120q32 -30 81.5 -49.5
t94.5 -20.5q102 -2 102 43q0 16 -18.5 24t-69.5 17q-67 11 -111.5 27.5t-66.5 39t-30 46.5t-8 57q0 62 61 107t156 45q100 0 193 -48l-36 -116q-21 15 -66 28t-91 14q-89 2 -89 -30q0 -27 89 -41q5 -1 8.5 -1.5t7.5 -1.5q115 -18 157 -59t42 -97z" />
    <glyph glyph-name="Scaron" unicode="&#x160;" horiz-adv-x="608" 
d="M360 880h112l-140 -144h-57l-139 144h112l56 -73zM320 408q61 -10 103 -23t79 -35.5t55.5 -60t18.5 -89.5q0 -94 -70.5 -155t-199.5 -61q-162 0 -274 112l64 112q41 -47 100 -71.5t112 -24.5q66 0 103 22t37 58q0 64 -136 84q-138 21 -197 71.5t-59 130.5q0 88 69 149
t189 61q130 0 230 -82l-54 -110q-74 64 -178 64q-56 0 -92 -17.5t-36 -55.5q0 -33 30 -50t106 -29z" />
    <glyph glyph-name="scaron" unicode="&#x161;" horiz-adv-x="512" 
d="M312 704h112l-140 -144h-57l-139 144h112l56 -73zM281 316q115 -18 157 -59t42 -97q0 -78 -58.5 -127t-159.5 -49q-78 0 -140.5 24t-89.5 48l42 120q32 -30 81.5 -49.5t94.5 -20.5q102 -2 102 43q0 16 -18.5 24t-69.5 17q-67 11 -111.5 27.5t-66.5 39t-30 46.5t-8 57
q0 62 61 107t156 45q100 0 193 -48l-36 -116q-21 15 -66 28t-91 14q-89 2 -89 -30q0 -27 89 -41q5 -1 8.5 -1.5t7.5 -1.5z" />
    <glyph glyph-name="uni0162" unicode="&#x162;" horiz-adv-x="544" 
d="M336 0h-19l-48 -48q55 6 97 -25.5t42 -86.5q0 -62 -45.5 -103t-114.5 -41q-84 0 -128 63l54 61q21 -52 73 -52q44 0 68.5 21.5t24.5 51.5q0 29 -22 46t-54 17q-38 0 -62 -16l-34 48l64 64h-24v544h-176v128h480v-128h-176v-544z" />
    <glyph glyph-name="uni0163" unicode="&#x163;" horiz-adv-x="368" 
d="M197 -48q55 6 97 -25.5t42 -86.5q0 -62 -45.5 -103t-114.5 -41q-84 0 -128 63l54 61q21 -52 73 -52q44 0 68.5 21.5t24.5 51.5q0 29 -22 46t-54 17q-38 0 -62 -16l-34 48l64 64q-64 35 -64 141v243h-64v112h64v176h128v-176h96v-112h-96v-208q0 -53 24.5 -66t71.5 2v-112
q-38 -16 -91 -16z" />
    <glyph glyph-name="Tcaron" unicode="&#x164;" horiz-adv-x="544" 
d="M328 880h112l-140 -144h-57l-139 144h112l56 -73zM32 672h480v-128h-176v-544h-128v544h-176v128z" />
    <glyph glyph-name="tcaron" unicode="&#x165;" horiz-adv-x="528" 
d="M96 141v243h-64v112h64v176h128v-176h96v-112h-96v-208q0 -53 24.5 -66t71.5 2v-112q-40 -16 -94 -16q-66 0 -98 42.5t-32 114.5zM352 544l32 128h112l-80 -128h-64z" />
    <glyph glyph-name="Tbar" unicode="&#x166;" horiz-adv-x="544" 
d="M512 544h-176v-200h64v-64h-64v-280h-128v280h-64v64h64v200h-176v128h480v-128z" />
    <glyph glyph-name="tbar" unicode="&#x167;" horiz-adv-x="368" 
d="M320 384h-96v-80h96v-64h-96v-64q0 -53 24.5 -66t71.5 2v-112q-40 -16 -94 -16q-66 0 -98 42.5t-32 114.5v99h-64v64h64v80h-64v112h64v176h128v-176h96v-112z" />
    <glyph glyph-name="Umacron" unicode="&#x16a;" horiz-adv-x="640" 
d="M464 752h-288v64h288v-64zM464 672h128v-384q0 -136 -72.5 -220t-199.5 -84q-129 0 -200.5 84t-71.5 220v384h128v-400q0 -71 41.5 -115.5t102.5 -44.5t102.5 44.5t41.5 115.5v400z" />
    <glyph glyph-name="umacron" unicode="&#x16b;" horiz-adv-x="576" 
d="M432 576h-288v64h288v-64zM234 -16q-87 0 -136.5 57t-49.5 167v288h128v-272q0 -58 23.5 -85t72.5 -27q48 0 80 32t32 96v256h128v-496h-128v48q-54 -64 -150 -64z" />
    <glyph glyph-name="Uring" unicode="&#x16e;" horiz-adv-x="640" 
d="M320 944q50 0 85 -35t35 -85t-35 -85t-85 -35t-85 35t-35 85t35 85t85 35zM320 768q23 0 39.5 16.5t16.5 39.5t-16.5 39.5t-39.5 16.5t-39.5 -16.5t-16.5 -39.5t16.5 -39.5t39.5 -16.5zM464 672h128v-384q0 -136 -72.5 -220t-199.5 -84q-129 0 -200.5 84t-71.5 220v384
h128v-400q0 -71 41.5 -115.5t102.5 -44.5t102.5 44.5t41.5 115.5v400z" />
    <glyph glyph-name="uring" unicode="&#x16f;" horiz-adv-x="576" 
d="M288 768q50 0 85 -35t35 -85t-35 -85t-85 -35t-85 35t-35 85t35 85t85 35zM288 592q23 0 39.5 16.5t16.5 39.5t-16.5 39.5t-39.5 16.5t-39.5 -16.5t-16.5 -39.5t16.5 -39.5t39.5 -16.5zM234 -16q-87 0 -136.5 57t-49.5 167v288h128v-272q0 -58 23.5 -85t72.5 -27
q48 0 80 32t32 96v256h128v-496h-128v48q-54 -64 -150 -64z" />
    <glyph glyph-name="Uhungarumlaut" unicode="&#x170;" horiz-adv-x="640" 
d="M160 736l32 128h120l-80 -128h-72zM384 736l32 128h120l-80 -128h-72zM464 672h128v-384q0 -136 -72.5 -220t-199.5 -84q-129 0 -200.5 84t-71.5 220v384h128v-400q0 -71 41.5 -115.5t102.5 -44.5t102.5 44.5t41.5 115.5v400z" />
    <glyph glyph-name="uhungarumlaut" unicode="&#x171;" horiz-adv-x="576" 
d="M120 560l32 128h120l-80 -128h-72zM344 560l32 128h120l-80 -128h-72zM234 -16q-87 0 -136.5 57t-49.5 167v288h128v-272q0 -58 23.5 -85t72.5 -27q48 0 80 32t32 96v256h128v-496h-128v48q-54 -64 -150 -64z" />
    <glyph glyph-name="Uogonek" unicode="&#x172;" horiz-adv-x="640" 
d="M464 672h128v-384q0 -122 -60 -203.5t-167 -97.5q-19 -2 -32 -22.5t-13 -44.5q0 -41 30.5 -57.5t65.5 3.5l16 -58q-24 -16 -58 -16q-56 0 -87 34.5t-31 89.5q0 40 21 71q-110 14 -169.5 95.5t-59.5 205.5v384h128v-400q0 -71 41.5 -115.5t102.5 -44.5t102.5 44.5
t41.5 115.5v400z" />
    <glyph glyph-name="uogonek" unicode="&#x173;" horiz-adv-x="576" 
d="M512 -134l16 -58q-24 -16 -58 -16q-56 0 -87 34.5t-31 89.5q0 22 9.5 47.5t22.5 36.5v48q-54 -64 -150 -64q-87 0 -136.5 57t-49.5 167v288h128v-272q0 -58 23.5 -85t72.5 -27q48 0 80 32t32 96v256h128v-496q-36 0 -66 -23t-30 -57q0 -41 30.5 -57.5t65.5 3.5z" />
    <glyph glyph-name="Wcircumflex" unicode="&#x174;" horiz-adv-x="992" 
d="M552 736l-56 73l-56 -73h-112l139 144h57l140 -144h-112zM552 672l128 -448l160 448h144l-240 -672h-128l-120 416l-120 -416h-128l-240 672h144l160 -448l128 448h112z" />
    <glyph glyph-name="wcircumflex" unicode="&#x175;" horiz-adv-x="768" 
d="M440 560l-56 73l-56 -73h-112l139 144h57l140 -144h-112zM616 496h144l-168 -496h-116l-92 272l-92 -272h-116l-168 496h144l88 -320l96 320h96l96 -320z" />
    <glyph glyph-name="Ycircumflex" unicode="&#x176;" horiz-adv-x="608" 
d="M360 736l-56 73l-56 -73h-112l139 144h57l140 -144h-112zM456 672h152l-240 -400v-272h-128v272l-240 400h152l152 -272z" />
    <glyph glyph-name="ycircumflex" unicode="&#x177;" horiz-adv-x="528" 
d="M320 560l-56 73l-56 -73h-112l139 144h57l140 -144h-112zM384 496h144l-320 -752h-144l128 292l-192 460h144l120 -292z" />
    <glyph glyph-name="Ydieresis" unicode="&#x178;" horiz-adv-x="608" 
d="M208 736q-27 0 -45.5 18.5t-18.5 45.5t18.5 45.5t45.5 18.5t45.5 -18.5t18.5 -45.5t-18.5 -45.5t-45.5 -18.5zM400 736q-27 0 -45.5 18.5t-18.5 45.5t18.5 45.5t45.5 18.5t45.5 -18.5t18.5 -45.5t-18.5 -45.5t-45.5 -18.5zM456 672h152l-240 -400v-272h-128v272l-240 400
h152l152 -272z" />
    <glyph glyph-name="Zacute" unicode="&#x179;" horiz-adv-x="608" 
d="M232 736l80 144h144l-144 -144h-80zM560 0h-528l320 544h-304v128h528l-320 -544h304v-128z" />
    <glyph glyph-name="zacute" unicode="&#x17a;" horiz-adv-x="496" 
d="M184 560l80 144h144l-144 -144h-80zM448 0h-416l216 368h-200v128h416l-216 -368h200v-128z" />
    <glyph glyph-name="Zdotaccent" unicode="&#x17b;" horiz-adv-x="608" 
d="M304 720q-33 0 -56.5 23.5t-23.5 56.5t23.5 56.5t56.5 23.5t56.5 -23.5t23.5 -56.5t-23.5 -56.5t-56.5 -23.5zM560 0h-528l320 544h-304v128h528l-320 -544h304v-128z" />
    <glyph glyph-name="zdotaccent" unicode="&#x17c;" horiz-adv-x="496" 
d="M248 544q-33 0 -56.5 23.5t-23.5 56.5t23.5 56.5t56.5 23.5t56.5 -23.5t23.5 -56.5t-23.5 -56.5t-56.5 -23.5zM448 0h-416l216 368h-200v128h416l-216 -368h200v-128z" />
    <glyph glyph-name="Zcaron" unicode="&#x17d;" horiz-adv-x="608" 
d="M360 880h112l-140 -144h-57l-139 144h112l56 -73zM560 0h-528l320 544h-304v128h528l-320 -544h304v-128z" />
    <glyph glyph-name="zcaron" unicode="&#x17e;" horiz-adv-x="496" 
d="M304 704h112l-140 -144h-57l-139 144h112l56 -73zM448 0h-416l216 368h-200v128h416l-216 -368h200v-128z" />
    <glyph glyph-name="Aringacute" unicode="&#x1fa;" horiz-adv-x="672" 
d="M272 976l80 144h144l-144 -144h-80zM336 944q50 0 85 -35t35 -85t-35 -85t-85 -35t-85 35t-35 85t35 85t85 35zM336 768q23 0 39.5 16.5t16.5 39.5t-16.5 39.5t-39.5 16.5t-39.5 -16.5t-16.5 -39.5t16.5 -39.5t39.5 -16.5zM528 0l-50 128h-284l-50 -128h-144l278 672h116
l278 -672h-144zM243 256h186l-93 240z" />
    <glyph glyph-name="aringacute" unicode="&#x1fb;" 
d="M272 800l80 144h144l-144 -144h-80zM336 768q50 0 85 -35t35 -85t-35 -85t-85 -35t-85 35t-35 85t35 85t85 35zM336 592q23 0 39.5 16.5t16.5 39.5t-16.5 39.5t-39.5 16.5t-39.5 -16.5t-16.5 -39.5t16.5 -39.5t39.5 -16.5zM432 496h128v-496h-128v53q-60 -69 -152 -69
q-103 0 -175.5 77.5t-72.5 186.5t72.5 186.5t175.5 77.5q92 0 152 -69v53zM296 112q56 0 96 40t40 96t-40 96t-96 40t-96 -40t-40 -96t40 -96t96 -40z" />
    <glyph glyph-name="AEacute" unicode="&#x1fc;" horiz-adv-x="832" 
d="M376 736l80 144h144l-144 -144h-80zM784 544h-288v-144h240v-128h-240v-144h288v-128h-416v128h-166l-58 -128h-144l312 672h472v-128zM261 256h107v236z" />
    <glyph glyph-name="aeacute" unicode="&#x1fd;" horiz-adv-x="896" 
d="M376 560l80 144h144l-144 -144h-80zM864 248q0 -14 -2 -40h-361q14 -51 51.5 -81.5t95.5 -30.5q83 0 148 46l37 -111q-8 -5 -22.5 -13t-63 -21t-101.5 -13q-86 0 -150 32v-16h-128v32q-58 -48 -154 -48q-82 0 -132 49.5t-50 121.5q0 95 87 140q77 40 247 15
q0 45 -29.5 69t-79.5 24q-37 0 -75 -11.5t-58 -23.5l-19 -11l-44 93q10 7 27.5 17.5t71 27.5t104.5 17q128 0 183 -61q67 61 177 61q116 0 178 -69.5t62 -194.5zM504 304h224q0 36 -29.5 66t-82.5 30q-45 0 -78.5 -31.5t-33.5 -64.5zM368 161v63l-40 4q-93 9 -132.5 -11
t-39.5 -57q0 -29 25.5 -46.5t67.5 -17.5q41 0 80 20t39 45z" />
    <glyph glyph-name="Scommaaccent" unicode="&#x218;" horiz-adv-x="608" 
d="M320 408q61 -10 103 -23t79 -35.5t55.5 -60t18.5 -89.5q0 -94 -70.5 -155t-199.5 -61q-162 0 -274 112l64 112q41 -47 100 -71.5t112 -24.5q66 0 103 22t37 58q0 64 -136 84q-138 21 -197 71.5t-59 130.5q0 88 69 149t189 61q130 0 230 -82l-54 -110q-74 64 -178 64
q-56 0 -92 -17.5t-36 -55.5q0 -33 30 -50t106 -29zM224 -192l32 128h112l-80 -128h-64z" />
    <glyph glyph-name="scommaaccent" unicode="&#x219;" horiz-adv-x="512" 
d="M281 316q115 -18 157 -59t42 -97q0 -78 -58.5 -127t-159.5 -49q-78 0 -140.5 24t-89.5 48l42 120q32 -30 81.5 -49.5t94.5 -20.5q102 -2 102 43q0 16 -18.5 24t-69.5 17q-67 11 -111.5 27.5t-66.5 39t-30 46.5t-8 57q0 62 61 107t156 45q100 0 193 -48l-36 -116
q-21 15 -66 28t-91 14q-89 2 -89 -30q0 -27 89 -41q5 -1 8.5 -1.5t7.5 -1.5zM168 -192l32 128h112l-80 -128h-64z" />
    <glyph glyph-name="uni021A" unicode="&#x21a;" horiz-adv-x="544" 
d="M32 672h480v-128h-176v-544h-128v544h-176v128zM184 -192l32 128h112l-80 -128h-64z" />
    <glyph glyph-name="uni021B" unicode="&#x21b;" horiz-adv-x="368" 
d="M96 141v243h-64v112h64v176h128v-176h96v-112h-96v-208q0 -53 24.5 -66t71.5 2v-112q-40 -16 -94 -16q-66 0 -98 42.5t-32 114.5zM96 -192l32 128h112l-80 -128h-64z" />
    <glyph glyph-name="circumflex" unicode="&#x2c6;" horiz-adv-x="800" 
d="M456 736l-56 73l-56 -73h-112l139 144h57l140 -144h-112z" />
    <glyph glyph-name="caron" unicode="&#x2c7;" horiz-adv-x="800" 
d="M456 880h112l-140 -144h-57l-139 144h112l56 -73z" />
    <glyph glyph-name="breve" unicode="&#x2d8;" horiz-adv-x="800" 
d="M476 880h68q0 -60 -42 -102t-102 -42t-102 42t-42 102h68q0 -32 22 -54t54 -22t54 22t22 54z" />
    <glyph glyph-name="dotaccent" unicode="&#x2d9;" horiz-adv-x="800" 
d="M400 720q-33 0 -56.5 23.5t-23.5 56.5t23.5 56.5t56.5 23.5t56.5 -23.5t23.5 -56.5t-23.5 -56.5t-56.5 -23.5z" />
    <glyph glyph-name="ring" unicode="&#x2da;" horiz-adv-x="800" 
d="M400 944q50 0 85 -35t35 -85t-35 -85t-85 -35t-85 35t-35 85t35 85t85 35zM400 768q23 0 39.5 16.5t16.5 39.5t-16.5 39.5t-39.5 16.5t-39.5 -16.5t-16.5 -39.5t16.5 -39.5t39.5 -16.5z" />
    <glyph glyph-name="ogonek" unicode="&#x2db;" horiz-adv-x="800" 
d="M360 0h128q-36 0 -66 -23t-30 -57q0 -41 30.5 -57.5t65.5 3.5l16 -58q-24 -16 -58 -16q-56 0 -87 34.5t-31 89.5q0 22 9.5 47.5t22.5 36.5z" />
    <glyph glyph-name="tilde" unicode="&#x2dc;" horiz-adv-x="800" 
d="M524 841l68 -25q-39 -80 -118 -80q-30 0 -78 19q-42 19 -72 16.5t-48 -35.5l-68 25q41 79 120 79q29 0 74 -18q42 -20 73 -17t49 36z" />
    <glyph glyph-name="hungarumlaut" unicode="&#x2dd;" horiz-adv-x="800" 
d="M228 736l32 128h120l-80 -128h-72zM452 736l32 128h120l-80 -128h-72z" />
    <glyph glyph-name="Alphatonos" unicode="&#x386;" horiz-adv-x="672" 
d="M528 0l-50 128h-284l-50 -128h-144l278 672h116l278 -672h-144zM32 544l32 128h112l-80 -128h-64zM243 256h186l-93 240z" />
    <glyph glyph-name="Epsilontonos" unicode="&#x388;" horiz-adv-x="672" 
d="M32 544l32 128h112l-80 -128h-64zM624 544h-288v-144h240v-128h-240v-144h288v-128h-416v672h416v-128z" />
    <glyph glyph-name="Etatonos" unicode="&#x389;" horiz-adv-x="816" 
d="M32 544l32 128h112l-80 -128h-64zM624 672h128v-672h-128v272h-288v-272h-128v672h128v-272h288v272z" />
    <glyph glyph-name="Iotatonos" unicode="&#x38a;" horiz-adv-x="400" 
d="M32 544l32 128h112l-80 -128h-64zM336 0h-128v672h128v-672z" />
    <glyph glyph-name="Omicrontonos" unicode="&#x38c;" horiz-adv-x="848" 
d="M464 688q146 0 249 -103t103 -249t-103 -249t-249 -103t-249 103t-103 249t103 249t249 103zM32 544l32 128h112l-80 -128h-64zM464 112q93 0 158.5 65.5t65.5 158.5t-65.5 158.5t-158.5 65.5t-158.5 -65.5t-65.5 -158.5t65.5 -158.5t158.5 -65.5z" />
    <glyph glyph-name="Upsilontonos" unicode="&#x38e;" horiz-adv-x="816" 
d="M32 544l32 128h112l-80 -128h-64zM664 672h152l-240 -400v-272h-128v272l-240 400h152l152 -272z" />
    <glyph glyph-name="Omegatonos" unicode="&#x38f;" horiz-adv-x="816" 
d="M768 392q0 -70 -36 -141t-97 -123h133v-128h-288v144q68 45 114 109.5t46 130.5q0 85 -56.5 130.5t-135.5 45.5t-135.5 -45.5t-56.5 -130.5q0 -66 46 -130.5t114 -109.5v-144h-288v128h133q-61 52 -97 123t-36 141q0 123 84.5 209.5t235.5 86.5t235.5 -86.5t84.5 -209.5z
M32 544l32 128h112l-80 -128h-64z" />
    <glyph glyph-name="iotadieresistonos" unicode="&#x390;" horiz-adv-x="288" 
d="M-16 560q-27 0 -45.5 18.5t-18.5 45.5t18.5 45.5t45.5 18.5t45.5 -18.5t18.5 -45.5t-18.5 -45.5t-45.5 -18.5zM80 560l32 128h112l-80 -128h-64zM304 560q-27 0 -45.5 18.5t-18.5 45.5t18.5 45.5t45.5 18.5t45.5 -18.5t18.5 -45.5t-18.5 -45.5t-45.5 -18.5zM192 496v-328
q0 -42 13 -53t51 -3v-112q-32 -16 -74 -16q-118 0 -118 173v339h128z" />
    <glyph glyph-name="Alpha" unicode="&#x391;" horiz-adv-x="672" 
d="M528 0l-50 128h-284l-50 -128h-144l278 672h116l278 -672h-144zM243 256h186l-93 240z" />
    <glyph glyph-name="Beta" unicode="&#x392;" 
d="M479 361q58 -15 85.5 -58t27.5 -101q0 -89 -62 -145.5t-168 -56.5h-298v672h240q121 0 188.5 -43t67.5 -133q0 -48 -22.5 -83.5t-58.5 -51.5zM192 544v-128h120q120 0 120 64q0 37 -29 50.5t-91 13.5h-120zM328 128q136 0 136 88q0 44 -36 66t-100 22h-136v-176h136z" />
    <glyph glyph-name="Gamma" unicode="&#x393;" horiz-adv-x="512" 
d="M480 544h-288v-544h-128v672h416v-128z" />
    <glyph glyph-name="uni0394" unicode="&#x394;" horiz-adv-x="672" 
d="M394 672l278 -672h-672l278 672h116zM194 128h284l-142 368z" />
    <glyph glyph-name="Epsilon" unicode="&#x395;" horiz-adv-x="528" 
d="M480 544h-288v-144h240v-128h-240v-144h288v-128h-416v672h416v-128z" />
    <glyph glyph-name="Zeta" unicode="&#x396;" horiz-adv-x="608" 
d="M560 0h-528l320 544h-304v128h528l-320 -544h304v-128z" />
    <glyph glyph-name="Eta" unicode="&#x397;" horiz-adv-x="672" 
d="M480 672h128v-672h-128v272h-288v-272h-128v672h128v-272h288v272z" />
    <glyph glyph-name="Theta" unicode="&#x398;" horiz-adv-x="768" 
d="M384 688q146 0 249 -103t103 -249t-103 -249t-249 -103t-249 103t-103 249t103 249t249 103zM384 112q93 0 158.5 65.5t65.5 158.5t-65.5 158.5t-158.5 65.5t-158.5 -65.5t-65.5 -158.5t65.5 -158.5t158.5 -65.5zM208 304v64h352v-64h-352z" />
    <glyph glyph-name="Iota" unicode="&#x399;" horiz-adv-x="256" 
d="M192 0h-128v672h128v-672z" />
    <glyph glyph-name="Kappa" unicode="&#x39a;" 
d="M304 351l304 -351h-162l-254 294v-294h-128v672h128v-278l238 278h162z" />
    <glyph glyph-name="Lambda" unicode="&#x39b;" horiz-adv-x="672" 
d="M528 0l-192 496l-192 -496h-144l278 672h116l278 -672h-144z" />
    <glyph glyph-name="Mu" unicode="&#x39c;" horiz-adv-x="864" 
d="M736 672l96 -672h-136l-56 440l-176 -440h-64l-176 440l-56 -440h-136l96 672h128l176 -432l176 432h128z" />
    <glyph glyph-name="Nu" unicode="&#x39d;" horiz-adv-x="720" 
d="M528 672h128v-672h-128l-336 464v-464h-128v672h128l336 -464v464z" />
    <glyph glyph-name="Xi" unicode="&#x39e;" horiz-adv-x="576" 
d="M48 544v128h480v-128h-480zM96 272v128h384v-128h-384zM48 0v128h480v-128h-480z" />
    <glyph glyph-name="Omicron" unicode="&#x39f;" horiz-adv-x="768" 
d="M384 688q146 0 249 -103t103 -249t-103 -249t-249 -103t-249 103t-103 249t103 249t249 103zM384 112q93 0 158.5 65.5t65.5 158.5t-65.5 158.5t-158.5 65.5t-158.5 -65.5t-65.5 -158.5t65.5 -158.5t158.5 -65.5z" />
    <glyph glyph-name="Pi" unicode="&#x3a0;" horiz-adv-x="672" 
d="M608 672v-672h-128v544h-288v-544h-128v672h544z" />
    <glyph glyph-name="Rho" unicode="&#x3a1;" horiz-adv-x="592" 
d="M304 672q127 0 191.5 -61t64.5 -163q0 -91 -61 -157.5t-163 -66.5h-144v-224h-128v672h240zM320 352q47 0 79.5 27t32.5 69q0 46 -31.5 71t-80.5 25h-128v-192h128z" />
    <glyph glyph-name="Sigma" unicode="&#x3a3;" horiz-adv-x="608" 
d="M242 544l174 -208l-174 -208h302v-128h-480v128l184 208l-184 208v128h480v-128h-302z" />
    <glyph glyph-name="Tau" unicode="&#x3a4;" horiz-adv-x="544" 
d="M32 672h480v-128h-176v-544h-128v544h-176v128z" />
    <glyph glyph-name="Upsilon" unicode="&#x3a5;" horiz-adv-x="608" 
d="M456 672h152l-240 -400v-272h-128v272l-240 400h152l152 -272z" />
    <glyph glyph-name="Phi" unicode="&#x3a6;" horiz-adv-x="736" 
d="M704 352q0 -119 -84.5 -203.5t-187.5 -84.5v-64h-128v64q-103 0 -187.5 84.5t-84.5 203.5q0 121 85.5 204.5t186.5 83.5v64h128v-64q101 0 186.5 -83.5t85.5 -204.5zM304 188v328q-52 0 -98 -41.5t-46 -122.5t46 -122.5t98 -41.5zM432 188q53 0 98.5 41t45.5 123
q0 81 -45.5 122.5t-98.5 41.5v-328z" />
    <glyph glyph-name="Chi" unicode="&#x3a7;" horiz-adv-x="688" 
d="M434 352l238 -352h-160l-168 256l-168 -256h-160l238 352l-223 320h161l152 -236l152 236h161z" />
    <glyph glyph-name="Psi" unicode="&#x3a8;" horiz-adv-x="800" 
d="M608 672h128v-238q0 -76 -20.5 -131.5t-59 -89t-85 -51.5t-107.5 -26v-136h-128v136q-61 8 -107.5 26t-85 51.5t-59 89t-20.5 131.5v238h128v-260q0 -39 14.5 -68.5t37.5 -45.5t46 -24t46 -10v408h128v-408q23 2 46 10t46 24t37.5 45.5t14.5 68.5v260z" />
    <glyph glyph-name="uni03A9" unicode="&#x3a9;" horiz-adv-x="736" 
d="M688 392q0 -70 -36 -141t-97 -123h133v-128h-288v144q68 45 114 109.5t46 130.5q0 85 -56.5 130.5t-135.5 45.5t-135.5 -45.5t-56.5 -130.5q0 -66 46 -130.5t114 -109.5v-144h-288v128h133q-61 52 -97 123t-36 141q0 123 84.5 209.5t235.5 86.5t235.5 -86.5t84.5 -209.5z
" />
    <glyph glyph-name="Iotadieresis" unicode="&#x3aa;" horiz-adv-x="256" 
d="M32 736q-27 0 -45.5 18.5t-18.5 45.5t18.5 45.5t45.5 18.5t45.5 -18.5t18.5 -45.5t-18.5 -45.5t-45.5 -18.5zM224 736q-27 0 -45.5 18.5t-18.5 45.5t18.5 45.5t45.5 18.5t45.5 -18.5t18.5 -45.5t-18.5 -45.5t-45.5 -18.5zM192 0h-128v672h128v-672z" />
    <glyph glyph-name="Upsilondieresis" unicode="&#x3ab;" horiz-adv-x="608" 
d="M208 736q-27 0 -45.5 18.5t-18.5 45.5t18.5 45.5t45.5 18.5t45.5 -18.5t18.5 -45.5t-18.5 -45.5t-45.5 -18.5zM400 736q-27 0 -45.5 18.5t-18.5 45.5t18.5 45.5t45.5 18.5t45.5 -18.5t18.5 -45.5t-18.5 -45.5t-45.5 -18.5zM456 672h152l-240 -400v-272h-128v272l-240 400
h152l152 -272z" />
    <glyph glyph-name="alphatonos" unicode="&#x3ac;" horiz-adv-x="656" 
d="M288 560l32 128h112l-80 -128h-64zM560 168q0 -42 13 -53t51 -3v-112q-32 -16 -74 -16q-76 0 -104 74q-23 -34 -66.5 -54t-99.5 -20q-103 0 -175.5 77.5t-72.5 186.5t72.5 186.5t175.5 77.5q92 0 152 -69v53h128v-328zM296 112q56 0 96 40t40 96t-40 96t-96 40t-96 -40
t-40 -96t40 -96t96 -40z" />
    <glyph glyph-name="epsilontonos" unicode="&#x3ad;" horiz-adv-x="512" 
d="M216 560l32 128h112l-80 -128h-64zM292 110q101 4 148 40l40 -105q-85 -61 -209 -61q-99 0 -161 43.5t-62 122.5q0 36 21 68t56 46q-34 13 -51.5 39.5t-17.5 58.5q0 72 59 111t159 39q49 0 104.5 -16.5t97.5 -45.5l-44 -108q-55 40 -146 44q-51 2 -76.5 -11.5
t-25.5 -33.5q0 -23 44.5 -38t123.5 -15v-80q-75 0 -125.5 -13.5t-50.5 -40.5q0 -23 34 -34.5t82 -9.5z" />
    <glyph glyph-name="etatonos" unicode="&#x3ae;" horiz-adv-x="576" 
d="M224 560l32 128h112l-80 -128h-64zM342 512q87 0 136.5 -57t49.5 -167v-544h-128v528q0 58 -23 85t-73 27q-48 0 -80 -32t-32 -96v-256h-128v496h128v-48q54 64 150 64z" />
    <glyph glyph-name="iotatonos" unicode="&#x3af;" horiz-adv-x="288" 
d="M80 560l32 128h112l-80 -128h-64zM192 496v-328q0 -42 13 -53t51 -3v-112q-32 -16 -74 -16q-118 0 -118 173v339h128z" />
    <glyph glyph-name="upsilondieresistonos" unicode="&#x3b0;" horiz-adv-x="576" 
d="M112 560q-27 0 -45.5 18.5t-18.5 45.5t18.5 45.5t45.5 18.5t45.5 -18.5t18.5 -45.5t-18.5 -45.5t-45.5 -18.5zM208 560l32 128h112l-80 -128h-64zM432 560q-27 0 -45.5 18.5t-18.5 45.5t18.5 45.5t45.5 18.5t45.5 -18.5t18.5 -45.5t-18.5 -45.5t-45.5 -18.5zM480 496
q48 -129 48 -220q0 -136 -60 -214t-180 -78q-117 0 -178.5 71t-61.5 193v248h128v-258q0 -61 30 -93.5t82 -32.5t82 41.5t30 108.5q0 65 -11.5 115t-36.5 119h128z" />
    <glyph glyph-name="alpha" unicode="&#x3b1;" horiz-adv-x="656" 
d="M560 168q0 -42 13 -53t51 -3v-112q-32 -16 -74 -16q-76 0 -104 74q-23 -34 -66.5 -54t-99.5 -20q-103 0 -175.5 77.5t-72.5 186.5t72.5 186.5t175.5 77.5q92 0 152 -69v53h128v-328zM296 112q56 0 96 40t40 96t-40 96t-96 40t-96 -40t-40 -96t40 -96t96 -40z" />
    <glyph glyph-name="beta" unicode="&#x3b2;" horiz-adv-x="576" 
d="M400 384q60 -7 102 -59.5t42 -116.5q0 -93 -63 -158.5t-177 -65.5q-34 0 -72 9t-56 23v-272h-128v752q0 62 22 108t49.5 67t65 33.5t55 14t33.5 1.5q116 0 169.5 -56.5t53.5 -135.5q0 -53 -29.5 -91t-66.5 -53zM176 130q37 -29 93.5 -34.5t101.5 22.5t45 86
q0 116 -208 116v96q77 0 118.5 32.5t41.5 79.5q0 38 -26 59t-70 21q-45 0 -70.5 -28t-25.5 -68v-382z" />
    <glyph glyph-name="gamma" unicode="&#x3b3;" horiz-adv-x="512" 
d="M512 496l-192 -458v-294h-128v294l-192 458h144l112 -304l112 304h144z" />
    <glyph glyph-name="delta" unicode="&#x3b4;" horiz-adv-x="592" 
d="M560 248q0 -110 -77 -187t-187 -77t-187 77t-77 187q0 73 36.5 134.5t98.5 95.5q-61 48 -54 117q5 49 59 87t139 38q81 0 169 -32l-16 -120q-107 37 -186 24q-38 -6 -38 -24q1 -20 53 -38q104 -35 148 -64q119 -80 119 -218zM432 248q0 111 -148 162q-5 -2 -13.5 -5
t-30 -16t-37.5 -29.5t-29.5 -46.5t-13.5 -65q0 -56 40 -96t96 -40t96 40t40 96z" />
    <glyph glyph-name="epsilon" unicode="&#x3b5;" horiz-adv-x="512" 
d="M292 110q101 4 148 40l40 -105q-85 -61 -209 -61q-99 0 -161 43.5t-62 122.5q0 36 21 68t56 46q-34 13 -51.5 39.5t-17.5 58.5q0 72 59 111t159 39q49 0 104.5 -16.5t97.5 -45.5l-44 -108q-55 40 -146 44q-51 2 -76.5 -11.5t-25.5 -33.5q0 -23 44.5 -38t123.5 -15v-80
q-75 0 -125.5 -13.5t-50.5 -40.5q0 -23 34 -34.5t82 -9.5z" />
    <glyph glyph-name="zeta" unicode="&#x3b6;" horiz-adv-x="512" 
d="M480 544q-125 -65 -214.5 -160.5t-89.5 -171.5q0 -50 23.5 -77t59.5 -32.5t77 -9.5t77 -8t59.5 -27t23.5 -68q0 -30 -16 -86h-112q10 45 -1.5 62.5t-62.5 17.5q-132 0 -194 46t-62 162q0 93 73.5 189t185.5 163h-211v128h384v-128z" />
    <glyph glyph-name="eta" unicode="&#x3b7;" horiz-adv-x="576" 
d="M342 512q87 0 136.5 -57t49.5 -167v-544h-128v528q0 58 -23 85t-73 27q-48 0 -80 -32t-32 -96v-256h-128v496h128v-48q54 64 150 64z" />
    <glyph glyph-name="theta" unicode="&#x3b8;" horiz-adv-x="592" 
d="M296 688q114 0 181 -100.5t67 -251.5t-67 -251.5t-181 -100.5q-115 0 -181.5 100.5t-66.5 251.5t66.5 251.5t181.5 100.5zM296 560q-50 0 -82 -54t-37 -138h238q-5 84 -37 138t-82 54zM296 112q50 0 82 54t37 138h-238q5 -84 37 -138t82 -54z" />
    <glyph glyph-name="iota" unicode="&#x3b9;" horiz-adv-x="288" 
d="M192 496v-328q0 -42 13 -53t51 -3v-112q-32 -16 -74 -16q-118 0 -118 173v339h128z" />
    <glyph glyph-name="kappa" unicode="&#x3ba;" horiz-adv-x="560" 
d="M304 256l256 -256h-160l-208 196v-196h-128v496h128v-188l192 188h160z" />
    <glyph glyph-name="lambda" unicode="&#x3bb;" horiz-adv-x="608" 
d="M457 200q22 -56 51 -77t68 -11v-112q-30 -16 -68 -16q-19 0 -35 3.5t-30 13.5t-24.5 18t-22 26t-18.5 29t-17 35t-14.5 36t-15 41t-14.5 40l-29 78l-112 -304h-144l191 454l-23 61q-21 56 -47.5 71.5t-72.5 5.5v112q30 16 72 16q18 0 34 -3.5t30 -13t24.5 -17t22 -25.5
t18 -27t17.5 -34t15 -34t15.5 -39t14.5 -38z" />
    <glyph glyph-name="uni03BC" unicode="&#x3bc;" horiz-adv-x="592" 
d="M400 496h128v-496h-128v48q-54 -64 -150 -64q-33 0 -58 7v-247h-128v752h128v-272q0 -58 23 -85t73 -27q48 0 80 32t32 96v256z" />
    <glyph glyph-name="nu" unicode="&#x3bd;" horiz-adv-x="512" 
d="M208 0l-208 496h144l112 -304l112 304h144l-208 -496h-96z" />
    <glyph glyph-name="xi" unicode="&#x3be;" horiz-adv-x="544" 
d="M176 184q0 -65 117 -72q7 0 34 -1.5t39.5 -2t38 -4t39 -8.5t32 -14t28.5 -21t17 -30t7 -41q0 -42 -16 -86h-112q9 44 -6.5 62t-73.5 18q-272 0 -272 198q0 110 124 166q-111 45 -108 172q2 92 67.5 146t182.5 54q47 0 97 -18t85 -46l-48 -104q-66 40 -136 40
q-49 0 -84.5 -23.5t-35.5 -62.5q0 -106 240 -106v-112q-106 0 -181 -27.5t-75 -76.5z" />
    <glyph glyph-name="omicron" unicode="&#x3bf;" horiz-adv-x="592" 
d="M296 512q110 0 187 -77t77 -187t-77 -187t-187 -77t-187 77t-77 187t77 187t187 77zM296 112q56 0 96 40t40 96t-40 96t-96 40t-96 -40t-40 -96t40 -96t96 -40z" />
    <glyph glyph-name="pi" unicode="&#x3c0;" 
d="M576 368h-80v-200q0 -42 13 -53t51 -3v-112q-32 -16 -74 -16q-118 0 -118 173v211h-144v-368h-128v368h-64v128h544v-128z" />
    <glyph glyph-name="rho" unicode="&#x3c1;" 
d="M328 512q110 0 187 -77t77 -187q0 -109 -76 -186.5t-180 -77.5q-88 0 -144 50v-290h-128v504q0 110 77 187t187 77zM328 112q56 0 96 40t40 96t-40 96t-96 40t-96 -40t-40 -96t40 -96t96 -40z" />
    <glyph glyph-name="uni03C2" unicode="&#x3c2;" horiz-adv-x="544" 
d="M312 112q96 -5 130 -16q86 -26 86 -106q0 -42 -16 -86h-112q10 45 -7 62.5t-85 17.5q-127 0 -201.5 75.5t-74.5 188.5t75 188.5t201 75.5q106 0 172 -59l-53 -115q-46 46 -115 46t-110.5 -39t-41.5 -97q0 -57 41 -94.5t111 -41.5z" />
    <glyph glyph-name="sigma" unicode="&#x3c3;" 
d="M592 496v-128h-83q23 -22 37 -60.5t14 -75.5q0 -101 -77.5 -174.5t-186.5 -73.5q-110 0 -187 75t-77 181t77 181t187 75h296zM432 240q0 53 -40 90.5t-96 37.5t-96 -37.5t-40 -90.5t40 -90.5t96 -37.5t96 37.5t40 90.5z" />
    <glyph glyph-name="tau" unicode="&#x3c4;" horiz-adv-x="480" 
d="M448 368h-144v-200q0 -42 13 -53t51 -3v-112q-32 -16 -74 -16q-118 0 -118 173v211h-144v128h416v-128z" />
    <glyph glyph-name="upsilon" unicode="&#x3c5;" horiz-adv-x="576" 
d="M480 496q48 -129 48 -220q0 -136 -60 -214t-180 -78q-117 0 -178.5 71t-61.5 193v248h128v-258q0 -61 30 -93.5t82 -32.5t82 41.5t30 108.5q0 65 -11.5 115t-36.5 119h128z" />
    <glyph glyph-name="phi" unicode="&#x3c6;" horiz-adv-x="704" 
d="M416 512q114 -12 185 -82.5t71 -181.5t-71 -181.5t-185 -82.5v-240h-128v240q-114 12 -185 82.5t-71 181.5t71 181.5t185 82.5v192h128v-192zM288 108v280q-56 -7 -92 -43.5t-36 -96.5t36 -96.5t92 -43.5zM544 248q0 60 -36 96.5t-92 43.5v-280q56 7 92 43.5t36 96.5z
" />
    <glyph glyph-name="chi" unicode="&#x3c7;" horiz-adv-x="560" 
d="M360 264l184 -264h-160l-104 160l-104 -160h-160l184 264l-168 232h160l88 -140l88 140h160z" />
    <glyph glyph-name="psi" unicode="&#x3c8;" horiz-adv-x="736" 
d="M560 496h128v-230q0 -125 -69.5 -197.5t-186.5 -84.5v-240h-128v240q-117 12 -186.5 84.5t-69.5 197.5v230h128v-234q0 -65 37 -104.5t91 -45.5v384h128v-384q54 6 91 45.5t37 104.5v234z" />
    <glyph glyph-name="omega" unicode="&#x3c9;" horiz-adv-x="768" 
d="M663 496q57 -122 57 -244q0 -132 -54.5 -200t-145.5 -68q-84 0 -136 69q-52 -69 -136 -69q-92 0 -146 68t-54 200q0 122 57 244h122q-51 -134 -51 -250q0 -67 22.5 -100.5t57.5 -33.5q64 0 64 102v218h128v-218q0 -102 64 -102q35 0 57.5 33.5t22.5 100.5q0 116 -51 250
h122z" />
    <glyph glyph-name="iotadieresis" unicode="&#x3ca;" horiz-adv-x="288" 
d="M32 560q-27 0 -45.5 18.5t-18.5 45.5t18.5 45.5t45.5 18.5t45.5 -18.5t18.5 -45.5t-18.5 -45.5t-45.5 -18.5zM224 560q-27 0 -45.5 18.5t-18.5 45.5t18.5 45.5t45.5 18.5t45.5 -18.5t18.5 -45.5t-18.5 -45.5t-45.5 -18.5zM192 496v-328q0 -42 13 -53t51 -3v-112
q-32 -16 -74 -16q-118 0 -118 173v339h128z" />
    <glyph glyph-name="upsilondieresis" unicode="&#x3cb;" horiz-adv-x="576" 
d="M160 560q-27 0 -45.5 18.5t-18.5 45.5t18.5 45.5t45.5 18.5t45.5 -18.5t18.5 -45.5t-18.5 -45.5t-45.5 -18.5zM352 560q-27 0 -45.5 18.5t-18.5 45.5t18.5 45.5t45.5 18.5t45.5 -18.5t18.5 -45.5t-18.5 -45.5t-45.5 -18.5zM480 496q48 -129 48 -220q0 -136 -60 -214
t-180 -78q-117 0 -178.5 71t-61.5 193v248h128v-258q0 -61 30 -93.5t82 -32.5t82 41.5t30 108.5q0 65 -11.5 115t-36.5 119h128z" />
    <glyph glyph-name="omicrontonos" unicode="&#x3cc;" horiz-adv-x="592" 
d="M248 560l32 128h112l-80 -128h-64zM296 512q110 0 187 -77t77 -187t-77 -187t-187 -77t-187 77t-77 187t77 187t187 77zM296 112q56 0 96 40t40 96t-40 96t-96 40t-96 -40t-40 -96t40 -96t96 -40z" />
    <glyph glyph-name="upsilontonos" unicode="&#x3cd;" horiz-adv-x="576" 
d="M208 560l32 128h112l-80 -128h-64zM480 496q48 -129 48 -220q0 -136 -60 -214t-180 -78q-117 0 -178.5 71t-61.5 193v248h128v-258q0 -61 30 -93.5t82 -32.5t82 41.5t30 108.5q0 65 -11.5 115t-36.5 119h128z" />
    <glyph glyph-name="omegatonos" unicode="&#x3ce;" horiz-adv-x="768" 
d="M336 560l32 128h112l-80 -128h-64zM663 496q57 -122 57 -244q0 -132 -54.5 -200t-145.5 -68q-84 0 -136 69q-52 -69 -136 -69q-92 0 -146 68t-54 200q0 122 57 244h122q-51 -134 -51 -250q0 -67 22.5 -100.5t57.5 -33.5q64 0 64 102v218h128v-218q0 -102 64 -102
q35 0 57.5 33.5t22.5 100.5q0 116 -51 250h122z" />
    <glyph glyph-name="uni0401" unicode="&#x401;" horiz-adv-x="528" 
d="M168 736q-27 0 -45.5 18.5t-18.5 45.5t18.5 45.5t45.5 18.5t45.5 -18.5t18.5 -45.5t-18.5 -45.5t-45.5 -18.5zM360 736q-27 0 -45.5 18.5t-18.5 45.5t18.5 45.5t45.5 18.5t45.5 -18.5t18.5 -45.5t-18.5 -45.5t-45.5 -18.5zM480 544h-288v-144h240v-128h-240v-144h288
v-128h-416v672h416v-128z" />
    <glyph glyph-name="uni0402" unicode="&#x402;" horiz-adv-x="688" 
d="M440 408q102 0 151 -58t49 -162v-12q0 -80 -19.5 -136.5t-52 -84.5t-65.5 -39.5t-71 -11.5l-32 112q51 0 81.5 37.5t30.5 106.5v16q0 58 -22.5 85t-73.5 27q-70 0 -128 -36v-252h-128v544h-128v128h448v-128h-192v-180q79 44 152 44z" />
    <glyph glyph-name="uni0403" unicode="&#x403;" horiz-adv-x="512" 
d="M160 736l80 144h144l-144 -144h-80zM480 544h-288v-544h-128v672h416v-128z" />
    <glyph glyph-name="uni0404" unicode="&#x404;" horiz-adv-x="640" 
d="M392 112q100 0 167 69l49 -116q-42 -38 -101 -59.5t-117 -21.5q-148 0 -253 103.5t-105 248.5t105 248.5t253 103.5q58 0 117 -21t101 -59l-49 -116q-70 68 -167 68q-80 0 -142.5 -47.5t-82.5 -120.5h281v-112h-281q20 -73 82.5 -120.5t142.5 -47.5z" />
    <glyph glyph-name="uni0405" unicode="&#x405;" horiz-adv-x="608" 
d="M320 408q61 -10 103 -23t79 -35.5t55.5 -60t18.5 -89.5q0 -94 -70.5 -155t-199.5 -61q-162 0 -274 112l64 112q41 -47 100 -71.5t112 -24.5q66 0 103 22t37 58q0 64 -136 84q-138 21 -197 71.5t-59 130.5q0 88 69 149t189 61q130 0 230 -82l-54 -110q-74 64 -178 64
q-56 0 -92 -17.5t-36 -55.5q0 -33 30 -50t106 -29z" />
    <glyph glyph-name="uni0406" unicode="&#x406;" horiz-adv-x="256" 
d="M192 0h-128v672h128v-672z" />
    <glyph glyph-name="uni0407" unicode="&#x407;" horiz-adv-x="256" 
d="M32 736q-27 0 -45.5 18.5t-18.5 45.5t18.5 45.5t45.5 18.5t45.5 -18.5t18.5 -45.5t-18.5 -45.5t-45.5 -18.5zM224 736q-27 0 -45.5 18.5t-18.5 45.5t18.5 45.5t45.5 18.5t45.5 -18.5t18.5 -45.5t-18.5 -45.5t-45.5 -18.5zM192 0h-128v672h128v-672z" />
    <glyph glyph-name="uni0408" unicode="&#x408;" horiz-adv-x="464" 
d="M288 672h128v-416q0 -139 -62 -205.5t-170 -66.5q-40 0 -85 18t-67 44l70 106q32 -40 82 -40q49 0 76.5 34.5t27.5 85.5v440z" />
    <glyph glyph-name="uni0409" unicode="&#x409;" horiz-adv-x="1040" 
d="M768 400q240 0 240 -200q0 -97 -63.5 -148.5t-192.5 -51.5h-224v544h-224v-280q0 -118 -24 -181t-97 -89q-55 -20 -135 -2v128q23 -8 50 -6t43 12q35 22 35 93v453h480v-272h112zM768 128q112 0 112 72t-112 72h-112v-144h112z" />
    <glyph glyph-name="uni040A" unicode="&#x40a;" horiz-adv-x="992" 
d="M720 400q240 0 240 -200q0 -97 -63.5 -148.5t-192.5 -51.5h-224v272h-288v-272h-128v672h128v-272h288v272h128v-272h112zM720 128q112 0 112 72t-112 72h-112v-144h112z" />
    <glyph glyph-name="uni040B" unicode="&#x40b;" horiz-adv-x="688" 
d="M440 408q102 0 151 -58t49 -162v-188h-128v176q0 58 -22.5 85t-73.5 27q-70 0 -128 -36v-252h-128v544h-128v128h448v-128h-192v-180q79 44 152 44z" />
    <glyph glyph-name="uni040C" unicode="&#x40c;" 
d="M200 736l80 144h144l-144 -144h-80zM304 351l304 -351h-162l-254 294v-294h-128v672h128v-278l238 278h162z" />
    <glyph glyph-name="uni040E" unicode="&#x40e;" 
d="M396 880h68q0 -60 -42 -102t-102 -42t-102 42t-42 102h68q0 -32 22 -54t54 -22t54 22t22 54zM472 672h152l-360 -672h-152l130 244l-226 428h152l152 -290z" />
    <glyph glyph-name="uni040F" unicode="&#x40f;" horiz-adv-x="672" 
d="M480 672h128v-672h-208v-128h-128v128h-208v672h128v-544h288v544z" />
    <glyph glyph-name="uni0410" unicode="&#x410;" horiz-adv-x="672" 
d="M528 0l-50 128h-284l-50 -128h-144l278 672h116l278 -672h-144zM243 256h186l-93 240z" />
    <glyph glyph-name="uni0411" unicode="&#x411;" horiz-adv-x="608" 
d="M336 432q117 0 178.5 -57.5t61.5 -158.5t-64 -158.5t-192 -57.5h-256v672h448v-128h-320v-112h144zM336 128q50 0 81 21.5t31 66.5q0 41 -32 64.5t-80 23.5h-144v-176h144z" />
    <glyph glyph-name="uni0412" unicode="&#x412;" 
d="M479 361q58 -15 85.5 -58t27.5 -101q0 -89 -62 -145.5t-168 -56.5h-298v672h240q121 0 188.5 -43t67.5 -133q0 -48 -22.5 -83.5t-58.5 -51.5zM192 544v-128h120q120 0 120 64q0 37 -29 50.5t-91 13.5h-120zM328 128q136 0 136 88q0 44 -36 66t-100 22h-136v-176h136z" />
    <glyph glyph-name="uni0413" unicode="&#x413;" horiz-adv-x="512" 
d="M480 544h-288v-544h-128v672h416v-128z" />
    <glyph glyph-name="uni0414" unicode="&#x414;" horiz-adv-x="768" 
d="M624 128h96v-256h-128v128h-432v-128h-128v256q42 12 69.5 38.5t44 63.5t25 106t11 141.5t2.5 194.5h440v-544zM229 128h267v416h-192q0 -319 -75 -416z" />
    <glyph glyph-name="uni0415" unicode="&#x415;" horiz-adv-x="528" 
d="M480 544h-288v-144h240v-128h-240v-144h288v-128h-416v672h416v-128z" />
    <glyph glyph-name="uni0416" unicode="&#x416;" horiz-adv-x="992" 
d="M672 343l304 -343h-162l-254 286v-286h-128v286l-254 -286h-162l304 343l-288 329h162l238 -286v286h128v-286l238 286h162z" />
    <glyph glyph-name="uni0417" unicode="&#x417;" horiz-adv-x="576" 
d="M208 284v104q79 0 135.5 25.5t56.5 68.5q0 41 -37 59.5t-79 18.5q-55 0 -95.5 -16t-84.5 -48l-58 104q111 88 246 88q99 0 167.5 -55t68.5 -145q0 -93 -85 -138q45 -14 73 -55t28 -95q0 -93 -74 -154.5t-189 -61.5q-143 0 -249 92l64 106q78 -70 180 -70q57 0 98.5 23.5
t41.5 63.5q0 85 -208 85z" />
    <glyph glyph-name="uni0418" unicode="&#x418;" horiz-adv-x="720" 
d="M192 672v-464l336 464h128v-672h-128v464l-336 -464h-128v672h128z" />
    <glyph glyph-name="uni0419" unicode="&#x419;" horiz-adv-x="720" 
d="M436 880h68q0 -60 -42 -102t-102 -42t-102 42t-42 102h68q0 -32 22 -54t54 -22t54 22t22 54zM192 672v-464l336 464h128v-672h-128v464l-336 -464h-128v672h128z" />
    <glyph glyph-name="uni041A" unicode="&#x41a;" 
d="M304 351l304 -351h-162l-254 294v-294h-128v672h128v-278l238 278h162z" />
    <glyph glyph-name="uni041B" unicode="&#x41b;" horiz-adv-x="720" 
d="M656 672v-672h-128v544h-224v-280q0 -118 -24 -181t-97 -89q-55 -20 -135 -2v128q23 -8 50 -6t43 12q35 22 35 93v453h480z" />
    <glyph glyph-name="uni041C" unicode="&#x41c;" horiz-adv-x="864" 
d="M736 672l96 -672h-136l-56 440l-176 -440h-64l-176 440l-56 -440h-136l96 672h128l176 -432l176 432h128z" />
    <glyph glyph-name="uni041D" unicode="&#x41d;" horiz-adv-x="672" 
d="M480 672h128v-672h-128v272h-288v-272h-128v672h128v-272h288v272z" />
    <glyph glyph-name="uni041E" unicode="&#x41e;" horiz-adv-x="768" 
d="M384 688q146 0 249 -103t103 -249t-103 -249t-249 -103t-249 103t-103 249t103 249t249 103zM384 112q93 0 158.5 65.5t65.5 158.5t-65.5 158.5t-158.5 65.5t-158.5 -65.5t-65.5 -158.5t65.5 -158.5t158.5 -65.5z" />
    <glyph glyph-name="uni041F" unicode="&#x41f;" horiz-adv-x="672" 
d="M608 672v-672h-128v544h-288v-544h-128v672h544z" />
    <glyph glyph-name="uni0420" unicode="&#x420;" horiz-adv-x="592" 
d="M304 672q127 0 191.5 -61t64.5 -163q0 -91 -61 -157.5t-163 -66.5h-144v-224h-128v672h240zM320 352q47 0 79.5 27t32.5 69q0 46 -31.5 71t-80.5 25h-128v-192h128z" />
    <glyph glyph-name="uni0421" unicode="&#x421;" horiz-adv-x="640" 
d="M392 112q100 0 167 69l49 -116q-42 -38 -101 -59.5t-117 -21.5q-148 0 -253 103.5t-105 248.5t105 248.5t253 103.5q58 0 117 -21t101 -59l-49 -116q-70 68 -167 68q-96 0 -164 -65.5t-68 -158.5t68 -158.5t164 -65.5z" />
    <glyph glyph-name="uni0422" unicode="&#x422;" horiz-adv-x="544" 
d="M32 672h480v-128h-176v-544h-128v544h-176v128z" />
    <glyph glyph-name="uni0423" unicode="&#x423;" 
d="M472 672h152l-360 -672h-152l130 244l-226 428h152l152 -290z" />
    <glyph glyph-name="uni0424" unicode="&#x424;" horiz-adv-x="800" 
d="M768 352q0 -123 -87.5 -205.5t-216.5 -82.5v-64h-128v64q-129 0 -216.5 82.5t-87.5 205.5q0 125 88.5 206.5t215.5 81.5v64h128v-64q127 0 215.5 -81.5t88.5 -206.5zM336 188v328q-75 0 -125.5 -40.5t-50.5 -123.5q0 -84 50.5 -124t125.5 -40zM464 188q76 0 126 40
t50 124t-50 124t-126 40v-328z" />
    <glyph glyph-name="uni0425" unicode="&#x425;" horiz-adv-x="688" 
d="M434 352l238 -352h-160l-168 256l-168 -256h-160l238 352l-223 320h161l152 -236l152 236h161z" />
    <glyph glyph-name="uni0426" unicode="&#x426;" horiz-adv-x="752" 
d="M608 128h96v-256h-128v128h-512v672h128v-544h288v544h128v-544z" />
    <glyph glyph-name="uni0427" unicode="&#x427;" 
d="M272 216q-100 0 -162 62.5t-62 177.5v216h128v-216q0 -56 32.5 -84t87.5 -28q35 0 69 8t51 16l16 8v296h128v-672h-128v252q-81 -36 -160 -36z" />
    <glyph glyph-name="uni0428" unicode="&#x428;" horiz-adv-x="896" 
d="M704 672h128v-672h-768v672h128v-544h192v544h128v-544h192v544z" />
    <glyph glyph-name="uni0429" unicode="&#x429;" horiz-adv-x="976" 
d="M832 128h96v-256h-128v128h-736v672h128v-544h192v544h128v-544h192v544h128v-544z" />
    <glyph glyph-name="uni042A" unicode="&#x42a;" horiz-adv-x="688" 
d="M416 432q117 0 178.5 -57.5t61.5 -158.5t-64 -158.5t-192 -57.5h-240v544h-128v128h256v-240h128zM416 128q50 0 81 21.5t31 66.5q0 41 -32 64.5t-80 23.5h-128v-176h128z" />
    <glyph glyph-name="uni042B" unicode="&#x42b;" horiz-adv-x="832" 
d="M320 432q117 0 178.5 -57.5t61.5 -158.5t-64 -158.5t-192 -57.5h-240v672h128v-240h128zM768 0h-128v672h128v-672zM320 128q50 0 81 21.5t31 66.5q0 41 -32 64.5t-80 23.5h-128v-176h128z" />
    <glyph glyph-name="uni042C" unicode="&#x42c;" horiz-adv-x="592" 
d="M320 432q117 0 178.5 -57.5t61.5 -158.5t-64 -158.5t-192 -57.5h-240v672h128v-240h128zM320 128q50 0 81 21.5t31 66.5q0 41 -32 64.5t-80 23.5h-128v-176h128z" />
    <glyph glyph-name="uni042D" unicode="&#x42d;" horiz-adv-x="640" 
d="M248 112q80 0 142.5 47.5t82.5 120.5h-281v112h281q-20 73 -82.5 120.5t-142.5 47.5q-97 0 -167 -68l-49 116q42 38 101 59t117 21q148 0 253 -103.5t105 -248.5t-105 -248.5t-253 -103.5q-58 0 -117 21.5t-101 59.5l49 116q67 -69 167 -69z" />
    <glyph glyph-name="uni042E" unicode="&#x42e;" horiz-adv-x="1024" 
d="M640 688q146 0 249 -103t103 -249t-103 -249t-249 -103q-128 0 -225.5 82t-120.5 206h-102v-272h-128v672h128v-272h102q23 124 120.5 206t225.5 82zM640 112q93 0 158.5 65.5t65.5 158.5t-65.5 158.5t-158.5 65.5t-158.5 -65.5t-65.5 -158.5t65.5 -158.5t158.5 -65.5z
" />
    <glyph glyph-name="uni042F" unicode="&#x42f;" horiz-adv-x="608" 
d="M32 0l170 234q-72 22 -113 81.5t-41 132.5q0 102 64.5 163t191.5 61h240v-672h-128v224h-77l-151 -224h-156zM416 544h-128q-49 0 -80.5 -25t-31.5 -71q0 -42 32.5 -69t79.5 -27h128v192z" />
    <glyph glyph-name="uni0430" unicode="&#x430;" 
d="M432 496h128v-496h-128v53q-60 -69 -152 -69q-103 0 -175.5 77.5t-72.5 186.5t72.5 186.5t175.5 77.5q92 0 152 -69v53zM296 112q56 0 96 40t40 96t-40 96t-96 40t-96 -40t-40 -96t40 -96t96 -40z" />
    <glyph glyph-name="uni0431" unicode="&#x431;" horiz-adv-x="592" 
d="M276 510q10 2 20 2q118 0 191 -77t73 -187t-77 -187t-187 -77t-187 77t-77 187q0 191 156 316q10 8 32.5 25.5t30.5 24t23 20t22 22.5t16 21.5t16 26.5h152q-12 -82 -123 -141q-56 -29 -81 -53zM296 112q56 0 96 40t40 96t-40 96t-96 40t-96 -40t-40 -96t40 -96t96 -40z
" />
    <glyph glyph-name="uni0432" unicode="&#x432;" horiz-adv-x="544" 
d="M416 261q38 -10 59 -38t21 -67q0 -84 -59.5 -120t-172.5 -36h-200v496h184q232 0 232 -140q0 -34 -16.5 -59.5t-47.5 -35.5zM192 368v-72h102q58 0 58 36t-58 36h-102zM309 128q22 0 40.5 10.5t18.5 29.5t-18.5 29.5t-40.5 10.5h-117v-80h117z" />
    <glyph glyph-name="uni0433" unicode="&#x433;" horiz-adv-x="416" 
d="M192 368v-368h-128v496h320v-128h-192z" />
    <glyph glyph-name="uni0434" unicode="&#x434;" horiz-adv-x="672" 
d="M544 128h80v-256h-128v128h-336v-128h-128v256q44 4 73.5 32t44.5 80.5t20.5 112.5t5.5 143h368v-368zM225 128h191v240h-128q0 -157 -63 -240z" />
    <glyph glyph-name="uni0435" unicode="&#x435;" horiz-adv-x="560" 
d="M528 248q0 -14 -2 -40h-361q14 -51 51.5 -81.5t95.5 -30.5q83 0 148 46l37 -111q-8 -5 -22.5 -13t-63 -21t-101.5 -13q-138 0 -208 74t-70 190t66 190t190 74q116 0 178 -69.5t62 -194.5zM168 304h224q0 36 -29.5 66t-82.5 30q-45 0 -78.5 -31.5t-33.5 -64.5z" />
    <glyph glyph-name="uni0436" unicode="&#x436;" horiz-adv-x="832" 
d="M584 256l232 -256h-160l-176 196v-196h-128v196l-176 -196h-160l232 256l-216 240h160l160 -188v188h128v-188l160 188h160z" />
    <glyph glyph-name="uni0437" unicode="&#x437;" horiz-adv-x="512" 
d="M220 110q48 -2 82 9.5t34 34.5q0 27 -50.5 40.5t-125.5 13.5v80q79 0 123.5 15t44.5 38q0 20 -25.5 33.5t-76.5 11.5q-91 -4 -146 -44l-44 108q42 29 97.5 45.5t104.5 16.5q100 0 159 -39t59 -111q0 -32 -17.5 -58.5t-51.5 -39.5q35 -14 56 -46t21 -68q0 -79 -62 -122.5
t-161 -43.5q-124 0 -209 61l40 105q47 -36 148 -40z" />
    <glyph glyph-name="uni0438" unicode="&#x438;" horiz-adv-x="608" 
d="M192 496v-308l224 308h128v-496h-128v308l-224 -308h-128v496h128z" />
    <glyph glyph-name="uni0439" unicode="&#x439;" horiz-adv-x="608" 
d="M380 704h68q0 -60 -42 -102t-102 -42t-102 42t-42 102h68q0 -32 22 -54t54 -22t54 22t22 54zM192 496v-308l224 308h128v-496h-128v308l-224 -308h-128v496h128z" />
    <glyph glyph-name="uni043A" unicode="&#x43a;" horiz-adv-x="560" 
d="M304 256l256 -256h-160l-208 196v-196h-128v496h128v-188l192 188h160z" />
    <glyph glyph-name="uni043B" unicode="&#x43b;" horiz-adv-x="608" 
d="M416 0v368h-152v-187q0 -197 -133 -197q-46 0 -83 16v112q46 -15 71 -4t25 60v328h400v-496h-128z" />
    <glyph glyph-name="uni043C" unicode="&#x43c;" horiz-adv-x="688" 
d="M548 0l-51 284l-97 -284h-112l-97 284l-51 -284h-124l91 496h124l113 -329l113 329h124l91 -496h-124z" />
    <glyph glyph-name="uni043D" unicode="&#x43d;" horiz-adv-x="592" 
d="M400 496h128v-496h-128v184h-208v-184h-128v496h128v-184h208v184z" />
    <glyph glyph-name="uni043E" unicode="&#x43e;" horiz-adv-x="592" 
d="M296 512q110 0 187 -77t77 -187t-77 -187t-187 -77t-187 77t-77 187t77 187t187 77zM296 112q56 0 96 40t40 96t-40 96t-96 40t-96 -40t-40 -96t40 -96t96 -40z" />
    <glyph glyph-name="uni043F" unicode="&#x43f;" horiz-adv-x="592" 
d="M528 496v-496h-128v368h-208v-368h-128v496h464z" />
    <glyph glyph-name="uni0440" unicode="&#x440;" 
d="M344 512q103 0 175.5 -77.5t72.5 -186.5t-72.5 -186.5t-175.5 -77.5q-92 0 -152 69v-309h-128v752h128v-53q60 69 152 69zM328 112q56 0 96 40t40 96t-40 96t-96 40t-96 -40t-40 -96t40 -96t96 -40z" />
    <glyph glyph-name="uni0441" unicode="&#x441;" horiz-adv-x="512" 
d="M312 112q70 0 115 45l53 -114q-61 -59 -172 -59q-127 0 -201.5 75.5t-74.5 188.5t75 188.5t201 75.5q106 0 172 -59l-53 -115q-46 46 -115 46t-110.5 -39t-41.5 -97t41.5 -97t110.5 -39z" />
    <glyph glyph-name="uni0442" unicode="&#x442;" horiz-adv-x="480" 
d="M32 496h416v-128h-144v-368h-128v368h-144v128z" />
    <glyph glyph-name="uni0443" unicode="&#x443;" horiz-adv-x="528" 
d="M384 496h144l-320 -752h-144l128 292l-192 460h144l120 -292z" />
    <glyph glyph-name="uni0444" unicode="&#x444;" horiz-adv-x="832" 
d="M576 512q98 0 161 -76.5t63 -187.5t-63 -187.5t-161 -76.5q-53 0 -96 24v-216h-128v216q-43 -24 -96 -24q-98 0 -161 76.5t-63 187.5t63 187.5t161 76.5q53 0 96 -24v216h128v-216q43 24 96 24zM279 112q29 0 51 15t22 41v157q0 29 -21.5 44t-51.5 15q-59 0 -89 -38
t-30 -98t30 -98t89 -38zM553 112q59 0 89 38t30 98t-30 98t-89 38q-30 0 -51.5 -15t-21.5 -44v-157q0 -26 22 -41t51 -15z" />
    <glyph glyph-name="uni0445" unicode="&#x445;" horiz-adv-x="560" 
d="M360 264l184 -264h-160l-104 160l-104 -160h-160l184 264l-168 232h160l88 -140l88 140h160z" />
    <glyph glyph-name="uni0446" unicode="&#x446;" horiz-adv-x="672" 
d="M528 128h96v-256h-128v128h-432v496h128v-368h208v368h128v-368z" />
    <glyph glyph-name="uni0447" unicode="&#x447;" horiz-adv-x="560" 
d="M240 160q-84 0 -138 49.5t-54 150.5v136h128v-118q0 -90 92 -90q65 0 100 11v197h128v-496h-128v184q-72 -24 -128 -24z" />
    <glyph glyph-name="uni0448" unicode="&#x448;" horiz-adv-x="800" 
d="M608 496h128v-496h-672v496h128v-368h144v368h128v-368h144v368z" />
    <glyph glyph-name="uni0449" unicode="&#x449;" horiz-adv-x="880" 
d="M736 128h96v-256h-128v128h-640v496h128v-368h144v368h128v-368h144v368h128v-368z" />
    <glyph glyph-name="uni044A" unicode="&#x44a;" 
d="M376 336q216 0 216 -164q0 -86 -56.5 -129t-159.5 -43h-216v368h-128v128h256v-160h88zM405 128q25 0 42 10.5t17 29.5q0 20 -17 30t-42 10h-117v-80h117z" />
    <glyph glyph-name="uni044B" unicode="&#x44b;" horiz-adv-x="768" 
d="M64 0v496h128v-160h88q216 0 216 -164q0 -86 -56.5 -129t-159.5 -43h-216zM576 0v496h128v-496h-128zM309 128q25 0 42 10.5t17 29.5q0 20 -17 30t-42 10h-117v-80h117z" />
    <glyph glyph-name="uni044C" unicode="&#x44c;" horiz-adv-x="528" 
d="M64 0v496h128v-160h88q216 0 216 -164q0 -86 -56.5 -129t-159.5 -43h-216zM309 128q25 0 42 10.5t17 29.5q0 20 -17 30t-42 10h-117v-80h117z" />
    <glyph glyph-name="uni044D" unicode="&#x44d;" horiz-adv-x="512" 
d="M200 112q59 0 98 28.5t50 75.5h-188v64h188q-11 46 -50.5 75t-97.5 29q-69 0 -115 -46l-53 115q66 59 172 59q126 0 201 -75.5t75 -188.5t-74.5 -188.5t-201.5 -75.5q-111 0 -172 59l53 114q45 -45 115 -45z" />
    <glyph glyph-name="uni044E" unicode="&#x44e;" horiz-adv-x="848" 
d="M552 512q110 0 187 -77t77 -187t-77 -187t-187 -77q-94 0 -166 59t-92 149h-102v-192h-128v496h128v-192h102q20 90 92 149t166 59zM552 112q56 0 96 40t40 96t-40 96t-96 40t-96 -40t-40 -96t40 -96t96 -40z" />
    <glyph glyph-name="uni044F" unicode="&#x44f;" horiz-adv-x="544" 
d="M280 496h200v-496h-128v160l-152 -160h-168l168 169q-66 5 -109 45.5t-43 105.5q0 176 232 176zM243 368q-28 0 -47.5 -12.5t-19.5 -35.5t19.5 -35.5t47.5 -12.5h109v96h-109z" />
    <glyph glyph-name="uni0451" unicode="&#x451;" horiz-adv-x="560" 
d="M184 560q-27 0 -45.5 18.5t-18.5 45.5t18.5 45.5t45.5 18.5t45.5 -18.5t18.5 -45.5t-18.5 -45.5t-45.5 -18.5zM376 560q-27 0 -45.5 18.5t-18.5 45.5t18.5 45.5t45.5 18.5t45.5 -18.5t18.5 -45.5t-18.5 -45.5t-45.5 -18.5zM528 248q0 -14 -2 -40h-361q14 -51 51.5 -81.5
t95.5 -30.5q83 0 148 46l37 -111q-8 -5 -22.5 -13t-63 -21t-101.5 -13q-138 0 -208 74t-70 190t66 190t190 74q116 0 178 -69.5t62 -194.5zM168 304h224q0 36 -29.5 66t-82.5 30q-45 0 -78.5 -31.5t-33.5 -64.5z" />
    <glyph glyph-name="uni0452" unicode="&#x452;" horiz-adv-x="592" 
d="M358 512q87 0 136.5 -57t49.5 -167v-288q0 -80 -19.5 -136.5t-52 -84.5t-65.5 -39.5t-71 -11.5l-32 112q51 0 81.5 37.5t30.5 106.5v288q0 58 -23 85t-73 27q-48 0 -80 -32t-32 -96v-256h-128v552h-64v64h64v88h128v-88h64v-64h-64v-104q54 64 150 64z" />
    <glyph glyph-name="uni0453" unicode="&#x453;" horiz-adv-x="416" 
d="M128 560l80 144h144l-144 -144h-80zM192 368v-368h-128v496h320v-128h-192z" />
    <glyph glyph-name="uni0454" unicode="&#x454;" horiz-adv-x="512" 
d="M312 112q70 0 115 45l53 -114q-61 -59 -172 -59q-127 0 -201.5 75.5t-74.5 188.5t75 188.5t201 75.5q106 0 172 -59l-53 -115q-46 46 -115 46q-58 0 -97.5 -29t-50.5 -75h188v-64h-188q11 -47 50 -75.5t98 -28.5z" />
    <glyph glyph-name="uni0455" unicode="&#x455;" horiz-adv-x="512" 
d="M281 316q115 -18 157 -59t42 -97q0 -78 -58.5 -127t-159.5 -49q-78 0 -140.5 24t-89.5 48l42 120q32 -30 81.5 -49.5t94.5 -20.5q102 -2 102 43q0 16 -18.5 24t-69.5 17q-67 11 -111.5 27.5t-66.5 39t-30 46.5t-8 57q0 62 61 107t156 45q100 0 193 -48l-36 -116
q-21 15 -66 28t-91 14q-89 2 -89 -30q0 -27 89 -41q5 -1 8.5 -1.5t7.5 -1.5z" />
    <glyph glyph-name="uni0456" unicode="&#x456;" horiz-adv-x="256" 
d="M128 560q-37 0 -62.5 25.5t-25.5 62.5t25.5 62.5t62.5 25.5t62.5 -25.5t25.5 -62.5t-25.5 -62.5t-62.5 -25.5zM64 0v496h128v-496h-128z" />
    <glyph glyph-name="uni0457" unicode="&#x457;" horiz-adv-x="256" 
d="M32 560q-27 0 -45.5 18.5t-18.5 45.5t18.5 45.5t45.5 18.5t45.5 -18.5t18.5 -45.5t-18.5 -45.5t-45.5 -18.5zM224 560q-27 0 -45.5 18.5t-18.5 45.5t18.5 45.5t45.5 18.5t45.5 -18.5t18.5 -45.5t-18.5 -45.5t-45.5 -18.5zM64 0v496h128v-496h-128z" />
    <glyph glyph-name="uni0458" unicode="&#x458;" horiz-adv-x="256" 
d="M128 560q-37 0 -62.5 25.5t-25.5 62.5t25.5 62.5t62.5 25.5t62.5 -25.5t25.5 -62.5t-25.5 -62.5t-62.5 -25.5zM64 -16v512h128v-496q0 -80 -19.5 -136.5t-52 -84.5t-65.5 -39.5t-71 -11.5l-32 112q51 0 81.5 37.5t30.5 106.5z" />
    <glyph glyph-name="uni0459" unicode="&#x459;" horiz-adv-x="864" 
d="M616 328q106 0 161 -37.5t55 -122.5q0 -168 -216 -168h-200v368h-152v-187q0 -197 -133 -197q-46 0 -83 16v112q46 -15 71 -4t25 60v328h400v-168h72zM645 128q59 0 59 36t-59 36h-101v-72h101z" />
    <glyph glyph-name="uni045A" unicode="&#x45a;" horiz-adv-x="848" 
d="M600 328q106 0 161 -37.5t55 -122.5q0 -168 -216 -168h-200v200h-208v-200h-128v496h128v-168h208v168h128v-168h72zM629 128q59 0 59 36t-59 36h-101v-72h101z" />
    <glyph glyph-name="uni045B" unicode="&#x45b;" horiz-adv-x="592" 
d="M358 512q87 0 136.5 -57t49.5 -167v-288h-128v272q0 58 -23 85t-73 27q-48 0 -80 -32t-32 -96v-256h-128v552h-64v64h64v88h128v-88h64v-64h-64v-104q54 64 150 64z" />
    <glyph glyph-name="uni045C" unicode="&#x45c;" horiz-adv-x="560" 
d="M192 560l80 144h144l-144 -144h-80zM304 256l256 -256h-160l-208 196v-196h-128v496h128v-188l192 188h160z" />
    <glyph glyph-name="uni045E" unicode="&#x45e;" horiz-adv-x="528" 
d="M340 704h68q0 -60 -42 -102t-102 -42t-102 42t-42 102h68q0 -32 22 -54t54 -22t54 22t22 54zM384 496h144l-320 -752h-144l128 292l-192 460h144l120 -292z" />
    <glyph glyph-name="uni045F" unicode="&#x45f;" horiz-adv-x="592" 
d="M400 496h128v-496h-168v-128h-128v128h-168v496h128v-368h208v368z" />
    <glyph glyph-name="uni0462" unicode="&#x462;" 
d="M352 432q117 0 178.5 -57.5t61.5 -158.5t-64 -158.5t-192 -57.5h-240v512h-80v96h80v96h128v-96h160v-96h-160v-80h128zM352 128q50 0 81 21.5t31 66.5q0 41 -32 64.5t-80 23.5h-128v-176h128z" />
    <glyph glyph-name="uni0463" unicode="&#x463;" horiz-adv-x="544" 
d="M296 336q216 0 216 -164q0 -86 -56.5 -129t-159.5 -43h-216v392h-64v64h64v72h128v-72h64v-64h-64v-56h88zM325 128q25 0 42 10.5t17 29.5q0 20 -17 30t-42 10h-117v-80h117z" />
    <glyph glyph-name="uni0472" unicode="&#x472;" horiz-adv-x="768" 
d="M384 688q146 0 249 -103t103 -249t-103 -249t-249 -103t-249 103t-103 249t103 249t249 103zM384 560q-86 0 -149.5 -57t-73.5 -142q47 26 121 26q51 0 105 -18q63 -22 125.5 -18.5t89.5 36.5q-17 75 -78 124t-140 49zM384 112q86 0 149 56t73 140q-45 -25 -117 -25
q-54 0 -111 19q-63 22 -124 18.5t-88 -36.5q17 -75 78 -123.5t140 -48.5z" />
    <glyph glyph-name="uni0473" unicode="&#x473;" horiz-adv-x="592" 
d="M296 512q110 0 187 -77t77 -187t-77 -187t-187 -77t-187 77t-77 187t77 187t187 77zM296 384q-45 0 -81 -27t-49 -69q25 12 58 12q29 0 74 -18q42 -20 74 -17.5t50 35.5q-16 38 -50 61t-76 23zM296 112q45 0 81 27t49 69q-25 -12 -56 -12q-30 0 -78 19q-42 19 -73 16
t-49 -35q16 -38 50 -61t76 -23z" />
    <glyph glyph-name="uni0474" unicode="&#x474;" horiz-adv-x="688" 
d="M556 678q56 15 116 6v-128q-38 4 -63 -9t-41 -52l-200 -495h-96l-272 672h144l176 -448l117 297q28 72 54 109t65 48z" />
    <glyph glyph-name="uni0475" unicode="&#x475;" horiz-adv-x="560" 
d="M476 512q38 0 68 -16v-112q-39 10 -66 -10.5t-50 -77.5l-124 -296h-96l-208 496h144l112 -304l29 78q4 11 14.5 40t15 41t14.5 36t17 35t18.5 29t22 26t24.5 18t30 13.5t35 3.5z" />
    <glyph glyph-name="uni0490" unicode="&#x490;" horiz-adv-x="512" 
d="M368 768h112v-224h-288v-544h-128v672h304v96z" />
    <glyph glyph-name="uni0491" unicode="&#x491;" horiz-adv-x="416" 
d="M272 592h112v-224h-192v-368h-128v496h208v96z" />
    <glyph glyph-name="uni0492" unicode="&#x492;" horiz-adv-x="528" 
d="M496 544h-288v-200h96v-64h-96v-280h-128v280h-64v64h64v328h416v-128z" />
    <glyph glyph-name="uni0493" unicode="&#x493;" horiz-adv-x="432" 
d="M400 368h-192v-120h96v-64h-96v-184h-128v184h-64v64h64v248h320v-128z" />
    <glyph glyph-name="uni0496" unicode="&#x496;" horiz-adv-x="992" 
d="M863 128h113v-224h-112v96h-50l-254 286v-286h-128v286l-254 -286h-162l304 343l-288 329h162l238 -286v286h128v-286l238 286h162l-288 -329z" />
    <glyph glyph-name="uni0497" unicode="&#x497;" horiz-adv-x="832" 
d="M700 128h116v-224h-112v96h-48l-176 196v-196h-128v196l-176 -196h-160l232 256l-216 240h160l160 -188v188h128v-188l160 188h160l-216 -240z" />
    <glyph glyph-name="uni049A" unicode="&#x49a;" 
d="M497 128h111v-224h-112v96h-50l-254 294v-294h-128v672h128v-278l238 278h162l-288 -321z" />
    <glyph glyph-name="uni049B" unicode="&#x49b;" horiz-adv-x="576" 
d="M432 128h128v-224h-112v96h-48l-208 196v-196h-128v496h128v-188l192 188h160l-240 -240z" />
    <glyph glyph-name="uni04A2" unicode="&#x4a2;" horiz-adv-x="704" 
d="M608 128h80v-224h-112v96h-96v272h-288v-272h-128v672h128v-272h288v272h128v-544z" />
    <glyph glyph-name="uni04A3" unicode="&#x4a3;" 
d="M528 128h80v-224h-112v96h-96v184h-208v-184h-128v496h128v-184h208v184h128v-368z" />
    <glyph glyph-name="uni04AE" unicode="&#x4ae;" horiz-adv-x="608" 
d="M456 672h152l-240 -400v-272h-128v272l-240 400h152l152 -272z" />
    <glyph glyph-name="uni04AF" unicode="&#x4af;" horiz-adv-x="512" 
d="M512 496l-192 -458v-294h-128v294l-192 458h144l112 -304l112 304h144z" />
    <glyph glyph-name="uni04B0" unicode="&#x4b0;" horiz-adv-x="608" 
d="M368 272v-24h64v-64h-64v-184h-128v184h-64v64h64v24l-240 400h152l152 -272l152 272h152z" />
    <glyph glyph-name="uni04B1" unicode="&#x4b1;" horiz-adv-x="512" 
d="M320 38v-62h80v-64h-80v-168h-128v168h-80v64h80v62l-192 458h144l112 -304l112 304h144z" />
    <glyph glyph-name="uni04B2" unicode="&#x4b2;" horiz-adv-x="704" 
d="M585 128h103v-224h-112v96h-64l-168 256l-168 -256h-160l238 352l-223 320h161l152 -236l152 236h161l-223 -320z" />
    <glyph glyph-name="uni04B3" unicode="&#x4b3;" horiz-adv-x="576" 
d="M455 128h105v-224h-112v96h-64l-104 160l-104 -160h-160l184 264l-168 232h160l88 -140l88 140h160l-168 -232z" />
    <glyph glyph-name="uni04B6" unicode="&#x4b6;" horiz-adv-x="656" 
d="M560 128h80v-224h-112v96h-96v252q-81 -36 -160 -36q-100 0 -162 62.5t-62 177.5v216h128v-216q0 -56 32.5 -84t87.5 -28q35 0 69 8t51 16l16 8v296h128v-544z" />
    <glyph glyph-name="uni04B7" unicode="&#x4b7;" horiz-adv-x="592" 
d="M496 128h80v-224h-112v96h-96v184q-72 -24 -128 -24q-84 0 -138 49.5t-54 150.5v136h128v-118q0 -90 92 -90q65 0 100 11v197h128v-368z" />
    <glyph glyph-name="uni04BA" unicode="&#x4ba;" 
d="M352 456q100 0 162 -62.5t62 -177.5v-216h-128v216q0 56 -32.5 84t-87.5 28q-35 0 -69 -8t-51 -16l-16 -8v-296h-128v672h128v-252q81 36 160 36z" />
    <glyph glyph-name="uni04BB" unicode="&#x4bb;" horiz-adv-x="576" 
d="M342 512q87 0 136.5 -57t49.5 -167v-288h-128v272q0 58 -23 85t-73 27q-48 0 -80 -32t-32 -96v-256h-128v704h128v-256q54 64 150 64z" />
    <glyph glyph-name="uni04C0" unicode="&#x4c0;" horiz-adv-x="256" 
d="M192 0h-128v672h128v-672z" />
    <glyph glyph-name="uni04CF" unicode="&#x4cf;" horiz-adv-x="256" 
d="M64 0v496h128v-496h-128z" />
    <glyph glyph-name="uni04D8" unicode="&#x4d8;" horiz-adv-x="768" 
d="M32 336q0 20 4 56h565q-19 74 -79 121t-138 47q-59 0 -108.5 -28t-80.5 -76l-127 35q43 89 128.5 143t187.5 54q146 0 249 -103t103 -249t-103 -249t-249 -103t-249 103t-103 249zM167 280q19 -74 79 -121t138 -47t138 47t79 121h-434z" />
    <glyph glyph-name="uni04D9" unicode="&#x4d9;" horiz-adv-x="560" 
d="M32 248q0 14 2 40h361q-8 48 -36.5 80t-78.5 32q-70 0 -100 -54l-117 39q27 51 79.5 89t137.5 38q113 0 180.5 -76t67.5 -188q0 -116 -66 -190t-190 -74q-116 0 -178 69.5t-62 194.5zM392 192h-224q0 -36 29.5 -66t82.5 -30q45 0 78.5 31.5t33.5 64.5z" />
    <glyph glyph-name="uni04E2" unicode="&#x4e2;" horiz-adv-x="720" 
d="M504 752h-288v64h288v-64zM192 672v-464l336 464h128v-672h-128v464l-336 -464h-128v672h128z" />
    <glyph glyph-name="uni04E3" unicode="&#x4e3;" horiz-adv-x="608" 
d="M448 576h-288v64h288v-64zM192 496v-308l224 308h128v-496h-128v308l-224 -308h-128v496h128z" />
    <glyph glyph-name="uni04E8" unicode="&#x4e8;" horiz-adv-x="768" 
d="M384 688q146 0 249 -103t103 -249t-103 -249t-249 -103t-249 103t-103 249t103 249t249 103zM384 560q-84 0 -147 -55t-75 -137h444q-12 82 -75 137t-147 55zM384 112q84 0 147 55t75 137h-444q12 -82 75 -137t147 -55z" />
    <glyph glyph-name="uni04E9" unicode="&#x4e9;" horiz-adv-x="592" 
d="M296 512q110 0 187 -77t77 -187t-77 -187t-187 -77t-187 77t-77 187t77 187t187 77zM296 384q-48 0 -84.5 -29.5t-47.5 -74.5h264q-11 45 -47.5 74.5t-84.5 29.5zM296 112q48 0 84.5 29.5t47.5 74.5h-264q11 -45 47.5 -74.5t84.5 -29.5z" />
    <glyph glyph-name="uni04EE" unicode="&#x4ee;" 
d="M464 752h-288v64h288v-64zM472 672h152l-360 -672h-152l130 244l-226 428h152l152 -290z" />
    <glyph glyph-name="uni04EF" unicode="&#x4ef;" horiz-adv-x="528" 
d="M408 576h-288v64h288v-64zM384 496h144l-320 -752h-144l128 292l-192 460h144l120 -292z" />
    <glyph glyph-name="Wgrave" unicode="&#x1e80;" horiz-adv-x="992" 
d="M576 736h-80l-144 144h144zM552 672l128 -448l160 448h144l-240 -672h-128l-120 416l-120 -416h-128l-240 672h144l160 -448l128 448h112z" />
    <glyph glyph-name="wgrave" unicode="&#x1e81;" horiz-adv-x="768" 
d="M456 560h-80l-144 144h144zM616 496h144l-168 -496h-116l-92 272l-92 -272h-116l-168 496h144l88 -320l96 320h96l96 -320z" />
    <glyph glyph-name="Wacute" unicode="&#x1e82;" horiz-adv-x="992" 
d="M416 736l80 144h144l-144 -144h-80zM552 672l128 -448l160 448h144l-240 -672h-128l-120 416l-120 -416h-128l-240 672h144l160 -448l128 448h112z" />
    <glyph glyph-name="wacute" unicode="&#x1e83;" horiz-adv-x="768" 
d="M312 560l80 144h144l-144 -144h-80zM616 496h144l-168 -496h-116l-92 272l-92 -272h-116l-168 496h144l88 -320l96 320h96l96 -320z" />
    <glyph glyph-name="Wdieresis" unicode="&#x1e84;" horiz-adv-x="992" 
d="M400 736q-27 0 -45.5 18.5t-18.5 45.5t18.5 45.5t45.5 18.5t45.5 -18.5t18.5 -45.5t-18.5 -45.5t-45.5 -18.5zM592 736q-27 0 -45.5 18.5t-18.5 45.5t18.5 45.5t45.5 18.5t45.5 -18.5t18.5 -45.5t-18.5 -45.5t-45.5 -18.5zM552 672l128 -448l160 448h144l-240 -672h-128
l-120 416l-120 -416h-128l-240 672h144l160 -448l128 448h112z" />
    <glyph glyph-name="wdieresis" unicode="&#x1e85;" horiz-adv-x="768" 
d="M288 560q-27 0 -45.5 18.5t-18.5 45.5t18.5 45.5t45.5 18.5t45.5 -18.5t18.5 -45.5t-18.5 -45.5t-45.5 -18.5zM480 560q-27 0 -45.5 18.5t-18.5 45.5t18.5 45.5t45.5 18.5t45.5 -18.5t18.5 -45.5t-18.5 -45.5t-45.5 -18.5zM616 496h144l-168 -496h-116l-92 272l-92 -272
h-116l-168 496h144l88 -320l96 320h96l96 -320z" />
    <glyph glyph-name="Ygrave" unicode="&#x1ef2;" horiz-adv-x="608" 
d="M368 736h-80l-144 144h144zM456 672h152l-240 -400v-272h-128v272l-240 400h152l152 -272z" />
    <glyph glyph-name="ygrave" unicode="&#x1ef3;" horiz-adv-x="528" 
d="M336 560h-80l-144 144h144zM384 496h144l-320 -752h-144l128 292l-192 460h144l120 -292z" />
    <glyph glyph-name="endash" unicode="&#x2013;" horiz-adv-x="512" 
d="M464 216h-416v96h416v-96z" />
    <glyph glyph-name="emdash" unicode="&#x2014;" horiz-adv-x="608" 
d="M560 216h-512v96h512v-96z" />
    <glyph glyph-name="quoteleft" unicode="&#x2018;" horiz-adv-x="256" 
d="M224 672l-48 -208h-144l112 208h80z" />
    <glyph glyph-name="quoteright" unicode="&#x2019;" horiz-adv-x="256" 
d="M32 464l48 208h144l-112 -208h-80z" />
    <glyph glyph-name="quotesinglbase" unicode="&#x201a;" horiz-adv-x="256" 
d="M32 -80l48 208h144l-112 -208h-80z" />
    <glyph glyph-name="quotedblleft" unicode="&#x201c;" horiz-adv-x="496" 
d="M224 672l-48 -208h-144l112 208h80zM464 672l-48 -208h-144l112 208h80z" />
    <glyph glyph-name="quotedblright" unicode="&#x201d;" horiz-adv-x="496" 
d="M32 464l48 208h144l-112 -208h-80zM272 464l48 208h144l-112 -208h-80z" />
    <glyph glyph-name="quotedblbase" unicode="&#x201e;" horiz-adv-x="496" 
d="M32 -80l48 208h144l-112 -208h-80zM272 -80l48 208h144l-112 -208h-80z" />
    <glyph glyph-name="dagger" unicode="&#x2020;" horiz-adv-x="656" 
d="M608 400h-224l-56 -672l-56 672h-224v96h224v272h112v-272h224v-96z" />
    <glyph glyph-name="daggerdbl" unicode="&#x2021;" horiz-adv-x="656" 
d="M608 400h-224v-128h224v-96h-232l-48 -448l-48 448h-232v96h224v128h-224v96h224v272h112v-272h224v-96z" />
    <glyph glyph-name="bullet" unicode="&#x2022;" horiz-adv-x="784" 
d="M392 456q51 0 85.5 -34.5t34.5 -85.5q0 -50 -34.5 -85t-85.5 -35q-50 0 -85 35t-35 85q0 51 35 85.5t85 34.5z" />
    <glyph glyph-name="ellipsis" unicode="&#x2026;" horiz-adv-x="800" 
d="M128 -16q-34 0 -57 23t-23 57t23 57t57 23t57 -23t23 -57t-23 -57t-57 -23zM400 -16q-34 0 -57 23t-23 57t23 57t57 23t57 -23t23 -57t-23 -57t-57 -23zM672 -16q-34 0 -57 23t-23 57t23 57t57 23t57 -23t23 -57t-23 -57t-57 -23z" />
    <glyph glyph-name="perthousand" unicode="&#x2030;" horiz-adv-x="1184" 
d="M201 384q-64 0 -108.5 44t-44.5 108q0 63 44.5 107.5t108.5 44.5q63 0 107 -44.5t44 -107.5q0 -64 -44 -108t-107 -44zM206 0h-80l468 672h80zM200 464q29 0 50.5 21.5t21.5 50.5t-21.5 50.5t-50.5 21.5t-50.5 -21.5t-21.5 -50.5t21.5 -50.5t50.5 -21.5zM601 -16
q-64 0 -108.5 44t-44.5 108q0 63 44.5 107.5t108.5 44.5q63 0 107 -44.5t44 -107.5q0 -64 -44 -108t-107 -44zM985 -16q-64 0 -108.5 44t-44.5 108q0 63 44.5 107.5t108.5 44.5q63 0 107 -44.5t44 -107.5q0 -64 -44 -108t-107 -44zM600 64q29 0 50.5 21.5t21.5 50.5
t-21.5 50.5t-50.5 21.5t-50.5 -21.5t-21.5 -50.5t21.5 -50.5t50.5 -21.5zM984 64q29 0 50.5 21.5t21.5 50.5t-21.5 50.5t-50.5 21.5t-50.5 -21.5t-21.5 -50.5t21.5 -50.5t50.5 -21.5z" />
    <glyph glyph-name="guilsinglleft" unicode="&#x2039;" horiz-adv-x="400" 
d="M320 496l-160 -224l160 -224h-112l-160 224l160 224h112z" />
    <glyph glyph-name="guilsinglright" unicode="&#x203a;" horiz-adv-x="400" 
d="M80 496h112l160 -224l-160 -224h-112l160 224z" />
    <glyph glyph-name="fraction" unicode="&#x2044;" horiz-adv-x="212" 
d="M-88 0h-80l468 672h80z" />
    <glyph glyph-name="uni2070" unicode="&#x2070;" horiz-adv-x="360" 
d="M180 760q58 0 95 -51t37 -125t-37 -125t-95 -51t-95 51t-37 125t37 125t95 51zM180 472q28 0 48 32.5t20 79.5t-20 79.5t-48 32.5t-48 -33t-20 -79t20 -79t48 -33z" />
    <glyph glyph-name="uni2074" unicode="&#x2074;" horiz-adv-x="352" 
d="M264 544h40v-64h-40v-64h-64v64h-168v56l152 216h80v-208zM200 544v132l-89 -132h89z" />
    <glyph glyph-name="uni2075" unicode="&#x2075;" horiz-adv-x="352" 
d="M192 640q46 0 79 -29t33 -77q0 -59 -35.5 -92.5t-92.5 -33.5q-59 0 -92 30t-36 78l64 5q6 -49 64 -49q27 0 45.5 16t18.5 40q0 22 -15.5 37t-44.5 15q-44 0 -68 -28h-56l32 200h184v-64h-132l-9 -64q21 16 61 16z" />
    <glyph glyph-name="uni2076" unicode="&#x2076;" horiz-adv-x="360" 
d="M192 650q54 0 87 -33.5t33 -80.5q0 -57 -37 -92.5t-95 -35.5t-95 36t-37 96q0 14 2.5 29.5t12 49t37 69t69.5 64.5h103q-10 -3 -25.5 -10.5t-50 -36.5t-54.5 -65q18 10 50 10zM180 472q30 0 49 17t19 41q0 25 -18.5 41.5t-49.5 16.5q-30 0 -49 -17t-19 -41t19 -41t49 -17
z" />
    <glyph glyph-name="uni2077" unicode="&#x2077;" horiz-adv-x="336" 
d="M64 752h256l-144 -336h-72l120 272h-160v64z" />
    <glyph glyph-name="uni2078" unicode="&#x2078;" horiz-adv-x="360" 
d="M268 605q44 -33 44 -85q0 -49 -38 -80.5t-94 -31.5q-55 0 -93.5 31.5t-38.5 80.5q0 52 44 85q-28 23 -28 59q0 41 34 68.5t82 27.5t82 -27.5t34 -68.5q0 -34 -28 -59zM180 696q-22 0 -37 -10.5t-15 -25.5t15 -25.5t37 -10.5t37 10.5t15 25.5t-15 25.5t-37 10.5zM180 472
q28 0 48 15.5t20 36.5q0 22 -20 37t-48 15t-48 -15t-20 -37q0 -21 20 -36.5t48 -15.5z" />
    <glyph glyph-name="uni2079" unicode="&#x2079;" horiz-adv-x="360" 
d="M168 518q-53 0 -86.5 33.5t-33.5 80.5q0 57 37.5 92.5t94.5 35.5q58 0 95 -36t37 -95q0 -14 -2.5 -29.5t-12 -49t-37 -69.5t-69.5 -65h-103q3 2 9.5 4.5t23.5 13t32.5 22.5t34 31.5t30.5 40.5q-17 -10 -50 -10zM180 696q-30 0 -49 -17t-19 -41q0 -25 18.5 -41.5
t49.5 -16.5q30 0 49 17t19 41t-19 41t-49 17z" />
    <glyph glyph-name="Euro" unicode="&#x20ac;" horiz-adv-x="704" 
d="M456 112q100 0 167 69l49 -116q-42 -38 -101 -59.5t-117 -21.5q-126 0 -223.5 77t-125.5 195h-73v48h65q-1 11 -1 32t1 32h-65v48h73q28 118 125.5 195t223.5 77q58 0 117 -21t101 -59l-49 -116q-70 68 -167 68q-73 0 -132 -40t-85 -104h209l-15 -48h-207q-2 -20 -2 -32
t2 -32h191l-14 -48h-164q26 -64 85 -104t132 -40z" />
    <glyph glyph-name="trademark" unicode="&#x2122;" horiz-adv-x="688" 
d="M48 672h214v-57h-78v-243h-58v243h-78v57zM597 672l43 -300h-61l-25 196l-79 -196h-28l-79 196l-25 -196h-61l43 300h57l79 -193l79 193h57z" />
    <glyph glyph-name="oneeighth" unicode="&#x215b;" horiz-adv-x="908" 
d="M96 648l128 32v-344h-64v266l-64 -14v60zM248 0h-80l468 672h80zM816 189q44 -33 44 -85q0 -49 -38 -80.5t-94 -31.5q-55 0 -93.5 31.5t-38.5 80.5q0 52 44 85q-28 23 -28 59q0 41 34 68.5t82 27.5t82 -27.5t34 -68.5q0 -34 -28 -59zM728 280q-22 0 -37 -10.5t-15 -25.5
t15 -25.5t37 -10.5t37 10.5t15 25.5t-15 25.5t-37 10.5zM728 56q28 0 48 15.5t20 36.5q0 22 -20 37t-48 15t-48 -15t-20 -37q0 -21 20 -36.5t48 -15.5z" />
    <glyph glyph-name="threeeighths" unicode="&#x215c;" horiz-adv-x="924" 
d="M257 514q19 -7 33 -28.5t14 -45.5q0 -44 -31 -78t-97 -34q-57 0 -90.5 30t-37.5 82l64 8q9 -56 67 -56q22 0 41.5 11.5t19.5 32.5q0 46 -88 46v52q80 5 80 44q0 17 -14.5 27.5t-38.5 10.5q-53 0 -59 -52l-64 8q5 48 38 78t82 30q58 0 89 -30t31 -66q0 -47 -39 -70zM264 0
h-80l468 672h80zM832 189q44 -33 44 -85q0 -49 -38 -80.5t-94 -31.5q-55 0 -93.5 31.5t-38.5 80.5q0 52 44 85q-28 23 -28 59q0 41 34 68.5t82 27.5t82 -27.5t34 -68.5q0 -34 -28 -59zM744 280q-22 0 -37 -10.5t-15 -25.5t15 -25.5t37 -10.5t37 10.5t15 25.5t-15 25.5
t-37 10.5zM744 56q28 0 48 15.5t20 36.5q0 22 -20 37t-48 15t-48 -15t-20 -37q0 -21 20 -36.5t48 -15.5z" />
    <glyph glyph-name="fiveeighths" unicode="&#x215d;" horiz-adv-x="924" 
d="M192 560q46 0 79 -29t33 -77q0 -59 -35.5 -92.5t-92.5 -33.5q-59 0 -92 30t-36 78l64 5q6 -49 64 -49q27 0 45.5 16t18.5 40q0 22 -15.5 37t-44.5 15q-44 0 -68 -28h-56l32 200h184v-64h-132l-9 -64q21 16 61 16zM264 0h-80l468 672h80zM832 189q44 -33 44 -85
q0 -49 -38 -80.5t-94 -31.5q-55 0 -93.5 31.5t-38.5 80.5q0 52 44 85q-28 23 -28 59q0 41 34 68.5t82 27.5t82 -27.5t34 -68.5q0 -34 -28 -59zM744 280q-22 0 -37 -10.5t-15 -25.5t15 -25.5t37 -10.5t37 10.5t15 25.5t-15 25.5t-37 10.5zM744 56q28 0 48 15.5t20 36.5
q0 22 -20 37t-48 15t-48 -15t-20 -37q0 -21 20 -36.5t48 -15.5z" />
    <glyph glyph-name="seveneighths" unicode="&#x215e;" horiz-adv-x="908" 
d="M64 672h256l-144 -336h-72l120 272h-160v64zM248 0h-80l468 672h80zM816 189q44 -33 44 -85q0 -49 -38 -80.5t-94 -31.5q-55 0 -93.5 31.5t-38.5 80.5q0 52 44 85q-28 23 -28 59q0 41 34 68.5t82 27.5t82 -27.5t34 -68.5q0 -34 -28 -59zM728 280q-22 0 -37 -10.5
t-15 -25.5t15 -25.5t37 -10.5t37 10.5t15 25.5t-15 25.5t-37 10.5zM728 56q28 0 48 15.5t20 36.5q0 22 -20 37t-48 15t-48 -15t-20 -37q0 -21 20 -36.5t48 -15.5z" />
    <glyph glyph-name="partialdiff" unicode="&#x2202;" 
d="M576 258q0 -118 -73.5 -196t-190.5 -78q-120 0 -192 75.5t-72 188.5t71.5 188.5t192.5 75.5q51 0 84 -17q-25 74 -104 130t-156 63l56 112q117 -23 206 -106t133.5 -196.5t44.5 -239.5zM312 112q56 0 96 40t40 96t-40 96t-96 40t-96 -40t-40 -96t40 -96t96 -40z" />
    <glyph glyph-name="emptyset" unicode="&#x2205;" horiz-adv-x="632" 
 />
    <glyph glyph-name="product" unicode="&#x220f;" horiz-adv-x="656" 
d="M592 704v-960h-128v832h-272v-832h-128v960h528z" />
    <glyph glyph-name="summation" unicode="&#x2211;" horiz-adv-x="688" 
d="M242 608l286 -368l-286 -368h382v-128h-560v128l288 368l-288 368v128h560v-128h-382z" />
    <glyph glyph-name="minus" unicode="&#x2212;" horiz-adv-x="496" 
d="M48 344h400v-80h-400v80z" />
    <glyph glyph-name="radical" unicode="&#x221a;" horiz-adv-x="928" 
d="M896 672v-128h-339l-221 -544h-96l-208 496h144l112 -304l177 480h431z" />
    <glyph glyph-name="infinity" unicode="&#x221e;" 
d="M425 440q63 0 107 -44.5t44 -107.5q0 -64 -44 -108t-107 -44q-67 0 -113 49q-44 -49 -111 -49q-64 0 -108.5 44t-44.5 108q0 63 44.5 107.5t108.5 44.5q67 0 111 -49q46 49 113 49zM200 216q29 0 50.5 21.5t21.5 50.5t-21.5 50.5t-50.5 21.5t-50.5 -21.5t-21.5 -50.5
t21.5 -50.5t50.5 -21.5zM424 216q29 0 50.5 21.5t21.5 50.5t-21.5 50.5t-50.5 21.5t-50.5 -21.5t-21.5 -50.5t21.5 -50.5t50.5 -21.5z" />
    <glyph glyph-name="integral" unicode="&#x222b;" horiz-adv-x="352" 
d="M112 460q0 113 45 170.5t147 57.5v-128q-29 0 -46.5 -21.5t-17.5 -57.5v-525q0 -113 -45 -170.5t-147 -57.5v128q29 0 46.5 21.5t17.5 57.5v525z" />
    <glyph glyph-name="approxequal" unicode="&#x2248;" horiz-adv-x="528" 
d="M411 464l69 -28q-45 -92 -134 -92q-12 0 -26.5 3.5t-24.5 7t-26 10.5t-23 10q-40 20 -74 15.5t-55 -46.5l-69 28q45 92 134 92q12 0 26 -3.5t24.5 -7.5t26.5 -11t23 -10q40 -20 74 -15t55 47zM411 280l69 -28q-45 -92 -134 -92q-12 0 -26.5 3.5t-24.5 7t-26 10.5t-23 10
q-40 20 -74 15.5t-55 -46.5l-69 28q45 92 134 92q12 0 26 -3.5t24.5 -7.5t26.5 -11t23 -10q40 -20 74 -15t55 47z" />
    <glyph glyph-name="notequal" unicode="&#x2260;" horiz-adv-x="512" 
d="M464 336h-168l-16 -64h184v-80h-203l-45 -192h-64l45 192h-149v80h168l16 64h-184v80h203l45 192h64l-45 -192h149v-80z" />
    <glyph glyph-name="lessequal" unicode="&#x2264;" horiz-adv-x="528" 
d="M480 144l-432 208v64l432 208v-96l-312 -144l312 -144v-96zM480 80v-80h-432v80h432z" />
    <glyph glyph-name="greaterequal" unicode="&#x2265;" horiz-adv-x="528" 
d="M48 144v96l312 144l-312 144v96l432 -208v-64zM48 80h432v-80h-432v80z" />
    <glyph glyph-name="lozenge" unicode="&#x25ca;" horiz-adv-x="640" 
d="M592 336l-272 -352l-272 352l272 352zM480 336l-160 202l-158 -202l158 -202z" />
    <glyph glyph-name="M.ss01" horiz-adv-x="800" 
d="M608 672h128v-672h-128v454l-208 -321l-208 321v-454h-128v672h128l208 -330z" />
    <glyph glyph-name="j.ss01" horiz-adv-x="256" 
d="M128 560q-37 0 -62.5 25.5t-25.5 62.5t25.5 62.5t62.5 25.5t62.5 -25.5t25.5 -62.5t-25.5 -62.5t-62.5 -25.5zM64 -256v752h128v-752h-128z" />
    <glyph glyph-name="t.ss01" horiz-adv-x="368" 
d="M96 0v384h-64v112h64v176h128v-176h96v-112h-96v-384h-128z" />
    <glyph glyph-name="tbar.ss01" horiz-adv-x="368" 
d="M320 384h-96v-80h96v-64h-96v-240h-128v240h-64v64h64v80h-64v112h64v176h128v-176h96v-112z" />
    <glyph glyph-name="tcaron.ss01" horiz-adv-x="528" 
d="M96 0v384h-64v112h64v176h128v-176h96v-112h-96v-384h-128zM352 544l32 128h112l-80 -128h-64z" />
    <glyph glyph-name="uni0163.ss01" horiz-adv-x="368" 
d="M224 384v-384l-43 -48q55 6 97 -25.5t42 -86.5q0 -62 -45.5 -103t-114.5 -41q-84 0 -128 63l54 61q21 -52 73 -52q44 0 68.5 21.5t24.5 51.5q0 29 -22 46t-54 17q-38 0 -62 -16l-34 48l60 64h-44v384h-64v112h64v176h128v-176h96v-112h-96z" />
    <glyph glyph-name="uni021B.ss01" horiz-adv-x="368" 
d="M96 0v384h-64v112h64v176h128v-176h96v-112h-96v-384h-128zM72 -192l32 128h112l-80 -128h-64z" />
    <glyph glyph-name="f_f.dlig" horiz-adv-x="768" 
d="M720 592q-24 5 -41.5 5.5t-29.5 -1.5t-20 -10t-12 -14.5t-6 -21.5t-2.5 -24.5t-0.5 -29.5h112v-112h-112v-384h-128v384h-256v-384h-128v384h-64v112h64q2 224 160 224q42 0 80 -16v-112q-24 5 -41.5 5.5t-29.5 -1.5t-20 -10t-12 -14.5t-6 -21.5t-2.5 -24.5t-0.5 -29.5
h256q2 224 160 224q42 0 80 -16v-112z" />
    <glyph glyph-name="f_f_i.dlig" horiz-adv-x="1024" 
d="M960 496v-496h-128v384h-224v-384h-128v384h-256v-384h-128v384h-64v112h64q2 224 160 224q42 0 80 -16v-112q-24 5 -41.5 5.5t-29.5 -1.5t-20 -10t-12 -14.5t-6 -21.5t-2.5 -24.5t-0.5 -29.5h256q2 224 160 224q42 0 80 -16v-112q-24 5 -41.5 5.5t-29.5 -1.5t-20 -10
t-12 -14.5t-6 -21.5t-2.5 -24.5t-0.5 -29.5h352z" />
    <glyph glyph-name="f_f_j.dlig" horiz-adv-x="1024" 
d="M960 496v-496q0 -80 -19.5 -136.5t-52 -84.5t-65.5 -39.5t-71 -11.5l-32 112q51 0 81.5 37.5t30.5 106.5v400h-224v-384h-128v384h-256v-384h-128v384h-64v112h64q2 224 160 224q42 0 80 -16v-112q-24 5 -41.5 5.5t-29.5 -1.5t-20 -10t-12 -14.5t-6 -21.5t-2.5 -24.5
t-0.5 -29.5h256q2 224 160 224q42 0 80 -16v-112q-24 5 -41.5 5.5t-29.5 -1.5t-20 -10t-12 -14.5t-6 -21.5t-2.5 -24.5t-0.5 -29.5h352z" />
    <glyph glyph-name="uni041C.ss01" horiz-adv-x="800" 
d="M608 672h128v-672h-128v454l-208 -321l-208 321v-454h-128v672h128l208 -330z" />
    <glyph glyph-name="uni043C.ss01" horiz-adv-x="656" 
d="M464 496h128v-496h-128v276l-136 -204l-136 204v-276h-128v496h128l136 -216z" />
    <glyph glyph-name="uni0458.ss01" horiz-adv-x="256" 
d="M128 560q-37 0 -62.5 25.5t-25.5 62.5t25.5 62.5t62.5 25.5t62.5 -25.5t25.5 -62.5t-25.5 -62.5t-62.5 -25.5zM64 -256v752h128v-752h-128z" />
    <glyph glyph-name="zero.subs" horiz-adv-x="360" 
d="M180 80q58 0 95 -51t37 -125t-37 -125t-95 -51t-95 51t-37 125t37 125t95 51zM180 -208q28 0 48 32.5t20 79.5t-20 79.5t-48 32.5t-48 -33t-20 -79t20 -79t48 -33z" />
    <glyph glyph-name="one.subs" horiz-adv-x="336" 
d="M96 48l128 32v-344h-64v266l-64 -14v60z" />
    <glyph glyph-name="two.subs" horiz-adv-x="360" 
d="M56 -40q3 52 35 86t85 34t86.5 -29.5t33.5 -82.5q0 -38 -24 -74t-80 -94h120v-64h-264l136 144q48 52 48 84q0 24 -14.5 38t-41.5 14q-51 0 -56 -64z" />
    <glyph glyph-name="three.subs" horiz-adv-x="352" 
d="M257 -86q19 -7 33 -28.5t14 -45.5q0 -44 -31 -78t-97 -34q-57 0 -90.5 30t-37.5 82l64 8q9 -56 67 -56q22 0 41.5 11.5t19.5 32.5q0 46 -88 46v52q80 5 80 44q0 17 -14.5 27.5t-38.5 10.5q-53 0 -59 -52l-64 8q5 48 38 78t82 30q58 0 89 -30t31 -66q0 -47 -39 -70z" />
    <glyph glyph-name="four.subs" horiz-adv-x="352" 
d="M264 -136h40v-64h-40v-64h-64v64h-168v56l152 216h80v-208zM200 -136v132l-89 -132h89z" />
    <glyph glyph-name="five.subs" horiz-adv-x="352" 
d="M192 -40q46 0 79 -29t33 -77q0 -59 -35.5 -92.5t-92.5 -33.5q-59 0 -92 30t-36 78l64 5q6 -49 64 -49q27 0 45.5 16t18.5 40q0 22 -15.5 37t-44.5 15q-44 0 -68 -28h-56l32 200h184v-64h-132l-9 -64q21 16 61 16z" />
    <glyph glyph-name="six.subs" horiz-adv-x="360" 
d="M192 -30q54 0 87 -33.5t33 -80.5q0 -57 -37 -92.5t-95 -35.5t-95 36t-37 96q0 14 2.5 29.5t12 49t37 69t69.5 64.5h103q-10 -3 -25.5 -10.5t-50 -36.5t-54.5 -65q18 10 50 10zM180 -208q30 0 49 17t19 41q0 25 -18.5 41.5t-49.5 16.5q-30 0 -49 -17t-19 -41t19 -41
t49 -17z" />
    <glyph glyph-name="seven.subs" horiz-adv-x="336" 
d="M64 72h256l-144 -336h-72l120 272h-160v64z" />
    <glyph glyph-name="eight.subs" horiz-adv-x="360" 
d="M268 -75q44 -33 44 -85q0 -49 -38 -80.5t-94 -31.5q-55 0 -93.5 31.5t-38.5 80.5q0 52 44 85q-28 23 -28 59q0 41 34 68.5t82 27.5t82 -27.5t34 -68.5q0 -34 -28 -59zM180 16q-22 0 -37 -10.5t-15 -25.5t15 -25.5t37 -10.5t37 10.5t15 25.5t-15 25.5t-37 10.5zM180 -208
q28 0 48 15.5t20 36.5q0 22 -20 37t-48 15t-48 -15t-20 -37q0 -21 20 -36.5t48 -15.5z" />
    <glyph glyph-name="nine.subs" horiz-adv-x="360" 
d="M168 -162q-53 0 -86.5 33.5t-33.5 80.5q0 57 37.5 92.5t94.5 35.5q58 0 95 -36t37 -95q0 -14 -2.5 -29.5t-12 -49t-37 -69.5t-69.5 -65h-103q3 2 9.5 4.5t23.5 13t32.5 22.5t34 31.5t30.5 40.5q-17 -10 -50 -10zM180 16q-30 0 -49 -17t-19 -41q0 -25 18.5 -41.5
t49.5 -16.5q30 0 49 17t19 41t-19 41t-49 17z" />
    <glyph glyph-name="zero.tf" 
d="M312 688q116 0 190 -102t74 -250t-74 -250t-190 -102q-117 0 -190.5 101.5t-73.5 250.5q0 148 74 250t190 102zM312 112q56 0 96 65.5t40 158.5t-40 158.5t-96 65.5t-96 -65.5t-40 -158.5t40 -158.5t96 -65.5z" />
    <glyph glyph-name="one.tf" 
d="M168 624l256 64v-688h-128v532l-128 -28v120z" />
    <glyph glyph-name="two.tf" 
d="M64 448q6 103 70 171.5t170 68.5q105 0 172.5 -60t67.5 -164q0 -76 -48 -147.5t-160 -188.5h240v-128h-528l272 288q96 105 96 168q0 49 -29.5 76.5t-82.5 27.5q-51 0 -79.5 -35.5t-32.5 -92.5z" />
    <glyph glyph-name="three.tf" 
d="M474 355q37 -13 65.5 -56t28.5 -91q0 -40 -13.5 -77.5t-42 -71.5t-80.5 -54.5t-120 -20.5q-115 0 -181.5 60t-74.5 164l128 16q8 -53 38.5 -82.5t95.5 -29.5q45 0 83.5 23t38.5 65q0 92 -176 92v104q19 1 39 3.5t51 10.5t50.5 27t19.5 47q0 33 -29 54.5t-77 21.5
q-107 0 -118 -104l-128 16q8 96 74.5 156t165.5 60q116 0 178 -60t62 -132q0 -93 -78 -141z" />
    <glyph glyph-name="four.tf" 
d="M504 256h80v-128h-80v-128h-128v128h-336v112l304 432h160v-416zM376 256v264l-179 -264h179z" />
    <glyph glyph-name="five.tf" 
d="M343 448q91 0 158 -58.5t67 -154.5q0 -117 -71.5 -184t-184.5 -67q-118 0 -184 59.5t-72 156.5l128 10q5 -43 37 -70.5t91 -27.5q55 0 91.5 31t36.5 81q0 43 -31.5 73.5t-88.5 30.5q-88 0 -136 -56h-112l64 400h368v-128h-264l-18 -128q43 32 121 32z" />
    <glyph glyph-name="six.tf" 
d="M336 468q107 0 173.5 -67t66.5 -161q0 -113 -74.5 -184.5t-189.5 -71.5q-117 0 -190.5 72t-73.5 191q0 15 1.5 31t7 54t22 76.5t41 84t69 92.5t101.5 87h206q-7 -3 -19 -8t-46.5 -24.5t-65.5 -43t-67.5 -63.5t-61.5 -85q35 20 100 20zM312 112q59 0 97.5 33.5t38.5 82.5
t-37.5 82.5t-98.5 33.5q-59 0 -97.5 -33.5t-38.5 -82.5t38.5 -82.5t97.5 -33.5z" />
    <glyph glyph-name="seven.tf" 
d="M64 672h512l-288 -672h-144l240 544h-320v128z" />
    <glyph glyph-name="eight.tf" 
d="M488 377q88 -64 88 -169q0 -98 -76.5 -161t-187.5 -63t-187.5 63t-76.5 161q0 103 87 169q-55 47 -55 119q0 82 67.5 137t164.5 55q96 0 163.5 -55t67.5 -137q0 -70 -55 -119zM312 560q-43 0 -73.5 -21t-30.5 -51t30.5 -51t73.5 -21t73.5 21t30.5 51t-30.5 51t-73.5 21z
M312 112q56 0 96 30.5t40 73.5t-40 73.5t-96 30.5t-96 -30.5t-40 -73.5t40 -73.5t96 -30.5z" />
    <glyph glyph-name="nine.tf" 
d="M288 204q-107 0 -173.5 67t-66.5 161q0 113 74.5 184.5t189.5 71.5q117 0 190.5 -72t73.5 -191q0 -15 -1.5 -31t-7 -54t-22 -76.5t-41 -84t-69 -92.5t-101.5 -87h-206q7 3 19 9t46.5 26.5t65.5 44.5t67.5 63t61.5 81q-35 -20 -100 -20zM312 560q-59 0 -97.5 -33.5
t-38.5 -82.5t37.5 -82.5t98.5 -33.5q59 0 97.5 33.5t38.5 82.5t-38.5 82.5t-97.5 33.5z" />
    <glyph glyph-name="zero.zero" 
d="M312 688q116 0 190 -102t74 -250t-74 -250t-190 -102q-117 0 -190.5 101.5t-73.5 250.5q0 148 74 250t190 102zM312 560q-56 0 -96 -65.5t-40 -158.5q0 -46 11 -90l218 254q-39 60 -93 60zM312 112q56 0 96 65.5t40 158.5q0 46 -11 90l-218 -254q39 -60 93 -60z" />
    <glyph glyph-name="zero.tf.zero" 
d="M312 688q116 0 190 -102t74 -250t-74 -250t-190 -102q-117 0 -190.5 101.5t-73.5 250.5q0 148 74 250t190 102zM312 560q-56 0 -96 -65.5t-40 -158.5q0 -46 11 -90l218 254q-39 60 -93 60zM312 112q56 0 96 65.5t40 158.5q0 46 -11 90l-218 -254q39 -60 93 -60z" />
    <glyph glyph-name="zero.dnom" horiz-adv-x="360" 
d="M180 344q58 0 95 -51t37 -125t-37 -125t-95 -51t-95 51t-37 125t37 125t95 51zM180 56q28 0 48 32.5t20 79.5t-20 79.5t-48 32.5t-48 -33t-20 -79t20 -79t48 -33z" />
    <glyph glyph-name="one.dnom" horiz-adv-x="336" 
d="M96 312l128 32v-344h-64v266l-64 -14v60z" />
    <glyph glyph-name="two.dnom" horiz-adv-x="360" 
d="M56 224q3 52 35 86t85 34t86.5 -29.5t33.5 -82.5q0 -38 -24 -74t-80 -94h120v-64h-264l136 144q48 52 48 84q0 24 -14.5 38t-41.5 14q-51 0 -56 -64z" />
    <glyph glyph-name="three.dnom" horiz-adv-x="352" 
d="M257 178q19 -7 33 -28.5t14 -45.5q0 -44 -31 -78t-97 -34q-57 0 -90.5 30t-37.5 82l64 8q9 -56 67 -56q22 0 41.5 11.5t19.5 32.5q0 46 -88 46v52q80 5 80 44q0 17 -14.5 27.5t-38.5 10.5q-53 0 -59 -52l-64 8q5 48 38 78t82 30q58 0 89 -30t31 -66q0 -47 -39 -70z" />
    <glyph glyph-name="four.dnom" horiz-adv-x="352" 
d="M264 128h40v-64h-40v-64h-64v64h-168v56l152 216h80v-208zM200 128v132l-89 -132h89z" />
    <glyph glyph-name="five.dnom" horiz-adv-x="352" 
d="M192 224q46 0 79 -29t33 -77q0 -59 -35.5 -92.5t-92.5 -33.5q-59 0 -92 30t-36 78l64 5q6 -49 64 -49q27 0 45.5 16t18.5 40q0 22 -15.5 37t-44.5 15q-44 0 -68 -28h-56l32 200h184v-64h-132l-9 -64q21 16 61 16z" />
    <glyph glyph-name="six.dnom" horiz-adv-x="360" 
d="M192 234q54 0 87 -33.5t33 -80.5q0 -57 -37 -92.5t-95 -35.5t-95 36t-37 96q0 14 2.5 29.5t12 49t37 69t69.5 64.5h103q-10 -3 -25.5 -10.5t-50 -36.5t-54.5 -65q18 10 50 10zM180 56q30 0 49 17t19 41q0 25 -18.5 41.5t-49.5 16.5q-30 0 -49 -17t-19 -41t19 -41t49 -17z
" />
    <glyph glyph-name="seven.dnom" horiz-adv-x="336" 
d="M64 336h256l-144 -336h-72l120 272h-160v64z" />
    <glyph glyph-name="eight.dnom" horiz-adv-x="360" 
d="M268 189q44 -33 44 -85q0 -49 -38 -80.5t-94 -31.5q-55 0 -93.5 31.5t-38.5 80.5q0 52 44 85q-28 23 -28 59q0 41 34 68.5t82 27.5t82 -27.5t34 -68.5q0 -34 -28 -59zM180 280q-22 0 -37 -10.5t-15 -25.5t15 -25.5t37 -10.5t37 10.5t15 25.5t-15 25.5t-37 10.5zM180 56
q28 0 48 15.5t20 36.5q0 22 -20 37t-48 15t-48 -15t-20 -37q0 -21 20 -36.5t48 -15.5z" />
    <glyph glyph-name="nine.dnom" horiz-adv-x="360" 
d="M168 102q-53 0 -86.5 33.5t-33.5 80.5q0 57 37.5 92.5t94.5 35.5q58 0 95 -36t37 -95q0 -14 -2.5 -29.5t-12 -49t-37 -69.5t-69.5 -65h-103q3 2 9.5 4.5t23.5 13t32.5 22.5t34 31.5t30.5 40.5q-17 -10 -50 -10zM180 280q-30 0 -49 -17t-19 -41q0 -25 18.5 -41.5
t49.5 -16.5q30 0 49 17t19 41t-19 41t-49 17z" />
    <glyph glyph-name="zero.numr" horiz-adv-x="360" 
d="M180 680q58 0 95 -51t37 -125t-37 -125t-95 -51t-95 51t-37 125t37 125t95 51zM180 392q28 0 48 32.5t20 79.5t-20 79.5t-48 32.5t-48 -33t-20 -79t20 -79t48 -33z" />
    <glyph glyph-name="one.numr" horiz-adv-x="336" 
d="M96 648l128 32v-344h-64v266l-64 -14v60z" />
    <glyph glyph-name="two.numr" horiz-adv-x="360" 
d="M56 560q3 52 35 86t85 34t86.5 -29.5t33.5 -82.5q0 -38 -24 -74t-80 -94h120v-64h-264l136 144q48 52 48 84q0 24 -14.5 38t-41.5 14q-51 0 -56 -64z" />
    <glyph glyph-name="three.numr" horiz-adv-x="352" 
d="M257 514q19 -7 33 -28.5t14 -45.5q0 -44 -31 -78t-97 -34q-57 0 -90.5 30t-37.5 82l64 8q9 -56 67 -56q22 0 41.5 11.5t19.5 32.5q0 46 -88 46v52q80 5 80 44q0 17 -14.5 27.5t-38.5 10.5q-53 0 -59 -52l-64 8q5 48 38 78t82 30q58 0 89 -30t31 -66q0 -47 -39 -70z" />
    <glyph glyph-name="four.numr" horiz-adv-x="352" 
d="M264 464h40v-64h-40v-64h-64v64h-168v56l152 216h80v-208zM200 464v132l-89 -132h89z" />
    <glyph glyph-name="five.numr" horiz-adv-x="352" 
d="M192 560q46 0 79 -29t33 -77q0 -59 -35.5 -92.5t-92.5 -33.5q-59 0 -92 30t-36 78l64 5q6 -49 64 -49q27 0 45.5 16t18.5 40q0 22 -15.5 37t-44.5 15q-44 0 -68 -28h-56l32 200h184v-64h-132l-9 -64q21 16 61 16z" />
    <glyph glyph-name="six.numr" horiz-adv-x="360" 
d="M192 570q54 0 87 -33.5t33 -80.5q0 -57 -37 -92.5t-95 -35.5t-95 36t-37 96q0 14 2.5 29.5t12 49t37 69t69.5 64.5h103q-10 -3 -25.5 -10.5t-50 -36.5t-54.5 -65q18 10 50 10zM180 392q30 0 49 17t19 41q0 25 -18.5 41.5t-49.5 16.5q-30 0 -49 -17t-19 -41t19 -41t49 -17
z" />
    <glyph glyph-name="seven.numr" horiz-adv-x="336" 
d="M64 672h256l-144 -336h-72l120 272h-160v64z" />
    <glyph glyph-name="eight.numr" horiz-adv-x="360" 
d="M268 525q44 -33 44 -85q0 -49 -38 -80.5t-94 -31.5q-55 0 -93.5 31.5t-38.5 80.5q0 52 44 85q-28 23 -28 59q0 41 34 68.5t82 27.5t82 -27.5t34 -68.5q0 -34 -28 -59zM180 616q-22 0 -37 -10.5t-15 -25.5t15 -25.5t37 -10.5t37 10.5t15 25.5t-15 25.5t-37 10.5zM180 392
q28 0 48 15.5t20 36.5q0 22 -20 37t-48 15t-48 -15t-20 -37q0 -21 20 -36.5t48 -15.5z" />
    <glyph glyph-name="nine.numr" horiz-adv-x="360" 
d="M168 438q-53 0 -86.5 33.5t-33.5 80.5q0 57 37.5 92.5t94.5 35.5q58 0 95 -36t37 -95q0 -14 -2.5 -29.5t-12 -49t-37 -69.5t-69.5 -65h-103q3 2 9.5 4.5t23.5 13t32.5 22.5t34 31.5t30.5 40.5q-17 -10 -50 -10zM180 616q-30 0 -49 -17t-19 -41q0 -25 18.5 -41.5
t49.5 -16.5q30 0 49 17t19 41t-19 41t-49 17z" />
    <glyph glyph-name="exclam.case" horiz-adv-x="288" 
d="M104 192l-32 480h144l-32 -480h-80zM144 -16q-34 0 -57 23t-23 57t23 57t57 23t57 -23t23 -57t-23 -57t-57 -23z" />
    <glyph glyph-name="exclamdown.case" horiz-adv-x="288" 
d="M144 688q34 0 57 -23t23 -57t-23 -57t-57 -23t-57 23t-23 57t23 57t57 23zM104 480h80l32 -480h-144z" />
    <glyph glyph-name="question.case" horiz-adv-x="528" 
d="M256 688q110 0 167 -58.5t57 -133.5q0 -56 -21.5 -98.5t-74.5 -83.5q-71 -55 -72 -122h-112q-6 102 48 157q12 12 35 31.5t35.5 31.5t23 31t10.5 39q0 42 -27.5 60t-67.5 18q-89 0 -145 -72l-64 104q91 96 208 96zM256 144q34 0 57 -23t23 -57t-23 -57t-57 -23t-57 23
t-23 57t23 57t57 23z" />
    <glyph glyph-name="questiondown.case" horiz-adv-x="528" 
d="M272 528q-34 0 -57 23t-23 57t23 57t57 23t57 -23t23 -57t-23 -57t-57 -23zM272 -16q-110 0 -167 58.5t-57 133.5q0 56 21.5 98.5t74.5 83.5q71 55 72 122h112q6 -102 -48 -157q-12 -12 -35 -31.5t-35.5 -31.5t-23 -31t-10.5 -39q0 -42 27.5 -60t67.5 -18q89 0 145 72
l64 -104q-91 -96 -208 -96z" />
    <glyph glyph-name="braceleft.case" horiz-adv-x="400" 
d="M272 10q0 -39 20 -68t60 -38l-64 -96q-144 48 -144 182v234q0 40 -31.5 71.5t-64.5 40.5q33 9 64.5 40.5t31.5 71.5v234q0 134 144 182l64 -96q-40 -9 -60 -38t-20 -68v-180q0 -114 -75 -146q75 -32 75 -146v-180z" />
    <glyph glyph-name="braceright.case" horiz-adv-x="400" 
d="M128 10v180q0 114 75 146q-75 32 -75 146v180q0 39 -20 68t-60 38l64 96q144 -48 144 -182v-234q0 -40 31.5 -71.5t64.5 -40.5q-33 -9 -64.5 -40.5t-31.5 -71.5v-234q0 -134 -144 -182l-64 96q40 9 60 38t20 68z" />
    <glyph glyph-name="bracketleft.case" horiz-adv-x="336" 
d="M192 728v-784h80v-128h-208v1040h208v-128h-80z" />
    <glyph glyph-name="bracketright.case" horiz-adv-x="336" 
d="M144 728h-80v128h208v-1040h-208v128h80v784z" />
    <glyph glyph-name="parenleft.case" horiz-adv-x="336" 
d="M304 752q-128 -194 -128 -416t128 -416l-128 -48q-128 232 -128 464t128 464z" />
    <glyph glyph-name="parenright.case" horiz-adv-x="336" 
d="M32 752l128 48q128 -232 128 -464t-128 -464l-128 48q128 194 128 416t-128 416z" />
    <glyph glyph-name="emdash.case" horiz-adv-x="608" 
d="M560 288h-512v96h512v-96z" />
    <glyph glyph-name="endash.case" horiz-adv-x="512" 
d="M464 288h-416v96h416v-96z" />
    <glyph glyph-name="hyphen.case" horiz-adv-x="384" 
d="M336 288h-288v96h288v-96z" />
    <glyph glyph-name="guillemotleft.case" horiz-adv-x="640" 
d="M320 560l-160 -224l160 -224h-112l-160 224l160 224h112zM560 560l-160 -224l160 -224h-112l-160 224l160 224h112z" />
    <glyph glyph-name="guillemotright.case" horiz-adv-x="640" 
d="M80 560h112l160 -224l-160 -224h-112l160 224zM320 560h112l160 -224l-160 -224h-112l160 224z" />
    <glyph glyph-name="guilsinglleft.case" horiz-adv-x="400" 
d="M320 560l-160 -224l160 -224h-112l-160 224l160 224h112z" />
    <glyph glyph-name="guilsinglright.case" horiz-adv-x="400" 
d="M80 560h112l160 -224l-160 -224h-112l160 224z" />
    <glyph glyph-name="ampersand.ss01" horiz-adv-x="800" 
d="M752 320l-141 -140l140 -180h-172l-67 88q-112 -104 -231 -104q-100 0 -166.5 59.5t-66.5 145.5q0 85 58 146.5t156 78.5l-198 258h528v-128h-264l205 -263l38 39h181zM286 112q72 0 151 74l-95 123q-72 -1 -119 -34.5t-47 -76.5q0 -38 31.5 -62t78.5 -24z" />
    <glyph glyph-name="brevecy" horiz-adv-x="632" 
 />
    </font>
</defs>
</svg>
