<?xml version="1.0" standalone="no"?>
<!DOCTYPE svg PUBLIC "-//W3C//DTD SVG 1.1//EN" "http://www.w3.org/Graphics/SVG/1.1/DTD/svg11.dtd" >
<svg xmlns="http://www.w3.org/2000/svg" xmlns:xlink="http://www.w3.org/1999/xlink" version="1.1">
<metadata>
Created by FontForge 20170731 at Wed Jun  8 02:40:46 2016
 By Aleksey,,,
Copyright (c) Milos Mitrovic, 2016. All rights reserved.
</metadata>
<defs>
<font id="NoirPro-Bold" horiz-adv-x="656" >
  <font-face 
    font-family="Noir Pro Bold"
    font-weight="700"
    font-stretch="normal"
    units-per-em="1000"
    panose-1="0 0 8 0 0 0 0 0 0 0"
    ascent="800"
    descent="-200"
    x-height="512"
    cap-height="672"
    bbox="-192 -304 1192 1152"
    underline-thickness="50"
    underline-position="-200"
    unicode-range="U+0020-25CA"
  />
<missing-glyph horiz-adv-x="528" 
d="M433 800v-1056h-335v1056h335zM352 729h-175v-35h69v-39h-70v-35h176v35h-70v39h70v35zM282 593h-106v-110h176v36h-70v74zM246 557v-38h-35v38h35zM352 455h-176v-35h70v-39h-70v-35h106v74h70v35zM352 391h-35v-69h-141v-36h176v105zM352 262h-106v-59h36v25h35v-50
h-106v84h-35v-119h176v119zM352 80h-176v-120h176v120zM317 45v-50h-106v50h106zM352 -64h-176v-35h74l-74 -49v-35h176v35h-108l74 49h34v35z" />
    <glyph glyph-name=".notdef" horiz-adv-x="528" 
d="M433 800v-1056h-335v1056h335zM352 729h-175v-35h69v-39h-70v-35h176v35h-70v39h70v35zM282 593h-106v-110h176v36h-70v74zM246 557v-38h-35v38h35zM352 455h-176v-35h70v-39h-70v-35h106v74h70v35zM352 391h-35v-69h-141v-36h176v105zM352 262h-106v-59h36v25h35v-50
h-106v84h-35v-119h176v119zM352 80h-176v-120h176v120zM317 45v-50h-106v50h106zM352 -64h-176v-35h74l-74 -49v-35h176v35h-108l74 49h34v35z" />
    <glyph glyph-name=".null" horiz-adv-x="0" 
 />
    <glyph glyph-name="nonmarkingreturn" horiz-adv-x="333" 
 />
    <glyph glyph-name="space" unicode=" " horiz-adv-x="288" 
 />
    <glyph glyph-name="exclam" unicode="!" horiz-adv-x="304" 
d="M88 224l-32 448h192l-32 -448h-128zM152 -16q-40 0 -68 28t-28 68t28 68t68 28t68 -28t28 -68t-28 -68t-68 -28z" />
    <glyph glyph-name="quotedbl" unicode="&#x22;" horiz-adv-x="448" 
d="M184 416h-128l-16 256h160zM392 416h-128l-16 256h160z" />
    <glyph glyph-name="numbersign" unicode="#" horiz-adv-x="720" 
d="M680 392h-127l-18 -112h97v-112h-116l-28 -168h-128l28 168h-112l-28 -168h-128l28 168h-108v112h127l18 112h-97v112h116l28 168h128l-28 -168h112l28 168h128l-28 -168h108v-112zM295 280h112l18 112h-112z" />
    <glyph glyph-name="dollar" unicode="$" horiz-adv-x="640" 
d="M616 219q0 -96 -63.5 -159.5t-192.5 -73.5v-66h-64v64q-75 3 -143 28t-99 48l-30 24l71 153q44 -34 98.5 -53.5t86.5 -21.5l32 -2q112 -4 112 41q0 20 -24.5 28.5t-98.5 20.5q-261 41 -261 220q0 88 65.5 148.5t190.5 68.5v65h64v-65q151 -15 224 -79l-76 -144
q-7 5 -21 13t-64.5 21.5t-110.5 13.5q-80 0 -80 -32q0 -17 18 -25.5t70 -15.5q48 -6 82.5 -13t78 -23t70.5 -38t46 -59.5t19 -86.5z" />
    <glyph glyph-name="percent" unicode="%" horiz-adv-x="848" 
d="M209 352q-70 0 -119.5 49t-49.5 119q0 69 49.5 118.5t119.5 49.5q69 0 118 -49.5t49 -118.5q0 -70 -49 -119t-118 -49zM246 0h-112l468 672h112zM208 464q22 0 39 17t17 39t-17 39t-39 17t-39 -17t-17 -39t17 -39t39 -17zM641 -16q-70 0 -119.5 49t-49.5 119
q0 69 49.5 118.5t119.5 49.5q69 0 118 -49.5t49 -118.5q0 -70 -49 -119t-118 -49zM640 96q22 0 39 17t17 39t-17 39t-39 17t-39 -17t-17 -39t17 -39t39 -17z" />
    <glyph glyph-name="ampersand" unicode="&#x26;" horiz-adv-x="832" 
d="M792 320l-170 -166l169 -154h-239l-49 46q-97 -62 -199 -62q-111 0 -187.5 59.5t-76.5 164.5q0 60 35 102.5t82 59.5q-72 61 -69 141q2 70 75.5 123.5t180.5 53.5q112 0 184 -52t72 -134q0 -37 -12 -65.5t-36.5 -48t-47.5 -32t-57 -27.5q-8 -3 -12 -5l78 -71l71 67h208z
M331 418q45 18 63 36t14 45q-3 20 -21 32.5t-46 12.5q-30 0 -46.5 -13.5t-16.5 -34.5q0 -31 53 -78zM318 128q42 0 74 22l-128 120q-32 -19 -32 -66q0 -30 24.5 -53t61.5 -23z" />
    <glyph glyph-name="quotesingle" unicode="'" horiz-adv-x="240" 
d="M184 416h-128l-16 256h160z" />
    <glyph glyph-name="parenleft" unicode="(" horiz-adv-x="368" 
d="M344 720q-128 -194 -128 -416t128 -416l-176 -48q-128 232 -128 464t128 464z" />
    <glyph glyph-name="parenright" unicode=")" horiz-adv-x="368" 
d="M24 720l176 48q128 -232 128 -464t-128 -464l-176 48q128 194 128 416t-128 416z" />
    <glyph glyph-name="asterisk" unicode="*" horiz-adv-x="416" 
d="M253 605l89 39l34 -97l-94 -26l60 -74l-79 -59l-55 78l-54 -78l-79 59l60 74l-95 26l34 97l90 -39l-4 99h98z" />
    <glyph glyph-name="plus" unicode="+" horiz-adv-x="512" 
d="M472 360v-112h-160v-160h-112v160h-160v112h160v160h112v-160h160z" />
    <glyph glyph-name="comma" unicode="," horiz-adv-x="320" 
d="M24 -128l64 288h192l-128 -288h-128z" />
    <glyph glyph-name="hyphen" unicode="-" horiz-adv-x="400" 
d="M360 200h-320v128h320v-128z" />
    <glyph glyph-name="period" unicode="." horiz-adv-x="272" 
d="M136 -16q-40 0 -68 28t-28 68t28 68t68 28t68 -28t28 -68t-28 -68t-68 -28z" />
    <glyph glyph-name="slash" unicode="/" horiz-adv-x="528" 
d="M168 -80h-128l320 832h128z" />
    <glyph glyph-name="zero" unicode="0" horiz-adv-x="688" 
d="M344 688q133 0 218.5 -102t85.5 -250t-85.5 -250t-218.5 -102q-135 0 -219.5 101.5t-84.5 250.5q0 148 85 250t219 102zM344 160q46 0 79 51.5t33 124.5t-33 124.5t-79 51.5t-79 -51.5t-33 -124.5t33 -124.5t79 -51.5z" />
    <glyph glyph-name="one" unicode="1" horiz-adv-x="464" 
d="M56 608l336 80v-688h-192v473l-144 -28v163z" />
    <glyph glyph-name="two" unicode="2" 
d="M40 432q0 100 73 178t200 78q130 0 208.5 -68.5t78.5 -178.5q0 -67 -49 -137t-141 -128h206v-176h-576l288 304q78 83 78 128q0 37 -24 58.5t-62 21.5q-39 0 -66 -26t-27 -70z" />
    <glyph glyph-name="three" unicode="3" 
d="M520 355q43 -21 69.5 -60t26.5 -87q0 -86 -74 -155t-214 -69q-126 0 -207 60.5t-81 179.5l192 16q0 -92 103 -92q36 0 59 18t23 45q0 37 -36 53t-107 16v128h14.5t32.5 3t40.5 8.5t32 19t14.5 32.5q0 22 -23 38.5t-57 16.5q-40 0 -67 -21.5t-29 -64.5l-176 16
q12 112 85 172t187 60q126 0 199 -61t73 -147q0 -83 -80 -125z" />
    <glyph glyph-name="four" unicode="4" horiz-adv-x="688" 
d="M568 272h80v-160h-80v-112h-192v112h-336v144l288 416h240v-400zM376 272v208l-128 -208h128z" />
    <glyph glyph-name="five" unicode="5" 
d="M360 448q122 0 189 -52t67 -156q0 -119 -81 -187.5t-215 -68.5q-123 0 -201.5 59.5t-78.5 164.5l199 12q5 -33 30 -54.5t59 -21.5q38 0 64.5 25.5t26.5 62.5q0 35 -25.5 53.5t-65.5 18.5q-53 0 -80 -32h-193l51 400h446v-176h-288l-6 -64q15 7 40.5 11t43.5 5h18z" />
    <glyph glyph-name="six" unicode="6" 
d="M380 480q112 0 174 -67.5t62 -156.5q0 -123 -79.5 -197.5t-208.5 -74.5q-135 0 -211.5 72.5t-76.5 205.5q0 22 2.5 45t16.5 69t38 89.5t72 100t114 106.5h285q-6 -3 -17.5 -8.5t-44 -24.5t-62 -41t-66 -56.5t-63.5 -71.5q21 10 65 10zM328 160q40 0 68 23.5t28 56.5
t-28 56.5t-68 23.5t-68 -23.5t-28 -56.5t28 -56.5t68 -23.5z" />
    <glyph glyph-name="seven" unicode="7" horiz-adv-x="624" 
d="M40 672h592l-304 -672h-224l240 496h-304v176z" />
    <glyph glyph-name="eight" unicode="8" 
d="M530 355q39 -19 62.5 -58.5t23.5 -88.5q0 -96 -76.5 -160t-211.5 -64t-211.5 64t-76.5 160q0 49 23.5 88.5t62.5 58.5q-72 43 -72 125q0 89 77.5 148.5t196.5 59.5q120 0 197 -60t77 -148q0 -82 -72 -125zM328 528q-36 0 -62 -18.5t-26 -45.5t26 -45.5t62 -18.5t62 18.5
t26 45.5t-26 45.5t-62 18.5zM328 144q40 0 68 21t28 51t-28 51t-68 21t-68 -21t-28 -51t28 -51t68 -21z" />
    <glyph glyph-name="nine" unicode="9" 
d="M276 192q-112 0 -174 67.5t-62 156.5q0 123 79.5 197.5t208.5 74.5q135 0 211.5 -72.5t76.5 -205.5q0 -22 -2.5 -45t-16.5 -69t-38 -89.5t-72 -100t-114 -106.5h-285q6 3 17.5 8.5t44 24.5t62 41t66 56.5t63.5 71.5q-21 -10 -65 -10zM328 512q-40 0 -68 -23.5t-28 -56.5
t28 -56.5t68 -23.5t68 23.5t28 56.5t-28 56.5t-68 23.5z" />
    <glyph glyph-name="colon" unicode=":" horiz-adv-x="272" 
d="M136 336q-40 0 -68 28t-28 68t28 68t68 28t68 -28t28 -68t-28 -68t-68 -28zM136 -16q-40 0 -68 28t-28 68t28 68t68 28t68 -28t28 -68t-28 -68t-68 -28z" />
    <glyph glyph-name="semicolon" unicode=";" horiz-adv-x="320" 
d="M184 336q-40 0 -68 28t-28 68t28 68t68 28t68 -28t28 -68t-28 -68t-68 -28zM24 -128l64 288h192l-128 -288h-128z" />
    <glyph glyph-name="less" unicode="&#x3c;" horiz-adv-x="544" 
d="M504 32l-464 224v96l464 224v-128l-320 -144l320 -144v-128z" />
    <glyph glyph-name="equal" unicode="=" horiz-adv-x="512" 
d="M40 448h432v-112h-432v112zM40 272h432v-112h-432v112z" />
    <glyph glyph-name="greater" unicode="&#x3e;" horiz-adv-x="544" 
d="M40 32v128l320 144l-320 144v128l464 -224v-96z" />
    <glyph glyph-name="question" unicode="?" horiz-adv-x="568" 
d="M280 688q131 0 189.5 -54.5t58.5 -137.5q0 -49 -21 -80t-75 -80q-20 -18 -32.5 -31.5t-26 -40.5t-13.5 -56h-160q0 98 52 152q11 11 30 29t26 25.5t13.5 19t6.5 22.5q0 61 -89 61q-82 0 -130 -49l-69 140q93 80 240 80zM280 176q40 0 68 -28t28 -68t-28 -68t-68 -28
t-68 28t-28 68t28 68t68 28z" />
    <glyph glyph-name="at" unicode="@" horiz-adv-x="1064" 
d="M1024 330q0 -112 -66.5 -189t-160.5 -77q-68 0 -114 24.5t-63 64.5q-23 -32 -60.5 -52.5t-82.5 -20.5q-93 0 -144.5 66.5t-44.5 151.5q8 93 66 153.5t149 60.5q40 0 73 -19t48 -43l4 46h132l-23 -236q-7 -72 63 -73q11 0 24.5 5t31 18t29 43t11.5 73q0 137 -107.5 233.5
t-252.5 96.5q-152 0 -260 -108t-108 -260t108 -260t260 -108q73 0 144 29l37 -123q-87 -34 -181 -34q-135 0 -249 66.5t-180.5 180.5t-66.5 249t66.5 249t180.5 180.5t249 66.5q126 0 238.5 -61t181 -166.5t68.5 -226.5zM608 296q3 37 -24.5 70.5t-64.5 33.5
q-40 0 -69.5 -27t-33.5 -75q-5 -53 23 -79.5t74 -26.5q38 0 64.5 28t30.5 76z" />
    <glyph glyph-name="A" unicode="A" horiz-adv-x="720" 
d="M450 672l278 -672h-195l-43 112h-260l-43 -112h-195l278 672h180zM286 256h148l-74 192z" />
    <glyph glyph-name="B" unicode="B" 
d="M519 361q59 -13 86 -57.5t27 -101.5q0 -89 -62 -145.5t-168 -56.5h-346v672h288q118 0 187 -45.5t69 -130.5q0 -49 -22.5 -85.5t-58.5 -49.5zM248 528v-112h80q80 0 80 56t-80 56h-80zM344 144q96 0 96 64t-96 64h-96v-128h96z" />
    <glyph glyph-name="C" unicode="C" 
d="M407 160q92 0 152 68l73 -163q-44 -38 -106.5 -59.5t-123.5 -21.5q-156 0 -267 103.5t-111 248.5t111 248.5t267 103.5q61 0 123.5 -21t106.5 -59l-73 -164q-60 68 -152 68q-79 0 -135 -51.5t-56 -124.5t56 -124.5t135 -51.5z" />
    <glyph glyph-name="D" unicode="D" horiz-adv-x="704" 
d="M327 672q167 0 260 -95t93 -241q0 -145 -94.5 -240.5t-258.5 -95.5h-271v672h271zM344 176q52 0 98 48t46 112t-46 112t-98 48h-96v-320h96z" />
    <glyph glyph-name="E" unicode="E" horiz-adv-x="544" 
d="M504 496h-256v-80h208v-160h-208v-80h256v-176h-448v672h448v-176z" />
    <glyph glyph-name="F" unicode="F" horiz-adv-x="528" 
d="M248 0h-192v672h448v-176h-256v-80h208v-160h-208v-256z" />
    <glyph glyph-name="G" unicode="G" horiz-adv-x="752" 
d="M722 400q6 -33 6 -64q0 -147 -98 -249.5t-246 -102.5q-149 0 -254.5 103t-105.5 249t105.5 249t254.5 103q104 0 184 -51.5t127 -140.5l-181 -49q-50 65 -130 65q-70 0 -119 -51.5t-49 -124.5t49 -124.5t119 -51.5q49 0 87.5 26t58.5 70h-186v144h378z" />
    <glyph glyph-name="H" unicode="H" horiz-adv-x="720" 
d="M472 672h192v-672h-192v248h-224v-248h-192v672h192v-248h224v248z" />
    <glyph glyph-name="I" unicode="I" horiz-adv-x="304" 
d="M248 0h-192v672h192v-672z" />
    <glyph glyph-name="J" unicode="J" horiz-adv-x="512" 
d="M280 672h192v-416q0 -134 -75.5 -203t-208.5 -69q-46 0 -92.5 18t-71.5 46l83 151q28 -39 77 -39q42 0 69 24.5t27 71.5v416z" />
    <glyph glyph-name="K" unicode="K" horiz-adv-x="704" 
d="M424 352l272 -352h-240l-208 288v-288h-192v672h192v-256l192 256h240z" />
    <glyph glyph-name="L" unicode="L" horiz-adv-x="528" 
d="M248 176h256v-176h-448v672h192v-496z" />
    <glyph glyph-name="M" unicode="M" horiz-adv-x="880" 
d="M792 672l64 -672h-192l-32 352l-112 -352h-160l-112 352l-32 -352h-192l64 672h192l160 -400l160 400h192z" />
    <glyph glyph-name="N" unicode="N" horiz-adv-x="752" 
d="M504 672h192v-672h-192l-256 368v-368h-192v672h192l256 -368v368z" />
    <glyph glyph-name="O" unicode="O" horiz-adv-x="784" 
d="M392 688q152 0 260 -103t108 -249t-108 -249t-260 -103t-260 103t-108 249t108 249t260 103zM392 160q73 0 124.5 51.5t51.5 124.5t-51.5 124.5t-124.5 51.5t-124.5 -51.5t-51.5 -124.5t51.5 -124.5t124.5 -51.5z" />
    <glyph glyph-name="P" unicode="P" horiz-adv-x="640" 
d="M360 672q127 0 191.5 -61t64.5 -163t-60.5 -171t-163.5 -69h-144v-208h-192v672h304zM342 368q36 0 59 18t23 54q0 35 -23 53.5t-59 18.5h-94v-144h94z" />
    <glyph glyph-name="Q" unicode="Q" horiz-adv-x="784" 
d="M673 109l103 -109h-192l-19 25q-82 -41 -173 -41q-152 0 -260 103t-108 249t108 249t260 103t260 -103t108 -249q0 -129 -87 -227zM544 247q24 42 24 89q0 73 -51.5 124.5t-124.5 51.5t-124.5 -51.5t-51.5 -124.5t51.5 -124.5t124.5 -51.5q31 0 61 11l-77 101h144z" />
    <glyph glyph-name="R" unicode="R" horiz-adv-x="672" 
d="M483 226l165 -226h-224l-139 208h-37v-208h-192v672h304q127 0 191.5 -61t64.5 -163q0 -76 -35 -135.5t-98 -86.5zM342 368q36 0 59 18t23 54q0 35 -23 53.5t-59 18.5h-94v-144h94z" />
    <glyph glyph-name="S" unicode="S" horiz-adv-x="640" 
d="M320 439q48 -6 82.5 -13t78 -23t70.5 -38t46 -59.5t19 -86.5q0 -105 -75 -170t-229 -65q-50 0 -98 10.5t-81 25t-58.5 29t-38.5 25.5l-12 10l71 153q44 -34 98.5 -53.5t86.5 -21.5l32 -2q112 -4 112 41q0 20 -24.5 28.5t-98.5 20.5q-261 41 -261 220q0 95 74 156.5
t216 61.5q18 0 47.5 -2t98 -22t108.5 -56l-76 -144q-7 5 -21 13t-64.5 21.5t-110.5 13.5q-80 0 -80 -32q0 -17 18 -25.5t70 -15.5z" />
    <glyph glyph-name="T" unicode="T" horiz-adv-x="592" 
d="M24 672h544v-176h-176v-496h-192v496h-176v176z" />
    <glyph glyph-name="U" unicode="U" horiz-adv-x="720" 
d="M472 672h208v-384q0 -135 -86 -219.5t-234 -84.5t-234 84.5t-86 219.5v384h208v-386q0 -60 33 -93t79 -33t79 33t33 93v386z" />
    <glyph glyph-name="V" unicode="V" horiz-adv-x="720" 
d="M264 0l-272 672h224l144 -402l144 402h224l-272 -672h-192z" />
    <glyph glyph-name="W" unicode="W" horiz-adv-x="1024" 
d="M600 672l96 -400l112 400h216l-224 -672h-200l-88 320l-88 -320h-200l-224 672h216l112 -400l96 400h176z" />
    <glyph glyph-name="X" unicode="X" horiz-adv-x="736" 
d="M500 352l228 -352h-226l-134 212l-134 -212h-226l228 352l-211 320h226l117 -188l117 188h226z" />
    <glyph glyph-name="Y" unicode="Y" horiz-adv-x="688" 
d="M472 672h224l-256 -400v-272h-192v272l-256 400h224l128 -208z" />
    <glyph glyph-name="Z" unicode="Z" horiz-adv-x="640" 
d="M600 0h-576l280 496h-264v176h576l-280 -496h264v-176z" />
    <glyph glyph-name="bracketleft" unicode="[" horiz-adv-x="368" 
d="M232 672v-720h80v-160h-256v1040h256v-160h-80z" />
    <glyph glyph-name="backslash" unicode="\" horiz-adv-x="528" 
d="M360 -80l-320 832h128l320 -832h-128z" />
    <glyph glyph-name="bracketright" unicode="]" horiz-adv-x="368" 
d="M136 672h-80v160h256v-1040h-256v160h80v720z" />
    <glyph glyph-name="asciicircum" unicode="^" horiz-adv-x="560" 
d="M40 432l176 272h128l176 -272h-128l-112 176l-112 -176h-128z" />
    <glyph glyph-name="underscore" unicode="_" horiz-adv-x="576" 
d="M552 -160h-528v128h528v-128z" />
    <glyph glyph-name="grave" unicode="`" horiz-adv-x="784" 
d="M504 736h-128l-160 160h192z" />
    <glyph glyph-name="a" unicode="a" 
d="M408 512h192v-512h-192v52q-57 -68 -144 -68q-100 0 -170 79.5t-70 192.5t70 192.5t170 79.5q87 0 144 -68v52zM312 144q40 0 68 33t28 79t-28 79t-68 33t-68 -33t-28 -79t28 -79t68 -33z" />
    <glyph glyph-name="b" unicode="b" 
d="M392 528q100 0 170 -79.5t70 -192.5t-70 -192.5t-170 -79.5q-87 0 -144 68v-52h-192v704h192v-244q57 68 144 68zM344 144q40 0 68 33t28 79t-28 79t-68 33t-68 -33t-28 -79t28 -79t68 -33z" />
    <glyph glyph-name="c" unicode="c" horiz-adv-x="528" 
d="M430 192l74 -145q-63 -63 -195 -63q-131 0 -208 78t-77 194t77.5 194t207.5 78q129 0 195 -63l-74 -145q-39 48 -102 48q-46 0 -79 -33t-33 -79t33 -79t79 -33q64 0 102 48z" />
    <glyph glyph-name="d" unicode="d" 
d="M408 704h192v-704h-192v52q-57 -68 -144 -68q-100 0 -170 79.5t-70 192.5t70 192.5t170 79.5q87 0 144 -68v244zM312 144q40 0 68 33t28 79t-28 79t-68 33t-68 -33t-28 -79t28 -79t68 -33z" />
    <glyph glyph-name="e" unicode="e" horiz-adv-x="576" 
d="M552 256q0 -16 -4 -48h-326q6 -30 38 -47t78 -17q36 0 69 8t48 16l15 8l49 -144q-8 -5 -23.5 -13t-67.5 -21.5t-108 -13.5q-147 0 -221.5 76.5t-74.5 195.5t70 195.5t202 76.5q123 0 189.5 -71.5t66.5 -200.5zM222 304h134q0 34 -17.5 57t-50.5 23q-29 0 -47.5 -24
t-18.5 -56z" />
    <glyph glyph-name="f" unicode="f" horiz-adv-x="432" 
d="M24 512h64q1 96 40 152t136 56q77 0 128 -16v-144q-67 12 -89.5 2.5t-22.5 -50.5h112v-160h-112v-352h-192v352h-64v160z" />
    <glyph glyph-name="g" unicode="g" 
d="M408 512h192v-464q0 -157 -78.5 -238.5t-225.5 -81.5q-60 0 -124 20t-98 40l-34 20l64 144q8 -6 23 -15t61 -23.5t93 -14.5q127 0 127 133v20q-57 -68 -144 -68q-100 0 -170 79.5t-70 192.5t70 192.5t170 79.5q87 0 144 -68v52zM312 144q40 0 68 33t28 79t-28 79t-68 33
t-68 -33t-28 -79t28 -79t68 -33z" />
    <glyph glyph-name="h" unicode="h" horiz-adv-x="624" 
d="M392 528q81 0 136.5 -58.5t55.5 -165.5v-304h-192v272q0 42 -21 61t-51 19q-29 0 -50.5 -20t-21.5 -60v-272h-192v704h192v-256q21 39 60 59.5t84 20.5z" />
    <glyph glyph-name="i" unicode="i" horiz-adv-x="304" 
d="M152 560q-43 0 -73.5 30.5t-30.5 73.5t30.5 73.5t73.5 30.5t73.5 -30.5t30.5 -73.5t-30.5 -73.5t-73.5 -30.5zM56 0v512h192v-512h-192z" />
    <glyph glyph-name="j" unicode="j" horiz-adv-x="304" 
d="M152 560q-43 0 -73.5 30.5t-30.5 73.5t30.5 73.5t73.5 30.5t73.5 -30.5t30.5 -73.5t-30.5 -73.5t-73.5 -30.5zM56 0v512h192v-496q0 -150 -63.5 -219t-192.5 -69l-32 160q39 0 67.5 27.5t28.5 84.5z" />
    <glyph glyph-name="k" unicode="k" horiz-adv-x="608" 
d="M408 268l208 -268h-224l-144 208v-208h-192v704h192v-384l128 192h224z" />
    <glyph glyph-name="l" unicode="l" horiz-adv-x="304" 
d="M56 704h192v-704h-192v704z" />
    <glyph glyph-name="m" unicode="m" horiz-adv-x="928" 
d="M712 528q79 0 127.5 -57.5t48.5 -166.5v-304h-192v272q0 80 -56 80q-29 0 -50.5 -20t-21.5 -60v-272h-192v272q0 80 -56 80q-29 0 -50.5 -20t-21.5 -60v-272h-192v512h192v-64q21 39 60 59.5t84 20.5q96 0 142 -79q64 79 178 79z" />
    <glyph glyph-name="n" unicode="n" horiz-adv-x="624" 
d="M392 528q81 0 136.5 -58.5t55.5 -165.5v-304h-192v272q0 42 -21 61t-51 19q-29 0 -50.5 -20t-21.5 -60v-272h-192v512h192v-64q21 39 60 59.5t84 20.5z" />
    <glyph glyph-name="o" unicode="o" horiz-adv-x="624" 
d="M312 528q126 0 207 -79t81 -193q0 -115 -81 -193.5t-207 -78.5q-131 0 -209.5 78t-78.5 194t78 194t210 78zM312 144q40 0 68 33t28 79t-28 79t-68 33t-68 -33t-28 -79t28 -79t68 -33z" />
    <glyph glyph-name="p" unicode="p" 
d="M392 528q100 0 170 -79.5t70 -192.5t-70 -192.5t-170 -79.5q-87 0 -144 68v-308h-192v768h192v-52q57 68 144 68zM344 144q40 0 68 33t28 79t-28 79t-68 33t-68 -33t-28 -79t28 -79t68 -33z" />
    <glyph glyph-name="q" unicode="q" 
d="M264 528q87 0 144 -68v52h192v-768h-192v308q-57 -68 -144 -68q-100 0 -170 79.5t-70 192.5t70 192.5t170 79.5zM312 144q40 0 68 33t28 79t-28 79t-68 33t-68 -33t-28 -79t28 -79t68 -33z" />
    <glyph glyph-name="r" unicode="r" horiz-adv-x="464" 
d="M248 407q48 111 192 121v-217q-36 22 -80 21q-41 -3 -76.5 -36t-35.5 -87v-209h-192v512h192v-105z" />
    <glyph glyph-name="s" unicode="s" horiz-adv-x="560" 
d="M299 340q60 -7 97.5 -16t72.5 -27.5t51 -50.5t16 -80q0 -84 -64 -133t-199 -49q-71 0 -133 18t-89 36l-27 18l48 136q31 -21 74.5 -35.5t71.5 -18.5l27 -4q99 -11 99 14q0 11 -14.5 16t-76.5 14q-213 30 -213 158q0 86 67.5 139t200.5 53q116 -1 196 -43l-48 -137
q-58 32 -160 34q-64 1 -64 -17q0 -16 36 -21q8 -1 26 -3l1 -1h1h1h1h1z" />
    <glyph glyph-name="t" unicode="t" horiz-adv-x="416" 
d="M376 352h-96v-128q0 -57 17.5 -74t78.5 -6v-144q-52 -16 -128 -16q-87 0 -123 42.5t-37 130.5v195h-64v160h64v160h192v-160h96v-160z" />
    <glyph glyph-name="u" unicode="u" horiz-adv-x="624" 
d="M232 -16q-81 0 -136.5 58.5t-55.5 165.5v304h192v-272q0 -42 21 -61t51 -19q29 0 50.5 20t21.5 60v272h192v-512h-192v64q-21 -39 -60 -59.5t-84 -20.5z" />
    <glyph glyph-name="v" unicode="v" horiz-adv-x="560" 
d="M200 0l-208 512h192l96 -272l91 272h197l-208 -512h-160z" />
    <glyph glyph-name="w" unicode="w" horiz-adv-x="832" 
d="M640 512h192l-176 -512h-160l-80 248l-80 -248h-160l-176 512h192l68 -264l80 264h152l80 -264z" />
    <glyph glyph-name="x" unicode="x" horiz-adv-x="608" 
d="M424 272l176 -272h-200l-96 144l-96 -144h-200l176 272l-160 240h200l80 -128l80 128h200z" />
    <glyph glyph-name="y" unicode="y" horiz-adv-x="560" 
d="M264 -256h-192l112 272l-192 496h192l96 -272l96 272h192z" />
    <glyph glyph-name="z" unicode="z" horiz-adv-x="560" 
d="M520 0h-496l224 352h-208v160h496l-224 -352h208v-160z" />
    <glyph glyph-name="braceleft" unicode="{" horiz-adv-x="432" 
d="M312 -22q0 -39 20 -68t60 -38l-112 -96q-144 53 -144 182v234q0 40 -31.5 71.5t-64.5 40.5q33 9 64.5 40.5t31.5 71.5v234q0 129 144 182l112 -96q-40 -9 -60 -38t-20 -68v-180q0 -114 -75 -146q75 -32 75 -146v-180z" />
    <glyph glyph-name="bar" unicode="|" horiz-adv-x="224" 
d="M168 -256h-112v1024h112v-1024z" />
    <glyph glyph-name="braceright" unicode="}" horiz-adv-x="432" 
d="M120 -22v180q0 114 75 146q-75 32 -75 146v180q0 39 -20 68t-60 38l112 96q144 -53 144 -182v-234q0 -40 31.5 -71.5t64.5 -40.5q-33 -9 -64.5 -40.5t-31.5 -71.5v-234q0 -129 -144 -182l-112 96q40 9 60 38t20 68z" />
    <glyph glyph-name="asciitilde" unicode="~" horiz-adv-x="576" 
d="M447 368l89 -34q-54 -112 -151 -112q-33 0 -107 29q-71 28 -91 27q-36 0 -58 -54l-89 30q54 112 151 112q31 0 107 -30q30 -12 43.5 -16.5t33 -8t29.5 2t22 18.5t21 36z" />
    <glyph glyph-name="exclamdown" unicode="&#xa1;" horiz-adv-x="304" 
d="M152 528q40 0 68 -28t28 -68t-28 -68t-68 -28t-68 28t-28 68t28 68t68 28zM88 288h128l32 -448h-192z" />
    <glyph glyph-name="cent" unicode="&#xa2;" horiz-adv-x="528" 
d="M430 192l74 -145q-53 -53 -160 -62v-65h-64v65q-118 9 -187 85t-69 186q0 109 69 185t187 86v65h64v-66q104 -7 160 -61l-74 -145q-39 48 -102 48q-46 0 -79 -33t-33 -79t33 -79t79 -33q64 0 102 48z" />
    <glyph glyph-name="sterling" unicode="&#xa3;" horiz-adv-x="608" 
d="M488 208l96 -110q-59 -114 -163 -114q-59 0 -117 23q-129 52 -170 -7l-110 112q12 30 49 56q45 32 43 112h-92v112h65q-17 51 -17 104q0 82 71.5 137t184.5 55q131 0 224 -80l-69 -144q-22 34 -59.5 49t-65.5 15q-96 0 -96 -71q0 -17 17 -65h113v-112h-100q1 -29 -7 -59
t-21 -44q46 -24 90 -31.5t81.5 7.5t52.5 55z" />
    <glyph glyph-name="currency" unicode="&#xa4;" horiz-adv-x="510" 
d="M422 320q0 -45 -24 -87l72 -71l-55 -57l-73 71q-40 -24 -87 -24q-50 0 -89 24l-71 -71l-55 56l70 72q-24 39 -24 87q0 50 24 87l-70 73l57 55l72 -75q49 28 86 28q41 0 87 -28l71 75l57 -55l-72 -73q24 -39 24 -87zM254 264q22 0 39 17t17 39t-17 39t-39 17t-39 -17
t-17 -39t17 -39t39 -17z" />
    <glyph glyph-name="yen" unicode="&#xa5;" horiz-adv-x="752" 
d="M728 672l-251 -392h75v-64h-80v-48h80v-64h-80v-104h-192v104h-80v64h80v48h-80v64h75l-251 392h224l128 -208l128 208h224z" />
    <glyph glyph-name="brokenbar" unicode="&#xa6;" horiz-adv-x="224" 
d="M168 416h-112v352h112v-352zM168 -256h-112v352h112v-352z" />
    <glyph glyph-name="section" unicode="&#xa7;" horiz-adv-x="672" 
d="M632 315q0 -82 -43 -132q43 -48 43 -124q0 -105 -75 -170t-229 -65q-50 0 -98 10.5t-81 25t-58.5 29t-38.5 25.5l-12 10l71 153q44 -34 98.5 -53.5t86.5 -21.5l32 -2q112 -4 112 41q0 20 -24.5 28.5t-98.5 20.5q-261 41 -261 220q0 76 46 129q-46 50 -46 127
q0 95 74 156.5t216 61.5q18 0 47.5 -2t98 -22t108.5 -56l-76 -144q-7 5 -21 13t-64.5 21.5t-110.5 13.5q-80 0 -80 -32q0 -17 18 -25.5t70 -15.5q48 -6 82.5 -13t78 -23t70.5 -38t46 -59.5t19 -86.5zM336 279q45 -5 80 -13q24 11 24 31q0 7 -3 12.5t-10.5 10t-15 7.5t-22 6
t-25 5t-30 5.5t-32.5 6.5q-26 5 -40 -3.5t-14 -26.5q0 -17 18 -25.5t70 -15.5z" />
    <glyph glyph-name="dieresis" unicode="&#xa8;" horiz-adv-x="784" 
d="M280 736q-33 0 -56.5 23.5t-23.5 56.5t23.5 56.5t56.5 23.5t56.5 -23.5t23.5 -56.5t-23.5 -56.5t-56.5 -23.5zM504 736q-33 0 -56.5 23.5t-23.5 56.5t23.5 56.5t56.5 23.5t56.5 -23.5t23.5 -56.5t-23.5 -56.5t-56.5 -23.5z" />
    <glyph glyph-name="copyright" unicode="&#xa9;" horiz-adv-x="752" 
d="M376 104q-142 0 -239 98t-97 238q0 142 97 239t239 97t239 -97t97 -239t-97 -239t-239 -97zM376 192q104 0 176 72t72 176t-72 176t-176 72t-176 -72t-72 -176t72 -176t176 -72zM395 362q40 0 67 30l33 -72q-42 -36 -102 -36q-69 0 -118.5 46t-49.5 110t49.5 110
t118.5 46q61 0 102 -35l-33 -73q-27 30 -67 30q-35 0 -60 -23t-25 -55t25 -55t60 -23z" />
    <glyph glyph-name="ordfeminine" unicode="&#xaa;" horiz-adv-x="368" 
d="M232 672h96v-256h-96v26q-28 -34 -72 -34q-50 0 -85 40t-35 96t35 96t85 40q44 0 72 -34v26zM184 488q20 0 34 16.5t14 39.5t-14 39.5t-34 16.5t-34 -16.5t-14 -39.5t14 -39.5t34 -16.5z" />
    <glyph glyph-name="guillemotleft" unicode="&#xab;" horiz-adv-x="672" 
d="M344 512l-160 -240l160 -240h-144l-160 240l160 240h144zM600 512l-160 -240l160 -240h-144l-160 240l160 240h144z" />
    <glyph glyph-name="logicalnot" unicode="&#xac;" horiz-adv-x="640" 
d="M600 360v-248h-112v136h-448v112h560z" />
    <glyph glyph-name="registered" unicode="&#xae;" horiz-adv-x="752" 
d="M376 104q-142 0 -239 98t-97 238q0 142 97 239t239 97t239 -97t97 -239t-97 -239t-239 -97zM376 192q104 0 176 72t72 176t-72 176t-176 72t-176 -72t-72 -176t72 -176t176 -72zM446 391l74 -101h-100l-62 93h-16v-93h-86v300h136q56 0 85 -27.5t29 -72.5q0 -33 -16 -60
t-44 -39zM384 454q36 0 36 32q0 16 -10 24.5t-26 8.5h-42v-65h42z" />
    <glyph glyph-name="macron" unicode="&#xaf;" horiz-adv-x="784" 
d="M552 752h-320v96h320v-96z" />
    <glyph glyph-name="degree" unicode="&#xb0;" horiz-adv-x="416" 
d="M209 352q-70 0 -119.5 49t-49.5 119q0 69 49.5 118.5t119.5 49.5q69 0 118 -49.5t49 -118.5q0 -70 -49 -119t-118 -49zM208 464q22 0 39 17t17 39t-17 39t-39 17t-39 -17t-17 -39t17 -39t39 -17z" />
    <glyph glyph-name="plusminus" unicode="&#xb1;" horiz-adv-x="512" 
d="M472 480v-112h-160v-160h-112v160h-160v112h160v160h112v-160h160zM40 136h432v-112h-432v112z" />
    <glyph glyph-name="uni00B2" unicode="&#xb2;" horiz-adv-x="368" 
d="M40 632q0 50 36.5 89t100.5 39q65 0 104 -34t39 -89q0 -72 -95 -133h103v-88h-288l144 152q39 41 39 64q0 18 -12 29t-31 11t-32.5 -13t-13.5 -35z" />
    <glyph glyph-name="uni00B3" unicode="&#xb3;" horiz-adv-x="368" 
d="M280 594q48 -24 48 -74q0 -43 -37 -77.5t-107 -34.5q-63 0 -103.5 30.5t-40.5 89.5l96 8q0 -46 52 -46q18 0 29.5 9t11.5 23q0 34 -72 34v64h7.5t16 1.5t20.5 4.5t16 9.5t7 16.5q0 11 -11.5 19t-28.5 8q-45 0 -48 -43l-88 8q6 56 42.5 86t93.5 30q63 0 99.5 -30.5
t36.5 -73.5q0 -42 -40 -62z" />
    <glyph glyph-name="acute" unicode="&#xb4;" horiz-adv-x="784" 
d="M280 736l96 160h192l-160 -160h-128z" />
    <glyph glyph-name="paragraph" unicode="&#xb6;" horiz-adv-x="736" 
d="M696 544h-80v-772h-128v772h-128v-772h-128v500q-82 0 -137 58t-55 142t55 142t137 58h464v-128z" />
    <glyph glyph-name="periodcentered" unicode="&#xb7;" horiz-adv-x="272" 
d="M136 240q-40 0 -68 28t-28 68t28 68t68 28t68 -28t28 -68t-28 -68t-68 -28z" />
    <glyph glyph-name="cedilla" unicode="&#xb8;" horiz-adv-x="784" 
d="M362 0h97l-45 -48q52 6 89 -25.5t37 -86.5q0 -62 -45.5 -103t-114.5 -41q-92 0 -128 63l62 77q21 -48 66 -52q32 -3 53 15.5t21 40.5q0 26 -15.5 41t-39.5 15q-32 0 -56 -19l-43 59z" />
    <glyph glyph-name="uni00B9" unicode="&#xb9;" horiz-adv-x="360" 
d="M88 728l168 40v-344h-96v237l-72 -14v81z" />
    <glyph glyph-name="ordmasculine" unicode="&#xba;" horiz-adv-x="368" 
d="M184 680q63 0 103.5 -39.5t40.5 -96.5t-40.5 -96.5t-103.5 -39.5q-65 0 -104.5 39t-39.5 97t39 97t105 39zM184 488q20 0 34 16.5t14 39.5t-14 39.5t-34 16.5t-34 -16.5t-14 -39.5t14 -39.5t34 -16.5z" />
    <glyph glyph-name="guillemotright" unicode="&#xbb;" horiz-adv-x="672" 
d="M72 512h144l160 -240l-160 -240h-144l160 240zM328 512h144l160 -240l-160 -240h-144l160 240z" />
    <glyph glyph-name="onequarter" unicode="&#xbc;" horiz-adv-x="924" 
d="M88 640l168 40v-344h-96v237l-72 -14v81zM280 0h-112l468 672h112zM844 136h40v-80h-40v-56h-96v56h-168v72l144 208h120v-200zM748 136v104l-64 -104h64z" />
    <glyph glyph-name="onehalf" unicode="&#xbd;" horiz-adv-x="924" 
d="M88 640l168 40v-344h-96v237l-72 -14v81zM280 0h-112l468 672h112zM596 216q0 50 36.5 89t100.5 39q65 0 104 -34t39 -89q0 -72 -95 -133h103v-88h-288l144 152q39 41 39 64q0 18 -12 29t-31 11t-32.5 -13t-13.5 -35z" />
    <glyph glyph-name="threequarters" unicode="&#xbe;" horiz-adv-x="932" 
d="M280 514q48 -24 48 -74q0 -43 -37 -77.5t-107 -34.5q-63 0 -103.5 30.5t-40.5 89.5l96 8q0 -46 52 -46q18 0 29.5 9t11.5 23q0 34 -72 34v64h7.5t16 1.5t20.5 4.5t16 9.5t7 16.5q0 11 -11.5 19t-28.5 8q-45 0 -48 -43l-88 8q6 56 42.5 86t93.5 30q63 0 99.5 -30.5
t36.5 -73.5q0 -42 -40 -62zM288 0h-112l468 672h112zM852 136h40v-80h-40v-56h-96v56h-168v72l144 208h120v-200zM756 136v104l-64 -104h64z" />
    <glyph glyph-name="questiondown" unicode="&#xbf;" horiz-adv-x="568" 
d="M288 336q-40 0 -68 28t-28 68t28 68t68 28t68 -28t28 -68t-28 -68t-68 -28zM288 -176q-131 0 -189.5 54.5t-58.5 137.5q0 49 21 80t75 80q20 18 32.5 31.5t26 40.5t13.5 56h160q0 -98 -52 -152q-11 -11 -30 -29t-26 -25.5t-13.5 -19t-6.5 -22.5q0 -61 89 -61q82 0 130 49
l69 -140q-93 -80 -240 -80z" />
    <glyph glyph-name="Agrave" unicode="&#xc0;" horiz-adv-x="720" 
d="M456 736h-128l-160 160h192zM450 672l278 -672h-195l-43 112h-260l-43 -112h-195l278 672h180zM286 256h148l-74 192z" />
    <glyph glyph-name="Aacute" unicode="&#xc1;" horiz-adv-x="720" 
d="M264 736l96 160h192l-160 -160h-128zM450 672l278 -672h-195l-43 112h-260l-43 -112h-195l278 672h180zM286 256h148l-74 192z" />
    <glyph glyph-name="Acircumflex" unicode="&#xc2;" horiz-adv-x="720" 
d="M408 736l-48 80l-48 -80h-160l160 160h96l160 -160h-160zM450 672l278 -672h-195l-43 112h-260l-43 -112h-195l278 672h180zM286 256h148l-74 192z" />
    <glyph glyph-name="Atilde" unicode="&#xc3;" horiz-adv-x="720" 
d="M488 864l88 -30q-46 -98 -128 -98q-40 0 -88 20q-47 24 -78 21.5t-50 -41.5l-88 30q46 98 128 98q37 0 88 -21q48 -23 78.5 -20.5t49.5 41.5zM450 672l278 -672h-195l-43 112h-260l-43 -112h-195l278 672h180zM286 256h148l-74 192z" />
    <glyph glyph-name="Adieresis" unicode="&#xc4;" horiz-adv-x="720" 
d="M248 736q-33 0 -56.5 23.5t-23.5 56.5t23.5 56.5t56.5 23.5t56.5 -23.5t23.5 -56.5t-23.5 -56.5t-56.5 -23.5zM472 736q-33 0 -56.5 23.5t-23.5 56.5t23.5 56.5t56.5 23.5t56.5 -23.5t23.5 -56.5t-23.5 -56.5t-56.5 -23.5zM450 672l278 -672h-195l-43 112h-260l-43 -112
h-195l278 672h180zM286 256h148l-74 192z" />
    <glyph glyph-name="Aring" unicode="&#xc5;" horiz-adv-x="720" 
d="M360 960q53 0 90.5 -37.5t37.5 -90.5t-37.5 -90.5t-90.5 -37.5t-90.5 37.5t-37.5 90.5t37.5 90.5t90.5 37.5zM360 784q20 0 34 14t14 34t-14 34t-34 14t-34 -14t-14 -34t14 -34t34 -14zM450 672l278 -672h-195l-43 112h-260l-43 -112h-195l278 672h180zM286 256h148
l-74 192z" />
    <glyph glyph-name="AE" unicode="&#xc6;" horiz-adv-x="864" 
d="M824 496h-256v-80h208v-160h-208v-80h256v-176h-448v112h-143l-46 -112h-195l294 672h538v-176zM291 256h85v208z" />
    <glyph glyph-name="Ccedilla" unicode="&#xc7;" 
d="M632 65q-76 -66 -189 -79l-33 -34q52 6 89 -25.5t37 -86.5q0 -62 -45.5 -103t-114.5 -41q-92 0 -128 63l62 77q21 -48 66 -52q32 -3 53 15.5t21 40.5q0 26 -15.5 41t-39.5 15q-32 0 -56 -19l-43 59l52 52q-138 18 -231 116.5t-93 231.5q0 145 111 248.5t267 103.5
q61 0 123.5 -21t106.5 -59l-73 -164q-60 68 -152 68q-79 0 -135 -51.5t-56 -124.5t56 -124.5t135 -51.5q92 0 152 68z" />
    <glyph glyph-name="Egrave" unicode="&#xc8;" horiz-adv-x="544" 
d="M392 736h-128l-160 160h192zM504 496h-256v-80h208v-160h-208v-80h256v-176h-448v672h448v-176z" />
    <glyph glyph-name="Eacute" unicode="&#xc9;" horiz-adv-x="544" 
d="M160 736l96 160h192l-160 -160h-128zM504 496h-256v-80h208v-160h-208v-80h256v-176h-448v672h448v-176z" />
    <glyph glyph-name="Ecircumflex" unicode="&#xca;" horiz-adv-x="544" 
d="M320 736l-48 80l-48 -80h-160l160 160h96l160 -160h-160zM504 496h-256v-80h208v-160h-208v-80h256v-176h-448v672h448v-176z" />
    <glyph glyph-name="Edieresis" unicode="&#xcb;" horiz-adv-x="544" 
d="M160 736q-33 0 -56.5 23.5t-23.5 56.5t23.5 56.5t56.5 23.5t56.5 -23.5t23.5 -56.5t-23.5 -56.5t-56.5 -23.5zM384 736q-33 0 -56.5 23.5t-23.5 56.5t23.5 56.5t56.5 23.5t56.5 -23.5t23.5 -56.5t-23.5 -56.5t-56.5 -23.5zM504 496h-256v-80h208v-160h-208v-80h256v-176
h-448v672h448v-176z" />
    <glyph glyph-name="Igrave" unicode="&#xcc;" horiz-adv-x="304" 
d="M248 736h-128l-160 160h192zM248 0h-192v672h192v-672z" />
    <glyph glyph-name="Iacute" unicode="&#xcd;" horiz-adv-x="304" 
d="M56 736l96 160h192l-160 -160h-128zM248 0h-192v672h192v-672z" />
    <glyph glyph-name="Icircumflex" unicode="&#xce;" horiz-adv-x="304" 
d="M200 736l-48 80l-48 -80h-160l160 160h96l160 -160h-160zM248 0h-192v672h192v-672z" />
    <glyph glyph-name="Idieresis" unicode="&#xcf;" horiz-adv-x="304" 
d="M40 736q-33 0 -56.5 23.5t-23.5 56.5t23.5 56.5t56.5 23.5t56.5 -23.5t23.5 -56.5t-23.5 -56.5t-56.5 -23.5zM264 736q-33 0 -56.5 23.5t-23.5 56.5t23.5 56.5t56.5 23.5t56.5 -23.5t23.5 -56.5t-23.5 -56.5t-56.5 -23.5zM248 0h-192v672h192v-672z" />
    <glyph glyph-name="Eth" unicode="&#xd0;" horiz-adv-x="720" 
d="M343 672q167 0 260 -95t93 -241q0 -145 -94.5 -240.5t-258.5 -95.5h-271v280h-64v112h64v280h271zM360 176q52 0 98 48t46 112t-46 112t-98 48h-96v-104h64v-112h-64v-104h96z" />
    <glyph glyph-name="Ntilde" unicode="&#xd1;" horiz-adv-x="752" 
d="M504 864l88 -30q-46 -98 -128 -98q-40 0 -88 20q-47 24 -78 21.5t-50 -41.5l-88 30q46 98 128 98q37 0 88 -21q48 -23 78.5 -20.5t49.5 41.5zM504 672h192v-672h-192l-256 368v-368h-192v672h192l256 -368v368z" />
    <glyph glyph-name="Ograve" unicode="&#xd2;" horiz-adv-x="784" 
d="M480 736h-128l-160 160h192zM392 688q152 0 260 -103t108 -249t-108 -249t-260 -103t-260 103t-108 249t108 249t260 103zM392 160q73 0 124.5 51.5t51.5 124.5t-51.5 124.5t-124.5 51.5t-124.5 -51.5t-51.5 -124.5t51.5 -124.5t124.5 -51.5z" />
    <glyph glyph-name="Oacute" unicode="&#xd3;" horiz-adv-x="784" 
d="M304 736l96 160h192l-160 -160h-128zM392 688q152 0 260 -103t108 -249t-108 -249t-260 -103t-260 103t-108 249t108 249t260 103zM392 160q73 0 124.5 51.5t51.5 124.5t-51.5 124.5t-124.5 51.5t-124.5 -51.5t-51.5 -124.5t51.5 -124.5t124.5 -51.5z" />
    <glyph glyph-name="Ocircumflex" unicode="&#xd4;" horiz-adv-x="784" 
d="M440 736l-48 80l-48 -80h-160l160 160h96l160 -160h-160zM392 688q152 0 260 -103t108 -249t-108 -249t-260 -103t-260 103t-108 249t108 249t260 103zM392 160q73 0 124.5 51.5t51.5 124.5t-51.5 124.5t-124.5 51.5t-124.5 -51.5t-51.5 -124.5t51.5 -124.5t124.5 -51.5z
" />
    <glyph glyph-name="Otilde" unicode="&#xd5;" horiz-adv-x="784" 
d="M520 864l88 -30q-46 -98 -128 -98q-40 0 -88 20q-47 24 -78 21.5t-50 -41.5l-88 30q46 98 128 98q37 0 88 -21q48 -23 78.5 -20.5t49.5 41.5zM392 688q152 0 260 -103t108 -249t-108 -249t-260 -103t-260 103t-108 249t108 249t260 103zM392 160q73 0 124.5 51.5
t51.5 124.5t-51.5 124.5t-124.5 51.5t-124.5 -51.5t-51.5 -124.5t51.5 -124.5t124.5 -51.5z" />
    <glyph glyph-name="Odieresis" unicode="&#xd6;" horiz-adv-x="784" 
d="M280 736q-33 0 -56.5 23.5t-23.5 56.5t23.5 56.5t56.5 23.5t56.5 -23.5t23.5 -56.5t-23.5 -56.5t-56.5 -23.5zM504 736q-33 0 -56.5 23.5t-23.5 56.5t23.5 56.5t56.5 23.5t56.5 -23.5t23.5 -56.5t-23.5 -56.5t-56.5 -23.5zM392 688q152 0 260 -103t108 -249t-108 -249
t-260 -103t-260 103t-108 249t108 249t260 103zM392 160q73 0 124.5 51.5t51.5 124.5t-51.5 124.5t-124.5 51.5t-124.5 -51.5t-51.5 -124.5t51.5 -124.5t124.5 -51.5z" />
    <glyph glyph-name="multiply" unicode="&#xd7;" horiz-adv-x="484" 
d="M365 506l79 -79l-123 -123l123 -123l-79 -79l-123 123l-123 -123l-79 79l123 123l-123 123l79 79l123 -123z" />
    <glyph glyph-name="Oslash" unicode="&#xd8;" horiz-adv-x="784" 
d="M653 584q107 -104 107 -248q0 -146 -108 -249t-260 -103q-111 0 -203 59l-37 -43h-96l75 88q-107 104 -107 248q0 146 108 249t260 103q111 0 203 -59l37 43h96zM216 336q0 -58 36 -107l224 261q-39 22 -84 22q-73 0 -124.5 -51.5t-51.5 -124.5zM392 160q73 0 124.5 51.5
t51.5 124.5q0 58 -36 107l-224 -261q39 -22 84 -22z" />
    <glyph glyph-name="Ugrave" unicode="&#xd9;" horiz-adv-x="720" 
d="M456 736h-128l-160 160h192zM472 672h208v-384q0 -135 -86 -219.5t-234 -84.5t-234 84.5t-86 219.5v384h208v-386q0 -60 33 -93t79 -33t79 33t33 93v386z" />
    <glyph glyph-name="Uacute" unicode="&#xda;" horiz-adv-x="720" 
d="M264 736l96 160h192l-160 -160h-128zM472 672h208v-384q0 -135 -86 -219.5t-234 -84.5t-234 84.5t-86 219.5v384h208v-386q0 -60 33 -93t79 -33t79 33t33 93v386z" />
    <glyph glyph-name="Ucircumflex" unicode="&#xdb;" horiz-adv-x="720" 
d="M408 736l-48 80l-48 -80h-160l160 160h96l160 -160h-160zM472 672h208v-384q0 -135 -86 -219.5t-234 -84.5t-234 84.5t-86 219.5v384h208v-386q0 -60 33 -93t79 -33t79 33t33 93v386z" />
    <glyph glyph-name="Udieresis" unicode="&#xdc;" horiz-adv-x="720" 
d="M248 736q-33 0 -56.5 23.5t-23.5 56.5t23.5 56.5t56.5 23.5t56.5 -23.5t23.5 -56.5t-23.5 -56.5t-56.5 -23.5zM472 736q-33 0 -56.5 23.5t-23.5 56.5t23.5 56.5t56.5 23.5t56.5 -23.5t23.5 -56.5t-23.5 -56.5t-56.5 -23.5zM472 672h208v-384q0 -135 -86 -219.5
t-234 -84.5t-234 84.5t-86 219.5v384h208v-386q0 -60 33 -93t79 -33t79 33t33 93v386z" />
    <glyph glyph-name="Yacute" unicode="&#xdd;" horiz-adv-x="688" 
d="M248 736l96 160h192l-160 -160h-128zM472 672h224l-256 -400v-272h-192v272l-256 400h224l128 -208z" />
    <glyph glyph-name="Thorn" unicode="&#xde;" horiz-adv-x="640" 
d="M360 584q126 0 191 -64.5t65 -167.5t-65 -167.5t-191 -64.5h-112v-120h-192v704h192v-120h112zM342 280q36 0 59 18t23 54q0 35 -23 53.5t-59 18.5h-94v-144h94z" />
    <glyph glyph-name="germandbls" unicode="&#xdf;" horiz-adv-x="624" 
d="M472 384q57 -8 92.5 -61.5t35.5 -109.5q0 -93 -60.5 -161t-163.5 -68q-62 0 -112 16v136q21 -4 42 -4t46 6t40.5 28t15.5 58q0 52 -33 74t-111 22v96q47 0 71.5 22.5t24.5 57.5q0 80 -64 80q-27 0 -45.5 -21t-18.5 -59v-496h-192v496q0 108 74 166t174 58
q127 0 195.5 -56t68.5 -149q0 -40 -24 -80.5t-56 -50.5z" />
    <glyph glyph-name="agrave" unicode="&#xe0;" 
d="M488 576h-128l-160 160h192zM408 512h192v-512h-192v52q-57 -68 -144 -68q-100 0 -170 79.5t-70 192.5t70 192.5t170 79.5q87 0 144 -68v52zM312 144q40 0 68 33t28 79t-28 79t-68 33t-68 -33t-28 -79t28 -79t68 -33z" />
    <glyph glyph-name="aacute" unicode="&#xe1;" 
d="M264 576l96 160h192l-160 -160h-128zM408 512h192v-512h-192v52q-57 -68 -144 -68q-100 0 -170 79.5t-70 192.5t70 192.5t170 79.5q87 0 144 -68v52zM312 144q40 0 68 33t28 79t-28 79t-68 33t-68 -33t-28 -79t28 -79t68 -33z" />
    <glyph glyph-name="acircumflex" unicode="&#xe2;" 
d="M392 576l-48 80l-48 -80h-160l160 160h96l160 -160h-160zM408 512h192v-512h-192v52q-57 -68 -144 -68q-100 0 -170 79.5t-70 192.5t70 192.5t170 79.5q87 0 144 -68v52zM312 144q40 0 68 33t28 79t-28 79t-68 33t-68 -33t-28 -79t28 -79t68 -33z" />
    <glyph glyph-name="atilde" unicode="&#xe3;" 
d="M464 704l88 -30q-46 -98 -128 -98q-40 0 -88 20q-47 24 -78 21.5t-50 -41.5l-88 30q46 98 128 98q37 0 88 -21q48 -23 78.5 -20.5t49.5 41.5zM408 512h192v-512h-192v52q-57 -68 -144 -68q-100 0 -170 79.5t-70 192.5t70 192.5t170 79.5q87 0 144 -68v52zM312 144
q40 0 68 33t28 79t-28 79t-68 33t-68 -33t-28 -79t28 -79t68 -33z" />
    <glyph glyph-name="adieresis" unicode="&#xe4;" 
d="M232 576q-33 0 -56.5 23.5t-23.5 56.5t23.5 56.5t56.5 23.5t56.5 -23.5t23.5 -56.5t-23.5 -56.5t-56.5 -23.5zM456 576q-33 0 -56.5 23.5t-23.5 56.5t23.5 56.5t56.5 23.5t56.5 -23.5t23.5 -56.5t-23.5 -56.5t-56.5 -23.5zM408 512h192v-512h-192v52q-57 -68 -144 -68
q-100 0 -170 79.5t-70 192.5t70 192.5t170 79.5q87 0 144 -68v52zM312 144q40 0 68 33t28 79t-28 79t-68 33t-68 -33t-28 -79t28 -79t68 -33z" />
    <glyph glyph-name="aring" unicode="&#xe5;" 
d="M344 800q53 0 90.5 -37.5t37.5 -90.5t-37.5 -90.5t-90.5 -37.5t-90.5 37.5t-37.5 90.5t37.5 90.5t90.5 37.5zM344 624q20 0 34 14t14 34t-14 34t-34 14t-34 -14t-14 -34t14 -34t34 -14zM408 512h192v-512h-192v52q-57 -68 -144 -68q-100 0 -170 79.5t-70 192.5t70 192.5
t170 79.5q87 0 144 -68v52zM312 144q40 0 68 33t28 79t-28 79t-68 33t-68 -33t-28 -79t28 -79t68 -33z" />
    <glyph glyph-name="ae" unicode="&#xe6;" horiz-adv-x="912" 
d="M888 256q0 -16 -4 -48h-326q6 -30 38 -47t78 -17q36 0 69 8t48 16l15 8l49 -144q-8 -5 -23.5 -13t-67.5 -21.5t-108 -13.5q-63 0 -117 16h-195v33q-12 -22 -48.5 -35.5t-79.5 -13.5q-84 0 -138 51t-54 125q0 12 3 26t11 37t29.5 44.5t52.5 36.5q96 44 224 16
q-1 36 -26 52.5t-60 14.5t-70 -9.5t-60 -16.5l-24 -9l-48 112q3 3 10 7t30.5 15t51 19.5t72 15.5t92.5 7q110 0 158 -43q67 43 162 43q123 0 189.5 -71.5t66.5 -200.5zM558 304h134q0 34 -17.5 57t-50.5 23q-29 0 -47.5 -24t-18.5 -56zM344 160v80h-16q-56 0 -84 -21
t-28 -53q0 -33 18 -51.5t49 -18.5q28 0 44.5 17.5t16.5 46.5z" />
    <glyph glyph-name="ccedilla" unicode="&#xe7;" horiz-adv-x="528" 
d="M504 47q-47 -47 -139 -59l-35 -36q52 6 89 -25.5t37 -86.5q0 -62 -45.5 -103t-114.5 -41q-92 0 -128 63l62 77q21 -48 66 -52q32 -3 53 15.5t21 40.5q0 26 -15.5 41t-39.5 15q-32 0 -56 -19l-43 59l50 50q-112 13 -177 88.5t-65 181.5q0 116 77.5 194t207.5 78
q129 0 195 -63l-74 -145q-39 48 -102 48q-46 0 -79 -33t-33 -79t33 -79t79 -33q64 0 102 48z" />
    <glyph glyph-name="egrave" unicode="&#xe8;" horiz-adv-x="576" 
d="M408 576h-128l-160 160h192zM552 256q0 -16 -4 -48h-326q6 -30 38 -47t78 -17q36 0 69 8t48 16l15 8l49 -144q-8 -5 -23.5 -13t-67.5 -21.5t-108 -13.5q-147 0 -221.5 76.5t-74.5 195.5t70 195.5t202 76.5q123 0 189.5 -71.5t66.5 -200.5zM222 304h134q0 34 -17.5 57
t-50.5 23q-29 0 -47.5 -24t-18.5 -56z" />
    <glyph glyph-name="eacute" unicode="&#xe9;" horiz-adv-x="576" 
d="M208 576l96 160h192l-160 -160h-128zM552 256q0 -16 -4 -48h-326q6 -30 38 -47t78 -17q36 0 69 8t48 16l15 8l49 -144q-8 -5 -23.5 -13t-67.5 -21.5t-108 -13.5q-147 0 -221.5 76.5t-74.5 195.5t70 195.5t202 76.5q123 0 189.5 -71.5t66.5 -200.5zM222 304h134
q0 34 -17.5 57t-50.5 23q-29 0 -47.5 -24t-18.5 -56z" />
    <glyph glyph-name="ecircumflex" unicode="&#xea;" horiz-adv-x="576" 
d="M344 576l-48 80l-48 -80h-160l160 160h96l160 -160h-160zM552 256q0 -16 -4 -48h-326q6 -30 38 -47t78 -17q36 0 69 8t48 16l15 8l49 -144q-8 -5 -23.5 -13t-67.5 -21.5t-108 -13.5q-147 0 -221.5 76.5t-74.5 195.5t70 195.5t202 76.5q123 0 189.5 -71.5t66.5 -200.5z
M222 304h134q0 34 -17.5 57t-50.5 23q-29 0 -47.5 -24t-18.5 -56z" />
    <glyph glyph-name="edieresis" unicode="&#xeb;" horiz-adv-x="576" 
d="M176 576q-33 0 -56.5 23.5t-23.5 56.5t23.5 56.5t56.5 23.5t56.5 -23.5t23.5 -56.5t-23.5 -56.5t-56.5 -23.5zM400 576q-33 0 -56.5 23.5t-23.5 56.5t23.5 56.5t56.5 23.5t56.5 -23.5t23.5 -56.5t-23.5 -56.5t-56.5 -23.5zM552 256q0 -16 -4 -48h-326q6 -30 38 -47
t78 -17q36 0 69 8t48 16l15 8l49 -144q-8 -5 -23.5 -13t-67.5 -21.5t-108 -13.5q-147 0 -221.5 76.5t-74.5 195.5t70 195.5t202 76.5q123 0 189.5 -71.5t66.5 -200.5zM222 304h134q0 34 -17.5 57t-50.5 23q-29 0 -47.5 -24t-18.5 -56z" />
    <glyph glyph-name="igrave" unicode="&#xec;" horiz-adv-x="304" 
d="M248 576h-128l-160 160h192zM56 0v512h192v-512h-192z" />
    <glyph glyph-name="iacute" unicode="&#xed;" horiz-adv-x="304" 
d="M56 576l96 160h192l-160 -160h-128zM56 0v512h192v-512h-192z" />
    <glyph glyph-name="icircumflex" unicode="&#xee;" horiz-adv-x="304" 
d="M200 576l-48 80l-48 -80h-160l160 160h96l160 -160h-160zM56 0v512h192v-512h-192z" />
    <glyph glyph-name="idieresis" unicode="&#xef;" horiz-adv-x="304" 
d="M40 576q-33 0 -56.5 23.5t-23.5 56.5t23.5 56.5t56.5 23.5t56.5 -23.5t23.5 -56.5t-23.5 -56.5t-56.5 -23.5zM264 576q-33 0 -56.5 23.5t-23.5 56.5t23.5 56.5t56.5 23.5t56.5 -23.5t23.5 -56.5t-23.5 -56.5t-56.5 -23.5zM56 0v512h192v-512h-192z" />
    <glyph glyph-name="eth" unicode="&#xf0;" horiz-adv-x="624" 
d="M501 468q42 -41 70.5 -98.5t28.5 -113.5q0 -115 -81 -193.5t-207 -78.5q-131 0 -209.5 78t-78.5 194q0 94 53 165.5t146 95.5h-1l-41 29l-141 -50v95l49 18l-65 47l128 64l84 -58l172 59v-96l-79 -26q128 -88 172 -131zM312 144q40 0 68 33t28 79t-28 79t-68 33t-68 -33
t-28 -79t28 -79t68 -33z" />
    <glyph glyph-name="ntilde" unicode="&#xf1;" horiz-adv-x="624" 
d="M440 704l88 -30q-46 -98 -128 -98q-40 0 -88 20q-47 24 -78 21.5t-50 -41.5l-88 30q46 98 128 98q37 0 88 -21q48 -23 78.5 -20.5t49.5 41.5zM392 528q81 0 136.5 -58.5t55.5 -165.5v-304h-192v272q0 42 -21 61t-51 19q-29 0 -50.5 -20t-21.5 -60v-272h-192v512h192v-64
q21 39 60 59.5t84 20.5z" />
    <glyph glyph-name="ograve" unicode="&#xf2;" horiz-adv-x="624" 
d="M400 576h-128l-160 160h192zM312 528q126 0 207 -79t81 -193q0 -115 -81 -193.5t-207 -78.5q-131 0 -209.5 78t-78.5 194t78 194t210 78zM312 144q40 0 68 33t28 79t-28 79t-68 33t-68 -33t-28 -79t28 -79t68 -33z" />
    <glyph glyph-name="oacute" unicode="&#xf3;" horiz-adv-x="624" 
d="M224 576l96 160h192l-160 -160h-128zM312 528q126 0 207 -79t81 -193q0 -115 -81 -193.5t-207 -78.5q-131 0 -209.5 78t-78.5 194t78 194t210 78zM312 144q40 0 68 33t28 79t-28 79t-68 33t-68 -33t-28 -79t28 -79t68 -33z" />
    <glyph glyph-name="ocircumflex" unicode="&#xf4;" horiz-adv-x="624" 
d="M360 576l-48 80l-48 -80h-160l160 160h96l160 -160h-160zM312 528q126 0 207 -79t81 -193q0 -115 -81 -193.5t-207 -78.5q-131 0 -209.5 78t-78.5 194t78 194t210 78zM312 144q40 0 68 33t28 79t-28 79t-68 33t-68 -33t-28 -79t28 -79t68 -33z" />
    <glyph glyph-name="otilde" unicode="&#xf5;" horiz-adv-x="624" 
d="M440 704l88 -30q-46 -98 -128 -98q-40 0 -88 20q-47 24 -78 21.5t-50 -41.5l-88 30q46 98 128 98q37 0 88 -21q48 -23 78.5 -20.5t49.5 41.5zM312 528q126 0 207 -79t81 -193q0 -115 -81 -193.5t-207 -78.5q-131 0 -209.5 78t-78.5 194t78 194t210 78zM312 144
q40 0 68 33t28 79t-28 79t-68 33t-68 -33t-28 -79t28 -79t68 -33z" />
    <glyph glyph-name="odieresis" unicode="&#xf6;" horiz-adv-x="624" 
d="M200 576q-33 0 -56.5 23.5t-23.5 56.5t23.5 56.5t56.5 23.5t56.5 -23.5t23.5 -56.5t-23.5 -56.5t-56.5 -23.5zM424 576q-33 0 -56.5 23.5t-23.5 56.5t23.5 56.5t56.5 23.5t56.5 -23.5t23.5 -56.5t-23.5 -56.5t-56.5 -23.5zM312 528q126 0 207 -79t81 -193
q0 -115 -81 -193.5t-207 -78.5q-131 0 -209.5 78t-78.5 194t78 194t210 78zM312 144q40 0 68 33t28 79t-28 79t-68 33t-68 -33t-28 -79t28 -79t68 -33z" />
    <glyph glyph-name="divide" unicode="&#xf7;" horiz-adv-x="512" 
d="M256 416q-40 0 -68 28t-28 68t28 68t68 28t68 -28t28 -68t-28 -68t-68 -28zM40 360h432v-112h-432v112zM256 0q-40 0 -68 28t-28 68t28 68t68 28t68 -28t28 -68t-28 -68t-68 -28z" />
    <glyph glyph-name="oslash" unicode="&#xf8;" horiz-adv-x="624" 
d="M524 444q76 -78 76 -188q0 -115 -81 -193.5t-207 -78.5q-88 0 -156 38l-20 -22h-96l58 66q-74 76 -74 190q0 116 78 194t210 78q85 0 155 -40l21 24h96zM216 256q0 -24 8 -45l129 146q-20 11 -41 11q-40 0 -68 -33t-28 -79zM312 144q40 0 68 33t28 79q0 24 -8 45
l-129 -146q20 -11 41 -11z" />
    <glyph glyph-name="ugrave" unicode="&#xf9;" horiz-adv-x="624" 
d="M384 576h-128l-160 160h192zM232 -16q-81 0 -136.5 58.5t-55.5 165.5v304h192v-272q0 -42 21 -61t51 -19q29 0 50.5 20t21.5 60v272h192v-512h-192v64q-21 -39 -60 -59.5t-84 -20.5z" />
    <glyph glyph-name="uacute" unicode="&#xfa;" horiz-adv-x="624" 
d="M224 576l96 160h192l-160 -160h-128zM232 -16q-81 0 -136.5 58.5t-55.5 165.5v304h192v-272q0 -42 21 -61t51 -19q29 0 50.5 20t21.5 60v272h192v-512h-192v64q-21 -39 -60 -59.5t-84 -20.5z" />
    <glyph glyph-name="ucircumflex" unicode="&#xfb;" horiz-adv-x="624" 
d="M356 576l-48 80l-48 -80h-160l160 160h96l160 -160h-160zM232 -16q-81 0 -136.5 58.5t-55.5 165.5v304h192v-272q0 -42 21 -61t51 -19q29 0 50.5 20t21.5 60v272h192v-512h-192v64q-21 -39 -60 -59.5t-84 -20.5z" />
    <glyph glyph-name="udieresis" unicode="&#xfc;" horiz-adv-x="624" 
d="M196 576q-33 0 -56.5 23.5t-23.5 56.5t23.5 56.5t56.5 23.5t56.5 -23.5t23.5 -56.5t-23.5 -56.5t-56.5 -23.5zM420 576q-33 0 -56.5 23.5t-23.5 56.5t23.5 56.5t56.5 23.5t56.5 -23.5t23.5 -56.5t-23.5 -56.5t-56.5 -23.5zM232 -16q-81 0 -136.5 58.5t-55.5 165.5v304
h192v-272q0 -42 21 -61t51 -19q29 0 50.5 20t21.5 60v272h192v-512h-192v64q-21 -39 -60 -59.5t-84 -20.5z" />
    <glyph glyph-name="yacute" unicode="&#xfd;" horiz-adv-x="560" 
d="M184 576l96 160h192l-160 -160h-128zM264 -256h-192l112 272l-192 496h192l96 -272l96 272h192z" />
    <glyph glyph-name="thorn" unicode="&#xfe;" 
d="M392 528q100 0 170 -79.5t70 -192.5t-70 -192.5t-170 -79.5q-87 0 -144 68v-308h-192v960h192v-244q57 68 144 68zM344 144q40 0 68 33t28 79t-28 79t-68 33t-68 -33t-28 -79t28 -79t68 -33z" />
    <glyph glyph-name="ydieresis" unicode="&#xff;" horiz-adv-x="560" 
d="M168 576q-33 0 -56.5 23.5t-23.5 56.5t23.5 56.5t56.5 23.5t56.5 -23.5t23.5 -56.5t-23.5 -56.5t-56.5 -23.5zM392 576q-33 0 -56.5 23.5t-23.5 56.5t23.5 56.5t56.5 23.5t56.5 -23.5t23.5 -56.5t-23.5 -56.5t-56.5 -23.5zM264 -256h-192l112 272l-192 496h192l96 -272
l96 272h192z" />
    <glyph glyph-name="Amacron" unicode="&#x100;" horiz-adv-x="720" 
d="M520 752h-320v96h320v-96zM450 672l278 -672h-195l-43 112h-260l-43 -112h-195l278 672h180zM286 256h148l-74 192z" />
    <glyph glyph-name="amacron" unicode="&#x101;" 
d="M504 592h-320v96h320v-96zM408 512h192v-512h-192v52q-57 -68 -144 -68q-100 0 -170 79.5t-70 192.5t70 192.5t170 79.5q87 0 144 -68v52zM312 144q40 0 68 33t28 79t-28 79t-68 33t-68 -33t-28 -79t28 -79t68 -33z" />
    <glyph glyph-name="Abreve" unicode="&#x102;" horiz-adv-x="720" 
d="M424 896h96q0 -66 -47 -113t-113 -47t-113 47t-47 113h96q0 -26 19 -45t45 -19t45 19t19 45zM450 672l278 -672h-195l-43 112h-260l-43 -112h-195l278 672h180zM286 256h148l-74 192z" />
    <glyph glyph-name="abreve" unicode="&#x103;" 
d="M408 736h96q0 -66 -47 -113t-113 -47t-113 47t-47 113h96q0 -26 19 -45t45 -19t45 19t19 45zM408 512h192v-512h-192v52q-57 -68 -144 -68q-100 0 -170 79.5t-70 192.5t70 192.5t170 79.5q87 0 144 -68v52zM312 144q40 0 68 33t28 79t-28 79t-68 33t-68 -33t-28 -79
t28 -79t68 -33z" />
    <glyph glyph-name="Aogonek" unicode="&#x104;" horiz-adv-x="720" 
d="M584 -74q0 -36 36.5 -46t72.5 8l16 -80q-46 -16 -80 -16q-60 0 -94 35.5t-34 92.5q0 21 9.5 45t22.5 35l-43 112h-260l-43 -112h-195l278 672h180l278 -672h-51q-34 0 -63.5 -17.5t-29.5 -56.5zM286 256h148l-74 192z" />
    <glyph glyph-name="aogonek" unicode="&#x105;" 
d="M552 0q-34 0 -63.5 -17.5t-29.5 -56.5q0 -36 36.5 -46t72.5 8l16 -80q-46 -16 -80 -16q-60 0 -94 35.5t-34 92.5q0 21 9.5 45t22.5 35v52q-57 -68 -144 -68q-100 0 -170 79.5t-70 192.5t70 192.5t170 79.5q87 0 144 -68v52h192v-512h-48zM312 144q40 0 68 33t28 79
t-28 79t-68 33t-68 -33t-28 -79t28 -79t68 -33z" />
    <glyph glyph-name="Cacute" unicode="&#x106;" 
d="M296 736l96 160h192l-160 -160h-128zM407 160q92 0 152 68l73 -163q-44 -38 -106.5 -59.5t-123.5 -21.5q-156 0 -267 103.5t-111 248.5t111 248.5t267 103.5q61 0 123.5 -21t106.5 -59l-73 -164q-60 68 -152 68q-79 0 -135 -51.5t-56 -124.5t56 -124.5t135 -51.5z" />
    <glyph glyph-name="cacute" unicode="&#x107;" horiz-adv-x="528" 
d="M216 576l96 160h192l-160 -160h-128zM430 192l74 -145q-63 -63 -195 -63q-131 0 -208 78t-77 194t77.5 194t207.5 78q129 0 195 -63l-74 -145q-39 48 -102 48q-46 0 -79 -33t-33 -79t33 -79t79 -33q64 0 102 48z" />
    <glyph glyph-name="Cdotaccent" unicode="&#x10a;" 
d="M392 720q-40 0 -68 28t-28 68t28 68t68 28t68 -28t28 -68t-28 -68t-68 -28zM407 160q92 0 152 68l73 -163q-44 -38 -106.5 -59.5t-123.5 -21.5q-156 0 -267 103.5t-111 248.5t111 248.5t267 103.5q61 0 123.5 -21t106.5 -59l-73 -164q-60 68 -152 68q-79 0 -135 -51.5
t-56 -124.5t56 -124.5t135 -51.5z" />
    <glyph glyph-name="cdotaccent" unicode="&#x10b;" horiz-adv-x="528" 
d="M312 560q-40 0 -68 28t-28 68t28 68t68 28t68 -28t28 -68t-28 -68t-68 -28zM430 192l74 -145q-63 -63 -195 -63q-131 0 -208 78t-77 194t77.5 194t207.5 78q129 0 195 -63l-74 -145q-39 48 -102 48q-46 0 -79 -33t-33 -79t33 -79t79 -33q64 0 102 48z" />
    <glyph glyph-name="Ccaron" unicode="&#x10c;" 
d="M432 896h160l-160 -160h-96l-160 160h160l48 -80zM407 160q92 0 152 68l73 -163q-44 -38 -106.5 -59.5t-123.5 -21.5q-156 0 -267 103.5t-111 248.5t111 248.5t267 103.5q61 0 123.5 -21t106.5 -59l-73 -164q-60 68 -152 68q-79 0 -135 -51.5t-56 -124.5t56 -124.5
t135 -51.5z" />
    <glyph glyph-name="ccaron" unicode="&#x10d;" horiz-adv-x="528" 
d="M344 736h160l-160 -160h-96l-160 160h160l48 -80zM430 192l74 -145q-63 -63 -195 -63q-131 0 -208 78t-77 194t77.5 194t207.5 78q129 0 195 -63l-74 -145q-39 48 -102 48q-46 0 -79 -33t-33 -79t33 -79t79 -33q64 0 102 48z" />
    <glyph glyph-name="Dcaron" unicode="&#x10e;" horiz-adv-x="704" 
d="M368 896h160l-160 -160h-96l-160 160h160l48 -80zM327 672q167 0 260 -95t93 -241q0 -145 -94.5 -240.5t-258.5 -95.5h-271v672h271zM344 176q52 0 98 48t46 112t-46 112t-98 48h-96v-320h96z" />
    <glyph glyph-name="dcaron" unicode="&#x10f;" horiz-adv-x="832" 
d="M408 704h192v-704h-192v52q-57 -68 -144 -68q-100 0 -170 79.5t-70 192.5t70 192.5t170 79.5q87 0 144 -68v244zM632 512l32 160h144l-80 -160h-96zM312 144q40 0 68 33t28 79t-28 79t-68 33t-68 -33t-28 -79t28 -79t68 -33z" />
    <glyph glyph-name="Dcroat" unicode="&#x110;" horiz-adv-x="720" 
d="M343 672q167 0 260 -95t93 -241q0 -145 -94.5 -240.5t-258.5 -95.5h-271v280h-64v112h64v280h271zM360 176q52 0 98 48t46 112t-46 112t-98 48h-96v-104h64v-112h-64v-104h96z" />
    <glyph glyph-name="dcroat" unicode="&#x111;" horiz-adv-x="672" 
d="M664 632v-96h-64v-536h-192v52q-57 -68 -144 -68q-100 0 -170 79.5t-70 192.5t70 192.5t170 79.5q87 0 144 -68v76h-64v96h64v72h192v-72h64zM312 144q40 0 68 33t28 79t-28 79t-68 33t-68 -33t-28 -79t28 -79t68 -33z" />
    <glyph glyph-name="Emacron" unicode="&#x112;" horiz-adv-x="544" 
d="M432 752h-320v96h320v-96zM504 496h-256v-80h208v-160h-208v-80h256v-176h-448v672h448v-176z" />
    <glyph glyph-name="emacron" unicode="&#x113;" horiz-adv-x="576" 
d="M448 592h-320v96h320v-96zM552 256q0 -16 -4 -48h-326q6 -30 38 -47t78 -17q36 0 69 8t48 16l15 8l49 -144q-8 -5 -23.5 -13t-67.5 -21.5t-108 -13.5q-147 0 -221.5 76.5t-74.5 195.5t70 195.5t202 76.5q123 0 189.5 -71.5t66.5 -200.5zM222 304h134q0 34 -17.5 57
t-50.5 23q-29 0 -47.5 -24t-18.5 -56z" />
    <glyph glyph-name="Edotaccent" unicode="&#x116;" horiz-adv-x="544" 
d="M272 720q-40 0 -68 28t-28 68t28 68t68 28t68 -28t28 -68t-28 -68t-68 -28zM504 496h-256v-80h208v-160h-208v-80h256v-176h-448v672h448v-176z" />
    <glyph glyph-name="edotaccent" unicode="&#x117;" horiz-adv-x="576" 
d="M292 560q-40 0 -68 28t-28 68t28 68t68 28t68 -28t28 -68t-28 -68t-68 -28zM552 256q0 -16 -4 -48h-326q6 -30 38 -47t78 -17q36 0 69 8t48 16l15 8l49 -144q-8 -5 -23.5 -13t-67.5 -21.5t-108 -13.5q-147 0 -221.5 76.5t-74.5 195.5t70 195.5t202 76.5
q123 0 189.5 -71.5t66.5 -200.5zM222 304h134q0 34 -17.5 57t-50.5 23q-29 0 -47.5 -24t-18.5 -56z" />
    <glyph glyph-name="Eogonek" unicode="&#x118;" horiz-adv-x="544" 
d="M520 -112l16 -80q-46 -16 -80 -16q-60 0 -94 35.5t-34 92.5q0 21 9.5 45t22.5 35h-304v672h448v-176h-256v-80h208v-160h-208v-80h256v-176q-34 0 -63.5 -17.5t-29.5 -56.5q0 -36 36.5 -46t72.5 8z" />
    <glyph glyph-name="eogonek" unicode="&#x119;" horiz-adv-x="576" 
d="M552 256q0 -16 -4 -48h-326q6 -30 38 -47t78 -17q36 0 69 8t48 16l15 8l49 -144q-45 -30 -128 -43q-44 -13 -44 -63q0 -36 36.5 -46t72.5 8l16 -80q-46 -16 -80 -16q-60 0 -94 35.5t-34 92.5q0 35 20 65q-130 10 -195 84.5t-65 186.5q0 119 70 195.5t202 76.5
q123 0 189.5 -71.5t66.5 -200.5zM222 304h134q0 34 -17.5 57t-50.5 23q-29 0 -47.5 -24t-18.5 -56z" />
    <glyph glyph-name="Ecaron" unicode="&#x11a;" horiz-adv-x="544" 
d="M320 896h160l-160 -160h-96l-160 160h160l48 -80zM504 496h-256v-80h208v-160h-208v-80h256v-176h-448v672h448v-176z" />
    <glyph glyph-name="ecaron" unicode="&#x11b;" horiz-adv-x="576" 
d="M344 736h160l-160 -160h-96l-160 160h160l48 -80zM552 256q0 -16 -4 -48h-326q6 -30 38 -47t78 -17q36 0 69 8t48 16l15 8l49 -144q-8 -5 -23.5 -13t-67.5 -21.5t-108 -13.5q-147 0 -221.5 76.5t-74.5 195.5t70 195.5t202 76.5q123 0 189.5 -71.5t66.5 -200.5zM222 304
h134q0 34 -17.5 57t-50.5 23q-29 0 -47.5 -24t-18.5 -56z" />
    <glyph glyph-name="Gbreve" unicode="&#x11e;" horiz-adv-x="752" 
d="M440 896h96q0 -66 -47 -113t-113 -47t-113 47t-47 113h96q0 -26 19 -45t45 -19t45 19t19 45zM722 400q6 -33 6 -64q0 -147 -98 -249.5t-246 -102.5q-149 0 -254.5 103t-105.5 249t105.5 249t254.5 103q104 0 184 -51.5t127 -140.5l-181 -49q-50 65 -130 65
q-70 0 -119 -51.5t-49 -124.5t49 -124.5t119 -51.5q49 0 87.5 26t58.5 70h-186v144h378z" />
    <glyph glyph-name="gbreve" unicode="&#x11f;" 
d="M408 736h96q0 -66 -47 -113t-113 -47t-113 47t-47 113h96q0 -26 19 -45t45 -19t45 19t19 45zM408 512h192v-464q0 -157 -78.5 -238.5t-225.5 -81.5q-60 0 -124 20t-98 40l-34 20l64 144q8 -6 23 -15t61 -23.5t93 -14.5q127 0 127 133v20q-57 -68 -144 -68
q-100 0 -170 79.5t-70 192.5t70 192.5t170 79.5q87 0 144 -68v52zM312 144q40 0 68 33t28 79t-28 79t-68 33t-68 -33t-28 -79t28 -79t68 -33z" />
    <glyph glyph-name="Gdotaccent" unicode="&#x120;" horiz-adv-x="752" 
d="M376 720q-40 0 -68 28t-28 68t28 68t68 28t68 -28t28 -68t-28 -68t-68 -28zM722 400q6 -33 6 -64q0 -147 -98 -249.5t-246 -102.5q-149 0 -254.5 103t-105.5 249t105.5 249t254.5 103q104 0 184 -51.5t127 -140.5l-181 -49q-50 65 -130 65q-70 0 -119 -51.5t-49 -124.5
t49 -124.5t119 -51.5q49 0 87.5 26t58.5 70h-186v144h378z" />
    <glyph glyph-name="gdotaccent" unicode="&#x121;" 
d="M328 560q-40 0 -68 28t-28 68t28 68t68 28t68 -28t28 -68t-28 -68t-68 -28zM408 512h192v-464q0 -157 -78.5 -238.5t-225.5 -81.5q-60 0 -124 20t-98 40l-34 20l64 144q8 -6 23 -15t61 -23.5t93 -14.5q127 0 127 133v20q-57 -68 -144 -68q-100 0 -170 79.5t-70 192.5
t70 192.5t170 79.5q87 0 144 -68v52zM312 144q40 0 68 33t28 79t-28 79t-68 33t-68 -33t-28 -79t28 -79t68 -33z" />
    <glyph glyph-name="Gcommaaccent" unicode="&#x122;" horiz-adv-x="752" 
d="M722 400q6 -33 6 -64q0 -147 -98 -249.5t-246 -102.5q-149 0 -254.5 103t-105.5 249t105.5 249t254.5 103q104 0 184 -51.5t127 -140.5l-181 -49q-50 65 -130 65q-70 0 -119 -51.5t-49 -124.5t49 -124.5t119 -51.5q49 0 87.5 26t58.5 70h-186v144h378zM280 -224l32 160
h144l-80 -160h-96z" />
    <glyph glyph-name="gcommaaccent" unicode="&#x123;" 
d="M448 736l-32 -160h-144l80 160h96zM408 512h192v-464q0 -157 -78.5 -238.5t-225.5 -81.5q-60 0 -124 20t-98 40l-34 20l64 144q8 -6 23 -15t61 -23.5t93 -14.5q127 0 127 133v20q-57 -68 -144 -68q-100 0 -170 79.5t-70 192.5t70 192.5t170 79.5q87 0 144 -68v52z
M312 144q40 0 68 33t28 79t-28 79t-68 33t-68 -33t-28 -79t28 -79t68 -33z" />
    <glyph glyph-name="Hbar" unicode="&#x126;" horiz-adv-x="720" 
d="M712 600v-96h-48v-504h-192v248h-224v-248h-192v504h-48v96h48v72h192v-72h224v72h192v-72h48zM472 424v80h-224v-80h224z" />
    <glyph glyph-name="hbar" unicode="&#x127;" horiz-adv-x="640" 
d="M408 528q81 0 136.5 -58.5t55.5 -165.5v-304h-192v272q0 42 -21 61t-51 19q-29 0 -50.5 -20t-21.5 -60v-272h-192v536h-64v96h64v72h192v-72h64v-96h-64v-88q21 39 60 59.5t84 20.5z" />
    <glyph glyph-name="Imacron" unicode="&#x12a;" horiz-adv-x="304" 
d="M312 752h-320v96h320v-96zM248 0h-192v672h192v-672z" />
    <glyph glyph-name="imacron" unicode="&#x12b;" horiz-adv-x="304" 
d="M312 592h-320v96h320v-96zM56 0v512h192v-512h-192z" />
    <glyph glyph-name="Iogonek" unicode="&#x12e;" horiz-adv-x="304" 
d="M264 -112l16 -80q-46 -16 -80 -16q-60 0 -94 35.5t-34 92.5q0 21 9.5 45t22.5 35h-48v672h192v-672q-34 0 -63.5 -17.5t-29.5 -56.5q0 -36 36.5 -46t72.5 8z" />
    <glyph glyph-name="iogonek" unicode="&#x12f;" horiz-adv-x="304" 
d="M152 560q-43 0 -73.5 30.5t-30.5 73.5t30.5 73.5t73.5 30.5t73.5 -30.5t30.5 -73.5t-30.5 -73.5t-73.5 -30.5zM264 -112l16 -80q-46 -16 -80 -16q-60 0 -94 35.5t-34 92.5q0 21 9.5 45t22.5 35h-48v512h192v-512q-34 0 -63.5 -17.5t-29.5 -56.5q0 -36 36.5 -46t72.5 8z
" />
    <glyph glyph-name="Idotaccent" unicode="&#x130;" horiz-adv-x="304" 
d="M152 720q-40 0 -68 28t-28 68t28 68t68 28t68 -28t28 -68t-28 -68t-68 -28zM248 0h-192v672h192v-672z" />
    <glyph glyph-name="dotlessi" unicode="&#x131;" horiz-adv-x="304" 
d="M56 0v512h192v-512h-192z" />
    <glyph glyph-name="IJ" unicode="&#x132;" horiz-adv-x="816" 
d="M248 0h-192v672h192v-672zM584 672h192v-416q0 -134 -75.5 -203t-208.5 -69q-46 0 -92.5 18t-71.5 46l83 151q28 -39 77 -39q42 0 69 24.5t27 71.5v416z" />
    <glyph glyph-name="ij" unicode="&#x133;" horiz-adv-x="608" 
d="M152 560q-43 0 -73.5 30.5t-30.5 73.5t30.5 73.5t73.5 30.5t73.5 -30.5t30.5 -73.5t-30.5 -73.5t-73.5 -30.5zM456 560q-43 0 -73.5 30.5t-30.5 73.5t30.5 73.5t73.5 30.5t73.5 -30.5t30.5 -73.5t-30.5 -73.5t-73.5 -30.5zM56 0v512h192v-512h-192zM360 0v512h192v-496
q0 -150 -63.5 -219t-192.5 -69l-32 160q39 0 67.5 27.5t28.5 84.5z" />
    <glyph glyph-name="Kcommaaccent" unicode="&#x136;" horiz-adv-x="704" 
d="M424 352l272 -352h-240l-208 288v-288h-192v672h192v-256l192 256h240zM240 -224l32 160h144l-80 -160h-96z" />
    <glyph glyph-name="kcommaaccent" unicode="&#x137;" horiz-adv-x="608" 
d="M408 268l208 -268h-224l-144 208v-208h-192v704h192v-384l128 192h224zM216 -224l32 160h144l-80 -160h-96z" />
    <glyph glyph-name="Lacute" unicode="&#x139;" horiz-adv-x="528" 
d="M56 736l96 160h192l-160 -160h-128zM248 176h256v-176h-448v672h192v-496z" />
    <glyph glyph-name="lacute" unicode="&#x13a;" horiz-adv-x="304" 
d="M56 768l96 160h192l-160 -160h-128zM56 704h192v-704h-192v704z" />
    <glyph glyph-name="Lcommaaccent" unicode="&#x13b;" horiz-adv-x="528" 
d="M248 176h256v-176h-448v672h192v-496zM168 -224l32 160h144l-80 -160h-96z" />
    <glyph glyph-name="lcommaaccent" unicode="&#x13c;" horiz-adv-x="304" 
d="M56 704h192v-704h-192v704zM56 -224l32 160h144l-80 -160h-96z" />
    <glyph glyph-name="Lcaron" unicode="&#x13d;" horiz-adv-x="544" 
d="M248 176h256v-176h-448v672h192v-496zM344 512l32 160h144l-80 -160h-96z" />
    <glyph glyph-name="lcaron" unicode="&#x13e;" horiz-adv-x="464" 
d="M56 704h192v-704h-192v704zM280 512l32 160h144l-80 -160h-96z" />
    <glyph glyph-name="Ldot" unicode="&#x13f;" horiz-adv-x="544" 
d="M248 176h256v-176h-448v672h192v-496zM424 280q-40 0 -68 28t-28 68t28 68t68 28t68 -28t28 -68t-28 -68t-68 -28z" />
    <glyph glyph-name="ldot" unicode="&#x140;" horiz-adv-x="496" 
d="M56 704h192v-704h-192v704zM392 280q-40 0 -68 28t-28 68t28 68t68 28t68 -28t28 -68t-28 -68t-68 -28z" />
    <glyph glyph-name="Lslash" unicode="&#x141;" horiz-adv-x="528" 
d="M248 176h256v-176h-448v277l-48 -13v96l48 13v299h192v-245l48 13v-96l-48 -13v-155z" />
    <glyph glyph-name="lslash" unicode="&#x142;" horiz-adv-x="304" 
d="M296 439v-96l-48 -13v-330h-192v277l-48 -13v96l48 13v331h192v-278z" />
    <glyph glyph-name="Nacute" unicode="&#x143;" horiz-adv-x="752" 
d="M280 736l96 160h192l-160 -160h-128zM504 672h192v-672h-192l-256 368v-368h-192v672h192l256 -368v368z" />
    <glyph glyph-name="nacute" unicode="&#x144;" horiz-adv-x="624" 
d="M216 576l96 160h192l-160 -160h-128zM392 528q81 0 136.5 -58.5t55.5 -165.5v-304h-192v272q0 42 -21 61t-51 19q-29 0 -50.5 -20t-21.5 -60v-272h-192v512h192v-64q21 39 60 59.5t84 20.5z" />
    <glyph glyph-name="Ncommaaccent" unicode="&#x145;" horiz-adv-x="752" 
d="M504 672h192v-672h-192l-256 368v-368h-192v672h192l256 -368v368zM280 -224l32 160h144l-80 -160h-96z" />
    <glyph glyph-name="ncommaaccent" unicode="&#x146;" horiz-adv-x="624" 
d="M392 528q81 0 136.5 -58.5t55.5 -165.5v-304h-192v272q0 42 -21 61t-51 19q-29 0 -50.5 -20t-21.5 -60v-272h-192v512h192v-64q21 39 60 59.5t84 20.5zM216 -224l32 160h144l-80 -160h-96z" />
    <glyph glyph-name="Ncaron" unicode="&#x147;" horiz-adv-x="752" 
d="M424 896h160l-160 -160h-96l-160 160h160l48 -80zM504 672h192v-672h-192l-256 368v-368h-192v672h192l256 -368v368z" />
    <glyph glyph-name="ncaron" unicode="&#x148;" horiz-adv-x="624" 
d="M352 736h160l-160 -160h-96l-160 160h160l48 -80zM392 528q81 0 136.5 -58.5t55.5 -165.5v-304h-192v272q0 42 -21 61t-51 19q-29 0 -50.5 -20t-21.5 -60v-272h-192v512h192v-64q21 39 60 59.5t84 20.5z" />
    <glyph glyph-name="Eng" unicode="&#x14a;" horiz-adv-x="752" 
d="M504 672h192v-656q0 -150 -63.5 -219t-192.5 -69l-32 160q39 0 67.5 27.5t28.5 84.5l-256 368v-368h-192v672h192l256 -368v368z" />
    <glyph glyph-name="eng" unicode="&#x14b;" horiz-adv-x="624" 
d="M392 528q81 0 136.5 -58.5t55.5 -165.5v-288q0 -150 -63.5 -219t-192.5 -69l-32 160q39 0 67.5 27.5t28.5 84.5v272q0 42 -21 61t-51 19q-29 0 -50.5 -20t-21.5 -60v-272h-192v512h192v-64q21 39 60 59.5t84 20.5z" />
    <glyph glyph-name="Omacron" unicode="&#x14c;" horiz-adv-x="784" 
d="M552 752h-320v96h320v-96zM392 688q152 0 260 -103t108 -249t-108 -249t-260 -103t-260 103t-108 249t108 249t260 103zM392 160q73 0 124.5 51.5t51.5 124.5t-51.5 124.5t-124.5 51.5t-124.5 -51.5t-51.5 -124.5t51.5 -124.5t124.5 -51.5z" />
    <glyph glyph-name="omacron" unicode="&#x14d;" horiz-adv-x="624" 
d="M472 592h-320v96h320v-96zM312 528q126 0 207 -79t81 -193q0 -115 -81 -193.5t-207 -78.5q-131 0 -209.5 78t-78.5 194t78 194t210 78zM312 144q40 0 68 33t28 79t-28 79t-68 33t-68 -33t-28 -79t28 -79t68 -33z" />
    <glyph glyph-name="Ohungarumlaut" unicode="&#x150;" horiz-adv-x="784" 
d="M216 736l32 160h144l-80 -160h-96zM456 736l32 160h144l-80 -160h-96zM392 688q152 0 260 -103t108 -249t-108 -249t-260 -103t-260 103t-108 249t108 249t260 103zM392 160q73 0 124.5 51.5t51.5 124.5t-51.5 124.5t-124.5 51.5t-124.5 -51.5t-51.5 -124.5t51.5 -124.5
t124.5 -51.5z" />
    <glyph glyph-name="ohungarumlaut" unicode="&#x151;" horiz-adv-x="624" 
d="M136 576l32 160h144l-80 -160h-96zM376 576l32 160h144l-80 -160h-96zM312 528q126 0 207 -79t81 -193q0 -115 -81 -193.5t-207 -78.5q-131 0 -209.5 78t-78.5 194t78 194t210 78zM312 144q40 0 68 33t28 79t-28 79t-68 33t-68 -33t-28 -79t28 -79t68 -33z" />
    <glyph glyph-name="OE" unicode="&#x152;" horiz-adv-x="1120" 
d="M1080 496h-256v-80h208v-160h-208v-80h256v-176h-448v69q-103 -85 -240 -85q-152 0 -260 103t-108 249t108 249t260 103q137 0 240 -85v69h448v-176zM392 160q73 0 124.5 51.5t51.5 124.5t-51.5 124.5t-124.5 51.5t-124.5 -51.5t-51.5 -124.5t51.5 -124.5t124.5 -51.5z
" />
    <glyph glyph-name="oe" unicode="&#x153;" horiz-adv-x="960" 
d="M936 256q0 -16 -4 -48h-326q6 -30 38 -47t78 -17q36 0 69 8t48 16l15 8l49 -144q-8 -5 -23.5 -13t-67.5 -21.5t-108 -13.5q-129 0 -205 62q-76 -62 -187 -62q-131 0 -209.5 78t-78.5 194t78 194t210 78q107 0 184 -59q70 59 184 59q123 0 189.5 -71.5t66.5 -200.5z
M606 304h134q0 34 -17.5 57t-50.5 23q-29 0 -47.5 -24t-18.5 -56zM312 144q40 0 68 33t28 79t-28 79t-68 33t-68 -33t-28 -79t28 -79t68 -33z" />
    <glyph glyph-name="Racute" unicode="&#x154;" horiz-adv-x="672" 
d="M208 736l96 160h192l-160 -160h-128zM483 226l165 -226h-224l-139 208h-37v-208h-192v672h304q127 0 191.5 -61t64.5 -163q0 -76 -35 -135.5t-98 -86.5zM342 368q36 0 59 18t23 54q0 35 -23 53.5t-59 18.5h-94v-144h94z" />
    <glyph glyph-name="racute" unicode="&#x155;" horiz-adv-x="464" 
d="M112 576l96 160h192l-160 -160h-128zM248 407q48 111 192 121v-217q-36 22 -80 21q-41 -3 -76.5 -36t-35.5 -87v-209h-192v512h192v-105z" />
    <glyph glyph-name="Rcommaaccent" unicode="&#x156;" horiz-adv-x="672" 
d="M483 226l165 -226h-224l-139 208h-37v-208h-192v672h304q127 0 191.5 -61t64.5 -163q0 -76 -35 -135.5t-98 -86.5zM342 368q36 0 59 18t23 54q0 35 -23 53.5t-59 18.5h-94v-144h94zM216 -224l32 160h144l-80 -160h-96z" />
    <glyph glyph-name="rcommaaccent" unicode="&#x157;" horiz-adv-x="464" 
d="M248 407q48 111 192 121v-217q-36 22 -80 21q-41 -3 -76.5 -36t-35.5 -87v-209h-192v512h192v-105zM56 -224l32 160h144l-80 -160h-96z" />
    <glyph glyph-name="Rcaron" unicode="&#x158;" horiz-adv-x="672" 
d="M344 896h160l-160 -160h-96l-160 160h160l48 -80zM483 226l165 -226h-224l-139 208h-37v-208h-192v672h304q127 0 191.5 -61t64.5 -163q0 -76 -35 -135.5t-98 -86.5zM342 368q36 0 59 18t23 54q0 35 -23 53.5t-59 18.5h-94v-144h94z" />
    <glyph glyph-name="rcaron" unicode="&#x159;" horiz-adv-x="464" 
d="M272 736h160l-160 -160h-96l-160 160h160l48 -80zM248 407q48 111 192 121v-217q-36 22 -80 21q-41 -3 -76.5 -36t-35.5 -87v-209h-192v512h192v-105z" />
    <glyph glyph-name="Sacute" unicode="&#x15a;" horiz-adv-x="640" 
d="M232 736l96 160h192l-160 -160h-128zM320 439q48 -6 82.5 -13t78 -23t70.5 -38t46 -59.5t19 -86.5q0 -105 -75 -170t-229 -65q-50 0 -98 10.5t-81 25t-58.5 29t-38.5 25.5l-12 10l71 153q44 -34 98.5 -53.5t86.5 -21.5l32 -2q112 -4 112 41q0 20 -24.5 28.5t-98.5 20.5
q-261 41 -261 220q0 95 74 156.5t216 61.5q18 0 47.5 -2t98 -22t108.5 -56l-76 -144q-7 5 -21 13t-64.5 21.5t-110.5 13.5q-80 0 -80 -32q0 -17 18 -25.5t70 -15.5z" />
    <glyph glyph-name="sacute" unicode="&#x15b;" horiz-adv-x="560" 
d="M192 576l96 160h192l-160 -160h-128zM299 340q60 -7 97.5 -16t72.5 -27.5t51 -50.5t16 -80q0 -84 -64 -133t-199 -49q-71 0 -133 18t-89 36l-27 18l48 136q31 -21 74.5 -35.5t71.5 -18.5l27 -4q99 -11 99 14q0 11 -14.5 16t-76.5 14q-213 30 -213 158q0 86 67.5 139
t200.5 53q116 -1 196 -43l-48 -137q-58 32 -160 34q-64 1 -64 -17q0 -16 36 -21q8 -1 26 -3l1 -1h1h1h1h1z" />
    <glyph glyph-name="Scedilla" unicode="&#x15e;" horiz-adv-x="640" 
d="M616 219q0 -94 -60.5 -157t-184.5 -75l-33 -35q52 6 89 -25.5t37 -86.5q0 -62 -45.5 -103t-114.5 -41q-92 0 -128 63l62 77q21 -48 66 -52q32 -3 53 15.5t21 40.5q0 26 -15.5 41t-39.5 15q-32 0 -56 -19l-43 59l50 50q-69 5 -131.5 29.5t-90.5 46.5l-28 22l71 153
q44 -34 98.5 -53.5t86.5 -21.5l32 -2q112 -4 112 41q0 20 -24.5 28.5t-98.5 20.5q-261 41 -261 220q0 95 74 156.5t216 61.5q18 0 47.5 -2t98 -22t108.5 -56l-76 -144q-7 5 -21 13t-64.5 21.5t-110.5 13.5q-80 0 -80 -32q0 -17 18 -25.5t70 -15.5q48 -6 82.5 -13t78 -23
t70.5 -38t46 -59.5t19 -86.5z" />
    <glyph glyph-name="scedilla" unicode="&#x15f;" horiz-adv-x="560" 
d="M536 166q0 -72 -47.5 -119.5t-147.5 -58.5l-35 -36q52 6 89 -25.5t37 -86.5q0 -62 -45.5 -103t-114.5 -41q-92 0 -128 63l62 77q21 -48 66 -52q32 -3 53 15.5t21 40.5q0 26 -15.5 41t-39.5 15q-32 0 -56 -19l-43 59l49 49q-62 4 -116 21.5t-77 33.5l-24 16l48 136
q31 -21 74.5 -35.5t71.5 -18.5l27 -4q99 -11 99 14q0 11 -14.5 16t-76.5 14q-213 30 -213 158q0 86 67.5 139t200.5 53q116 -1 196 -43l-48 -137q-58 32 -160 34q-64 1 -64 -17q0 -16 36 -21q8 -1 26 -3l1 -1h1h1h1h1q60 -7 97.5 -16t72.5 -27.5t51 -50.5t16 -80z" />
    <glyph glyph-name="Scaron" unicode="&#x160;" horiz-adv-x="640" 
d="M366 896h160l-160 -160h-96l-160 160h160l48 -80zM320 439q48 -6 82.5 -13t78 -23t70.5 -38t46 -59.5t19 -86.5q0 -105 -75 -170t-229 -65q-50 0 -98 10.5t-81 25t-58.5 29t-38.5 25.5l-12 10l71 153q44 -34 98.5 -53.5t86.5 -21.5l32 -2q112 -4 112 41q0 20 -24.5 28.5
t-98.5 20.5q-261 41 -261 220q0 95 74 156.5t216 61.5q18 0 47.5 -2t98 -22t108.5 -56l-76 -144q-7 5 -21 13t-64.5 21.5t-110.5 13.5q-80 0 -80 -32q0 -17 18 -25.5t70 -15.5z" />
    <glyph glyph-name="scaron" unicode="&#x161;" horiz-adv-x="560" 
d="M328 736h160l-160 -160h-96l-160 160h160l48 -80zM299 340q60 -7 97.5 -16t72.5 -27.5t51 -50.5t16 -80q0 -84 -64 -133t-199 -49q-71 0 -133 18t-89 36l-27 18l48 136q31 -21 74.5 -35.5t71.5 -18.5l27 -4q99 -11 99 14q0 11 -14.5 16t-76.5 14q-213 30 -213 158
q0 86 67.5 139t200.5 53q116 -1 196 -43l-48 -137q-58 32 -160 34q-64 1 -64 -17q0 -16 36 -21q8 -1 26 -3l1 -1h1h1h1h1z" />
    <glyph glyph-name="uni0162" unicode="&#x162;" horiz-adv-x="592" 
d="M392 0h-39l-45 -48q52 6 89 -25.5t37 -86.5q0 -62 -45.5 -103t-114.5 -41q-92 0 -128 63l62 77q21 -48 66 -52q32 -3 53 15.5t21 40.5q0 26 -15.5 41t-39.5 15q-32 0 -56 -19l-43 59l62 64h-56v496h-176v176h544v-176h-176v-496z" />
    <glyph glyph-name="uni0163" unicode="&#x163;" horiz-adv-x="416" 
d="M376 352h-96v-128q0 -57 17.5 -74t78.5 -6v-144q-47 -15 -111 -16l-31 -32q52 6 89 -25.5t37 -86.5q0 -62 -45.5 -103t-114.5 -41q-92 0 -128 63l62 77q21 -48 66 -52q32 -3 53 15.5t21 40.5q0 26 -15.5 41t-39.5 15q-32 0 -56 -19l-43 59l57 57q-47 16 -67.5 56.5
t-21.5 107.5v195h-64v160h64v160h192v-160h96v-160z" />
    <glyph glyph-name="Tcaron" unicode="&#x164;" horiz-adv-x="592" 
d="M344 896h160l-160 -160h-96l-160 160h160l48 -80zM24 672h544v-176h-176v-496h-192v496h-176v176z" />
    <glyph glyph-name="tcaron" unicode="&#x165;" horiz-adv-x="608" 
d="M376 352h-96v-128q0 -57 17.5 -74t78.5 -6v-144q-52 -16 -128 -16q-87 0 -123 42.5t-37 130.5v195h-64v160h64v160h192v-160h96v-160zM408 512l32 160h144l-80 -160h-96z" />
    <glyph glyph-name="Tbar" unicode="&#x166;" horiz-adv-x="592" 
d="M568 496h-176v-136h64v-96h-64v-264h-192v264h-64v96h64v136h-176v176h544v-176z" />
    <glyph glyph-name="tbar" unicode="&#x167;" horiz-adv-x="416" 
d="M376 352h-96v-32h96v-96h-96q0 -57 17.5 -74t78.5 -6v-144q-52 -16 -128 -16q-87 0 -123 42.5t-37 130.5v67h-64v96h64v32h-64v160h64v160h192v-160h96v-160z" />
    <glyph glyph-name="Umacron" unicode="&#x16a;" horiz-adv-x="720" 
d="M520 752h-320v96h320v-96zM472 672h208v-384q0 -135 -86 -219.5t-234 -84.5t-234 84.5t-86 219.5v384h208v-386q0 -60 33 -93t79 -33t79 33t33 93v386z" />
    <glyph glyph-name="umacron" unicode="&#x16b;" horiz-adv-x="624" 
d="M470 592h-320v96h320v-96zM232 -16q-81 0 -136.5 58.5t-55.5 165.5v304h192v-272q0 -42 21 -61t51 -19q29 0 50.5 20t21.5 60v272h192v-512h-192v64q-21 -39 -60 -59.5t-84 -20.5z" />
    <glyph glyph-name="Uring" unicode="&#x16e;" horiz-adv-x="720" 
d="M360 960q53 0 90.5 -37.5t37.5 -90.5t-37.5 -90.5t-90.5 -37.5t-90.5 37.5t-37.5 90.5t37.5 90.5t90.5 37.5zM360 784q20 0 34 14t14 34t-14 34t-34 14t-34 -14t-14 -34t14 -34t34 -14zM472 672h208v-384q0 -135 -86 -219.5t-234 -84.5t-234 84.5t-86 219.5v384h208v-386
q0 -60 33 -93t79 -33t79 33t33 93v386z" />
    <glyph glyph-name="uring" unicode="&#x16f;" horiz-adv-x="624" 
d="M312 800q53 0 90.5 -37.5t37.5 -90.5t-37.5 -90.5t-90.5 -37.5t-90.5 37.5t-37.5 90.5t37.5 90.5t90.5 37.5zM312 624q20 0 34 14t14 34t-14 34t-34 14t-34 -14t-14 -34t14 -34t34 -14zM232 -16q-81 0 -136.5 58.5t-55.5 165.5v304h192v-272q0 -42 21 -61t51 -19
q29 0 50.5 20t21.5 60v272h192v-512h-192v64q-21 -39 -60 -59.5t-84 -20.5z" />
    <glyph glyph-name="Uhungarumlaut" unicode="&#x170;" horiz-adv-x="720" 
d="M184 736l32 160h144l-80 -160h-96zM424 736l32 160h144l-80 -160h-96zM472 672h208v-384q0 -135 -86 -219.5t-234 -84.5t-234 84.5t-86 219.5v384h208v-386q0 -60 33 -93t79 -33t79 33t33 93v386z" />
    <glyph glyph-name="uhungarumlaut" unicode="&#x171;" horiz-adv-x="624" 
d="M120 576l32 160h144l-80 -160h-96zM360 576l32 160h144l-80 -160h-96zM232 -16q-81 0 -136.5 58.5t-55.5 165.5v304h192v-272q0 -42 21 -61t51 -19q29 0 50.5 20t21.5 60v272h192v-512h-192v64q-21 -39 -60 -59.5t-84 -20.5z" />
    <glyph glyph-name="Uogonek" unicode="&#x172;" horiz-adv-x="720" 
d="M472 672h208v-384q0 -117 -67 -198t-184 -101q-49 -12 -49 -63q0 -36 36.5 -46t72.5 8l16 -80q-46 -16 -80 -16q-60 0 -94 35.5t-34 92.5q0 36 20 66q-129 13 -203 95t-74 207v384h208v-386q0 -60 33 -93t79 -33t79 33t33 93v386z" />
    <glyph glyph-name="uogonek" unicode="&#x173;" horiz-adv-x="624" 
d="M520 0q-34 0 -63.5 -17.5t-29.5 -56.5q0 -36 36.5 -46t72.5 8l16 -80q-46 -16 -80 -16q-60 0 -94 35.5t-34 92.5q0 21 9.5 45t22.5 35v64q-21 -39 -60 -59.5t-84 -20.5q-81 0 -136.5 58.5t-55.5 165.5v304h192v-272q0 -42 21 -61t51 -19q29 0 50.5 20t21.5 60v272h192
v-512h-48z" />
    <glyph glyph-name="Wcircumflex" unicode="&#x174;" horiz-adv-x="1024" 
d="M560 736l-48 80l-48 -80h-160l160 160h96l160 -160h-160zM600 672l96 -400l112 400h216l-224 -672h-200l-88 320l-88 -320h-200l-224 672h216l112 -400l96 400h176z" />
    <glyph glyph-name="wcircumflex" unicode="&#x175;" horiz-adv-x="832" 
d="M464 576l-48 80l-48 -80h-160l160 160h96l160 -160h-160zM640 512h192l-176 -512h-160l-80 248l-80 -248h-160l-176 512h192l68 -264l80 264h152l80 -264z" />
    <glyph glyph-name="Ycircumflex" unicode="&#x176;" horiz-adv-x="688" 
d="M392 736l-48 80l-48 -80h-160l160 160h96l160 -160h-160zM472 672h224l-256 -400v-272h-192v272l-256 400h224l128 -208z" />
    <glyph glyph-name="ycircumflex" unicode="&#x177;" horiz-adv-x="560" 
d="M328 576l-48 80l-48 -80h-160l160 160h96l160 -160h-160zM264 -256h-192l112 272l-192 496h192l96 -272l96 272h192z" />
    <glyph glyph-name="Ydieresis" unicode="&#x178;" horiz-adv-x="688" 
d="M232 736q-33 0 -56.5 23.5t-23.5 56.5t23.5 56.5t56.5 23.5t56.5 -23.5t23.5 -56.5t-23.5 -56.5t-56.5 -23.5zM456 736q-33 0 -56.5 23.5t-23.5 56.5t23.5 56.5t56.5 23.5t56.5 -23.5t23.5 -56.5t-23.5 -56.5t-56.5 -23.5zM472 672h224l-256 -400v-272h-192v272l-256 400
h224l128 -208z" />
    <glyph glyph-name="Zacute" unicode="&#x179;" horiz-adv-x="640" 
d="M224 736l96 160h192l-160 -160h-128zM600 0h-576l280 496h-264v176h576l-280 -496h264v-176z" />
    <glyph glyph-name="zacute" unicode="&#x17a;" horiz-adv-x="560" 
d="M184 576l96 160h192l-160 -160h-128zM520 0h-496l224 352h-208v160h496l-224 -352h208v-160z" />
    <glyph glyph-name="Zdotaccent" unicode="&#x17b;" horiz-adv-x="640" 
d="M320 720q-40 0 -68 28t-28 68t28 68t68 28t68 -28t28 -68t-28 -68t-68 -28zM600 0h-576l280 496h-264v176h576l-280 -496h264v-176z" />
    <glyph glyph-name="zdotaccent" unicode="&#x17c;" horiz-adv-x="560" 
d="M280 560q-40 0 -68 28t-28 68t28 68t68 28t68 -28t28 -68t-28 -68t-68 -28zM520 0h-496l224 352h-208v160h496l-224 -352h208v-160z" />
    <glyph glyph-name="Zcaron" unicode="&#x17d;" horiz-adv-x="640" 
d="M368 896h160l-160 -160h-96l-160 160h160l48 -80zM600 0h-576l280 496h-264v176h576l-280 -496h264v-176z" />
    <glyph glyph-name="zcaron" unicode="&#x17e;" horiz-adv-x="560" 
d="M328 736h160l-160 -160h-96l-160 160h160l48 -80zM520 0h-496l224 352h-208v160h496l-224 -352h208v-160z" />
    <glyph glyph-name="Aringacute" unicode="&#x1fa;" horiz-adv-x="720" 
d="M264 992l96 160h192l-160 -160h-128zM360 960q53 0 90.5 -37.5t37.5 -90.5t-37.5 -90.5t-90.5 -37.5t-90.5 37.5t-37.5 90.5t37.5 90.5t90.5 37.5zM360 784q20 0 34 14t14 34t-14 34t-34 14t-34 -14t-14 -34t14 -34t34 -14zM450 672l278 -672h-195l-43 112h-260l-43 -112
h-195l278 672h180zM286 256h148l-74 192z" />
    <glyph glyph-name="aringacute" unicode="&#x1fb;" 
d="M264 832l96 160h192l-160 -160h-128zM344 800q53 0 90.5 -37.5t37.5 -90.5t-37.5 -90.5t-90.5 -37.5t-90.5 37.5t-37.5 90.5t37.5 90.5t90.5 37.5zM344 624q20 0 34 14t14 34t-14 34t-34 14t-34 -14t-14 -34t14 -34t34 -14zM408 512h192v-512h-192v52q-57 -68 -144 -68
q-100 0 -170 79.5t-70 192.5t70 192.5t170 79.5q87 0 144 -68v52zM312 144q40 0 68 33t28 79t-28 79t-68 33t-68 -33t-28 -79t28 -79t68 -33z" />
    <glyph glyph-name="AEacute" unicode="&#x1fc;" horiz-adv-x="864" 
d="M360 736l96 160h192l-160 -160h-128zM824 496h-256v-80h208v-160h-208v-80h256v-176h-448v112h-143l-46 -112h-195l294 672h538v-176zM291 256h85v208z" />
    <glyph glyph-name="aeacute" unicode="&#x1fd;" horiz-adv-x="912" 
d="M360 576l96 160h192l-160 -160h-128zM888 256q0 -16 -4 -48h-326q6 -30 38 -47t78 -17q36 0 69 8t48 16l15 8l49 -144q-8 -5 -23.5 -13t-67.5 -21.5t-108 -13.5q-63 0 -117 16h-195v33q-12 -22 -48.5 -35.5t-79.5 -13.5q-84 0 -138 51t-54 125q0 12 3 26t11 37t29.5 44.5
t52.5 36.5q96 44 224 16q-1 36 -26 52.5t-60 14.5t-70 -9.5t-60 -16.5l-24 -9l-48 112q3 3 10 7t30.5 15t51 19.5t72 15.5t92.5 7q110 0 158 -43q67 43 162 43q123 0 189.5 -71.5t66.5 -200.5zM558 304h134q0 34 -17.5 57t-50.5 23q-29 0 -47.5 -24t-18.5 -56zM344 160v80
h-16q-56 0 -84 -21t-28 -53q0 -33 18 -51.5t49 -18.5q28 0 44.5 17.5t16.5 46.5z" />
    <glyph glyph-name="Scommaaccent" unicode="&#x218;" horiz-adv-x="640" 
d="M320 439q48 -6 82.5 -13t78 -23t70.5 -38t46 -59.5t19 -86.5q0 -105 -75 -170t-229 -65q-50 0 -98 10.5t-81 25t-58.5 29t-38.5 25.5l-12 10l71 153q44 -34 98.5 -53.5t86.5 -21.5l32 -2q112 -4 112 41q0 20 -24.5 28.5t-98.5 20.5q-261 41 -261 220q0 95 74 156.5
t216 61.5q18 0 47.5 -2t98 -22t108.5 -56l-76 -144q-7 5 -21 13t-64.5 21.5t-110.5 13.5q-80 0 -80 -32q0 -17 18 -25.5t70 -15.5zM216 -224l32 160h144l-80 -160h-96z" />
    <glyph glyph-name="scommaaccent" unicode="&#x219;" horiz-adv-x="560" 
d="M299 340q60 -7 97.5 -16t72.5 -27.5t51 -50.5t16 -80q0 -84 -64 -133t-199 -49q-71 0 -133 18t-89 36l-27 18l48 136q31 -21 74.5 -35.5t71.5 -18.5l27 -4q99 -11 99 14q0 11 -14.5 16t-76.5 14q-213 30 -213 158q0 86 67.5 139t200.5 53q116 -1 196 -43l-48 -137
q-58 32 -160 34q-64 1 -64 -17q0 -16 36 -21q8 -1 26 -3l1 -1h1h1h1h1zM184 -224l32 160h144l-80 -160h-96z" />
    <glyph glyph-name="uni021A" unicode="&#x21a;" horiz-adv-x="592" 
d="M24 672h544v-176h-176v-496h-192v496h-176v176zM200 -224l32 160h144l-80 -160h-96z" />
    <glyph glyph-name="uni021B" unicode="&#x21b;" horiz-adv-x="416" 
d="M376 352h-96v-128q0 -57 17.5 -74t78.5 -6v-144q-52 -16 -128 -16q-87 0 -123 42.5t-37 130.5v195h-64v160h64v160h192v-160h96v-160zM104 -224l32 160h144l-80 -160h-96z" />
    <glyph glyph-name="circumflex" unicode="&#x2c6;" horiz-adv-x="784" 
d="M440 736l-48 80l-48 -80h-160l160 160h96l160 -160h-160z" />
    <glyph glyph-name="caron" unicode="&#x2c7;" horiz-adv-x="784" 
d="M440 896h160l-160 -160h-96l-160 160h160l48 -80z" />
    <glyph glyph-name="breve" unicode="&#x2d8;" horiz-adv-x="784" 
d="M456 896h96q0 -66 -47 -113t-113 -47t-113 47t-47 113h96q0 -26 19 -45t45 -19t45 19t19 45z" />
    <glyph glyph-name="dotaccent" unicode="&#x2d9;" horiz-adv-x="784" 
d="M392 720q-40 0 -68 28t-28 68t28 68t68 28t68 -28t28 -68t-28 -68t-68 -28z" />
    <glyph glyph-name="ring" unicode="&#x2da;" horiz-adv-x="784" 
d="M392 960q53 0 90.5 -37.5t37.5 -90.5t-37.5 -90.5t-90.5 -37.5t-90.5 37.5t-37.5 90.5t37.5 90.5t90.5 37.5zM392 784q20 0 34 14t14 34t-14 34t-34 14t-34 -14t-14 -34t14 -34t34 -14z" />
    <glyph glyph-name="ogonek" unicode="&#x2db;" horiz-adv-x="784" 
d="M334 0h144q-34 0 -63.5 -17.5t-29.5 -56.5q0 -36 36.5 -46t72.5 8l16 -80q-46 -16 -80 -16q-60 0 -94 35.5t-34 92.5q0 21 9.5 45t22.5 35z" />
    <glyph glyph-name="tilde" unicode="&#x2dc;" horiz-adv-x="784" 
d="M520 864l88 -30q-46 -98 -128 -98q-40 0 -88 20q-47 24 -78 21.5t-50 -41.5l-88 30q46 98 128 98q37 0 88 -21q48 -23 78.5 -20.5t49.5 41.5z" />
    <glyph glyph-name="hungarumlaut" unicode="&#x2dd;" horiz-adv-x="784" 
d="M200 736l32 160h144l-80 -160h-96zM440 736l32 160h144l-80 -160h-96z" />
    <glyph glyph-name="Alphatonos" unicode="&#x386;" horiz-adv-x="736" 
d="M466 672l278 -672h-195l-43 112h-260l-43 -112h-195l278 672h180zM24 512l32 160h144l-80 -160h-96zM302 256h148l-74 192z" />
    <glyph glyph-name="Epsilontonos" unicode="&#x388;" horiz-adv-x="720" 
d="M24 512l32 160h144l-80 -160h-96zM680 496h-256v-80h208v-160h-208v-80h256v-176h-448v672h448v-176z" />
    <glyph glyph-name="Etatonos" unicode="&#x389;" horiz-adv-x="896" 
d="M24 512l32 160h144l-80 -160h-96zM648 672h192v-672h-192v248h-224v-248h-192v672h192v-248h224v248z" />
    <glyph glyph-name="Iotatonos" unicode="&#x38a;" horiz-adv-x="480" 
d="M24 512l32 160h144l-80 -160h-96zM424 0h-192v672h192v-672z" />
    <glyph glyph-name="Omicrontonos" unicode="&#x38c;" horiz-adv-x="896" 
d="M504 688q152 0 260 -103t108 -249t-108 -249t-260 -103t-260 103t-108 249t108 249t260 103zM24 512l32 160h144l-80 -160h-96zM504 160q73 0 124.5 51.5t51.5 124.5t-51.5 124.5t-124.5 51.5t-124.5 -51.5t-51.5 -124.5t51.5 -124.5t124.5 -51.5z" />
    <glyph glyph-name="Upsilontonos" unicode="&#x38e;" horiz-adv-x="928" 
d="M24 512l32 160h144l-80 -160h-96zM712 672h224l-256 -400v-272h-192v272l-256 400h224l128 -208z" />
    <glyph glyph-name="Omegatonos" unicode="&#x38f;" horiz-adv-x="928" 
d="M888 384q0 -64 -26.5 -119.5t-74.5 -88.5h101v-176h-336v192q66 18 105 58.5t39 101.5q0 67 -51.5 113.5t-124.5 46.5t-124.5 -46.5t-51.5 -113.5q0 -61 39 -101.5t105 -58.5v-192h-336v176h101q-48 33 -74.5 88.5t-26.5 119.5q0 133 104.5 218.5t263.5 85.5t263.5 -85.5
t104.5 -218.5zM24 512l32 160h144l-80 -160h-96z" />
    <glyph glyph-name="iotadieresistonos" unicode="&#x390;" horiz-adv-x="336" 
d="M-24 576q-33 0 -56.5 23.5t-23.5 56.5t23.5 56.5t56.5 23.5t56.5 -23.5t23.5 -56.5t-23.5 -56.5t-56.5 -23.5zM80 576l32 160h144l-80 -160h-96zM344 576q-33 0 -56.5 23.5t-23.5 56.5t23.5 56.5t56.5 23.5t56.5 -23.5t23.5 -56.5t-23.5 -56.5t-56.5 -23.5zM248 512v-304
q0 -44 13.5 -57.5t50.5 -6.5v-144q-46 -16 -106 -16q-150 0 -150 189v339h192z" />
    <glyph glyph-name="Alpha" unicode="&#x391;" horiz-adv-x="720" 
d="M450 672l278 -672h-195l-43 112h-260l-43 -112h-195l278 672h180zM286 256h148l-74 192z" />
    <glyph glyph-name="Beta" unicode="&#x392;" 
d="M519 361q59 -13 86 -57.5t27 -101.5q0 -89 -62 -145.5t-168 -56.5h-346v672h288q118 0 187 -45.5t69 -130.5q0 -49 -22.5 -85.5t-58.5 -49.5zM248 528v-112h80q80 0 80 56t-80 56h-80zM344 144q96 0 96 64t-96 64h-96v-128h96z" />
    <glyph glyph-name="Gamma" unicode="&#x393;" horiz-adv-x="528" 
d="M248 496v-496h-192v672h448v-176h-256z" />
    <glyph glyph-name="uni0394" unicode="&#x394;" horiz-adv-x="720" 
d="M450 672l278 -672h-736l278 672h180zM255 176h210l-105 272z" />
    <glyph glyph-name="Epsilon" unicode="&#x395;" horiz-adv-x="544" 
d="M504 496h-256v-80h208v-160h-208v-80h256v-176h-448v672h448v-176z" />
    <glyph glyph-name="Zeta" unicode="&#x396;" horiz-adv-x="640" 
d="M600 0h-576l280 496h-264v176h576l-280 -496h264v-176z" />
    <glyph glyph-name="Eta" unicode="&#x397;" horiz-adv-x="720" 
d="M472 672h192v-672h-192v248h-224v-248h-192v672h192v-248h224v248z" />
    <glyph glyph-name="Theta" unicode="&#x398;" horiz-adv-x="784" 
d="M392 688q152 0 260 -103t108 -249t-108 -249t-260 -103t-260 103t-108 249t108 249t260 103zM392 160q73 0 124.5 51.5t51.5 124.5t-51.5 124.5t-124.5 51.5t-124.5 -51.5t-51.5 -124.5t51.5 -124.5t124.5 -51.5zM264 288v96h256v-96h-256z" />
    <glyph glyph-name="Iota" unicode="&#x399;" horiz-adv-x="304" 
d="M248 0h-192v672h192v-672z" />
    <glyph glyph-name="Kappa" unicode="&#x39a;" horiz-adv-x="704" 
d="M424 352l272 -352h-240l-208 288v-288h-192v672h192v-256l192 256h240z" />
    <glyph glyph-name="Lambda" unicode="&#x39b;" horiz-adv-x="720" 
d="M450 672l278 -672h-195l-173 448l-173 -448h-195l278 672h180z" />
    <glyph glyph-name="Mu" unicode="&#x39c;" horiz-adv-x="880" 
d="M792 672l64 -672h-192l-32 352l-112 -352h-160l-112 352l-32 -352h-192l64 672h192l160 -400l160 400h192z" />
    <glyph glyph-name="Nu" unicode="&#x39d;" horiz-adv-x="752" 
d="M504 672h192v-672h-192l-256 368v-368h-192v672h192l256 -368v368z" />
    <glyph glyph-name="Xi" unicode="&#x39e;" horiz-adv-x="592" 
d="M40 496v176h512v-176h-512zM88 256v160h416v-160h-416zM40 0v176h512v-176h-512z" />
    <glyph glyph-name="Omicron" unicode="&#x39f;" horiz-adv-x="784" 
d="M392 688q152 0 260 -103t108 -249t-108 -249t-260 -103t-260 103t-108 249t108 249t260 103zM392 160q73 0 124.5 51.5t51.5 124.5t-51.5 124.5t-124.5 51.5t-124.5 -51.5t-51.5 -124.5t51.5 -124.5t124.5 -51.5z" />
    <glyph glyph-name="Pi" unicode="&#x3a0;" horiz-adv-x="720" 
d="M664 672v-672h-192v496h-224v-496h-192v672h608z" />
    <glyph glyph-name="Rho" unicode="&#x3a1;" horiz-adv-x="640" 
d="M360 672q127 0 191.5 -61t64.5 -163t-60.5 -171t-163.5 -69h-144v-208h-192v672h304zM342 368q36 0 59 18t23 54q0 35 -23 53.5t-59 18.5h-94v-144h94z" />
    <glyph glyph-name="Sigma" unicode="&#x3a3;" horiz-adv-x="640" 
d="M306 496l150 -160l-150 -160h278v-176h-528v176l160 160l-160 160v176h528v-176h-278z" />
    <glyph glyph-name="Tau" unicode="&#x3a4;" horiz-adv-x="592" 
d="M24 672h544v-176h-176v-496h-192v496h-176v176z" />
    <glyph glyph-name="Upsilon" unicode="&#x3a5;" horiz-adv-x="688" 
d="M472 672h224l-256 -400v-272h-192v272l-256 400h224l128 -208z" />
    <glyph glyph-name="Phi" unicode="&#x3a6;" horiz-adv-x="816" 
d="M792 352q0 -125 -80.5 -206.5t-207.5 -81.5v-64h-192v64q-127 0 -207.5 81.5t-80.5 206.5q0 127 80.5 207.5t207.5 80.5v64h192v-64q127 0 207.5 -80.5t80.5 -207.5zM312 240v224q-38 0 -67 -28t-29 -84q0 -57 29 -84.5t67 -27.5zM504 240q38 0 67 27.5t29 84.5
q0 56 -29 84t-67 28v-224z" />
    <glyph glyph-name="Chi" unicode="&#x3a7;" horiz-adv-x="736" 
d="M500 352l228 -352h-226l-134 212l-134 -212h-226l228 352l-211 320h226l117 -188l117 188h226z" />
    <glyph glyph-name="Psi" unicode="&#x3a8;" horiz-adv-x="880" 
d="M632 672h192v-254q0 -78 -22.5 -134.5t-65 -89t-90 -49.5t-110.5 -25v-120h-192v120q-63 8 -110.5 25t-90 49.5t-65 89t-22.5 134.5v254h192v-268q0 -101 96 -108v376h192v-376q96 7 96 108v268z" />
    <glyph glyph-name="uni03A9" unicode="&#x3a9;" horiz-adv-x="816" 
d="M776 384q0 -64 -26.5 -119.5t-74.5 -88.5h101v-176h-336v192q66 18 105 58.5t39 101.5q0 67 -51.5 113.5t-124.5 46.5t-124.5 -46.5t-51.5 -113.5q0 -61 39 -101.5t105 -58.5v-192h-336v176h101q-48 33 -74.5 88.5t-26.5 119.5q0 133 104.5 218.5t263.5 85.5t263.5 -85.5
t104.5 -218.5z" />
    <glyph glyph-name="Iotadieresis" unicode="&#x3aa;" horiz-adv-x="304" 
d="M40 736q-33 0 -56.5 23.5t-23.5 56.5t23.5 56.5t56.5 23.5t56.5 -23.5t23.5 -56.5t-23.5 -56.5t-56.5 -23.5zM264 736q-33 0 -56.5 23.5t-23.5 56.5t23.5 56.5t56.5 23.5t56.5 -23.5t23.5 -56.5t-23.5 -56.5t-56.5 -23.5zM248 0h-192v672h192v-672z" />
    <glyph glyph-name="Upsilondieresis" unicode="&#x3ab;" horiz-adv-x="688" 
d="M232 736q-33 0 -56.5 23.5t-23.5 56.5t23.5 56.5t56.5 23.5t56.5 -23.5t23.5 -56.5t-23.5 -56.5t-56.5 -23.5zM456 736q-33 0 -56.5 23.5t-23.5 56.5t23.5 56.5t56.5 23.5t56.5 -23.5t23.5 -56.5t-23.5 -56.5t-56.5 -23.5zM472 672h224l-256 -400v-272h-192v272l-256 400
h224l128 -208z" />
    <glyph glyph-name="alphatonos" unicode="&#x3ac;" horiz-adv-x="688" 
d="M288 576l32 160h144l-80 -160h-96zM600 208q0 -44 13 -57t51 -7v-144q-53 -16 -98 -16q-107 0 -136 81q-57 -81 -166 -81q-100 0 -170 79.5t-70 192.5t70 192.5t170 79.5q87 0 144 -68v52h192v-304zM312 144q40 0 68 33t28 79t-28 79t-68 33t-68 -33t-28 -79t28 -79
t68 -33z" />
    <glyph glyph-name="epsilontonos" unicode="&#x3ad;" horiz-adv-x="528" 
d="M200 576l32 160h144l-80 -160h-96zM318 152q59 0 122 28l64 -135q-90 -61 -224 -61q-118 0 -187 43t-69 123q0 35 23.5 67.5t59.5 46.5q-34 13 -54.5 43.5t-20.5 62.5q0 158 243 158q132 0 222 -62l-57 -134q-72 28 -127 28q-97 0 -97 -30q0 -16 43 -25t101 -9l-1 -80
q-58 0 -100.5 -9t-42.5 -25q0 -30 102 -30z" />
    <glyph glyph-name="etatonos" unicode="&#x3ae;" horiz-adv-x="624" 
d="M240 576l32 160h144l-80 -160h-96zM392 528q81 0 136.5 -58.5t55.5 -165.5v-560h-192v528q0 42 -21 61t-51 19q-29 0 -50.5 -20t-21.5 -60v-272h-192v512h192v-64q21 39 60 59.5t84 20.5z" />
    <glyph glyph-name="iotatonos" unicode="&#x3af;" horiz-adv-x="336" 
d="M80 576l32 160h144l-80 -160h-96zM248 512v-304q0 -44 13.5 -57.5t50.5 -6.5v-144q-46 -16 -106 -16q-150 0 -150 189v339h192z" />
    <glyph glyph-name="upsilondieresistonos" unicode="&#x3b0;" horiz-adv-x="624" 
d="M120 576q-33 0 -56.5 23.5t-23.5 56.5t23.5 56.5t56.5 23.5t56.5 -23.5t23.5 -56.5t-23.5 -56.5t-56.5 -23.5zM224 576l32 160h144l-80 -160h-96zM488 576q-33 0 -56.5 23.5t-23.5 56.5t23.5 56.5t56.5 23.5t56.5 -23.5t23.5 -56.5t-23.5 -56.5t-56.5 -23.5zM536 512
q48 -129 48 -236q0 -134 -70 -213t-202 -79q-128 0 -200 72t-72 192v264h192v-250q0 -53 22.5 -77.5t57.5 -24.5q33 0 56.5 27.5t23.5 82.5q0 93 -40 242h184z" />
    <glyph glyph-name="alpha" unicode="&#x3b1;" horiz-adv-x="688" 
d="M600 208q0 -44 13 -57t51 -7v-144q-53 -16 -98 -16q-107 0 -136 81q-57 -81 -166 -81q-100 0 -170 79.5t-70 192.5t70 192.5t170 79.5q87 0 144 -68v52h192v-304zM312 144q40 0 68 33t28 79t-28 79t-68 33t-68 -33t-28 -79t28 -79t68 -33z" />
    <glyph glyph-name="beta" unicode="&#x3b2;" horiz-adv-x="624" 
d="M472 384q57 -8 92.5 -61.5t35.5 -109.5q0 -96 -62 -162.5t-186 -66.5q-74 0 -120 32v-272h-192v752q0 108 74 166t174 58q127 0 195.5 -56t68.5 -149q0 -40 -24 -80.5t-56 -50.5zM232 152q24 -11 54 -13.5t57.5 3.5t46 27.5t18.5 54.5q0 52 -33 74t-111 22v96
q47 0 71.5 22.5t24.5 57.5q0 80 -64 80q-27 0 -45.5 -21t-18.5 -59v-344z" />
    <glyph glyph-name="gamma" unicode="&#x3b3;" horiz-adv-x="560" 
d="M568 512l-192 -492v-276h-192v276l-192 492h192l96 -272l96 272h192z" />
    <glyph glyph-name="delta" unicode="&#x3b4;" horiz-adv-x="624" 
d="M600 252q-3 -114 -81.5 -191t-206.5 -77q-131 0 -209.5 78t-78.5 194q0 77 35 139t100 97q-56 48 -55 105.5t54 89.5q53 33 153 33q98 0 193 -24l-16 -136q-84 22 -170 16q-34 -2 -33 -14.5t33 -19.5q62 -13 109 -33t88 -52.5t63 -84.5t22 -120zM312 144q40 0 68 33
t28 79q0 47 -36 85t-76 53q-4 0 -22 -15.5t-38 -50t-20 -72.5q0 -46 28 -79t68 -33z" />
    <glyph glyph-name="epsilon" unicode="&#x3b5;" horiz-adv-x="544" 
d="M334 152q59 0 122 28l64 -135q-90 -61 -224 -61q-118 0 -187 43t-69 123q0 35 23.5 67.5t59.5 46.5q-34 13 -54.5 43.5t-20.5 62.5q0 158 243 158q132 0 222 -62l-57 -134q-72 28 -127 28q-97 0 -97 -30q0 -16 43 -25t101 -9l-1 -80q-58 0 -100.5 -9t-42.5 -25
q0 -30 102 -30z" />
    <glyph glyph-name="zeta" unicode="&#x3b6;" horiz-adv-x="544" 
d="M520 496q-131 -68 -209.5 -132.5t-78.5 -115.5q0 -36 17 -57t43.5 -29t59 -11.5t65 -9t59 -17.5t43.5 -40.5t17 -73.5q0 -42 -16 -106h-144q10 46 -2.5 63t-69.5 17q-264 0 -264 208q0 98 69.5 185.5t175.5 118.5h-197v176h432v-176z" />
    <glyph glyph-name="eta" unicode="&#x3b7;" horiz-adv-x="624" 
d="M392 528q81 0 136.5 -58.5t55.5 -165.5v-560h-192v528q0 42 -21 61t-51 19q-29 0 -50.5 -20t-21.5 -60v-272h-192v512h192v-64q21 39 60 59.5t84 20.5z" />
    <glyph glyph-name="theta" unicode="&#x3b8;" 
d="M328 688q135 0 211.5 -100t76.5 -252q0 -154 -73.5 -253t-214.5 -99q-142 0 -215 98.5t-73 253.5q0 152 76 252t212 100zM328 512q-36 0 -60.5 -35.5t-32.5 -92.5h186q-8 57 -32.5 92.5t-60.5 35.5zM328 160q36 0 60.5 35.5t32.5 92.5h-186q8 -57 32.5 -92.5t60.5 -35.5z
" />
    <glyph glyph-name="iota" unicode="&#x3b9;" horiz-adv-x="336" 
d="M248 512v-304q0 -44 13.5 -57.5t50.5 -6.5v-144q-46 -16 -106 -16q-150 0 -150 189v339h192z" />
    <glyph glyph-name="kappa" unicode="&#x3ba;" horiz-adv-x="608" 
d="M408 268l208 -268h-224l-144 208v-208h-192v512h192v-192l128 192h224z" />
    <glyph glyph-name="lambda" unicode="&#x3bb;" horiz-adv-x="640" 
d="M508 216q20 -51 44 -66.5t64 -5.5v-144q-39 -16 -86 -16q-33 0 -60.5 13t-46 31.5t-37 53.5t-30 64.5t-28.5 79.5l-16 46l-96 -272h-192l200 491q-20 50 -42.5 64.5t-61.5 4.5v144q39 16 83 16q39 0 68.5 -15.5t51.5 -48.5t38 -68t37 -90q3 -9 5 -14z" />
    <glyph glyph-name="uni03BC" unicode="&#x3bc;" horiz-adv-x="640" 
d="M392 512h192v-512h-192v64q-21 -39 -60 -59.5t-84 -20.5v-240h-192v768h192v-272q0 -42 21 -61t51 -19q29 0 50.5 20t21.5 60v272z" />
    <glyph glyph-name="nu" unicode="&#x3bd;" horiz-adv-x="560" 
d="M200 0l-208 512h192l96 -272l91 272h197l-208 -512h-160z" />
    <glyph glyph-name="xi" unicode="&#x3be;" horiz-adv-x="560" 
d="M232 208q0 -57 93 -64q12 -1 36.5 -2t39 -2t37 -4.5t36.5 -8.5t30.5 -14.5t25.5 -23t15.5 -33.5t6.5 -46q0 -42 -16 -106h-144q10 45 -1.5 62.5t-62.5 17.5q-151 0 -219.5 45.5t-68.5 146.5q0 114 132 172q-119 47 -116 172q2 95 70.5 147.5t187.5 52.5q53 0 111.5 -18
t94.5 -46l-64 -144q-44 28 -120 32q-42 2 -73 -8.5t-31 -38.5q0 -34 59.5 -57.5t164.5 -23.5v-136q-224 0 -224 -72z" />
    <glyph glyph-name="omicron" unicode="&#x3bf;" horiz-adv-x="624" 
d="M312 528q126 0 207 -79t81 -193q0 -115 -81 -193.5t-207 -78.5q-131 0 -209.5 78t-78.5 194t78 194t210 78zM312 144q40 0 68 33t28 79t-28 79t-68 33t-68 -33t-28 -79t28 -79t68 -33z" />
    <glyph glyph-name="pi" unicode="&#x3c0;" horiz-adv-x="688" 
d="M568 336v-128q0 -44 13.5 -57.5t50.5 -6.5v-144q-46 -16 -102 -16q-77 0 -111.5 48t-34.5 141v163h-104v-336h-192v336h-64v176h624v-176h-80z" />
    <glyph glyph-name="rho" unicode="&#x3c1;" 
d="M344 528q126 0 207 -79t81 -193t-72 -193t-184 -79q-78 0 -128 36v-276h-192v512q0 116 78 194t210 78zM344 144q40 0 68 33t28 79t-28 79t-68 33t-68 -33t-28 -79t28 -79t68 -33z" />
    <glyph glyph-name="uni03C2" unicode="&#x3c2;" horiz-adv-x="560" 
d="M552 10q0 -42 -16 -106h-144q10 45 -5 62.5t-78 17.5q-131 0 -208 78t-77 194t77.5 194t207.5 78q129 0 195 -63l-74 -145q-39 48 -102 48q-46 0 -79 -33t-33 -79q0 -48 25 -74.5t62 -32t81 -11.5t81 -12.5t62 -35.5t25 -80z" />
    <glyph glyph-name="sigma" unicode="&#x3c3;" 
d="M632 512v-176h-68q36 -43 36 -112q0 -102 -81 -171t-207 -69q-132 0 -210 74.5t-78 189.5t77.5 189.5t210.5 74.5h320zM312 144q40 0 68 27t28 69t-28 69t-68 27t-68 -27t-28 -69t28 -69t68 -27z" />
    <glyph glyph-name="tau" unicode="&#x3c4;" horiz-adv-x="528" 
d="M360 336v-128q0 -44 13.5 -57.5t50.5 -6.5v-144q-46 -16 -106 -16q-150 0 -150 189v163h-144v176h480v-176h-144z" />
    <glyph glyph-name="upsilon" unicode="&#x3c5;" horiz-adv-x="624" 
d="M536 512q48 -129 48 -236q0 -134 -70 -213t-202 -79q-128 0 -200 72t-72 192v264h192v-250q0 -53 22.5 -77.5t57.5 -24.5q33 0 56.5 27.5t23.5 82.5q0 93 -40 242h184z" />
    <glyph glyph-name="phi" unicode="&#x3c6;" horiz-adv-x="816" 
d="M504 528q135 -12 211.5 -83.5t76.5 -188.5t-76.5 -188.5t-211.5 -83.5v-240h-192v240q-135 12 -211.5 83.5t-76.5 188.5t76.5 188.5t211.5 83.5v176h192v-176zM312 152v208q-43 -7 -69.5 -33t-26.5 -71t26.5 -71t69.5 -33zM600 256q0 45 -26.5 71t-69.5 33v-208
q43 7 69.5 33t26.5 71z" />
    <glyph glyph-name="chi" unicode="&#x3c7;" horiz-adv-x="608" 
d="M424 272l176 -272h-200l-96 144l-96 -144h-200l176 272l-160 240h200l80 -128l80 128h200z" />
    <glyph glyph-name="psi" unicode="&#x3c8;" horiz-adv-x="848" 
d="M616 512h192v-246q0 -127 -74.5 -198.5t-213.5 -83.5v-240h-192v240q-139 12 -213.5 83.5t-74.5 198.5v246h192v-242q0 -32 8.5 -55t24 -35.5t30 -18t33.5 -9.5v360h192v-360q19 4 33.5 9.5t30 18t24 35.5t8.5 55v242z" />
    <glyph glyph-name="omega" unicode="&#x3c9;" horiz-adv-x="880" 
d="M783 512q23 -50 40 -120t17 -132q0 -134 -62 -205t-170 -71q-115 0 -168 69q-53 -69 -168 -69q-114 0 -173 70t-59 206q0 62 17 132t40 120h184q-49 -139 -49 -242q0 -55 19 -82.5t45 -27.5t37 23t11 79v170h192v-170q0 -56 11 -79t37 -23t45 27.5t19 82.5q0 103 -49 242
h184z" />
    <glyph glyph-name="iotadieresis" unicode="&#x3ca;" horiz-adv-x="336" 
d="M40 576q-33 0 -56.5 23.5t-23.5 56.5t23.5 56.5t56.5 23.5t56.5 -23.5t23.5 -56.5t-23.5 -56.5t-56.5 -23.5zM264 576q-33 0 -56.5 23.5t-23.5 56.5t23.5 56.5t56.5 23.5t56.5 -23.5t23.5 -56.5t-23.5 -56.5t-56.5 -23.5zM248 512v-304q0 -44 13.5 -57.5t50.5 -6.5v-144
q-46 -16 -106 -16q-150 0 -150 189v339h192z" />
    <glyph glyph-name="upsilondieresis" unicode="&#x3cb;" horiz-adv-x="624" 
d="M176 576q-33 0 -56.5 23.5t-23.5 56.5t23.5 56.5t56.5 23.5t56.5 -23.5t23.5 -56.5t-23.5 -56.5t-56.5 -23.5zM400 576q-33 0 -56.5 23.5t-23.5 56.5t23.5 56.5t56.5 23.5t56.5 -23.5t23.5 -56.5t-23.5 -56.5t-56.5 -23.5zM536 512q48 -129 48 -236q0 -134 -70 -213
t-202 -79q-128 0 -200 72t-72 192v264h192v-250q0 -53 22.5 -77.5t57.5 -24.5q33 0 56.5 27.5t23.5 82.5q0 93 -40 242h184z" />
    <glyph glyph-name="omicrontonos" unicode="&#x3cc;" horiz-adv-x="624" 
d="M248 576l32 160h144l-80 -160h-96zM312 528q126 0 207 -79t81 -193q0 -115 -81 -193.5t-207 -78.5q-131 0 -209.5 78t-78.5 194t78 194t210 78zM312 144q40 0 68 33t28 79t-28 79t-68 33t-68 -33t-28 -79t28 -79t68 -33z" />
    <glyph glyph-name="upsilontonos" unicode="&#x3cd;" horiz-adv-x="624" 
d="M216 576l32 160h144l-80 -160h-96zM536 512q48 -129 48 -236q0 -134 -70 -213t-202 -79q-128 0 -200 72t-72 192v264h192v-250q0 -53 22.5 -77.5t57.5 -24.5q33 0 56.5 27.5t23.5 82.5q0 93 -40 242h184z" />
    <glyph glyph-name="omegatonos" unicode="&#x3ce;" horiz-adv-x="880" 
d="M376 576l32 160h144l-80 -160h-96zM783 512q23 -50 40 -120t17 -132q0 -134 -62 -205t-170 -71q-115 0 -168 69q-53 -69 -168 -69q-114 0 -173 70t-59 206q0 62 17 132t40 120h184q-49 -139 -49 -242q0 -55 19 -82.5t45 -27.5t37 23t11 79v170h192v-170q0 -56 11 -79
t37 -23t45 27.5t19 82.5q0 103 -49 242h184z" />
    <glyph glyph-name="uni0401" unicode="&#x401;" horiz-adv-x="544" 
d="M160 736q-33 0 -56.5 23.5t-23.5 56.5t23.5 56.5t56.5 23.5t56.5 -23.5t23.5 -56.5t-23.5 -56.5t-56.5 -23.5zM384 736q-33 0 -56.5 23.5t-23.5 56.5t23.5 56.5t56.5 23.5t56.5 -23.5t23.5 -56.5t-23.5 -56.5t-56.5 -23.5zM504 496h-256v-80h208v-160h-208v-80h256v-176
h-448v672h448v-176z" />
    <glyph glyph-name="uni0402" unicode="&#x402;" horiz-adv-x="736" 
d="M488 416q103 0 155.5 -58.5t52.5 -161.5q0 -147 -66.5 -219.5t-189.5 -72.5l-32 160q96 0 96 108q0 46 -19.5 65t-60.5 19q-17 0 -37 -6t-31 -12l-12 -6v-232h-192v496h-128v176h512v-176h-192v-124q60 44 144 44z" />
    <glyph glyph-name="uni0403" unicode="&#x403;" horiz-adv-x="528" 
d="M152 736l96 160h192l-160 -160h-128zM248 496v-496h-192v672h448v-176h-256z" />
    <glyph glyph-name="uni0404" unicode="&#x404;" 
d="M407 160q92 0 152 68l73 -163q-44 -38 -106.5 -59.5t-123.5 -21.5q-156 0 -267 103.5t-111 248.5t111 248.5t267 103.5q61 0 123.5 -21t106.5 -59l-73 -164q-60 68 -152 68q-60 0 -108.5 -31t-69.5 -81h243v-128h-243q21 -50 69.5 -81t108.5 -31z" />
    <glyph glyph-name="uni0405" unicode="&#x405;" horiz-adv-x="640" 
d="M320 439q48 -6 82.5 -13t78 -23t70.5 -38t46 -59.5t19 -86.5q0 -105 -75 -170t-229 -65q-50 0 -98 10.5t-81 25t-58.5 29t-38.5 25.5l-12 10l71 153q44 -34 98.5 -53.5t86.5 -21.5l32 -2q112 -4 112 41q0 20 -24.5 28.5t-98.5 20.5q-261 41 -261 220q0 95 74 156.5
t216 61.5q18 0 47.5 -2t98 -22t108.5 -56l-76 -144q-7 5 -21 13t-64.5 21.5t-110.5 13.5q-80 0 -80 -32q0 -17 18 -25.5t70 -15.5z" />
    <glyph glyph-name="uni0406" unicode="&#x406;" horiz-adv-x="304" 
d="M248 0h-192v672h192v-672z" />
    <glyph glyph-name="uni0407" unicode="&#x407;" horiz-adv-x="304" 
d="M40 736q-33 0 -56.5 23.5t-23.5 56.5t23.5 56.5t56.5 23.5t56.5 -23.5t23.5 -56.5t-23.5 -56.5t-56.5 -23.5zM264 736q-33 0 -56.5 23.5t-23.5 56.5t23.5 56.5t56.5 23.5t56.5 -23.5t23.5 -56.5t-23.5 -56.5t-56.5 -23.5zM248 0h-192v672h192v-672z" />
    <glyph glyph-name="uni0408" unicode="&#x408;" horiz-adv-x="512" 
d="M280 672h192v-416q0 -134 -75.5 -203t-208.5 -69q-46 0 -92.5 18t-71.5 46l83 151q28 -39 77 -39q42 0 69 24.5t27 71.5v416z" />
    <glyph glyph-name="uni0409" unicode="&#x409;" horiz-adv-x="1088" 
d="M840 416q106 0 165 -54t59 -146q0 -96 -65 -156t-191 -60h-288v496h-152v-224q0 -227 -170 -274q-64 -18 -158 -6v176q65 -6 94 12q34 22 34 87v405h544v-256h128zM798 160q74 0 74 48t-74 48h-86v-96h86z" />
    <glyph glyph-name="uni040A" unicode="&#x40a;" horiz-adv-x="1040" 
d="M792 416q106 0 165 -54t59 -146q0 -96 -65 -156t-191 -60h-288v256h-224v-256h-192v672h192v-256h224v256h192v-256h128zM750 160q74 0 74 48t-74 48h-86v-96h86z" />
    <glyph glyph-name="uni040B" unicode="&#x40b;" horiz-adv-x="736" 
d="M488 416q103 0 155.5 -58.5t52.5 -161.5v-196h-192v168q0 49 -19 68.5t-61 19.5q-17 0 -37 -6t-31 -12l-12 -6v-232h-192v496h-128v176h512v-176h-192v-124q60 44 144 44z" />
    <glyph glyph-name="uni040C" unicode="&#x40c;" horiz-adv-x="704" 
d="M216 736l96 160h192l-160 -160h-128zM424 352l272 -352h-240l-208 288v-288h-192v672h192v-256l192 256h240z" />
    <glyph glyph-name="uni040E" unicode="&#x40e;" 
d="M400 896h96q0 -66 -47 -113t-113 -47t-113 47t-47 113h96q0 -26 19 -45t45 -19t45 19t19 45zM448 672h216l-328 -672h-208l104 214l-224 458h216l112 -254z" />
    <glyph glyph-name="uni040F" unicode="&#x40f;" horiz-adv-x="720" 
d="M664 672v-672h-208v-128h-192v128h-208v672h192v-496h224v496h192z" />
    <glyph glyph-name="uni0410" unicode="&#x410;" horiz-adv-x="720" 
d="M450 672l278 -672h-195l-43 112h-260l-43 -112h-195l278 672h180zM286 256h148l-74 192z" />
    <glyph glyph-name="uni0411" unicode="&#x411;" 
d="M408 432q104 0 164 -61t60 -155q0 -96 -65 -156t-191 -60h-320v672h512v-160h-320v-80h160zM358 160q36 0 59 16.5t23 47.5t-23 47.5t-59 16.5h-110v-128h110z" />
    <glyph glyph-name="uni0412" unicode="&#x412;" 
d="M519 361q59 -13 86 -57.5t27 -101.5q0 -89 -62 -145.5t-168 -56.5h-346v672h288q118 0 187 -45.5t69 -130.5q0 -49 -22.5 -85.5t-58.5 -49.5zM248 528v-112h80q80 0 80 56t-80 56h-80zM344 144q96 0 96 64t-96 64h-96v-128h96z" />
    <glyph glyph-name="uni0413" unicode="&#x413;" horiz-adv-x="528" 
d="M248 496v-496h-192v672h448v-176h-256z" />
    <glyph glyph-name="uni0414" unicode="&#x414;" horiz-adv-x="816" 
d="M696 176h96v-304h-192v128h-384v-128h-192v304q62 0 94 44.5t45 148t13 303.5h520v-496zM293 176h211v320h-144q0 -247 -67 -320z" />
    <glyph glyph-name="uni0415" unicode="&#x415;" horiz-adv-x="544" 
d="M504 496h-256v-80h208v-160h-208v-80h256v-176h-448v672h448v-176z" />
    <glyph glyph-name="uni0416" unicode="&#x416;" horiz-adv-x="1072" 
d="M792 344l272 -344h-232l-200 264v-264h-192v264l-200 -264h-232l272 344l-256 328h232l184 -256v256h192v-256l184 256h232z" />
    <glyph glyph-name="uni0417" unicode="&#x417;" horiz-adv-x="624" 
d="M200 272v128q78 0 135 14t57 44q0 54 -101 54q-102 0 -183 -48l-69 136q53 39 131.5 63.5t149.5 24.5q117 0 190.5 -54t73.5 -146t-83 -133q45 -11 72 -57t27 -98q0 -96 -74.5 -156t-212.5 -60q-79 0 -159 25t-130 63l76 144q69 -56 191 -56q117 0 117 51q0 61 -208 61z
" />
    <glyph glyph-name="uni0418" unicode="&#x418;" horiz-adv-x="752" 
d="M248 672v-368l256 368h192v-672h-192v368l-256 -368h-192v672h192z" />
    <glyph glyph-name="uni0419" unicode="&#x419;" horiz-adv-x="752" 
d="M440 896h96q0 -66 -47 -113t-113 -47t-113 47t-47 113h96q0 -26 19 -45t45 -19t45 19t19 45zM248 672v-368l256 368h192v-672h-192v368l-256 -368h-192v672h192z" />
    <glyph glyph-name="uni041A" unicode="&#x41a;" horiz-adv-x="704" 
d="M424 352l272 -352h-240l-208 288v-288h-192v672h192v-256l192 256h240z" />
    <glyph glyph-name="uni041B" unicode="&#x41b;" horiz-adv-x="768" 
d="M712 672v-672h-192v496h-160v-224q0 -111 -38.5 -180.5t-127.5 -93.5q-63 -18 -154 -6v176q65 -6 94 12q34 22 34 87v405h544z" />
    <glyph glyph-name="uni041C" unicode="&#x41c;" horiz-adv-x="880" 
d="M792 672l64 -672h-192l-32 352l-112 -352h-160l-112 352l-32 -352h-192l64 672h192l160 -400l160 400h192z" />
    <glyph glyph-name="uni041D" unicode="&#x41d;" horiz-adv-x="720" 
d="M472 672h192v-672h-192v248h-224v-248h-192v672h192v-248h224v248z" />
    <glyph glyph-name="uni041E" unicode="&#x41e;" horiz-adv-x="784" 
d="M392 688q152 0 260 -103t108 -249t-108 -249t-260 -103t-260 103t-108 249t108 249t260 103zM392 160q73 0 124.5 51.5t51.5 124.5t-51.5 124.5t-124.5 51.5t-124.5 -51.5t-51.5 -124.5t51.5 -124.5t124.5 -51.5z" />
    <glyph glyph-name="uni041F" unicode="&#x41f;" horiz-adv-x="720" 
d="M664 672v-672h-192v496h-224v-496h-192v672h608z" />
    <glyph glyph-name="uni0420" unicode="&#x420;" horiz-adv-x="640" 
d="M360 672q127 0 191.5 -61t64.5 -163t-60.5 -171t-163.5 -69h-144v-208h-192v672h304zM342 368q36 0 59 18t23 54q0 35 -23 53.5t-59 18.5h-94v-144h94z" />
    <glyph glyph-name="uni0421" unicode="&#x421;" 
d="M407 160q92 0 152 68l73 -163q-44 -38 -106.5 -59.5t-123.5 -21.5q-156 0 -267 103.5t-111 248.5t111 248.5t267 103.5q61 0 123.5 -21t106.5 -59l-73 -164q-60 68 -152 68q-79 0 -135 -51.5t-56 -124.5t56 -124.5t135 -51.5z" />
    <glyph glyph-name="uni0422" unicode="&#x422;" horiz-adv-x="592" 
d="M24 672h544v-176h-176v-496h-192v496h-176v176z" />
    <glyph glyph-name="uni0423" unicode="&#x423;" 
d="M448 672h216l-328 -672h-208l104 214l-224 458h216l112 -254z" />
    <glyph glyph-name="uni0424" unicode="&#x424;" horiz-adv-x="880" 
d="M856 352q0 -126 -88 -207t-232 -81v-64h-192v64q-144 0 -232 81t-88 207q0 127 88.5 207.5t231.5 80.5v64h192v-64q143 0 231.5 -80.5t88.5 -207.5zM344 240v224q-51 0 -89.5 -28t-38.5 -84q0 -57 38 -84.5t90 -27.5zM536 240q52 0 90 27.5t38 84.5q0 56 -38.5 84
t-89.5 28v-224z" />
    <glyph glyph-name="uni0425" unicode="&#x425;" horiz-adv-x="736" 
d="M500 352l228 -352h-226l-134 212l-134 -212h-226l228 352l-211 320h226l117 -188l117 188h226z" />
    <glyph glyph-name="uni0426" unicode="&#x426;" horiz-adv-x="832" 
d="M664 176h128v-304h-192v128h-544v672h192v-496h224v496h192v-496z" />
    <glyph glyph-name="uni0427" unicode="&#x427;" horiz-adv-x="672" 
d="M256 192q-99 0 -157.5 62t-58.5 178v240h192v-192q0 -58 21 -85t67 -27q20 0 46 6t42 12l16 6v280h192v-672h-192v236q-76 -44 -168 -44z" />
    <glyph glyph-name="uni0428" unicode="&#x428;" horiz-adv-x="976" 
d="M728 672h192v-672h-864v672h192v-496h144v496h192v-496h144v496z" />
    <glyph glyph-name="uni0429" unicode="&#x429;" horiz-adv-x="1088" 
d="M920 176h128v-304h-192v128h-800v672h192v-496h144v496h192v-496h144v496h192v-496z" />
    <glyph glyph-name="uni042A" unicode="&#x42a;" horiz-adv-x="736" 
d="M488 432q105 0 164.5 -57.5t59.5 -150.5q0 -97 -65.5 -160.5t-190.5 -63.5h-304v496h-128v176h320v-240h144zM438 160q36 0 59 16.5t23 47.5t-23 47.5t-59 16.5h-94v-128h94z" />
    <glyph glyph-name="uni042B" unicode="&#x42b;" horiz-adv-x="928" 
d="M392 432q105 0 164.5 -57.5t59.5 -150.5q0 -97 -65.5 -160.5t-190.5 -63.5h-304v672h192v-240h144zM872 0h-192v672h192v-672zM342 160q36 0 59 16.5t23 47.5t-23 47.5t-59 16.5h-94v-128h94z" />
    <glyph glyph-name="uni042C" unicode="&#x42c;" horiz-adv-x="640" 
d="M392 432q105 0 164.5 -57.5t59.5 -150.5q0 -97 -65.5 -160.5t-190.5 -63.5h-304v672h192v-240h144zM342 160q36 0 59 16.5t23 47.5t-23 47.5t-59 16.5h-94v-128h94z" />
    <glyph glyph-name="uni042D" unicode="&#x42d;" 
d="M249 160q60 0 108.5 31t69.5 81h-243v128h243q-21 50 -69.5 81t-108.5 31q-92 0 -152 -68l-73 164q44 38 106.5 59t123.5 21q156 0 267 -103.5t111 -248.5t-111 -248.5t-267 -103.5q-61 0 -123.5 21.5t-106.5 59.5l73 163q60 -68 152 -68z" />
    <glyph glyph-name="uni042E" unicode="&#x42e;" horiz-adv-x="1088" 
d="M696 688q152 0 260 -103t108 -249t-108 -249t-260 -103q-129 0 -229 77t-129 195h-90v-256h-192v672h192v-256h90q29 118 129 195t229 77zM696 160q73 0 124.5 51.5t51.5 124.5t-51.5 124.5t-124.5 51.5t-124.5 -51.5t-51.5 -124.5t51.5 -124.5t124.5 -51.5z" />
    <glyph glyph-name="uni042F" unicode="&#x42f;" horiz-adv-x="672" 
d="M189 226q-63 27 -98 86.5t-35 135.5q0 102 64.5 163t191.5 61h304v-672h-192v208h-37l-139 -208h-224zM330 368h94v144h-94q-36 0 -59 -18.5t-23 -53.5q0 -36 23 -54t59 -18z" />
    <glyph glyph-name="uni0430" unicode="&#x430;" 
d="M408 512h192v-512h-192v52q-57 -68 -144 -68q-100 0 -170 79.5t-70 192.5t70 192.5t170 79.5q87 0 144 -68v52zM312 144q40 0 68 33t28 79t-28 79t-68 33t-68 -33t-28 -79t28 -79t68 -33z" />
    <glyph glyph-name="uni0431" unicode="&#x431;" horiz-adv-x="624" 
d="M312 528q126 0 207 -79t81 -193q0 -115 -81 -193.5t-207 -78.5q-131 0 -209.5 78t-78.5 194q0 84 29 157t106 147q26 25 62 50.5t57 45.5t34 48h192q-12 -82 -123 -141q-22 -11 -43.5 -20t-30.5 -15h5zM312 144q40 0 68 33t28 79t-28 79t-68 33t-68 -33t-28 -79t28 -79
t68 -33z" />
    <glyph glyph-name="uni0432" unicode="&#x432;" horiz-adv-x="592" 
d="M472 261q34 -9 57 -38.5t23 -66.5q0 -85 -60.5 -120.5t-179.5 -35.5h-256v512h240q119 0 179.5 -35.5t60.5 -120.5q0 -32 -19 -59t-45 -36zM248 384v-80h54q17 0 29.5 10t12.5 30q0 19 -12.5 29.5t-29.5 10.5h-54zM313 128q21 0 34 10.5t13 29.5q0 40 -47 40h-65v-80h65z
" />
    <glyph glyph-name="uni0433" unicode="&#x433;" horiz-adv-x="464" 
d="M248 336v-336h-192v512h384v-176h-192z" />
    <glyph glyph-name="uni0434" unicode="&#x434;" horiz-adv-x="752" 
d="M632 176h80v-304h-192v128h-304v-128h-192v304q44 0 74.5 23t47 69.5t23.5 104.5t7 139h456v-336zM289 176h151v160h-104q0 -43 -13.5 -95t-33.5 -65z" />
    <glyph glyph-name="uni0435" unicode="&#x435;" horiz-adv-x="576" 
d="M552 256q0 -16 -4 -48h-326q6 -30 38 -47t78 -17q36 0 69 8t48 16l15 8l49 -144q-8 -5 -23.5 -13t-67.5 -21.5t-108 -13.5q-147 0 -221.5 76.5t-74.5 195.5t70 195.5t202 76.5q123 0 189.5 -71.5t66.5 -200.5zM222 304h134q0 34 -17.5 57t-50.5 23q-29 0 -47.5 -24
t-18.5 -56z" />
    <glyph glyph-name="uni0436" unicode="&#x436;" horiz-adv-x="944" 
d="M728 260l208 -260h-224l-144 200v-200h-192v200l-144 -200h-224l208 260l-192 252h224l128 -200v200h192v-200l128 200h224z" />
    <glyph glyph-name="uni0437" unicode="&#x437;" horiz-adv-x="544" 
d="M210 152q102 0 102 30q0 16 -42.5 25t-100.5 9l-1 80q58 0 99 9t41 25q0 30 -93 30q-55 0 -127 -28l-57 134q90 62 222 62q243 0 243 -158q0 -32 -20.5 -62.5t-54.5 -43.5q36 -14 59.5 -46.5t23.5 -67.5q0 -80 -69 -123t-187 -43q-134 0 -224 61l64 135q63 -28 122 -28z
" />
    <glyph glyph-name="uni0438" unicode="&#x438;" 
d="M248 512v-256l160 256h192v-512h-192v256l-160 -256h-192v512h192z" />
    <glyph glyph-name="uni0439" unicode="&#x439;" 
d="M392 736h96q0 -66 -47 -113t-113 -47t-113 47t-47 113h96q0 -26 19 -45t45 -19t45 19t19 45zM248 512v-256l160 256h192v-512h-192v256l-160 -256h-192v512h192z" />
    <glyph glyph-name="uni043A" unicode="&#x43a;" horiz-adv-x="608" 
d="M408 268l208 -268h-224l-144 208v-208h-192v512h192v-192l128 192h224z" />
    <glyph glyph-name="uni043B" unicode="&#x43b;" 
d="M136 512h464v-512h-192v336h-88v-147q0 -92 -44 -148.5t-122 -56.5q-55 0 -114 16v144q46 -11 71 5t25 59v304z" />
    <glyph glyph-name="uni043C" unicode="&#x43c;" horiz-adv-x="768" 
d="M572 0l-37 232l-78 -232h-146l-78 232l-37 -232h-188l91 512h196l89 -269l89 269h196l91 -512h-188z" />
    <glyph glyph-name="uni043D" unicode="&#x43d;" horiz-adv-x="640" 
d="M392 512h192v-512h-192v168h-144v-168h-192v512h192v-168h144v168z" />
    <glyph glyph-name="uni043E" unicode="&#x43e;" horiz-adv-x="624" 
d="M312 528q126 0 207 -79t81 -193q0 -115 -81 -193.5t-207 -78.5q-131 0 -209.5 78t-78.5 194t78 194t210 78zM312 144q40 0 68 33t28 79t-28 79t-68 33t-68 -33t-28 -79t28 -79t68 -33z" />
    <glyph glyph-name="uni043F" unicode="&#x43f;" horiz-adv-x="640" 
d="M584 512v-512h-192v336h-144v-336h-192v512h528z" />
    <glyph glyph-name="uni0440" unicode="&#x440;" 
d="M392 528q100 0 170 -79.5t70 -192.5t-70 -192.5t-170 -79.5q-87 0 -144 68v-308h-192v768h192v-52q57 68 144 68zM344 144q40 0 68 33t28 79t-28 79t-68 33t-68 -33t-28 -79t28 -79t68 -33z" />
    <glyph glyph-name="uni0441" unicode="&#x441;" horiz-adv-x="528" 
d="M430 192l74 -145q-63 -63 -195 -63q-131 0 -208 78t-77 194t77.5 194t207.5 78q129 0 195 -63l-74 -145q-39 48 -102 48q-46 0 -79 -33t-33 -79t33 -79t79 -33q64 0 102 48z" />
    <glyph glyph-name="uni0442" unicode="&#x442;" horiz-adv-x="528" 
d="M24 512h480v-176h-144v-336h-192v336h-144v176z" />
    <glyph glyph-name="uni0443" unicode="&#x443;" horiz-adv-x="560" 
d="M264 -256h-192l112 272l-192 496h192l96 -272l96 272h192z" />
    <glyph glyph-name="uni0444" unicode="&#x444;" horiz-adv-x="1008" 
d="M744 528q100 0 170 -79.5t70 -192.5t-70 -192.5t-170 -79.5q-93 0 -144 44v-220h-192v220q-51 -44 -144 -44q-100 0 -170 79.5t-70 192.5t70 192.5t170 79.5q93 0 144 -44v220h192v-220q51 44 144 44zM312 144q42 0 69 28t27 84t-27 84t-69 28q-40 0 -68 -33t-28 -79
t28 -79t68 -33zM696 144q40 0 68 33t28 79t-28 79t-68 33q-42 0 -69 -28t-27 -84t27 -84t69 -28z" />
    <glyph glyph-name="uni0445" unicode="&#x445;" horiz-adv-x="608" 
d="M424 272l176 -272h-200l-96 144l-96 -144h-200l176 272l-160 240h200l80 -128l80 128h200z" />
    <glyph glyph-name="uni0446" unicode="&#x446;" horiz-adv-x="752" 
d="M584 176h128v-304h-192v128h-464v512h192v-336h144v336h192v-336z" />
    <glyph glyph-name="uni0447" unicode="&#x447;" horiz-adv-x="608" 
d="M216 144q-85 0 -130.5 56.5t-45.5 167.5v144h192v-142q0 -30 13.5 -47t50.5 -17q46 0 64 16v190h192v-512h-192v182q-65 -38 -144 -38z" />
    <glyph glyph-name="uni0448" unicode="&#x448;" horiz-adv-x="912" 
d="M664 512h192v-512h-800v512h192v-336h112v336h192v-336h112v336z" />
    <glyph glyph-name="uni0449" unicode="&#x449;" horiz-adv-x="1024" 
d="M856 176h128v-304h-192v128h-736v512h192v-336h112v336h192v-336h112v336h192v-336z" />
    <glyph glyph-name="uni044A" unicode="&#x44a;" horiz-adv-x="672" 
d="M408 336q240 0 240 -164q0 -87 -62.5 -129.5t-177.5 -42.5h-256v336h-128v176h320v-176h64zM401 128q24 0 39.5 10.5t15.5 29.5q0 40 -55 40h-57v-80h57z" />
    <glyph glyph-name="uni044B" unicode="&#x44b;" horiz-adv-x="864" 
d="M56 0v512h192v-176h64q240 0 240 -164q0 -87 -62.5 -129.5t-177.5 -42.5h-256zM616 0v512h192v-512h-192zM305 128q24 0 39.5 10.5t15.5 29.5q0 40 -55 40h-57v-80h57z" />
    <glyph glyph-name="uni044C" unicode="&#x44c;" horiz-adv-x="576" 
d="M56 0v512h192v-176h64q240 0 240 -164q0 -87 -62.5 -129.5t-177.5 -42.5h-256zM305 128q24 0 39.5 10.5t15.5 29.5q0 40 -55 40h-57v-80h57z" />
    <glyph glyph-name="uni044D" unicode="&#x44d;" horiz-adv-x="528" 
d="M200 144q38 0 67.5 22.5t39.5 57.5h-155v64h155q-10 35 -39.5 57.5t-67.5 22.5q-63 0 -102 -48l-74 145q66 63 195 63q130 0 207.5 -78t77.5 -194t-77 -194t-208 -78q-132 0 -195 63l74 145q38 -48 102 -48z" />
    <glyph glyph-name="uni044E" unicode="&#x44e;" horiz-adv-x="928" 
d="M616 528q126 0 207 -79t81 -193q0 -115 -81 -193.5t-207 -78.5q-106 0 -179 53t-98 139h-91v-176h-192v512h192v-176h91q24 86 97 139t180 53zM616 144q40 0 68 33t28 79t-28 79t-68 33t-68 -33t-28 -79t28 -79t68 -33z" />
    <glyph glyph-name="uni044F" unicode="&#x44f;" horiz-adv-x="608" 
d="M296 512h256v-512h-192v152l-112 -152h-224l146 181q-51 14 -82.5 55t-31.5 96q0 88 63 134t177 46zM303 368q-22 0 -38.5 -12.5t-16.5 -35.5t16.5 -35.5t38.5 -12.5h57v96h-57z" />
    <glyph glyph-name="uni0451" unicode="&#x451;" horiz-adv-x="576" 
d="M176 576q-33 0 -56.5 23.5t-23.5 56.5t23.5 56.5t56.5 23.5t56.5 -23.5t23.5 -56.5t-23.5 -56.5t-56.5 -23.5zM400 576q-33 0 -56.5 23.5t-23.5 56.5t23.5 56.5t56.5 23.5t56.5 -23.5t23.5 -56.5t-23.5 -56.5t-56.5 -23.5zM552 256q0 -16 -4 -48h-326q6 -30 38 -47
t78 -17q36 0 69 8t48 16l15 8l49 -144q-8 -5 -23.5 -13t-67.5 -21.5t-108 -13.5q-147 0 -221.5 76.5t-74.5 195.5t70 195.5t202 76.5q123 0 189.5 -71.5t66.5 -200.5zM222 304h134q0 34 -17.5 57t-50.5 23q-29 0 -47.5 -24t-18.5 -56z" />
    <glyph glyph-name="uni0452" unicode="&#x452;" horiz-adv-x="640" 
d="M408 528q81 0 136.5 -58.5t55.5 -165.5v-304q-4 -142 -67.5 -207t-188.5 -65l-32 160q39 0 67.5 27.5t28.5 84.5v272q0 42 -21 61t-51 19q-29 0 -50.5 -20t-21.5 -60v-272h-192v536h-64v96h64v72h192v-72h64v-96h-64v-88q21 39 60 59.5t84 20.5z" />
    <glyph glyph-name="uni0453" unicode="&#x453;" horiz-adv-x="464" 
d="M120 576l96 160h192l-160 -160h-128zM248 336v-336h-192v512h384v-176h-192z" />
    <glyph glyph-name="uni0454" unicode="&#x454;" horiz-adv-x="528" 
d="M328 144q64 0 102 48l74 -145q-63 -63 -195 -63q-131 0 -208 78t-77 194t77.5 194t207.5 78q129 0 195 -63l-74 -145q-39 48 -102 48q-38 0 -67.5 -22.5t-39.5 -57.5h155v-64h-155q10 -35 39.5 -57.5t67.5 -22.5z" />
    <glyph glyph-name="uni0455" unicode="&#x455;" horiz-adv-x="560" 
d="M299 340q60 -7 97.5 -16t72.5 -27.5t51 -50.5t16 -80q0 -84 -64 -133t-199 -49q-71 0 -133 18t-89 36l-27 18l48 136q31 -21 74.5 -35.5t71.5 -18.5l27 -4q99 -11 99 14q0 11 -14.5 16t-76.5 14q-213 30 -213 158q0 86 67.5 139t200.5 53q116 -1 196 -43l-48 -137
q-58 32 -160 34q-64 1 -64 -17q0 -16 36 -21q8 -1 26 -3l1 -1h1h1h1h1z" />
    <glyph glyph-name="uni0456" unicode="&#x456;" horiz-adv-x="304" 
d="M152 560q-43 0 -73.5 30.5t-30.5 73.5t30.5 73.5t73.5 30.5t73.5 -30.5t30.5 -73.5t-30.5 -73.5t-73.5 -30.5zM56 0v512h192v-512h-192z" />
    <glyph glyph-name="uni0457" unicode="&#x457;" horiz-adv-x="304" 
d="M40 576q-33 0 -56.5 23.5t-23.5 56.5t23.5 56.5t56.5 23.5t56.5 -23.5t23.5 -56.5t-23.5 -56.5t-56.5 -23.5zM264 576q-33 0 -56.5 23.5t-23.5 56.5t23.5 56.5t56.5 23.5t56.5 -23.5t23.5 -56.5t-23.5 -56.5t-56.5 -23.5zM56 0v512h192v-512h-192z" />
    <glyph glyph-name="uni0458" unicode="&#x458;" horiz-adv-x="304" 
d="M152 560q-43 0 -73.5 30.5t-30.5 73.5t30.5 73.5t73.5 30.5t73.5 -30.5t30.5 -73.5t-30.5 -73.5t-73.5 -30.5zM56 0v512h192v-496q0 -150 -63.5 -219t-192.5 -69l-32 160q39 0 67.5 27.5t28.5 84.5z" />
    <glyph glyph-name="uni0459" unicode="&#x459;" horiz-adv-x="912" 
d="M648 336q240 0 240 -164q0 -87 -62.5 -129.5t-177.5 -42.5h-240v336h-88v-147q0 -92 -44 -148.5t-122 -56.5q-55 0 -114 16v144q46 -11 71 5t25 59v304h464v-176h48zM641 128q24 0 39.5 10.5t15.5 29.5q0 40 -55 40h-41v-80h41z" />
    <glyph glyph-name="uni045A" unicode="&#x45a;" horiz-adv-x="896" 
d="M632 336q240 0 240 -164q0 -87 -62.5 -129.5t-177.5 -42.5h-240v208h-144v-208h-192v512h192v-176h144v176h192v-176h48zM625 128q24 0 39.5 10.5t15.5 29.5q0 40 -55 40h-41v-80h41z" />
    <glyph glyph-name="uni045B" unicode="&#x45b;" horiz-adv-x="640" 
d="M408 528q81 0 136.5 -58.5t55.5 -165.5v-304h-192v272q0 42 -21 61t-51 19q-29 0 -50.5 -20t-21.5 -60v-272h-192v536h-64v96h64v72h192v-72h64v-96h-64v-88q21 39 60 59.5t84 20.5z" />
    <glyph glyph-name="uni045C" unicode="&#x45c;" horiz-adv-x="608" 
d="M200 576l96 160h192l-160 -160h-128zM408 268l208 -268h-224l-144 208v-208h-192v512h192v-192l128 192h224z" />
    <glyph glyph-name="uni045E" unicode="&#x45e;" horiz-adv-x="560" 
d="M344 736h96q0 -66 -47 -113t-113 -47t-113 47t-47 113h96q0 -26 19 -45t45 -19t45 19t19 45zM264 -256h-192l112 272l-192 496h192l96 -272l96 272h192z" />
    <glyph glyph-name="uni045F" unicode="&#x45f;" horiz-adv-x="640" 
d="M392 512h192v-512h-168v-128h-192v128h-168v512h192v-336h144v336z" />
    <glyph glyph-name="uni0462" unicode="&#x462;" horiz-adv-x="672" 
d="M424 432q105 0 164.5 -57.5t59.5 -150.5q0 -97 -65.5 -160.5t-190.5 -63.5h-304v496h-80v128h80v80h192v-80h160v-128h-160v-64h144zM374 160q36 0 59 16.5t23 47.5t-23 47.5t-59 16.5h-94v-128h94z" />
    <glyph glyph-name="uni0463" unicode="&#x463;" horiz-adv-x="592" 
d="M328 336q240 0 240 -164q0 -87 -62.5 -129.5t-177.5 -42.5h-256v392h-64v96h64v56h192v-56h64v-96h-64v-56h64zM321 128q24 0 39.5 10.5t15.5 29.5q0 40 -55 40h-57v-80h57z" />
    <glyph glyph-name="uni0472" unicode="&#x472;" horiz-adv-x="784" 
d="M392 688q152 0 260 -103t108 -249t-108 -249t-260 -103t-260 103t-108 249t108 249t260 103zM392 512q-61 0 -108.5 -37t-61.5 -95q28 20 74 20q31 0 96 -21q61 -23 100 -20.5t64 41.5q-20 50 -64.5 81t-99.5 31zM392 160q61 0 108.5 37t61.5 95q-28 -20 -74 -20
q-34 0 -96 20q-61 24 -100 21.5t-64 -41.5q20 -50 64.5 -81t99.5 -31z" />
    <glyph glyph-name="uni0473" unicode="&#x473;" horiz-adv-x="624" 
d="M312 528q126 0 207 -79t81 -193q0 -115 -81 -193.5t-207 -78.5q-131 0 -209.5 78t-78.5 194t78 194t210 78zM312 368q-56 0 -83 -56h3q29 0 80 -21q68 -29 95 -16q-6 40 -32.5 66.5t-62.5 26.5zM312 144q56 0 83 56h-3q-32 0 -80 20q-68 29 -95 17q6 -40 33 -66.5
t62 -26.5z" />
    <glyph glyph-name="uni0474" unicode="&#x474;" horiz-adv-x="752" 
d="M427 456q14 39 24.5 65.5t24.5 53t27 43t30.5 31.5t37 22.5t46 12.5t57.5 4.5t70 -5.5v-176q-44 5 -69.5 -12t-47.5 -70l-171 -425h-192l-272 672h224l144 -402z" />
    <glyph glyph-name="uni0475" unicode="&#x475;" horiz-adv-x="592" 
d="M498 528q47 0 86 -16v-144q-40 10 -64 -5.5t-44 -66.5l-116 -296h-160l-208 512h192l96 -272l16 46q17 50 28.5 79.5t30 64.5t37 53.5t46 31.5t60.5 13z" />
    <glyph glyph-name="uni0490" unicode="&#x490;" horiz-adv-x="528" 
d="M360 768h144v-272h-256v-496h-192v672h304v96z" />
    <glyph glyph-name="uni0491" unicode="&#x491;" horiz-adv-x="464" 
d="M296 608h144v-272h-192v-336h-192v512h240v96z" />
    <glyph glyph-name="uni0492" unicode="&#x492;" horiz-adv-x="544" 
d="M520 496h-256v-136h96v-96h-96v-264h-192v264h-64v96h64v312h448v-176z" />
    <glyph glyph-name="uni0493" unicode="&#x493;" horiz-adv-x="480" 
d="M456 336h-192v-76h96v-96h-96v-164h-192v164h-64v96h64v252h384v-176z" />
    <glyph glyph-name="uni0496" unicode="&#x496;" horiz-adv-x="1072" 
d="M925 176h139v-272h-144v96h-88l-200 264v-264h-192v264l-200 -264h-232l272 344l-256 328h232l184 -256v256h192v-256l184 256h232l-256 -328z" />
    <glyph glyph-name="uni0497" unicode="&#x497;" horiz-adv-x="944" 
d="M795 176h141v-272h-144v96h-80l-144 200v-200h-192v200l-144 -200h-224l208 260l-192 252h224l128 -200v200h192v-200l128 200h224l-192 -252z" />
    <glyph glyph-name="uni049A" unicode="&#x49a;" horiz-adv-x="704" 
d="M560 176h136v-272h-144v96h-96l-208 288v-288h-192v672h192v-256l192 256h240l-256 -320z" />
    <glyph glyph-name="uni049B" unicode="&#x49b;" horiz-adv-x="624" 
d="M479 176h137v-272h-144v96h-80l-144 208v-208h-192v512h192v-192l128 192h224l-192 -244z" />
    <glyph glyph-name="uni04A2" unicode="&#x4a2;" horiz-adv-x="752" 
d="M664 176h80v-272h-144v96h-128v248h-224v-248h-192v672h192v-248h224v248h192v-496z" />
    <glyph glyph-name="uni04A3" unicode="&#x4a3;" horiz-adv-x="672" 
d="M584 176h80v-272h-144v96h-128v168h-144v-168h-192v512h192v-168h144v168h192v-336z" />
    <glyph glyph-name="uni04AE" unicode="&#x4ae;" horiz-adv-x="688" 
d="M472 672h224l-256 -400v-272h-192v272l-256 400h224l128 -208z" />
    <glyph glyph-name="uni04AF" unicode="&#x4af;" horiz-adv-x="560" 
d="M568 512l-192 -492v-276h-192v276l-192 492h192l96 -272l96 272h192z" />
    <glyph glyph-name="uni04B0" unicode="&#x4b0;" horiz-adv-x="688" 
d="M440 272v-8h64v-96h-64v-168h-192v168h-64v96h64v8l-256 400h224l128 -208l128 208h224z" />
    <glyph glyph-name="uni04B1" unicode="&#x4b1;" horiz-adv-x="560" 
d="M376 20v-28h80v-96h-80v-152h-192v152h-80v96h80v28l-192 492h192l96 -272l96 272h192z" />
    <glyph glyph-name="uni04B2" unicode="&#x4b2;" horiz-adv-x="752" 
d="M614 176h130v-272h-144v96h-98l-134 212l-134 -212h-226l228 352l-211 320h226l117 -188l117 188h226l-211 -320z" />
    <glyph glyph-name="uni04B3" unicode="&#x4b3;" horiz-adv-x="624" 
d="M486 176h130v-272h-144v96h-72l-96 144l-96 -144h-200l176 272l-160 240h200l80 -128l80 128h200l-160 -240z" />
    <glyph glyph-name="uni04B6" unicode="&#x4b6;" horiz-adv-x="704" 
d="M616 176h80v-272h-144v96h-128v236q-76 -44 -168 -44q-99 0 -157.5 62t-58.5 178v240h192v-192q0 -58 21 -85t67 -27q20 0 46 6t42 12l16 6v280h192v-496z" />
    <glyph glyph-name="uni04B7" unicode="&#x4b7;" horiz-adv-x="640" 
d="M552 176h80v-272h-144v96h-128v182q-65 -38 -144 -38q-85 0 -130.5 56.5t-45.5 167.5v144h192v-142q0 -30 13.5 -47t50.5 -17q46 0 64 16v190h192v-336z" />
    <glyph glyph-name="uni04BA" unicode="&#x4ba;" horiz-adv-x="672" 
d="M416 480q99 0 157.5 -62t58.5 -178v-240h-192v192q0 58 -21 85t-67 27q-20 0 -46 -6t-42 -12l-16 -6v-280h-192v672h192v-236q76 44 168 44z" />
    <glyph glyph-name="uni04BB" unicode="&#x4bb;" horiz-adv-x="624" 
d="M392 528q81 0 136.5 -58.5t55.5 -165.5v-304h-192v272q0 42 -21 61t-51 19q-29 0 -50.5 -20t-21.5 -60v-272h-192v704h192v-256q21 39 60 59.5t84 20.5z" />
    <glyph glyph-name="uni04C0" unicode="&#x4c0;" horiz-adv-x="304" 
d="M248 0h-192v672h192v-672z" />
    <glyph glyph-name="uni04CF" unicode="&#x4cf;" horiz-adv-x="304" 
d="M56 0v512h192v-512h-192z" />
    <glyph glyph-name="uni04D8" unicode="&#x4d8;" horiz-adv-x="784" 
d="M24 336q0 32 6 64h526q-20 50 -64.5 81t-99.5 31q-93 0 -146 -68l-182 50q47 88 134.5 141t193.5 53q152 0 260 -103t108 -249t-108 -249t-260 -103t-260 103t-108 249zM228 272q20 -50 64.5 -81t99.5 -31t99.5 31t64.5 81h-328z" />
    <glyph glyph-name="uni04D9" unicode="&#x4d9;" horiz-adv-x="576" 
d="M24 256q0 16 4 48h326q-11 64 -72 64q-35 0 -60 -32l-172 48q26 64 84 104t146 40q131 0 201.5 -77t70.5 -195q0 -119 -70 -195.5t-202 -76.5q-123 0 -189.5 71.5t-66.5 200.5zM354 208h-134q0 -34 17.5 -57t50.5 -23q29 0 47.5 24t18.5 56z" />
    <glyph glyph-name="uni04E2" unicode="&#x4e2;" horiz-adv-x="752" 
d="M536 752h-320v96h320v-96zM248 672v-368l256 368h192v-672h-192v368l-256 -368h-192v672h192z" />
    <glyph glyph-name="uni04E3" unicode="&#x4e3;" 
d="M488 592h-320v96h320v-96zM248 512v-256l160 256h192v-512h-192v256l-160 -256h-192v512h192z" />
    <glyph glyph-name="uni04E8" unicode="&#x4e8;" horiz-adv-x="784" 
d="M392 688q152 0 260 -103t108 -249t-108 -249t-260 -103t-260 103t-108 249t108 249t260 103zM392 512q-59 0 -106 -36t-63 -92h338q-16 56 -63 92t-106 36zM392 160q59 0 106 36t63 92h-338q16 -56 63 -92t106 -36z" />
    <glyph glyph-name="uni04E9" unicode="&#x4e9;" horiz-adv-x="624" 
d="M312 528q126 0 207 -79t81 -193q0 -115 -81 -193.5t-207 -78.5q-131 0 -209.5 78t-78.5 194t78 194t210 78zM312 368q-32 0 -57.5 -22.5t-34.5 -57.5h184q-9 35 -34.5 57.5t-57.5 22.5zM312 144q32 0 57.5 22.5t34.5 57.5h-184q9 -35 34.5 -57.5t57.5 -22.5z" />
    <glyph glyph-name="uni04EE" unicode="&#x4ee;" 
d="M496 752h-320v96h320v-96zM448 672h216l-328 -672h-208l104 214l-224 458h216l112 -254z" />
    <glyph glyph-name="uni04EF" unicode="&#x4ef;" horiz-adv-x="560" 
d="M440 592h-320v96h320v-96zM264 -256h-192l112 272l-192 496h192l96 -272l96 272h192z" />
    <glyph glyph-name="Wgrave" unicode="&#x1e80;" horiz-adv-x="1024" 
d="M608 736h-128l-160 160h192zM600 672l96 -400l112 400h216l-224 -672h-200l-88 320l-88 -320h-200l-224 672h216l112 -400l96 400h176z" />
    <glyph glyph-name="wgrave" unicode="&#x1e81;" horiz-adv-x="832" 
d="M512 576h-128l-160 160h192zM640 512h192l-176 -512h-160l-80 248l-80 -248h-160l-176 512h192l68 -264l80 264h152l80 -264z" />
    <glyph glyph-name="Wacute" unicode="&#x1e82;" horiz-adv-x="1024" 
d="M416 736l96 160h192l-160 -160h-128zM600 672l96 -400l112 400h216l-224 -672h-200l-88 320l-88 -320h-200l-224 672h216l112 -400l96 400h176z" />
    <glyph glyph-name="wacute" unicode="&#x1e83;" horiz-adv-x="832" 
d="M320 576l96 160h192l-160 -160h-128zM640 512h192l-176 -512h-160l-80 248l-80 -248h-160l-176 512h192l68 -264l80 264h152l80 -264z" />
    <glyph glyph-name="Wdieresis" unicode="&#x1e84;" horiz-adv-x="1024" 
d="M400 736q-33 0 -56.5 23.5t-23.5 56.5t23.5 56.5t56.5 23.5t56.5 -23.5t23.5 -56.5t-23.5 -56.5t-56.5 -23.5zM624 736q-33 0 -56.5 23.5t-23.5 56.5t23.5 56.5t56.5 23.5t56.5 -23.5t23.5 -56.5t-23.5 -56.5t-56.5 -23.5zM600 672l96 -400l112 400h216l-224 -672h-200
l-88 320l-88 -320h-200l-224 672h216l112 -400l96 400h176z" />
    <glyph glyph-name="wdieresis" unicode="&#x1e85;" horiz-adv-x="832" 
d="M304 576q-33 0 -56.5 23.5t-23.5 56.5t23.5 56.5t56.5 23.5t56.5 -23.5t23.5 -56.5t-23.5 -56.5t-56.5 -23.5zM528 576q-33 0 -56.5 23.5t-23.5 56.5t23.5 56.5t56.5 23.5t56.5 -23.5t23.5 -56.5t-23.5 -56.5t-56.5 -23.5zM640 512h192l-176 -512h-160l-80 248l-80 -248
h-160l-176 512h192l68 -264l80 264h152l80 -264z" />
    <glyph glyph-name="Ygrave" unicode="&#x1ef2;" horiz-adv-x="688" 
d="M440 736h-128l-160 160h192zM472 672h224l-256 -400v-272h-192v272l-256 400h224l128 -208z" />
    <glyph glyph-name="ygrave" unicode="&#x1ef3;" horiz-adv-x="560" 
d="M376 576h-128l-160 160h192zM264 -256h-192l112 272l-192 496h192l96 -272l96 272h192z" />
    <glyph glyph-name="endash" unicode="&#x2013;" horiz-adv-x="528" 
d="M488 200h-448v128h448v-128z" />
    <glyph glyph-name="emdash" unicode="&#x2014;" horiz-adv-x="624" 
d="M584 200h-544v128h544v-128z" />
    <glyph glyph-name="quoteleft" unicode="&#x2018;" horiz-adv-x="272" 
d="M248 672l-48 -240h-176l112 240h112z" />
    <glyph glyph-name="quoteright" unicode="&#x2019;" horiz-adv-x="272" 
d="M24 432l48 240h176l-112 -240h-112z" />
    <glyph glyph-name="quotesinglbase" unicode="&#x201a;" horiz-adv-x="272" 
d="M24 -112l48 240h176l-112 -240h-112z" />
    <glyph glyph-name="quotedblleft" unicode="&#x201c;" horiz-adv-x="512" 
d="M248 672l-48 -240h-176l112 240h112zM488 672l-48 -240h-176l112 240h112z" />
    <glyph glyph-name="quotedblright" unicode="&#x201d;" horiz-adv-x="512" 
d="M24 432l48 240h176l-112 -240h-112zM264 432l48 240h176l-112 -240h-112z" />
    <glyph glyph-name="quotedblbase" unicode="&#x201e;" horiz-adv-x="512" 
d="M24 -112l48 240h176l-112 -240h-112zM264 -112l48 240h176l-112 -240h-112z" />
    <glyph glyph-name="dagger" unicode="&#x2020;" 
d="M616 384h-216l-72 -656l-72 656h-216v128h216v256h144v-256h216v-128z" />
    <glyph glyph-name="daggerdbl" unicode="&#x2021;" 
d="M616 384h-216v-96h216v-128h-225l-63 -432l-63 432h-225v128h216v96h-216v128h216v256h144v-256h216v-128z" />
    <glyph glyph-name="bullet" unicode="&#x2022;" horiz-adv-x="800" 
d="M400 472q57 0 96.5 -39.5t39.5 -96.5t-39.5 -96.5t-96.5 -39.5t-96.5 39.5t-39.5 96.5t39.5 96.5t96.5 39.5z" />
    <glyph glyph-name="ellipsis" unicode="&#x2026;" horiz-adv-x="816" 
d="M136 -16q-40 0 -68 28t-28 68t28 68t68 28t68 -28t28 -68t-28 -68t-68 -28zM408 -16q-40 0 -68 28t-28 68t28 68t68 28t68 -28t28 -68t-28 -68t-68 -28zM680 -16q-40 0 -68 28t-28 68t28 68t68 28t68 -28t28 -68t-28 -68t-68 -28z" />
    <glyph glyph-name="perthousand" unicode="&#x2030;" horiz-adv-x="1232" 
d="M209 352q-70 0 -119.5 49t-49.5 119q0 69 49.5 118.5t119.5 49.5q69 0 118 -49.5t49 -118.5q0 -70 -49 -119t-118 -49zM246 0h-112l468 672h112zM208 464q22 0 39 17t17 39t-17 39t-39 17t-39 -17t-17 -39t17 -39t39 -17zM641 -16q-70 0 -119.5 49t-49.5 119
q0 69 49.5 118.5t119.5 49.5q69 0 118 -49.5t49 -118.5q0 -70 -49 -119t-118 -49zM1025 -16q-70 0 -119.5 49t-49.5 119q0 69 49.5 118.5t119.5 49.5q69 0 118 -49.5t49 -118.5q0 -70 -49 -119t-118 -49zM640 96q22 0 39 17t17 39t-17 39t-39 17t-39 -17t-17 -39t17 -39
t39 -17zM1024 96q22 0 39 17t17 39t-17 39t-39 17t-39 -17t-17 -39t17 -39t39 -17z" />
    <glyph glyph-name="guilsinglleft" unicode="&#x2039;" horiz-adv-x="416" 
d="M200 512h144l-160 -240l160 -240h-144l-160 240z" />
    <glyph glyph-name="guilsinglright" unicode="&#x203a;" horiz-adv-x="416" 
d="M216 512l160 -240l-160 -240h-144l160 240l-160 240h144z" />
    <glyph glyph-name="fraction" unicode="&#x2044;" horiz-adv-x="196" 
d="M-80 0h-112l468 672h112z" />
    <glyph glyph-name="uni2070" unicode="&#x2070;" horiz-adv-x="384" 
d="M192 760q67 0 109.5 -51t42.5 -125t-42.5 -125t-109.5 -51t-109.5 51t-42.5 125t42.5 125t109.5 51zM192 496q23 0 39.5 26t16.5 62q0 37 -16.5 62.5t-39.5 25.5t-39.5 -26t-16.5 -62t16.5 -62t39.5 -26z" />
    <glyph glyph-name="uni2074" unicode="&#x2074;" horiz-adv-x="368" 
d="M288 552h40v-80h-40v-56h-96v56h-168v72l144 208h120v-200zM192 552v104l-64 -104h64z" />
    <glyph glyph-name="uni2075" unicode="&#x2075;" horiz-adv-x="368" 
d="M200 640q128 0 128 -104q0 -59 -40.5 -93.5t-107.5 -34.5q-61 0 -100.5 30t-39.5 82l100 6q2 -16 14.5 -27t29.5 -11q19 0 32.5 13t13.5 31q0 36 -46 36q-27 0 -40 -16h-96l25 200h223v-88h-144l-3 -32q8 4 20.5 6t21.5 2h9z" />
    <glyph glyph-name="uni2076" unicode="&#x2076;" horiz-adv-x="368" 
d="M210 656q56 0 87 -33.5t31 -78.5q0 -61 -39.5 -98.5t-104.5 -37.5q-67 0 -105.5 36.5t-38.5 102.5q0 112 122 205h142q-9 -4 -23.5 -11.5t-48 -34t-54.5 -55.5q10 5 32 5zM184 496q20 0 34 11.5t14 28.5t-14 28.5t-34 11.5t-34 -12t-14 -28t14 -28t34 -12z" />
    <glyph glyph-name="uni2077" unicode="&#x2077;" horiz-adv-x="360" 
d="M56 752h296l-152 -336h-112l120 248h-152v88z" />
    <glyph glyph-name="uni2078" unicode="&#x2078;" horiz-adv-x="368" 
d="M285 594q43 -22 43 -74q0 -48 -38 -80t-106 -32q-67 0 -105.5 32t-38.5 80q0 52 43 74q-36 21 -36 62q0 44 38.5 74t98.5 30q61 0 99 -30t38 -74q0 -41 -36 -62zM184 680q-18 0 -31 -9.5t-13 -22.5t13 -22.5t31 -9.5t31 9.5t13 22.5t-13 22.5t-31 9.5zM184 488
q20 0 34 10.5t14 25.5t-14 25.5t-34 10.5t-34 -10.5t-14 -25.5t14 -25.5t34 -10.5z" />
    <glyph glyph-name="uni2079" unicode="&#x2079;" horiz-adv-x="368" 
d="M158 512q-56 0 -87 34t-31 78q0 62 40 99t104 37q68 0 106 -36t38 -103q0 -112 -121 -205h-143q9 4 23.5 11.5t48.5 34t55 55.5q-11 -5 -33 -5zM184 672q-20 0 -34 -12t-14 -28t14 -28t34 -12t34 11.5t14 28.5t-14 28.5t-34 11.5z" />
    <glyph glyph-name="Euro" unicode="&#x20ac;" horiz-adv-x="704" 
d="M455 160q92 0 152 68l73 -163q-44 -38 -106.5 -59.5t-123.5 -21.5q-130 0 -232 74.5t-134 189.5h-60v64h49q-1 8 -1 24t1 24h-49v64h60q32 115 134 189.5t232 74.5q61 0 123.5 -21t106.5 -59l-73 -164q-60 68 -152 68q-52 0 -96 -24t-69 -64h166l-15 -64h-175
q-2 -16 -2 -24t2 -24h165l-14 -64h-127q25 -40 69 -64t96 -24z" />
    <glyph glyph-name="trademark" unicode="&#x2122;" horiz-adv-x="704" 
d="M40 672h242v-79h-78v-221h-86v221h-78v79zM635 672l29 -300h-86l-14 157l-50 -157h-72l-50 157l-14 -157h-86l29 300h86l71 -179l71 179h86z" />
    <glyph glyph-name="oneeighth" unicode="&#x215b;" horiz-adv-x="924" 
d="M88 640l168 40v-344h-96v237l-72 -14v81zM280 0h-112l468 672h112zM841 178q43 -22 43 -74q0 -48 -38 -80t-106 -32q-67 0 -105.5 32t-38.5 80q0 52 43 74q-36 21 -36 62q0 44 38.5 74t98.5 30q61 0 99 -30t38 -74q0 -41 -36 -62zM740 264q-18 0 -31 -9.5t-13 -22.5
t13 -22.5t31 -9.5t31 9.5t13 22.5t-13 22.5t-31 9.5zM740 72q20 0 34 10.5t14 25.5t-14 25.5t-34 10.5t-34 -10.5t-14 -25.5t14 -25.5t34 -10.5z" />
    <glyph glyph-name="threeeighths" unicode="&#x215c;" horiz-adv-x="932" 
d="M280 514q48 -24 48 -74q0 -43 -37 -77.5t-107 -34.5q-63 0 -103.5 30.5t-40.5 89.5l96 8q0 -46 52 -46q18 0 29.5 9t11.5 23q0 34 -72 34v64h7.5t16 1.5t20.5 4.5t16 9.5t7 16.5q0 11 -11.5 19t-28.5 8q-45 0 -48 -43l-88 8q6 56 42.5 86t93.5 30q63 0 99.5 -30.5
t36.5 -73.5q0 -42 -40 -62zM288 0h-112l468 672h112zM849 178q43 -22 43 -74q0 -48 -38 -80t-106 -32q-67 0 -105.5 32t-38.5 80q0 52 43 74q-36 21 -36 62q0 44 38.5 74t98.5 30q61 0 99 -30t38 -74q0 -41 -36 -62zM748 264q-18 0 -31 -9.5t-13 -22.5t13 -22.5t31 -9.5
t31 9.5t13 22.5t-13 22.5t-31 9.5zM748 72q20 0 34 10.5t14 25.5t-14 25.5t-34 10.5t-34 -10.5t-14 -25.5t14 -25.5t34 -10.5z" />
    <glyph glyph-name="fiveeighths" unicode="&#x215d;" horiz-adv-x="932" 
d="M200 560q128 0 128 -104q0 -59 -40.5 -93.5t-107.5 -34.5q-61 0 -100.5 30t-39.5 82l100 6q2 -16 14.5 -27t29.5 -11q19 0 32.5 13t13.5 31q0 36 -46 36q-27 0 -40 -16h-96l25 200h223v-88h-144l-3 -32q8 4 20.5 6t21.5 2h9zM288 0h-112l468 672h112zM849 178
q43 -22 43 -74q0 -48 -38 -80t-106 -32q-67 0 -105.5 32t-38.5 80q0 52 43 74q-36 21 -36 62q0 44 38.5 74t98.5 30q61 0 99 -30t38 -74q0 -41 -36 -62zM748 264q-18 0 -31 -9.5t-13 -22.5t13 -22.5t31 -9.5t31 9.5t13 22.5t-13 22.5t-31 9.5zM748 72q20 0 34 10.5t14 25.5
t-14 25.5t-34 10.5t-34 -10.5t-14 -25.5t14 -25.5t34 -10.5z" />
    <glyph glyph-name="seveneighths" unicode="&#x215e;" horiz-adv-x="924" 
d="M56 672h296l-152 -336h-112l120 248h-152v88zM280 0h-112l468 672h112zM841 178q43 -22 43 -74q0 -48 -38 -80t-106 -32q-67 0 -105.5 32t-38.5 80q0 52 43 74q-36 21 -36 62q0 44 38.5 74t98.5 30q61 0 99 -30t38 -74q0 -41 -36 -62zM740 264q-18 0 -31 -9.5t-13 -22.5
t13 -22.5t31 -9.5t31 9.5t13 22.5t-13 22.5t-31 9.5zM740 72q20 0 34 10.5t14 25.5t-14 25.5t-34 10.5t-34 -10.5t-14 -25.5t14 -25.5t34 -10.5z" />
    <glyph glyph-name="partialdiff" unicode="&#x2202;" 
d="M220 800q187 -36 291.5 -187.5t104.5 -346.5q0 -121 -80.5 -201.5t-207.5 -80.5q-131 0 -209.5 78t-78.5 194t78 194t210 78q21 0 31 -1q-23 50 -84.5 85.5t-134.5 43.5zM328 144q40 0 68 33t28 79t-28 79t-68 33t-68 -33t-28 -79t28 -79t68 -33z" />
    <glyph glyph-name="emptyset" unicode="&#x2205;" horiz-adv-x="616" 
 />
    <glyph glyph-name="product" unicode="&#x220f;" horiz-adv-x="720" 
d="M664 704v-960h-176v800h-256v-800h-176v960h608z" />
    <glyph glyph-name="summation" unicode="&#x2211;" horiz-adv-x="688" 
d="M274 576l262 -336l-262 -336h358v-160h-576v160l272 336l-272 336v160h576v-160h-358z" />
    <glyph glyph-name="minus" unicode="&#x2212;" horiz-adv-x="512" 
d="M40 360h432v-112h-432v112z" />
    <glyph glyph-name="radical" unicode="&#x221a;" horiz-adv-x="944" 
d="M920 672v-160h-328l-200 -512h-160l-208 512h192l96 -272l145 432h463z" />
    <glyph glyph-name="infinity" unicode="&#x221e;" horiz-adv-x="640" 
d="M433 456q69 0 118 -49.5t49 -118.5q0 -70 -49 -119t-118 -49q-65 0 -113 43q-46 -43 -111 -43q-70 0 -119.5 49t-49.5 119q0 69 49.5 118.5t119.5 49.5q65 0 111 -43q48 43 113 43zM208 232q22 0 39 17t17 39t-17 39t-39 17t-39 -17t-17 -39t17 -39t39 -17zM432 232
q22 0 39 17t17 39t-17 39t-39 17t-39 -17t-17 -39t17 -39t39 -17z" />
    <glyph glyph-name="integral" unicode="&#x222b;" horiz-adv-x="384" 
d="M104 436q0 113 61.5 182.5t178.5 69.5v-160q-29 0 -46.5 -21.5t-17.5 -57.5v-469q0 -113 -61.5 -182.5t-178.5 -69.5v160q29 0 46.5 21.5t17.5 57.5v469z" />
    <glyph glyph-name="approxequal" unicode="&#x2248;" horiz-adv-x="544" 
d="M421 480l83 -32q-53 -112 -144 -112q-13 0 -28.5 4t-25.5 8t-29 12.5t-24 10.5q-26 11 -42 15t-33 2.5t-30 -14.5t-25 -38l-83 32q53 112 144 112q13 0 28.5 -4t25.5 -8.5t28 -12.5t25 -11q43 -22 75.5 -16.5t54.5 52.5zM421 304l83 -32q-53 -112 -144 -112
q-13 0 -28.5 4t-25.5 8t-29 12.5t-24 10.5q-26 11 -42 15t-33 2.5t-30 -14.5t-25 -38l-83 32q53 112 144 112q13 0 28.5 -4t25.5 -8.5t28 -12.5t25 -11q43 -22 75.5 -16.5t54.5 52.5z" />
    <glyph glyph-name="notequal" unicode="&#x2260;" horiz-adv-x="512" 
d="M472 336h-160l-16 -64h176v-112h-202l-38 -160h-96l38 160h-134v112h160l16 64h-176v112h202l38 160h96l-38 -160h134v-112z" />
    <glyph glyph-name="lessequal" unicode="&#x2264;" horiz-adv-x="544" 
d="M504 176l-464 224v96l464 224v-128l-320 -144l320 -144v-128zM504 112v-112h-464v112h464z" />
    <glyph glyph-name="greaterequal" unicode="&#x2265;" horiz-adv-x="544" 
d="M40 176v128l320 144l-320 144v128l464 -224v-96zM40 112h464v-112h-464v112z" />
    <glyph glyph-name="lozenge" unicode="&#x25ca;" horiz-adv-x="624" 
d="M584 336l-272 -352l-272 352l272 352zM440 336l-128 162l-126 -162l126 -162z" />
    <glyph glyph-name="M.ss01" horiz-adv-x="848" 
d="M600 672h192v-672h-192v372l-176 -260l-176 260v-372h-192v672h192l176 -260z" />
    <glyph glyph-name="j.ss01" horiz-adv-x="304" 
d="M152 560q-43 0 -73.5 30.5t-30.5 73.5t30.5 73.5t73.5 30.5t73.5 -30.5t30.5 -73.5t-30.5 -73.5t-73.5 -30.5zM56 -256v768h192v-768h-192z" />
    <glyph glyph-name="t.ss01" horiz-adv-x="416" 
d="M376 352h-96v-352h-192v352h-64v160h64v160h192v-160h96v-160z" />
    <glyph glyph-name="tbar.ss01" horiz-adv-x="416" 
d="M376 352h-96v-32h96v-96h-96v-224h-192v224h-64v96h64v32h-64v160h64v160h192v-160h96v-160z" />
    <glyph glyph-name="tcaron.ss01" horiz-adv-x="608" 
d="M376 352h-96v-352h-192v352h-64v160h64v160h192v-160h96v-160zM408 512l32 160h144l-80 -160h-96z" />
    <glyph glyph-name="uni0163.ss01" horiz-adv-x="416" 
d="M280 0h-25l-45 -48q52 6 89 -25.5t37 -86.5q0 -62 -45.5 -103t-114.5 -41q-92 0 -128 63l62 77q21 -48 66 -52q32 -3 53 15.5t21 40.5q0 26 -15.5 41t-39.5 15q-32 0 -56 -19l-43 59l62 64h-70v352h-64v160h64v160h192v-160h96v-160h-96v-352z" />
    <glyph glyph-name="uni021B.ss01" horiz-adv-x="416" 
d="M376 352h-96v-352h-192v352h-64v160h64v160h192v-160h96v-160zM80 -224l32 160h144l-80 -160h-96z" />
    <glyph glyph-name="f_f.dlig" horiz-adv-x="864" 
d="M824 560q-67 12 -89.5 2.5t-22.5 -50.5h112v-160h-112v-352h-192v352h-240v-352h-192v352h-64v160h64q1 96 40 152t136 56q77 0 128 -16v-144q-67 12 -89.5 2.5t-22.5 -50.5h240q1 96 40 152t136 56q77 0 128 -16v-144z" />
    <glyph glyph-name="f_f_i.dlig" horiz-adv-x="1168" 
d="M1112 512v-512h-192v352h-208v-352h-192v352h-240v-352h-192v352h-64v160h64q1 96 40 152t136 56q77 0 128 -16v-144q-67 12 -89.5 2.5t-22.5 -50.5h240q1 96 40 152t136 56q77 0 128 -16v-144q-67 12 -89.5 2.5t-22.5 -50.5h400z" />
    <glyph glyph-name="f_f_j.dlig" horiz-adv-x="1168" 
d="M1112 512v-496q0 -150 -63.5 -219t-192.5 -69l-32 160q39 0 67.5 27.5t28.5 84.5v352h-208v-352h-192v352h-240v-352h-192v352h-64v160h64q1 96 40 152t136 56q77 0 128 -16v-144q-67 12 -89.5 2.5t-22.5 -50.5h240q1 96 40 152t136 56q77 0 128 -16v-144
q-67 12 -89.5 2.5t-22.5 -50.5h400z" />
    <glyph glyph-name="uni041C.ss01" horiz-adv-x="848" 
d="M600 672h192v-672h-192v372l-176 -260l-176 260v-372h-192v672h192l176 -260z" />
    <glyph glyph-name="uni043C.ss01" horiz-adv-x="736" 
d="M488 512h192v-512h-192v248l-120 -192l-120 192v-248h-192v512h192l120 -200z" />
    <glyph glyph-name="uni0458.ss01" horiz-adv-x="304" 
d="M152 560q-43 0 -73.5 30.5t-30.5 73.5t30.5 73.5t73.5 30.5t73.5 -30.5t30.5 -73.5t-30.5 -73.5t-73.5 -30.5zM56 -256v768h192v-768h-192z" />
    <glyph glyph-name="zero.subs" horiz-adv-x="384" 
d="M192 80q67 0 109.5 -51t42.5 -125t-42.5 -125t-109.5 -51t-109.5 51t-42.5 125t42.5 125t109.5 51zM192 -184q23 0 39.5 26t16.5 62q0 37 -16.5 62.5t-39.5 25.5t-39.5 -26t-16.5 -62t16.5 -62t39.5 -26z" />
    <glyph glyph-name="one.subs" horiz-adv-x="360" 
d="M88 40l168 40v-344h-96v237l-72 -14v81z" />
    <glyph glyph-name="two.subs" horiz-adv-x="368" 
d="M40 -48q0 50 36.5 89t100.5 39q65 0 104 -34t39 -89q0 -72 -95 -133h103v-88h-288l144 152q39 41 39 64q0 18 -12 29t-31 11t-32.5 -13t-13.5 -35z" />
    <glyph glyph-name="three.subs" horiz-adv-x="368" 
d="M280 -86q48 -24 48 -74q0 -43 -37 -77.5t-107 -34.5q-63 0 -103.5 30.5t-40.5 89.5l96 8q0 -46 52 -46q18 0 29.5 9t11.5 23q0 34 -72 34v64h7.5t16 1.5t20.5 4.5t16 9.5t7 16.5q0 11 -11.5 19t-28.5 8q-45 0 -48 -43l-88 8q6 56 42.5 86t93.5 30q63 0 99.5 -30.5
t36.5 -73.5q0 -42 -40 -62z" />
    <glyph glyph-name="four.subs" horiz-adv-x="368" 
d="M288 -128h40v-80h-40v-56h-96v56h-168v72l144 208h120v-200zM192 -128v104l-64 -104h64z" />
    <glyph glyph-name="five.subs" horiz-adv-x="368" 
d="M200 -40q128 0 128 -104q0 -59 -40.5 -93.5t-107.5 -34.5q-61 0 -100.5 30t-39.5 82l100 6q2 -16 14.5 -27t29.5 -11q19 0 32.5 13t13.5 31q0 36 -46 36q-27 0 -40 -16h-96l25 200h223v-88h-144l-3 -32q8 4 20.5 6t21.5 2h9z" />
    <glyph glyph-name="six.subs" horiz-adv-x="368" 
d="M210 -24q56 0 87 -33.5t31 -78.5q0 -61 -39.5 -98.5t-104.5 -37.5q-67 0 -105.5 36.5t-38.5 102.5q0 112 122 205h142q-9 -4 -23.5 -11.5t-48 -34t-54.5 -55.5q10 5 32 5zM184 -184q20 0 34 11.5t14 28.5t-14 28.5t-34 11.5t-34 -12t-14 -28t14 -28t34 -12z" />
    <glyph glyph-name="seven.subs" horiz-adv-x="360" 
d="M56 72h296l-152 -336h-112l120 248h-152v88z" />
    <glyph glyph-name="eight.subs" horiz-adv-x="368" 
d="M285 -86q43 -22 43 -74q0 -48 -38 -80t-106 -32q-67 0 -105.5 32t-38.5 80q0 52 43 74q-36 21 -36 62q0 44 38.5 74t98.5 30q61 0 99 -30t38 -74q0 -41 -36 -62zM184 0q-18 0 -31 -9.5t-13 -22.5t13 -22.5t31 -9.5t31 9.5t13 22.5t-13 22.5t-31 9.5zM184 -192
q20 0 34 10.5t14 25.5t-14 25.5t-34 10.5t-34 -10.5t-14 -25.5t14 -25.5t34 -10.5z" />
    <glyph glyph-name="nine.subs" horiz-adv-x="368" 
d="M158 -168q-56 0 -87 34t-31 78q0 62 40 99t104 37q68 0 106 -36t38 -103q0 -112 -121 -205h-143q9 4 23.5 11.5t48.5 34t55 55.5q-11 -5 -33 -5zM184 -8q-20 0 -34 -12t-14 -28t14 -28t34 -12t34 11.5t14 28.5t-14 28.5t-34 11.5z" />
    <glyph glyph-name="zero.tf" horiz-adv-x="688" 
d="M344 688q133 0 218.5 -102t85.5 -250t-85.5 -250t-218.5 -102q-135 0 -219.5 101.5t-84.5 250.5q0 148 85 250t219 102zM344 160q46 0 79 51.5t33 124.5t-33 124.5t-79 51.5t-79 -51.5t-33 -124.5t33 -124.5t79 -51.5z" />
    <glyph glyph-name="one.tf" horiz-adv-x="688" 
d="M160 608l336 80v-688h-192v473l-144 -28v163z" />
    <glyph glyph-name="two.tf" horiz-adv-x="688" 
d="M56 432q0 100 73 178t200 78q130 0 208.5 -68.5t78.5 -178.5q0 -67 -49 -137t-141 -128h206v-176h-576l288 304q78 83 78 128q0 37 -24 58.5t-62 21.5q-39 0 -66 -26t-27 -70z" />
    <glyph glyph-name="three.tf" horiz-adv-x="688" 
d="M536 355q43 -21 69.5 -60t26.5 -87q0 -86 -74 -155t-214 -69q-126 0 -207 60.5t-81 179.5l192 16q0 -92 103 -92q36 0 59 18t23 45q0 37 -36 53t-107 16v128h14.5t32.5 3t40.5 8.5t32 19t14.5 32.5q0 22 -23 38.5t-57 16.5q-40 0 -67 -21.5t-29 -64.5l-176 16
q12 112 85 172t187 60q126 0 199 -61t73 -147q0 -83 -80 -125z" />
    <glyph glyph-name="four.tf" horiz-adv-x="688" 
d="M568 272h80v-160h-80v-112h-192v112h-336v144l288 416h240v-400zM376 272v208l-128 -208h128z" />
    <glyph glyph-name="five.tf" horiz-adv-x="688" 
d="M376 448q122 0 189 -52t67 -156q0 -119 -81 -187.5t-215 -68.5q-123 0 -201.5 59.5t-78.5 164.5l199 12q5 -33 30 -54.5t59 -21.5q38 0 64.5 25.5t26.5 62.5q0 35 -25.5 53.5t-65.5 18.5q-53 0 -80 -32h-193l51 400h446v-176h-288l-6 -64q15 7 40.5 11t43.5 5h18z" />
    <glyph glyph-name="six.tf" horiz-adv-x="688" 
d="M396 480q112 0 174 -67.5t62 -156.5q0 -123 -79.5 -197.5t-208.5 -74.5q-135 0 -211.5 72.5t-76.5 205.5q0 22 2.5 45t16.5 69t38 89.5t72 100t114 106.5h285q-6 -3 -17.5 -8.5t-44 -24.5t-62 -41t-66 -56.5t-63.5 -71.5q21 10 65 10zM344 160q40 0 68 23.5t28 56.5
t-28 56.5t-68 23.5t-68 -23.5t-28 -56.5t28 -56.5t68 -23.5z" />
    <glyph glyph-name="seven.tf" horiz-adv-x="688" 
d="M56 672h592l-304 -672h-224l240 496h-304v176z" />
    <glyph glyph-name="eight.tf" horiz-adv-x="688" 
d="M546 355q39 -19 62.5 -58.5t23.5 -88.5q0 -96 -76.5 -160t-211.5 -64t-211.5 64t-76.5 160q0 49 23.5 88.5t62.5 58.5q-72 43 -72 125q0 89 77.5 148.5t196.5 59.5q120 0 197 -60t77 -148q0 -82 -72 -125zM344 528q-36 0 -62 -18.5t-26 -45.5t26 -45.5t62 -18.5t62 18.5
t26 45.5t-26 45.5t-62 18.5zM344 144q40 0 68 21t28 51t-28 51t-68 21t-68 -21t-28 -51t28 -51t68 -21z" />
    <glyph glyph-name="nine.tf" horiz-adv-x="688" 
d="M292 192q-112 0 -174 67.5t-62 156.5q0 123 79.5 197.5t208.5 74.5q135 0 211.5 -72.5t76.5 -205.5q0 -22 -2.5 -45t-16.5 -69t-38 -89.5t-72 -100t-114 -106.5h-285q6 3 17.5 8.5t44 24.5t62 41t66 56.5t63.5 71.5q-21 -10 -65 -10zM344 512q-40 0 -68 -23.5t-28 -56.5
t28 -56.5t68 -23.5t68 23.5t28 56.5t-28 56.5t-68 23.5z" />
    <glyph glyph-name="zero.zero" horiz-adv-x="688" 
d="M344 688q133 0 218.5 -102t85.5 -250t-85.5 -250t-218.5 -102q-135 0 -219.5 101.5t-84.5 250.5q0 148 85 250t219 102zM344 512q-46 0 -79 -51.5t-33 -124.5q0 -32 8 -64l175 200q-32 40 -71 40zM344 160q46 0 79 51.5t33 124.5q0 32 -8 64l-175 -200q32 -40 71 -40z
" />
    <glyph glyph-name="zero.tf.zero" horiz-adv-x="688" 
d="M344 688q133 0 218.5 -102t85.5 -250t-85.5 -250t-218.5 -102q-135 0 -219.5 101.5t-84.5 250.5q0 148 85 250t219 102zM344 512q-46 0 -79 -51.5t-33 -124.5q0 -32 8 -64l175 200q-32 40 -71 40zM344 160q46 0 79 51.5t33 124.5q0 32 -8 64l-175 -200q32 -40 71 -40z
" />
    <glyph glyph-name="zero.dnom" horiz-adv-x="384" 
d="M192 344q67 0 109.5 -51t42.5 -125t-42.5 -125t-109.5 -51t-109.5 51t-42.5 125t42.5 125t109.5 51zM192 80q23 0 39.5 26t16.5 62q0 37 -16.5 62.5t-39.5 25.5t-39.5 -26t-16.5 -62t16.5 -62t39.5 -26z" />
    <glyph glyph-name="one.dnom" horiz-adv-x="360" 
d="M88 304l168 40v-344h-96v237l-72 -14v81z" />
    <glyph glyph-name="two.dnom" horiz-adv-x="368" 
d="M40 216q0 50 36.5 89t100.5 39q65 0 104 -34t39 -89q0 -72 -95 -133h103v-88h-288l144 152q39 41 39 64q0 18 -12 29t-31 11t-32.5 -13t-13.5 -35z" />
    <glyph glyph-name="three.dnom" horiz-adv-x="368" 
d="M280 178q48 -24 48 -74q0 -43 -37 -77.5t-107 -34.5q-63 0 -103.5 30.5t-40.5 89.5l96 8q0 -46 52 -46q18 0 29.5 9t11.5 23q0 34 -72 34v64h7.5t16 1.5t20.5 4.5t16 9.5t7 16.5q0 11 -11.5 19t-28.5 8q-45 0 -48 -43l-88 8q6 56 42.5 86t93.5 30q63 0 99.5 -30.5
t36.5 -73.5q0 -42 -40 -62z" />
    <glyph glyph-name="four.dnom" horiz-adv-x="368" 
d="M288 136h40v-80h-40v-56h-96v56h-168v72l144 208h120v-200zM192 136v104l-64 -104h64z" />
    <glyph glyph-name="five.dnom" horiz-adv-x="368" 
d="M200 224q128 0 128 -104q0 -59 -40.5 -93.5t-107.5 -34.5q-61 0 -100.5 30t-39.5 82l100 6q2 -16 14.5 -27t29.5 -11q19 0 32.5 13t13.5 31q0 36 -46 36q-27 0 -40 -16h-96l25 200h223v-88h-144l-3 -32q8 4 20.5 6t21.5 2h9z" />
    <glyph glyph-name="six.dnom" horiz-adv-x="368" 
d="M210 240q56 0 87 -33.5t31 -78.5q0 -61 -39.5 -98.5t-104.5 -37.5q-67 0 -105.5 36.5t-38.5 102.5q0 112 122 205h142q-9 -4 -23.5 -11.5t-48 -34t-54.5 -55.5q10 5 32 5zM184 80q20 0 34 11.5t14 28.5t-14 28.5t-34 11.5t-34 -12t-14 -28t14 -28t34 -12z" />
    <glyph glyph-name="seven.dnom" horiz-adv-x="360" 
d="M56 336h296l-152 -336h-112l120 248h-152v88z" />
    <glyph glyph-name="eight.dnom" horiz-adv-x="368" 
d="M285 178q43 -22 43 -74q0 -48 -38 -80t-106 -32q-67 0 -105.5 32t-38.5 80q0 52 43 74q-36 21 -36 62q0 44 38.5 74t98.5 30q61 0 99 -30t38 -74q0 -41 -36 -62zM184 264q-18 0 -31 -9.5t-13 -22.5t13 -22.5t31 -9.5t31 9.5t13 22.5t-13 22.5t-31 9.5zM184 72
q20 0 34 10.5t14 25.5t-14 25.5t-34 10.5t-34 -10.5t-14 -25.5t14 -25.5t34 -10.5z" />
    <glyph glyph-name="nine.dnom" horiz-adv-x="368" 
d="M158 96q-56 0 -87 34t-31 78q0 62 40 99t104 37q68 0 106 -36t38 -103q0 -112 -121 -205h-143q9 4 23.5 11.5t48.5 34t55 55.5q-11 -5 -33 -5zM184 256q-20 0 -34 -12t-14 -28t14 -28t34 -12t34 11.5t14 28.5t-14 28.5t-34 11.5z" />
    <glyph glyph-name="zero.numr" horiz-adv-x="384" 
d="M192 680q67 0 109.5 -51t42.5 -125t-42.5 -125t-109.5 -51t-109.5 51t-42.5 125t42.5 125t109.5 51zM192 416q23 0 39.5 26t16.5 62q0 37 -16.5 62.5t-39.5 25.5t-39.5 -26t-16.5 -62t16.5 -62t39.5 -26z" />
    <glyph glyph-name="one.numr" horiz-adv-x="360" 
d="M88 640l168 40v-344h-96v237l-72 -14v81z" />
    <glyph glyph-name="two.numr" horiz-adv-x="368" 
d="M40 552q0 50 36.5 89t100.5 39q65 0 104 -34t39 -89q0 -72 -95 -133h103v-88h-288l144 152q39 41 39 64q0 18 -12 29t-31 11t-32.5 -13t-13.5 -35z" />
    <glyph glyph-name="three.numr" horiz-adv-x="368" 
d="M280 514q48 -24 48 -74q0 -43 -37 -77.5t-107 -34.5q-63 0 -103.5 30.5t-40.5 89.5l96 8q0 -46 52 -46q18 0 29.5 9t11.5 23q0 34 -72 34v64h7.5t16 1.5t20.5 4.5t16 9.5t7 16.5q0 11 -11.5 19t-28.5 8q-45 0 -48 -43l-88 8q6 56 42.5 86t93.5 30q63 0 99.5 -30.5
t36.5 -73.5q0 -42 -40 -62z" />
    <glyph glyph-name="four.numr" horiz-adv-x="368" 
d="M288 472h40v-80h-40v-56h-96v56h-168v72l144 208h120v-200zM192 472v104l-64 -104h64z" />
    <glyph glyph-name="five.numr" horiz-adv-x="368" 
d="M200 560q128 0 128 -104q0 -59 -40.5 -93.5t-107.5 -34.5q-61 0 -100.5 30t-39.5 82l100 6q2 -16 14.5 -27t29.5 -11q19 0 32.5 13t13.5 31q0 36 -46 36q-27 0 -40 -16h-96l25 200h223v-88h-144l-3 -32q8 4 20.5 6t21.5 2h9z" />
    <glyph glyph-name="six.numr" horiz-adv-x="368" 
d="M210 576q56 0 87 -33.5t31 -78.5q0 -61 -39.5 -98.5t-104.5 -37.5q-67 0 -105.5 36.5t-38.5 102.5q0 112 122 205h142q-9 -4 -23.5 -11.5t-48 -34t-54.5 -55.5q10 5 32 5zM184 416q20 0 34 11.5t14 28.5t-14 28.5t-34 11.5t-34 -12t-14 -28t14 -28t34 -12z" />
    <glyph glyph-name="seven.numr" horiz-adv-x="360" 
d="M56 672h296l-152 -336h-112l120 248h-152v88z" />
    <glyph glyph-name="eight.numr" horiz-adv-x="368" 
d="M285 514q43 -22 43 -74q0 -48 -38 -80t-106 -32q-67 0 -105.5 32t-38.5 80q0 52 43 74q-36 21 -36 62q0 44 38.5 74t98.5 30q61 0 99 -30t38 -74q0 -41 -36 -62zM184 600q-18 0 -31 -9.5t-13 -22.5t13 -22.5t31 -9.5t31 9.5t13 22.5t-13 22.5t-31 9.5zM184 408
q20 0 34 10.5t14 25.5t-14 25.5t-34 10.5t-34 -10.5t-14 -25.5t14 -25.5t34 -10.5z" />
    <glyph glyph-name="nine.numr" horiz-adv-x="368" 
d="M158 432q-56 0 -87 34t-31 78q0 62 40 99t104 37q68 0 106 -36t38 -103q0 -112 -121 -205h-143q9 4 23.5 11.5t48.5 34t55 55.5q-11 -5 -33 -5zM184 592q-20 0 -34 -12t-14 -28t14 -28t34 -12t34 11.5t14 28.5t-14 28.5t-34 11.5z" />
    <glyph glyph-name="exclam.case" horiz-adv-x="304" 
d="M88 224l-32 448h192l-32 -448h-128zM152 -16q-40 0 -68 28t-28 68t28 68t68 28t68 -28t28 -68t-28 -68t-68 -28z" />
    <glyph glyph-name="exclamdown.case" horiz-adv-x="304" 
d="M152 688q40 0 68 -28t28 -68t-28 -68t-68 -28t-68 28t-28 68t28 68t68 28zM88 448h128l32 -448h-192z" />
    <glyph glyph-name="question.case" horiz-adv-x="568" 
d="M280 688q131 0 189.5 -54.5t58.5 -137.5q0 -49 -21 -80t-75 -80q-20 -18 -32.5 -31.5t-26 -40.5t-13.5 -56h-160q0 98 52 152q11 11 30 29t26 25.5t13.5 19t6.5 22.5q0 61 -89 61q-82 0 -130 -49l-69 140q93 80 240 80zM280 176q40 0 68 -28t28 -68t-28 -68t-68 -28
t-68 28t-28 68t28 68t68 28z" />
    <glyph glyph-name="questiondown.case" horiz-adv-x="568" 
d="M288 496q-40 0 -68 28t-28 68t28 68t68 28t68 -28t28 -68t-28 -68t-68 -28zM288 -16q-131 0 -189.5 54.5t-58.5 137.5q0 49 21 80t75 80q20 18 32.5 31.5t26 40.5t13.5 56h160q0 -98 -52 -152q-11 -11 -30 -29t-26 -25.5t-13.5 -19t-6.5 -22.5q0 -61 89 -61q82 0 130 49
l69 -140q-93 -80 -240 -80z" />
    <glyph glyph-name="braceleft.case" horiz-adv-x="432" 
d="M312 10q0 -39 20 -68t60 -38l-112 -96q-144 53 -144 182v234q0 40 -31.5 71.5t-64.5 40.5q33 9 64.5 40.5t31.5 71.5v234q0 129 144 182l112 -96q-40 -9 -60 -38t-20 -68v-180q0 -114 -75 -146q75 -32 75 -146v-180z" />
    <glyph glyph-name="braceright.case" horiz-adv-x="432" 
d="M120 10v180q0 114 75 146q-75 32 -75 146v180q0 39 -20 68t-60 38l112 96q144 -53 144 -182v-234q0 -40 31.5 -71.5t64.5 -40.5q-33 -9 -64.5 -40.5t-31.5 -71.5v-234q0 -129 -144 -182l-112 96q40 9 60 38t20 68z" />
    <glyph glyph-name="bracketleft.case" horiz-adv-x="368" 
d="M232 696v-720h80v-160h-256v1040h256v-160h-80z" />
    <glyph glyph-name="bracketright.case" horiz-adv-x="368" 
d="M136 696h-80v160h256v-1040h-256v160h80v720z" />
    <glyph glyph-name="parenleft.case" horiz-adv-x="368" 
d="M344 752q-128 -194 -128 -416t128 -416l-176 -48q-128 232 -128 464t128 464z" />
    <glyph glyph-name="parenright.case" horiz-adv-x="368" 
d="M24 752l176 48q128 -232 128 -464t-128 -464l-176 48q128 194 128 416t-128 416z" />
    <glyph glyph-name="emdash.case" horiz-adv-x="624" 
d="M584 272h-544v128h544v-128z" />
    <glyph glyph-name="endash.case" horiz-adv-x="528" 
d="M488 272h-448v128h448v-128z" />
    <glyph glyph-name="hyphen.case" horiz-adv-x="400" 
d="M360 272h-320v128h320v-128z" />
    <glyph glyph-name="guillemotleft.case" horiz-adv-x="672" 
d="M344 576l-160 -240l160 -240h-144l-160 240l160 240h144zM600 576l-160 -240l160 -240h-144l-160 240l160 240h144z" />
    <glyph glyph-name="guillemotright.case" horiz-adv-x="672" 
d="M72 576h144l160 -240l-160 -240h-144l160 240zM328 576h144l160 -240l-160 -240h-144l160 240z" />
    <glyph glyph-name="guilsinglleft.case" horiz-adv-x="416" 
d="M200 576h144l-160 -240l160 -240h-144l-160 240z" />
    <glyph glyph-name="guilsinglright.case" horiz-adv-x="416" 
d="M216 576l160 -240l-160 -240h-144l160 240l-160 240h144z" />
    <glyph glyph-name="ampersand.ss01" horiz-adv-x="832" 
d="M792 320l-149 -145l132 -175h-223l-42 53q-98 -69 -206 -69q-111 0 -187.5 59.5t-76.5 164.5q0 50 20.5 90.5t53.5 66t62.5 40t59.5 23.5l-180 244h544v-176h-200l151 -199l25 23h216zM318 144q57 0 103 35l-96 129q-46 -10 -69.5 -36t-23.5 -52q0 -34 24.5 -55t61.5 -21
z" />
    <glyph glyph-name="brevecy" horiz-adv-x="616" 
 />
    </font>
</defs>
</svg>
