<?xml version="1.0" encoding="utf-8"?>
<!-- Generator: Adobe Illustrator 24.1.3, SVG Export Plug-In . SVG Version: 6.00 Build 0)  -->
<svg version="1.1" id="Layer_1" xmlns="http://www.w3.org/2000/svg" xmlns:xlink="http://www.w3.org/1999/xlink" x="0px" y="0px"
	 viewBox="0 0 69.2 18" style="enable-background:new 0 0 69.2 18;" xml:space="preserve">
<style type="text/css">
	.st0{fill:#0053FF;}
	.st1{fill:#302F3E;}
</style>
<g>
	<g>
		<path class="st0" d="M23.4,1.8c-1,0-1.8,0.8-1.8,1.8v3.6h-0.2C20.6,3.1,17,0,12.6,0c-4.4,0-8,3.1-8.8,7.2H3.6V3.6
			c0-1-0.8-1.8-1.8-1.8H0v14.4h1.8c1,0,1.8-0.8,1.8-1.8v-3.6h0.2c0,0,0,0,0,0c0.8,4.1,4.5,7.2,8.8,7.2c4.4,0,8-3.1,8.8-7.2
			c0,0,0,0,0,0h0.2v3.6c0,1,0.8,1.8,1.8,1.8h1.8V1.8H23.4z M17.2,10.2H17l-1.6,2.3c-0.1,0.2-0.3,0.3-0.6,0.3c0,0-0.1,0-0.1,0
			c-0.3,0-0.5-0.2-0.5-0.5l-1.2-4l-1.2,4c-0.1,0.3-0.3,0.5-0.6,0.5c-0.3,0-0.5-0.2-0.7-0.4l-1.3-3L9.1,9.9c-0.1,0.2-0.4,0.4-0.6,0.4
			H7.7C7.3,10.2,7,9.9,7,9.6c0-0.4,0.3-0.7,0.7-0.7h0.4l0.8-1.4c0.1-0.2,0.4-0.4,0.6-0.4c0.3,0,0.5,0.2,0.6,0.4l1.1,2.6l1.3-4.4
			c0.1-0.3,0.3-0.5,0.6-0.5c0.3,0,0.6,0.2,0.6,0.5l1.4,4.9l1-1.4c0.1-0.2,0.3-0.3,0.6-0.3h0.6c0.4,0,0.7,0.3,0.7,0.7
			C17.9,9.9,17.6,10.2,17.2,10.2z"/>
	</g>
</g>
<g>
	<g>
		<path class="st1" d="M39.6,2.1v13.8h-3.9v-5.1h-4.6v5.1h-3.9V2.1h3.9v5.1h4.6V2.1H39.6z"/>
	</g>
	<g>
		<path class="st1" d="M55.7,9c0,4-3.4,7.2-7.5,7.2S40.6,13,40.6,9c0-4,3.4-7.2,7.5-7.2S55.7,5,55.7,9z M51.8,9c0-2-1.6-3.6-3.6-3.6
			c-2,0-3.6,1.6-3.6,3.6s1.6,3.6,3.6,3.6C50.2,12.6,51.8,11,51.8,9z"/>
	</g>
	<g>
		<path class="st1" d="M69.2,2.1v13.8h-3.9v-5.1h-4.6v5.1h-3.9V2.1h3.9v5.1h4.6V2.1H69.2z"/>
	</g>
</g>
</svg>
